<?xml version="1.0" encoding="utf-8"?>
<!-- Generator: Adobe Illustrator 27.5.0, SVG Export Plug-In . SVG Version: 6.00 Build 0)  -->
<svg version="1.1" id="Layer_1" xmlns="http://www.w3.org/2000/svg" xmlns:xlink="http://www.w3.org/1999/xlink" x="0px" y="0px"
	 viewBox="0 0 1378.3 178.9" style="enable-background:new 0 0 1378.3 178.9;" xml:space="preserve">
<style type="text/css">
	.st0{fill:#378EFC;}
	.st1{fill:#00AEFA;}
	.st2{fill:#252C34;}
</style>
<g>
	<path class="st0" d="M110.7,39.8c-1.1,0.3-2.1,0.7-3.2,1.2l-88,36.4c-1.8,0.7-3.5,1.6-5.1,2.4c-1.9,1-4.2,0.4-5.6-1.2
		c-8.8-11-11.5-26.3-5.8-40.3L16.7,5.5c0.9-2.3,3.5-3.3,5.8-2.4L92.2,32v0.1L110.7,39.8L110.7,39.8z"/>
	<path class="st1" d="M166.8,81.4c0.4,1.7,0.7,3.5,0.8,5.2C167.6,84.9,167.3,83.1,166.8,81.4z M167.7,93.4c-0.2,1.8-0.4,3.5-0.8,5.2
		C167.3,96.8,167.6,95.1,167.7,93.4z"/>
	<path class="st1" d="M166.8,98.6c0.4-1.7,0.7-3.5,0.8-5.2C167.5,95.2,167.2,96.9,166.8,98.6z"/>
	<path class="st1" d="M167.7,92.1c-0.1,1.8-0.3,3.6-0.7,5.3c-0.4,2-0.9,4-1.6,6c-0.2,0.5-0.4,1.1-0.6,1.6c-0.4,1.2-1,2.3-1.6,3.5
		c-0.4,0.8-0.8,1.6-1.3,2.3c-0.4,0.8-0.9,1.5-1.4,2.2c-0.7,1.1-1.5,2-2.4,3c-0.5,0.7-1.1,1.3-1.7,1.9c-0.5,0.6-1,1.1-1.6,1.6
		c-1.6,1.5-3.5,2.9-5.4,4.1c-0.6,0.4-1.2,0.8-1.8,1.2c-0.3,0.2-0.6,0.3-0.8,0.4c-0.7,0.4-1.3,0.7-2,1c-0.1,0-0.2,0.1-0.3,0.1
		c-0.4,0.2-0.9,0.4-1.4,0.6l-1.1,0.4l-49.9,20.7l0.1,0.1l-65.6,27.2c-4.5,1.9-9.7-0.3-11.6-4.8L3.1,141.8c-8.3-20,1-42.9,20.7-51.7
		c0.3-0.1,0.6-0.3,0.9-0.4l88-36.4c4.9-2.1,10.1-3.1,15.2-3.1s9.7,0.9,14.2,2.6c0.4,0.1,0.7,0.3,1.1,0.4c0.9,0.4,1.8,0.8,2.7,1.2
		c0.6,0.3,1.3,0.6,1.9,1c0.6,0.4,1.2,0.7,1.8,1.2c0.2,0.1,0.4,0.2,0.6,0.4c0.7,0.4,1.4,0.9,2,1.5l0,0c0.6,0.4,1.2,0.9,1.8,1.4
		c0.4,0.3,0.8,0.7,1.2,1c2,1.9,3.9,4,5.4,6.3c0.5,0.7,1,1.4,1.4,2.2c0.5,0.8,0.9,1.5,1.3,2.4c0.5,1,1,2,1.5,3.1
		c0,0.1,0.1,0.2,0.1,0.3c0.3,0.5,0.4,1.1,0.6,1.6c0.6,1.6,1.1,3.2,1.4,4.8c0.4,1.7,0.7,3.5,0.8,5.2c0,0.4,0,0.7,0,1.1
		c0.1,1.5,0.1,2.9,0,4.4L167.7,92.1z"/>
	<path class="st2" d="M696.2,63.1c5.5-9.3,12.9-16.6,22.3-21.9c9.4-5.3,19.7-7.9,30.8-7.9c12.8,0,24.2,3.2,34.1,9.4
		c9.3,5.9,16.3,14.1,20.8,24.7c0.4,1-0.3,2-1.4,2h-20.6c-0.5,0-1.1-0.3-1.3-0.8c-3.1-5.9-7.3-10.4-12.6-13.4
		c-5.3-3-11.9-4.7-19.2-4.7c-8,0-15,1.8-21.2,5.3c-6.2,3.6-11.1,8.7-14.6,15.4c-3.5,6.7-5.3,14.5-5.3,23.3s1.7,16.6,5.3,23.3
		s8.4,11.8,14.6,15.4s13.3,5.4,21.2,5.4c7.3,0,13.7-1.6,19.2-4.7c5.3-3,9.5-7.4,12.6-13.4c0.3-0.5,0.8-0.8,1.3-0.8h20.6
		c1.1,0,1.8,1.1,1.4,2c-4.5,10.5-11.5,18.7-20.8,24.6c-10,6.2-21.3,9.3-34.1,9.3c-11.3,0-21.6-2.6-30.9-7.9
		c-9.3-5.3-16.7-12.5-22.2-21.9c-5.5-9.3-8.2-19.8-8.2-31.6S690.7,72.4,696.2,63.1L696.2,63.1z"/>
	<path class="st2" d="M838.3,150.4c-7.3-4.1-13-9.8-17.1-17.3c-4.1-7.4-6.2-16-6.2-25.8s2.1-18.2,6.4-25.7
		c4.3-7.5,10.1-13.3,17.4-17.3c7.4-4,15.6-6.1,24.7-6.1c9.1,0,17.3,2,24.7,6.1c7.4,4,13.2,9.8,17.4,17.3s6.4,16.1,6.4,25.7
		s-2.2,18.2-6.6,25.7c-4.4,7.5-10.3,13.3-17.9,17.4s-15.9,6.1-25,6.1S845.5,154.5,838.3,150.4L838.3,150.4z M876.9,135.8
		c4.5-2.4,8-6.1,10.8-10.9c2.8-4.9,4.1-10.7,4.1-17.6s-1.3-12.8-4-17.5c-2.7-4.8-6.2-8.4-10.5-10.8c-4.4-2.4-9.1-3.6-14.2-3.6
		s-9.7,1.2-14.1,3.6c-4.3,2.4-7.7,6-10.3,10.8c-2.5,4.8-3.8,10.6-3.8,17.5c0,10.2,2.6,18.2,7.9,23.8c5.3,5.6,11.8,8.4,19.8,8.4
		C867.8,139.4,872.6,138.2,876.9,135.8L876.9,135.8z"/>
	<path class="st2" d="M991.4,62.9c5.9,3.1,10.5,7.7,13.9,13.8c3.3,6.1,5,13.5,5,22.1v54.7c0,0.8-0.7,1.5-1.5,1.5h-16.6
		c-0.8,0-1.5-0.7-1.5-1.5v-51.7c0-8.5-2.1-15-6.4-19.6c-4.3-4.5-10.1-6.8-17.4-6.8c-7.4,0-13.2,2.3-17.5,6.8
		c-4.3,4.5-6.5,11.1-6.5,19.6v51.7c0,0.8-0.7,1.5-1.5,1.5h-16.7c-0.8,0-1.5-0.7-1.5-1.5V61.2c0-0.8,0.7-1.5,1.5-1.5h16.7
		c0.8,0,1.5,0.7,1.5,1.5v7.4c0,0.7,0.8,1,1.2,0.5c3-3.2,6.7-5.8,11.1-7.7c5-2.2,10.3-3.3,16-3.3C978.7,58.2,985.4,59.8,991.4,62.9
		L991.4,62.9z"/>
	<path class="st2" d="M1090.9,62.9c5.9,3.1,10.5,7.7,13.9,13.8c3.3,6.1,5,13.5,5,22.1v54.7c0,0.8-0.7,1.5-1.5,1.5h-16.6
		c-0.8,0-1.5-0.7-1.5-1.5v-51.7c0-8.5-2.1-15-6.4-19.6c-4.3-4.5-10.1-6.8-17.4-6.8s-13.2,2.3-17.5,6.8c-4.3,4.5-6.5,11.1-6.5,19.6
		v51.7c0,0.8-0.7,1.5-1.5,1.5h-16.7c-0.8,0-1.5-0.7-1.5-1.5V61.2c0-0.8,0.7-1.5,1.5-1.5h16.7c0.8,0,1.5,0.7,1.5,1.5v7.4
		c0,0.7,0.8,1,1.2,0.5c3-3.2,6.7-5.8,11.1-7.7c5-2.2,10.3-3.3,16-3.3C1078.2,58.2,1084.9,59.8,1090.9,62.9L1090.9,62.9z"/>
	<path class="st2" d="M1213.2,114.7h-70.6c-0.4,0-0.8,0.4-0.8,0.8c0.7,7.2,3.5,13,8.4,17.5c5.1,4.6,11.3,6.9,18.6,6.9
		c10.3,0,17.6-4.2,22-12.5c0.3-0.5,0.8-0.8,1.3-0.8h18.2c1,0,1.7,1,1.4,2c-3,7.9-8,14.4-15,19.5c-7.6,5.6-16.9,8.4-28.1,8.4
		c-9.1,0-17.3-2-24.4-6.1c-7.2-4.1-12.9-9.8-16.9-17.3c-4.1-7.4-6.1-16-6.1-25.8s2-18.4,6-25.8c4-7.4,9.6-13.2,16.8-17.2
		s15.4-6.1,24.8-6.1s17,2,24,5.9c7,3.9,12.5,9.4,16.4,16.5c3.9,7.1,5.9,15.2,5.9,24.4c0,3.1-0.2,5.9-0.5,8.4
		C1214.6,114.2,1214,114.7,1213.2,114.7L1213.2,114.7z M1193.8,98.8c0.4,0,0.8-0.4,0.8-0.8c-0.3-6.9-2.8-12.5-7.7-16.7
		c-5.1-4.4-11.3-6.6-18.8-6.6c-6.8,0-12.6,2.1-17.4,6.5c-4.6,4.1-7.5,9.7-8.5,16.7c0,0.4,0.3,0.8,0.8,0.8H1193.8L1193.8,98.8z"/>
	<path class="st2" d="M1231.5,81.4c4-7.4,9.5-13.2,16.5-17.2c7-4,15.1-6.1,24.2-6.1c11.5,0,21.1,2.7,28.6,8.2
		c7.1,5.1,12,12.3,14.8,21.5c0.3,0.9-0.4,1.9-1.4,1.9h-18.3c-0.6,0-1.1-0.4-1.4-0.9c-1.7-4.3-4.4-7.7-7.9-10.1
		c-3.8-2.6-8.6-4-14.3-4c-8.1,0-14.5,2.8-19.3,8.5c-4.8,5.7-7.2,13.7-7.2,23.9s2.4,18.2,7.2,24c4.8,5.7,11.2,8.6,19.3,8.6
		c11,0,18.5-4.7,22.3-14.1c0.2-0.6,0.8-0.9,1.4-0.9h18.2c1,0,1.7,1,1.4,1.9c-2.9,8.8-7.9,15.8-15,21.1c-7.6,5.7-17,8.5-28.3,8.5
		c-9.1,0-17.2-2-24.2-6.1c-7-4.1-12.5-9.8-16.5-17.3c-4-7.4-6-16-6-25.8S1227.5,88.9,1231.5,81.4L1231.5,81.4z"/>
	<path class="st2" d="M1356.6,75.8c-0.8,0-1.5,0.7-1.5,1.5v51.2c0,3.6,0.8,6.1,2.5,7.7c1.6,1.6,4.5,2.3,8.5,2.3h10.6
		c0.8,0,1.5,0.7,1.5,1.5v13.5c0,0.8-0.7,1.5-1.5,1.5h-14.1c-8.9,0-15.7-2.1-20.4-6.2c-4.7-4.1-7.1-10.9-7.1-20.2V77.3
		c0-0.8-0.7-1.5-1.5-1.5h-8.3c-0.8,0-1.5-0.7-1.5-1.5V61.2c0-0.8,0.7-1.5,1.5-1.5h8.3c0.8,0,1.5-0.7,1.5-1.5V37.6
		c0-0.8,0.7-1.5,1.5-1.5h16.9c0.8,0,1.5,0.7,1.5,1.5v20.7c0,0.8,0.7,1.5,1.5,1.5h20.2c0.8,0,1.5,0.7,1.5,1.5v13.1
		c0,0.8-0.7,1.5-1.5,1.5C1376.9,75.8,1356.6,75.8,1356.6,75.8z"/>
	<path class="st2" d="M313.2,42.3c9.6,4.9,17,11.9,22.3,21.1c5.3,9.2,7.9,19.8,7.9,32s-2.6,22.8-7.9,31.8
		c-5.3,9-12.7,15.9-22.3,20.7s-20.8,7.2-33.6,7.2h-37.7c-0.8,0-1.5-0.7-1.5-1.5V36.4c0-0.8,0.7-1.5,1.5-1.5h37.7
		C292.4,34.9,303.6,37.4,313.2,42.3z M311.9,127.5c7.5-7.6,11.2-18.3,11.2-32.1s-3.7-24.8-11.2-32.7S293.7,51,279.6,51h-18.8
		c-0.4,0-0.8,0.3-0.8,0.8v86.5c0,0.4,0.3,0.8,0.8,0.8h18.8C293.7,139,304.5,135.2,311.9,127.5L311.9,127.5z"/>
	<path class="st2" d="M387.8,62.4c4.4-2.5,9.6-3.8,15.5-4c0.8,0,1.5,0.7,1.5,1.5v17.4c0,0.8-0.7,1.5-1.5,1.5h-3.5
		c-7.7,0-13.5,2-17.5,5.9c-4,3.9-6,10.7-6,20.4v48.6c0,0.8-0.7,1.5-1.5,1.5h-16.7c-0.8,0-1.5-0.7-1.5-1.5V61.4
		c0-0.8,0.7-1.5,1.5-1.5h16.7c0.8,0,1.5,0.7,1.5,1.5v9.8c0,0.7,0.9,1,1.3,0.4C380.3,67.8,383.7,64.7,387.8,62.4L387.8,62.4z"/>
	<path class="st2" d="M417.7,43.7c-2.4-2.4-3.6-5.4-3.6-9s1.2-6.5,3.6-9c3.3-3.3,7.8-4.4,13.4-3.1c0.1,0,0.3,0.1,0.4,0.2
		c5.1,2.8,7.6,6.7,7.6,11.9s-2.5,9.1-7.6,11.9c-0.1,0.1-0.3,0.1-0.4,0.2C425.5,48.1,421,47.1,417.7,43.7z M436.3,61.5v92.1
		c0,0.8-0.7,1.5-1.5,1.5h-16.7c-0.8,0-1.5-0.7-1.5-1.5V61.4c0-0.8,0.7-1.5,1.5-1.5h16.7C435.7,59.9,436.3,60.6,436.3,61.5
		L436.3,61.5z"/>
	<path class="st2" d="M496.4,135.4L522.2,61c0.2-0.6,0.8-1,1.4-1h17.7c1,0,1.7,1,1.4,2l-35.1,92.1c-0.2,0.6-0.8,0.9-1.4,0.9h-21.5
		c-0.6,0-1.2-0.4-1.4-0.9L448.4,62c-0.4-1,0.4-2,1.4-2h17.9c0.6,0,1.2,0.4,1.4,1l25.9,74.5C495.1,136.1,496,136.1,496.4,135.4
		L496.4,135.4z"/>
	<path class="st2" d="M635.6,114.8h-70.5c-0.4,0-0.8,0.4-0.8,0.8c0.7,7.2,3.5,13,8.4,17.4c5.1,4.6,11.3,6.9,18.6,6.9
		c10.3,0,17.6-4.1,22-12.5c0.3-0.5,0.8-0.8,1.3-0.8h18.2c1,0,1.7,1,1.4,2c-3,7.8-8,14.4-14.9,19.5c-7.5,5.6-16.9,8.4-28,8.4
		c-9.1,0-17.2-2-24.4-6.1c-7.2-4.1-12.8-9.8-16.9-17.3c-4.1-7.4-6.1-16-6.1-25.8s2-18.4,6-25.8c4-7.4,9.6-13.1,16.7-17.2
		c7.2-4,15.4-6.1,24.7-6.1c9.3,0,17,2,24,5.9c7,3.9,12.5,9.4,16.4,16.5s5.9,15.2,5.9,24.4c0,3.1-0.2,5.9-0.5,8.4
		c-0.1,0.7-0.7,1.2-1.5,1.2L635.6,114.8z M616.3,98.9c0.4,0,0.8-0.4,0.8-0.8c-0.3-6.9-2.8-12.5-7.7-16.6c-5.1-4.4-11.3-6.5-18.8-6.5
		c-6.8,0-12.6,2.2-17.4,6.5c-4.9,4.3-7.5,9.7-8.5,16.6c0,0.4,0.3,0.8,0.8,0.8C565.3,98.9,616.3,98.9,616.3,98.9z"/>
</g>
</svg>
