<svg width="19" height="19" viewBox="0 0 19 19" fill="none" xmlns="http://www.w3.org/2000/svg">
<path fill-rule="evenodd" clip-rule="evenodd" d="M10.2824 0.5L10.7824 2.7C11.0824 2.8 11.2824 2.8 11.5824 2.9L13.0824 1.2L14.5824 2.1L13.8824 4.3C14.0824 4.5 14.2824 4.7 14.4824 4.9L16.6824 4.2L17.5824 5.7L15.8824 7.3C15.9824 7.6 16.0824 7.8 16.0824 8.1L18.2824 8.6V10.4L16.0824 10.9C15.9824 11.2 15.9824 11.4 15.8824 11.7L17.5824 13.2L16.6824 14.7L14.4824 14C14.2824 14.2 14.0824 14.4 13.8824 14.6L14.5824 16.8L13.0824 17.7L11.4824 16C11.1824 16.1 10.9824 16.2 10.6824 16.2L10.1824 18.4H8.38245L7.88245 16.2C7.58245 16.1 7.38243 16.1 7.08243 16L5.58243 17.7L4.08243 16.8L4.78244 14.6C4.58244 14.4 4.38243 14.2 4.18243 14L1.98242 14.7L1.08243 13.2L2.78244 11.6C2.68244 11.3 2.58243 11.1 2.58243 10.8L0.382446 10.3V8.5L2.58243 8C2.68243 7.7 2.68244 7.5 2.78244 7.2L1.08243 5.7L1.98242 4.2L4.18243 4.9C4.38243 4.7 4.58244 4.5 4.78244 4.3L4.08243 2.1L5.58243 1.2L7.18243 2.9C7.48243 2.8 7.68242 2.7 7.98242 2.7L8.48242 0.5H10.2824ZM9.38245 6C11.2824 6 12.8824 7.6 12.8824 9.5C12.8824 11.4 11.2824 13 9.38245 13C7.48245 13 5.88245 11.4 5.88245 9.5C5.88245 7.6 7.48245 6 9.38245 6Z" fill="#E6E9EA"/>
</svg>
