<?xml version="1.0" encoding="UTF-8"?>
<svg id="Layer_2" data-name="Layer 2" xmlns="http://www.w3.org/2000/svg" viewBox="0 0 63.18 63.18">
  <g id="Layer_1-2" data-name="Layer 1-2">
    <g id="g10">
      <g id="g12">
        <path id="path14" d="M63.17,31.59c0,17.44-14.14,31.59-31.59,31.59S0,49.03,0,31.59,14.14,0,31.59,0s31.59,14.14,31.59,31.59h-.01ZM37.26,26.09c-3.76,0-5.77,1.29-7.19,2.69l-.39.4v-12.6h-3.25v20.62c0,6.34,4.89,10.3,10.49,10.3,6.18,0,10.85-4.75,10.85-10.86,0-5.67-4.88-10.55-10.53-10.55h.02ZM24.9,30.27l-1.44-4.72c-.86-2.48-1.11-3.91-3.54-6.47-.83-.88-3.97-2.81-3.58-2.39,3.98,4.3,6.02,9.51,6.8,10.95-.72-.88-1.57-1.66-2.53-2.64-.82-.83-1.68-1.58-2.5-2.09-.54-.33-.84-.52-1.38-.8-2.45-1.27-4.83-2.05-5.74-2.27-1.11-.28-2.21-.35-2.21-.35,0,0,3.56,3,5.08,4.91s3.08,3.62,4.8,4.32c1.72.7,2.32.9,3.67,1.11,1.17.18,2.59.44,2.59.44h-.02ZM36.93,44.54c-4.08,0-7.53-3.22-7.53-7.52s2.91-7.85,7.6-7.85,7.46,3.8,7.46,7.77c0,4.32-2.93,7.6-7.53,7.6" style="fill: #69c52f; fill-rule: evenodd; stroke-width: 0px;"/>
      </g>
    </g>
  </g>
</svg>