<?xml version="1.0" encoding="UTF-8"?>
<svg id="Layer_2" data-name="Layer 2" xmlns="http://www.w3.org/2000/svg" viewBox="0 0 85.78 13.43">
  <g id="Layer_1-2" data-name="Layer 1-2">
    <g id="g10">
      <g id="g12">
        <path id="path14" d="M22.34,12.06c1.59,0,3.05-1.35,3.05-3.27,0-2.02-1.36-3.35-3.01-3.35-2.11,0-3.12,1.67-3.12,3.3s1,3.32,3.08,3.32h0ZM25.27,5.73v-1.22h1.39v8.5h-1.39v-1.14h-.04c-.62.75-1.66,1.44-3.08,1.44-2.29,0-4.33-1.79-4.33-4.56s1.9-4.52,4.42-4.52c1.53,0,2.43.82,3.01,1.51h.02ZM37.53,4.22c1.9,0,3.22,1.33,3.22,3.83v4.95h-1.39v-5.06c0-1.31-.6-2.47-2.02-2.47-1.18,0-2.29.85-2.29,2.8v4.72h-1.41v-5.06c0-1.4-.76-2.47-2.01-2.47-1.41,0-2.31,1.03-2.31,2.8v4.72h-1.39V4.5h1.39v1.06h.04c.56-.76,1.43-1.35,2.52-1.35,1.32,0,2.39.76,2.75,1.76.42-.85,1.44-1.76,2.91-1.76h-.01ZM56.2,12.03c1.78,0,3.06-1.42,3.06-3.28s-1.21-3.26-3.06-3.26-3.06,1.38-3.06,3.26,1.44,3.28,3.06,3.28ZM56.2,4.22c2.62,0,4.51,1.95,4.51,4.52s-1.9,4.56-4.51,4.56-4.51-1.99-4.51-4.56,1.97-4.52,4.51-4.52ZM66.11,12.03c1.78,0,3.07-1.42,3.07-3.28s-1.22-3.26-3.07-3.26-3.06,1.38-3.06,3.26,1.44,3.28,3.06,3.28ZM66.11,4.22c2.63,0,4.51,1.95,4.51,4.52s-1.9,4.56-4.51,4.56-4.51-1.99-4.51-4.56,1.97-4.52,4.51-4.52ZM77.22,8.15v-3.61h1.02v8.47h-1.02v-3.91h-4.47v3.91h-1.02V4.53h1.02v3.61h4.47ZM80.83,8.52h1.53c1.11,0,1.67-.68,1.67-1.5,0-.99-.59-1.54-1.68-1.54h-1.52v3.04ZM85.08,7.02c0,1.2-.89,2.14-1.95,2.35l2.65,3.64h-1.3l-2.54-3.54h-1.12v3.54h-1.02V4.53h2.43c2.09,0,2.85,1.32,2.85,2.48h0ZM12.14,12.14c1.99,0,3.25-1.42,3.25-3.3,0-1.73-1.19-3.38-3.22-3.38s-3.28,1.54-3.28,3.41,1.49,3.27,3.25,3.27h0ZM12.28,4.13c2.44,0,4.54,2.12,4.54,4.58,0,2.65-2.02,4.72-4.68,4.72-2.42,0-4.52-1.72-4.52-4.47V0h1.4v5.47l.17-.18c.61-.61,1.48-1.17,3.1-1.17h0ZM46.27,12.14c1.99,0,3.25-1.42,3.25-3.3,0-1.73-1.19-3.38-3.22-3.38s-3.28,1.54-3.28,3.41,1.49,3.27,3.25,3.27h0ZM46.41,4.13c2.44,0,4.54,2.12,4.54,4.58,0,2.65-2.02,4.72-4.68,4.72-2.42,0-4.52-1.72-4.52-4.47V.84h1.4v4.63l.17-.18c.61-.61,1.48-1.17,3.1-1.17h0ZM4.81,1.08c1.04,1.11,1.15,1.73,1.53,2.81l.62,2.05s-.61-.12-1.11-.19c-.58-.09-.84-.18-1.58-.48-.74-.3-1.41-1.05-2.07-1.88C1.53,2.56,0,1.26,0,1.26c0,0,.47.03.95.15.39.1,1.42.43,2.48.99.23.12.36.2.6.35.35.22.72.55,1.08.91.42.43.78.77,1.09,1.15-.34-.63-1.22-2.89-2.93-4.76-.17-.18,1.19.66,1.54,1.04h0Z" style="fill: #69c52f; fill-rule: evenodd; stroke-width: 0px;"/>
      </g>
    </g>
  </g>
</svg>