<svg width="23" height="25" viewBox="0 0 23 25" fill="none" xmlns="http://www.w3.org/2000/svg">
<path d="M17.6413 2.1H15.1413V0.9C15.1413 0.4 14.8413 0 14.5413 0C14.2413 0 13.9413 0.4 13.9413 0.9V2.1H6.34128V0.9C6.34128 0.4 6.04127 0 5.74127 0C5.44127 0 5.14127 0.4 5.14127 0.9V2.1H2.44128C1.64128 2.1 0.941284 2.8 0.941284 3.6V16.3C0.941284 17.1 1.64128 17.8 2.44128 17.8H7.54129V17.7C7.54129 17.4 7.54127 17.1 7.64127 16.8H2.44128C2.14128 16.8 1.94128 16.6 1.94128 16.3V3.6C1.94128 3.3 2.14128 3.1 2.44128 3.1H5.14127V4.1C5.14127 4.6 5.44127 5 5.74127 5C6.04127 5 6.34128 4.6 6.34128 4.1V3.1H13.9413V4.1C13.9413 4.6 14.2413 5 14.5413 5C14.8413 5 15.1413 4.6 15.1413 4.1V3.1H17.6413C17.9413 3.1 18.1413 3.3 18.1413 3.6V9.9C18.4413 10 18.8413 10.1 19.1413 10.3V3.6C19.1413 2.8 18.4413 2.1 17.6413 2.1Z" fill="#90C0E7"/>
<path d="M9.74127 6.19995H3.44128V15.4H7.94128C8.34128 14.2 8.94127 13.1 9.74127 12.3V6.19995ZM6.34128 13.6999V10.3V9.69995V9.09995C6.14128 9.29995 6.04128 9.39995 5.94128 9.49995L5.24127 9.99995L4.64127 9.29995L6.54129 7.79995H7.54129V13.6H6.34128V13.6999Z" fill="#90C0E7"/>
<path d="M12.4413 7.9001H15.5413V8.9001H13.4413L13.3413 9.8001C14.0413 9.6001 14.8413 9.5001 15.6413 9.5001C16.0413 9.5001 16.4413 9.5001 16.7413 9.6001V6.1001H10.4413V11.4001C10.9413 11.0001 11.5413 10.6001 12.1413 10.3001L12.4413 7.9001Z" fill="#90C0E7"/>
<path d="M15.7412 24.9C11.8412 24.9 8.54126 21.7 8.54126 17.7C8.54126 13.7 11.7412 10.5 15.7412 10.5C19.7412 10.5 22.9413 13.7 22.9413 17.7C22.9413 21.7 19.7412 24.9 15.7412 24.9ZM15.7412 11.5C12.2412 11.5 9.44125 14.3 9.44125 17.8C9.44125 21.3 12.2412 24.1 15.7412 24.1C19.2412 24.1 22.0413 21.3 22.0413 17.8C22.0413 14.3 19.2412 11.5 15.7412 11.5Z" fill="#90C0E7"/>
<path d="M15.7413 18.3C15.6413 18.3 15.5413 18.3 15.4413 18.2C15.3413 18.1 15.3413 18 15.3413 17.9V14.7C15.3413 14.5 15.5413 14.3 15.7413 14.3C15.9413 14.3 16.1413 14.5 16.1413 14.7V17.5H17.4413C17.7413 17.5 17.8413 17.7 17.8413 17.9C17.8413 18.1 17.6413 18.3 17.4413 18.3H15.7413Z" fill="#90C0E7"/>
<path d="M11.5413 17.9H10.1413C10.0413 17.9 9.94128 17.8 9.94128 17.7C9.94128 17.6 10.0413 17.5 10.1413 17.5H11.5413C11.6413 17.5 11.7413 17.6 11.7413 17.7C11.7413 17.8 11.6413 17.9 11.5413 17.9Z" fill="#90C0E7"/>
<path d="M21.5413 17.9H20.1413C20.0413 17.9 19.9413 17.8 19.9413 17.7C19.9413 17.6 20.0413 17.5 20.1413 17.5H21.5413C21.6413 17.5 21.7413 17.6 21.7413 17.7C21.7413 17.8 21.7413 17.9 21.5413 17.9Z" fill="#90C0E7"/>
<path d="M11.9413 16.0001L10.6412 15.4001C10.5412 15.4001 10.5413 15.3001 10.5413 15.2001C10.5413 15.1001 10.6412 15.1001 10.7412 15.1001L12.0413 15.6001C12.1413 15.6001 12.1412 15.7001 12.1412 15.8001C12.0412 16.0001 11.9413 16.0001 11.9413 16.0001Z" fill="#90C0E7"/>
<path d="M20.9413 20.4C20.8413 20.4 20.8413 20.4 20.9413 20.4L19.6412 19.8C19.5412 19.8 19.5413 19.7 19.5413 19.6C19.5413 19.5 19.6412 19.5 19.7412 19.5L21.0413 20C21.1413 20 21.1412 20.1 21.1412 20.2C20.9412 20.4 20.9413 20.4 20.9413 20.4Z" fill="#90C0E7"/>
<path d="M13.5413 14.1C13.5413 14.1 13.4413 14.1 13.4413 14L12.6412 12.9C12.6412 12.8 12.6412 12.8 12.6412 12.7C12.7412 12.7 12.7412 12.7 12.8412 12.7L13.6412 13.8C13.7412 14 13.7413 14.1 13.5413 14.1C13.6413 14.1 13.6413 14.1 13.5413 14.1Z" fill="#90C0E7"/>
<path d="M18.6413 22.5001C18.6413 22.5001 18.5413 22.5001 18.5413 22.4001L17.7413 21.3001C17.7413 21.2001 17.7413 21.2001 17.7413 21.1001C17.8413 21.1001 17.8413 21.1001 17.9413 21.1001L18.7413 22.2001C18.8413 22.4001 18.8413 22.4001 18.6413 22.5001C18.7413 22.5001 18.7413 22.5001 18.6413 22.5001Z" fill="#90C0E7"/>
<path d="M15.8412 23.6999C15.7412 23.6999 15.6412 23.5999 15.6412 23.4999V22.0999C15.6412 21.9999 15.7412 21.8999 15.8412 21.8999C15.9412 21.8999 16.0413 21.9999 16.0413 22.0999V23.4999C16.1413 23.5999 16.0412 23.6999 15.8412 23.6999Z" fill="#90C0E7"/>
<path d="M15.8412 13.6999C15.7412 13.6999 15.6412 13.5999 15.6412 13.4999V12.0999C15.6412 11.9999 15.7412 11.8999 15.8412 11.8999C15.9412 11.8999 16.0413 11.9999 16.0413 12.0999V13.4999C16.1413 13.5999 16.0412 13.6999 15.8412 13.6999Z" fill="#90C0E7"/>
<path d="M12.8413 22.6001C12.7413 22.6001 12.7413 22.5001 12.7413 22.4001L13.3413 21.2001C13.3413 21.1001 13.4413 21.1001 13.5413 21.1001C13.6413 21.1001 13.6413 21.2001 13.6413 21.3001L13.0413 22.5001C12.9413 22.5001 12.8413 22.6001 12.8413 22.6001Z" fill="#90C0E7"/>
<path d="M17.9413 14.1001C17.8413 14.1001 17.8413 14.0001 17.8413 13.9001L18.4413 12.7001C18.4413 12.6001 18.5413 12.6001 18.6413 12.6001C18.7413 12.6001 18.7413 12.7001 18.7413 12.8001L18.1413 14.0001C18.0413 14.1001 17.9413 14.1001 17.9413 14.1001Z" fill="#90C0E7"/>
<path d="M10.6412 20.6C10.6412 20.6 10.5413 20.6 10.5413 20.5C10.5413 20.4 10.5413 20.4 10.5413 20.3L11.7412 19.5C11.8412 19.5 11.8413 19.5 11.9413 19.5C11.9413 19.6 11.9413 19.6 11.9413 19.7L10.6412 20.6Z" fill="#90C0E7"/>
<path d="M19.6412 15.9999C19.6412 15.9999 19.5413 15.9999 19.5413 15.8999C19.5413 15.7999 19.5413 15.7999 19.5413 15.6999L20.7412 14.8999C20.8412 14.8999 20.8413 14.8999 20.9413 14.8999C20.9413 14.9999 20.9413 14.9999 20.9413 15.0999L19.6412 15.9999Z" fill="#90C0E7"/>
</svg>
