<svg width="23" height="26" viewBox="0 0 23 26" fill="none" xmlns="http://www.w3.org/2000/svg">
<path d="M17.6413 2.85H15.1413V1.65C15.1413 1.15 14.8413 0.75 14.5413 0.75C14.2413 0.75 13.9413 1.15 13.9413 1.65V2.85H6.34128V1.65C6.34128 1.15 6.04127 0.75 5.74127 0.75C5.44127 0.75 5.14127 1.15 5.14127 1.65V2.85H2.44128C1.64128 2.85 0.941284 3.55 0.941284 4.35V17.05C0.941284 17.85 1.64128 18.55 2.44128 18.55H7.54129V18.45C7.54129 18.15 7.54127 17.85 7.64127 17.55H2.44128C2.14128 17.55 1.94128 17.35 1.94128 17.05V4.35C1.94128 4.05 2.14128 3.85 2.44128 3.85H5.14127V4.85C5.14127 5.35 5.44127 5.75 5.74127 5.75C6.04127 5.75 6.34128 5.35 6.34128 4.85V3.85H13.9413V4.85C13.9413 5.35 14.2413 5.75 14.5413 5.75C14.8413 5.75 15.1413 5.35 15.1413 4.85V3.85H17.6413C17.9413 3.85 18.1413 4.05 18.1413 4.35V10.65C18.4413 10.75 18.8413 10.85 19.1413 11.05V4.35C19.1413 3.55 18.4413 2.85 17.6413 2.85Z" fill="#88949A"/>
<path d="M9.74127 6.94995H3.44128V16.15H7.94128C8.34128 14.95 8.94127 13.85 9.74127 13.05V6.94995ZM6.34128 14.4499V11.05V10.4499V9.84995C6.14128 10.05 6.04128 10.15 5.94128 10.25L5.24127 10.75L4.64127 10.05L6.54129 8.54995H7.54129V14.35H6.34128V14.4499Z" fill="#88949A"/>
<path d="M12.4413 8.6501H15.5413V9.6501H13.4413L13.3413 10.5501C14.0413 10.3501 14.8413 10.2501 15.6413 10.2501C16.0413 10.2501 16.4413 10.2501 16.7413 10.3501V6.8501H10.4413V12.1501C10.9413 11.7501 11.5413 11.3501 12.1413 11.0501L12.4413 8.6501Z" fill="#88949A"/>
<path d="M15.7412 25.65C11.8412 25.65 8.54126 22.45 8.54126 18.45C8.54126 14.45 11.7412 11.25 15.7412 11.25C19.7412 11.25 22.9413 14.45 22.9413 18.45C22.9413 22.45 19.7412 25.65 15.7412 25.65ZM15.7412 12.25C12.2412 12.25 9.44125 15.05 9.44125 18.55C9.44125 22.05 12.2412 24.85 15.7412 24.85C19.2412 24.85 22.0413 22.05 22.0413 18.55C22.0413 15.05 19.2412 12.25 15.7412 12.25Z" fill="#88949A"/>
<path d="M15.7413 19.05C15.6413 19.05 15.5413 19.05 15.4413 18.95C15.3413 18.85 15.3413 18.75 15.3413 18.65V15.45C15.3413 15.25 15.5413 15.05 15.7413 15.05C15.9413 15.05 16.1413 15.25 16.1413 15.45V18.25H17.4413C17.7413 18.25 17.8413 18.45 17.8413 18.65C17.8413 18.85 17.6413 19.05 17.4413 19.05H15.7413Z" fill="#88949A"/>
<path d="M11.5413 18.65H10.1413C10.0413 18.65 9.94128 18.55 9.94128 18.45C9.94128 18.35 10.0413 18.25 10.1413 18.25H11.5413C11.6413 18.25 11.7413 18.35 11.7413 18.45C11.7413 18.55 11.6413 18.65 11.5413 18.65Z" fill="#88949A"/>
<path d="M21.5413 18.65H20.1413C20.0413 18.65 19.9413 18.55 19.9413 18.45C19.9413 18.35 20.0413 18.25 20.1413 18.25H21.5413C21.6413 18.25 21.7413 18.35 21.7413 18.45C21.7413 18.55 21.7413 18.65 21.5413 18.65Z" fill="#88949A"/>
<path d="M11.9413 16.7501L10.6412 16.1501C10.5412 16.1501 10.5413 16.0501 10.5413 15.9501C10.5413 15.8501 10.6412 15.8501 10.7412 15.8501L12.0413 16.3501C12.1413 16.3501 12.1412 16.4501 12.1412 16.5501C12.0412 16.7501 11.9413 16.7501 11.9413 16.7501Z" fill="#88949A"/>
<path d="M20.9413 21.15C20.8413 21.15 20.8413 21.15 20.9413 21.15L19.6412 20.55C19.5412 20.55 19.5413 20.45 19.5413 20.35C19.5413 20.25 19.6412 20.25 19.7412 20.25L21.0413 20.75C21.1413 20.75 21.1412 20.85 21.1412 20.95C20.9412 21.15 20.9413 21.15 20.9413 21.15Z" fill="#88949A"/>
<path d="M13.5413 14.85C13.5413 14.85 13.4413 14.85 13.4413 14.75L12.6412 13.65C12.6412 13.55 12.6412 13.55 12.6412 13.45C12.7412 13.45 12.7412 13.45 12.8412 13.45L13.6412 14.55C13.7412 14.75 13.7413 14.85 13.5413 14.85C13.6413 14.85 13.6413 14.85 13.5413 14.85Z" fill="#88949A"/>
<path d="M18.6413 23.2501C18.6413 23.2501 18.5413 23.2501 18.5413 23.1501L17.7413 22.0501C17.7413 21.9501 17.7413 21.9501 17.7413 21.8501C17.8413 21.8501 17.8413 21.8501 17.9413 21.8501L18.7413 22.9501C18.8413 23.1501 18.8413 23.1501 18.6413 23.2501C18.7413 23.2501 18.7413 23.2501 18.6413 23.2501Z" fill="#88949A"/>
<path d="M15.8412 24.4499C15.7412 24.4499 15.6412 24.3499 15.6412 24.2499V22.8499C15.6412 22.7499 15.7412 22.6499 15.8412 22.6499C15.9412 22.6499 16.0413 22.7499 16.0413 22.8499V24.2499C16.1413 24.3499 16.0412 24.4499 15.8412 24.4499Z" fill="#88949A"/>
<path d="M15.8412 14.4499C15.7412 14.4499 15.6412 14.3499 15.6412 14.2499V12.8499C15.6412 12.7499 15.7412 12.6499 15.8412 12.6499C15.9412 12.6499 16.0413 12.7499 16.0413 12.8499V14.2499C16.1413 14.3499 16.0412 14.4499 15.8412 14.4499Z" fill="#88949A"/>
<path d="M12.8413 23.3501C12.7413 23.3501 12.7413 23.2501 12.7413 23.1501L13.3413 21.9501C13.3413 21.8501 13.4413 21.8501 13.5413 21.8501C13.6413 21.8501 13.6413 21.9501 13.6413 22.0501L13.0413 23.2501C12.9413 23.2501 12.8413 23.3501 12.8413 23.3501Z" fill="#88949A"/>
<path d="M17.9413 14.8501C17.8413 14.8501 17.8413 14.7501 17.8413 14.6501L18.4413 13.4501C18.4413 13.3501 18.5413 13.3501 18.6413 13.3501C18.7413 13.3501 18.7413 13.4501 18.7413 13.5501L18.1413 14.7501C18.0413 14.8501 17.9413 14.8501 17.9413 14.8501Z" fill="#88949A"/>
<path d="M10.6412 21.35C10.6412 21.35 10.5413 21.35 10.5413 21.25C10.5413 21.15 10.5413 21.15 10.5413 21.05L11.7412 20.25C11.8412 20.25 11.8413 20.25 11.9413 20.25C11.9413 20.35 11.9413 20.35 11.9413 20.45L10.6412 21.35Z" fill="#88949A"/>
<path d="M19.6412 16.7499C19.6412 16.7499 19.5413 16.7499 19.5413 16.6499C19.5413 16.5499 19.5413 16.5499 19.5413 16.4499L20.7412 15.6499C20.8412 15.6499 20.8413 15.6499 20.9413 15.6499C20.9413 15.7499 20.9413 15.7499 20.9413 15.8499L19.6412 16.7499Z" fill="#88949A"/>
</svg>
