<svg width="22" height="23" viewBox="0 0 22 23" fill="none" xmlns="http://www.w3.org/2000/svg">
<path fill-rule="evenodd" clip-rule="evenodd" d="M17.5321 17.3993C17.8831 17.0791 18.5533 17.2235 19.0289 17.7218L21.5499 20.3629C22.0256 20.8612 22.1266 21.5247 21.7756 21.8449C21.4246 22.1651 20.7545 22.0207 20.2788 21.5223L17.7578 18.8813C17.2822 18.383 17.1811 17.7194 17.5321 17.3993Z" fill="#90c0e7"/>
<path d="M20.8862 10.7891C20.8862 16.374 16.3588 20.9014 10.7739 20.9014C5.18903 20.9014 0.661583 16.374 0.661583 10.7891C0.661583 5.20422 5.18903 0.67678 10.7739 0.67678C16.3588 0.67678 20.8862 5.20422 20.8862 10.7891Z" stroke="#90c0e7" stroke-width="1.32317"/>
<path d="M6.10658 8.13114C6.79419 8.13114 7.3516 7.57373 7.3516 6.88612C7.3516 6.19852 6.79419 5.64111 6.10658 5.64111C5.41898 5.64111 4.86157 6.19852 4.86157 6.88612C4.86157 7.57373 5.41898 8.13114 6.10658 8.13114Z" fill="#90c0e7"/>
<path d="M14.7518 8.13114C15.4394 8.13114 15.9969 7.57373 15.9969 6.88612C15.9969 6.19852 15.4394 5.64111 14.7518 5.64111C14.0642 5.64111 13.5068 6.19852 13.5068 6.88612C13.5068 7.57373 14.0642 8.13114 14.7518 8.13114Z" fill="#90c0e7"/>
<path d="M10.3595 9.85401C11.5586 9.85401 12.5308 8.88189 12.5308 7.68271C12.5308 6.48354 11.5586 5.51141 10.3595 5.51141C9.1603 5.51141 8.18817 6.48354 8.18817 7.68271C8.18817 8.88189 9.1603 9.85401 10.3595 9.85401Z" fill="#90c0e7"/>
<path d="M15.489 12.643H18.0188C18.0188 10.7108 16.5547 9.14703 14.7519 9.14703C13.5268 9.14703 12.8396 10.1928 12.8396 10.1928C13.6663 10.5315 14.4332 10.89 15.479 12.643H15.489Z" fill="#90c0e7"/>
<path d="M5.82759 12.643H3.29773C3.29773 10.7108 4.76186 9.14703 6.56464 9.14703C7.78973 9.14703 8.47698 10.1928 8.47698 10.1928C7.65029 10.5315 6.88336 10.89 5.83755 12.643H5.82759Z" fill="#90c0e7"/>
<path d="M6.64447 15.5811C6.64447 13.1508 8.47713 11.1887 10.748 11.1887C13.0189 11.1887 14.8516 13.1608 14.8516 15.5811" fill="#90c0e7"/>
<path d="M6.64447 15.5811C6.64447 13.1508 8.47713 11.1887 10.748 11.1887C13.0189 11.1887 14.8516 13.1608 14.8516 15.5811" stroke="#90c0e7" stroke-width="0.75" stroke-miterlimit="10"/>
</svg>
