<svg width="22" height="22" viewBox="0 0 22 22" fill="none" xmlns="http://www.w3.org/2000/svg">
<path fill-rule="evenodd" clip-rule="evenodd" d="M17.5442 17.3841C17.8955 17.0639 18.5661 17.2083 19.0421 17.7066L21.5648 20.3477C22.0408 20.846 22.1419 21.5095 21.7907 21.8297C21.4394 22.1499 20.7688 22.0055 20.2928 21.5071L17.7701 18.8661C17.2941 18.3678 17.193 17.7043 17.5442 17.3841Z" fill="#d1d4d5"/>
<path d="M20.9011 10.7739C20.9011 16.3584 16.3708 20.8862 10.7813 20.8862C5.19192 20.8862 0.661583 16.3584 0.661583 10.7739C0.661583 5.18946 5.19192 0.661583 10.7813 0.661583C16.3708 0.661583 20.9011 5.18946 20.9011 10.7739Z" stroke="#d1d4d5" stroke-width="1.32317"/>
<path d="M6.11074 8.116C6.79881 8.116 7.35661 7.55859 7.35661 6.87099C7.35661 6.18339 6.79881 5.62598 6.11074 5.62598C5.42266 5.62598 4.86487 6.18339 4.86487 6.87099C4.86487 7.55859 5.42266 8.116 6.11074 8.116Z" fill="#d1d4d5"/>
<path d="M14.762 8.116C15.4501 8.116 16.0079 7.55859 16.0079 6.87099C16.0079 6.18339 15.4501 5.62598 14.762 5.62598C14.0739 5.62598 13.5161 6.18339 13.5161 6.87099C13.5161 7.55859 14.0739 8.116 14.762 8.116Z" fill="#d1d4d5"/>
<path d="M10.3666 9.83882C11.5666 9.83882 12.5394 8.86669 12.5394 7.66752C12.5394 6.46834 11.5666 5.49622 10.3666 5.49622C9.16664 5.49622 8.19385 6.46834 8.19385 7.66752C8.19385 8.86669 9.16664 9.83882 10.3666 9.83882Z" fill="#d1d4d5"/>
<path d="M15.4997 12.6278H18.0313C18.0313 10.6956 16.5661 9.13184 14.7621 9.13184C13.5362 9.13184 12.8484 10.1776 12.8484 10.1776C13.6757 10.5163 14.4432 10.8749 15.4897 12.6278H15.4997Z" fill="#d1d4d5"/>
<path d="M5.8316 12.6278H3.29999C3.29999 10.6956 4.76513 9.13184 6.56915 9.13184C7.79509 9.13184 8.48281 10.1776 8.48281 10.1776C7.65555 10.5163 6.88809 10.8749 5.84156 12.6278H5.8316Z" fill="#d1d4d5"/>
<path d="M6.64899 15.5659C6.64899 13.1356 8.48291 11.1735 10.7554 11.1735C13.0278 11.1735 14.8618 13.1456 14.8618 15.5659" fill="#d1d4d5"/>
<path d="M6.64899 15.5659C6.64899 13.1356 8.48291 11.1735 10.7554 11.1735C13.0278 11.1735 14.8618 13.1456 14.8618 15.5659" stroke="#d1d4d5" stroke-width="0.75" stroke-miterlimit="10"/>
</svg>
