<?xml version="1.0" encoding="UTF-8"?>
<svg id="Layer_2" data-name="Layer 2" xmlns="http://www.w3.org/2000/svg" viewBox="0 0 10 10">
  <defs>
    <style>
      .cls-1 {
        fill: #b3b3b3;
      }
    </style>
  </defs>
  <g id="Main_Design" data-name="Main Design">
    <path class="cls-1" d="M2.37,.02c-.07,.03-.14,.1-.16,.17-.01,.03-.02,.17-.02,.32v.26h-.57c-.56,.01-.58,.02-.72,.07C.48,.98,.2,1.26,.05,1.67l-.05,.16v7.14l.05,.16c.14,.4,.42,.68,.83,.83l.15,.05h7.93l.16-.05c.4-.14,.68-.42,.83-.83l.05-.15V1.82l-.05-.15c-.14-.41-.42-.69-.83-.83-.15-.05-.16-.05-.73-.06h-.57s0-.3,0-.3c0-.32-.02-.35-.14-.44-.08-.06-.26-.06-.34,0-.13,.09-.14,.12-.14,.44v.29H2.81V.49c-.01-.32-.02-.35-.14-.44-.07-.05-.22-.06-.3-.03Zm-.18,1.59c0,.23,.02,.28,.14,.36,.08,.06,.26,.06,.34,0,.12-.09,.14-.13,.14-.36v-.21H7.19v.21c.01,.23,.03,.28,.15,.36,.08,.06,.26,.06,.34,0,.12-.09,.14-.13,.14-.36v-.22s.54,0,.54,0h.53s.11,.06,.11,.06c.14,.07,.25,.18,.32,.32,.05,.11,.05,.11,.06,.57v.46s-4.38,0-4.38,0H.62v-.42c0-.31,0-.44,.03-.51,.06-.2,.23-.38,.43-.44,.09-.03,.17-.03,.6-.04h.5v.21Zm7.2,4.55v2.73s-.06,.11-.06,.11c-.07,.14-.19,.26-.33,.33l-.11,.05H1.12l-.11-.05c-.14-.07-.26-.19-.33-.33l-.05-.11v-2.73s0-2.72,0-2.72H9.38v2.72Z"/>
  </g>
</svg>