<svg width="20" height="20" viewBox="0 0 20 20" fill="none" xmlns="http://www.w3.org/2000/svg">
<rect x="1.86682" y="4.84389" width="16.2664" height="14.1561" rx="1" stroke="#1B527F" stroke-width="2"/>
<line x1="1.23621" y1="8.86269" x2="18.6183" y2="8.86269" stroke="#1B527F" stroke-width="2"/>
<path d="M6.06558 1.2C6.06558 0.592484 5.57309 0.099997 4.96558 0.099997C4.35806 0.099997 3.86558 0.592484 3.86558 1.2L6.06558 1.2ZM6.06558 3.93996L6.06558 1.2L3.86558 1.2L3.86558 3.93996L6.06558 3.93996Z" fill="#1B527F"/>
<path d="M15.9888 1.2C15.9888 0.592484 15.4963 0.0999969 14.8888 0.0999969C14.2813 0.099997 13.7888 0.592484 13.7888 1.2L15.9888 1.2ZM15.9888 3.93996L15.9888 1.2L13.7888 1.2L13.7888 3.93996L15.9888 3.93996Z" fill="#1B527F"/>
</svg>
