<?xml version="1.0" encoding="UTF-8"?>
<svg id="Layer_2" data-name="Layer 2" xmlns="http://www.w3.org/2000/svg" xmlns:xlink="http://www.w3.org/1999/xlink" viewBox="0 0 75 48.1">
  <defs>
    <clipPath id="clippath">
      <path d="M27.3,12.48s-4.95-3.54-10.35,0c-5.4,3.54-5.08,8.48-5.08,8.48,0,0-8.89-1.03-9.65,9.43-.76,10.47,9.46,9.88,9.46,9.88h50.1s9.78-2.21,9.97-14.59c.19-12.38-11.49-15.77-16.26-13.2,0,0-2.6-11.79-14.67-12.46C40.53,0,40.24,0,39.96,0c-11.26,0-12.65,12.48-12.65,12.48" style="fill: none; stroke-width: 0px;"/>
    </clipPath>
    <linearGradient id="linear-gradient" x1="378.83" y1="506.42" x2="379.33" y2="506.42" gradientTransform="translate(52646.11 70302) rotate(180) scale(138.78)" gradientUnits="userSpaceOnUse">
      <stop offset="0" stop-color="#bee6f6"/>
      <stop offset="1" stop-color="#d4eef5"/>
    </linearGradient>
  </defs>
  <g id="Layer_1-2" data-name="Layer 1">
    <g>
      <path d="M56.75,12.7S54.15.91,42.08.25c-12.07-.66-13.53,12.46-13.53,12.46,0,0-4.95-3.54-10.35,0-5.4,3.54-5.08,8.48-5.08,8.48,0,0-8.89-1.03-9.65,9.43-.76,10.47,9.46,9.87,9.46,9.87h50.1s9.78-2.21,9.97-14.59c.19-12.38-11.49-15.77-16.26-13.2" style="fill: #8b999e; stroke-width: 0px;"/>
      <g style="clip-path: url(#clippath);">
        <rect x="1.46" y="0" width="70.49" height="40.86" style="fill: url(#linear-gradient); stroke-width: 0px;"/>
      </g>
      <g>
        <path d="M6.68,44.36c-.46.21-1.33.38-2.3.38-2.67,0-4.38-1.64-4.38-4.23,0-2.42,1.65-4.39,4.73-4.39.68,0,1.43.12,1.96.33l-.4,1.91c-.31-.14-.76-.26-1.44-.26-1.36,0-2.23.96-2.22,2.32,0,1.52,1.02,2.32,2.26,2.32.61,0,1.09-.11,1.48-.27l.3,1.9Z" style="fill: #000; stroke-width: 0px;"/>
        <path d="M8.09,32.57h2.58v12h-2.58v-12Z" style="fill: #000; stroke-width: 0px;"/>
        <path d="M20.9,40.35c0,3.02-2.14,4.4-4.36,4.4-2.41,0-4.27-1.59-4.27-4.26s1.76-4.38,4.42-4.38,4.21,1.74,4.21,4.24ZM14.92,40.44c0,1.41.6,2.48,1.69,2.48,1,0,1.64-1,1.64-2.5,0-1.22-.47-2.47-1.63-2.47-1.23,0-1.69,1.26-1.69,2.49Z" style="fill: #000; stroke-width: 0px;"/>
        <path d="M30.28,41.92c0,1.08.03,1.96.07,2.65h-2.23l-.12-1.17h-.05c-.32.51-1.09,1.35-2.58,1.35-1.68,0-2.91-1.05-2.91-3.59v-4.86h2.58v4.45c0,1.21.39,1.93,1.3,1.93.7,0,1.11-.48,1.28-.9.06-.15.09-.34.09-.55v-4.93h2.58v5.62Z" style="fill: #000; stroke-width: 0px;"/>
        <path d="M40.36,32.57v9.53c0,.94.03,1.92.07,2.47h-2.29l-.11-1.21h-.04c-.52.93-1.52,1.4-2.59,1.4-1.95,0-3.53-1.68-3.53-4.25-.01-2.78,1.73-4.4,3.7-4.4,1.02,0,1.81.36,2.18.93h.03v-4.48h2.57ZM37.79,39.81c0-.14,0-.32-.03-.47-.15-.69-.71-1.26-1.49-1.26-1.18,0-1.78,1.04-1.78,2.35,0,1.39.69,2.27,1.76,2.27.73,0,1.33-.51,1.49-1.23.04-.18.05-.38.05-.58v-1.08Z" style="fill: #000; stroke-width: 0px;"/>
      </g>
      <g>
        <path d="M45.07,34c0,.72-.53,1.28-1.38,1.28s-1.34-.57-1.34-1.28c0-.74.54-1.29,1.36-1.29s1.35.55,1.36,1.29ZM42.42,44.57v-8.27h2.58v8.27h-2.58Z" style="fill: #024f7f; stroke-width: 0px;"/>
        <path d="M47.05,38.94c0-1.03-.03-1.9-.07-2.64h2.23l.12,1.15h.05c.33-.53,1.18-1.33,2.56-1.33,1.69,0,2.96,1.13,2.96,3.56v4.9h-2.58v-4.58c0-1.07-.38-1.8-1.31-1.8-.71,0-1.13.5-1.3.97-.07.16-.09.41-.09.64v4.77h-2.58v-5.63Z" style="fill: #024f7f; stroke-width: 0px;"/>
        <path d="M64.85,36.3c-.04.53-.07,1.23-.07,2.47v4.6c0,1.59-.32,2.89-1.26,3.72-.91.79-2.14,1.02-3.35,1.02-1.09,0-2.23-.22-2.97-.63l.51-1.95c.52.3,1.43.62,2.4.62,1.22,0,2.15-.65,2.15-2.18v-.53h-.03c-.49.68-1.28,1.07-2.23,1.07-2.04,0-3.5-1.66-3.5-4.03,0-2.67,1.72-4.36,3.75-4.36,1.14,0,1.85.49,2.27,1.18h.03l.09-.99h2.23ZM62.21,39.67c0-.16-.02-.34-.05-.48-.18-.68-.67-1.14-1.38-1.14-.94,0-1.68.85-1.68,2.35,0,1.23.61,2.2,1.68,2.2.67,0,1.2-.44,1.37-1.04.06-.2.07-.47.07-.68v-1.22Z" style="fill: #024f7f; stroke-width: 0px;"/>
        <path d="M75,40.35c0,3.02-2.14,4.4-4.36,4.4-2.41,0-4.27-1.59-4.27-4.26s1.76-4.38,4.42-4.38,4.21,1.74,4.21,4.24ZM69.02,40.44c0,1.41.6,2.48,1.69,2.48,1,0,1.64-1,1.64-2.5,0-1.22-.47-2.47-1.63-2.47-1.23,0-1.69,1.26-1.69,2.49Z" style="fill: #024f7f; stroke-width: 0px;"/>
      </g>
    </g>
  </g>
</svg>