<svg width="18" height="18" viewBox="0 0 18 18" fill="none" xmlns="http://www.w3.org/2000/svg">
<path fill-rule="evenodd" clip-rule="evenodd" d="M16.512 3.0066C17.0327 2.48591 17.0327 1.64169 16.512 1.12099C15.9913 0.600294 15.1471 0.600294 14.6264 1.12099L8.4982 7.24922L2.36994 1.12099C1.84924 0.600294 1.00502 0.600294 0.484317 1.12099C-0.0363826 1.64169 -0.0363826 2.48591 0.484317 3.0066L6.61255 9.1348L0.484268 15.2631C-0.0364225 15.7838 -0.0364225 16.628 0.484268 17.1487C1.00497 17.6694 1.84919 17.6694 2.36989 17.1487L8.4982 11.0205L14.6265 17.1487C15.1472 17.6694 15.9914 17.6694 16.5121 17.1487C17.0328 16.628 17.0328 15.7838 16.5121 15.2631L10.3838 9.1348L16.512 3.0066Z" fill="#2776B7"/>
</svg>
