<svg width="21" height="21" viewBox="0 0 21 21" fill="none" xmlns="http://www.w3.org/2000/svg">
<g clip-path="url(#clip0_2725_1445)">
<path d="M8.86002 9.63004H2.14002C1.45202 9.63004 0.900024 9.07005 0.900024 8.39005V1.68604C0.900024 1.00604 1.46002 0.446045 2.14002 0.446045H8.86002C9.54802 0.446045 10.1 1.00604 10.1 1.68604V8.39005C10.1 9.07005 9.54002 9.63004 8.86002 9.63004Z" fill="#E6E9EA"/>
<path d="M19.66 9.63004H12.94C12.252 9.63004 11.7 9.07005 11.7 8.39005V1.68604C11.7 1.00604 12.26 0.446045 12.94 0.446045H19.66C20.348 0.446045 20.9 1.00604 20.9 1.68604V8.39005C20.9 9.07005 20.34 9.63004 19.66 9.63004Z" fill="#E6E9EA"/>
<path d="M8.86002 20.446H2.14002C1.45202 20.446 0.900024 19.886 0.900024 19.206V12.51C0.900024 11.83 1.46002 11.27 2.14002 11.27H8.86002C9.54802 11.27 10.1 11.83 10.1 12.51V19.214C10.1 19.894 9.54002 20.454 8.86002 20.454V20.446Z" fill="#E6E9EA"/>
<path d="M19.66 20.446H12.94C12.252 20.446 11.7 19.886 11.7 19.206V12.51C11.7 11.83 12.26 11.27 12.94 11.27H19.66C20.348 11.27 20.9 11.83 20.9 12.51V19.214C20.9 19.894 20.34 20.454 19.66 20.454V20.446Z" fill="#E6E9EA"/>
</g>
<defs>
<clipPath id="clip0_2725_1445">
<rect width="20" height="20.008" fill="white" transform="translate(0.900024 0.446045)"/>
</clipPath>
</defs>
</svg>
