<?xml version="1.0" encoding="UTF-8"?>
<svg id="Layer_1" data-name="Layer 1" xmlns="http://www.w3.org/2000/svg" viewBox="0 0 45 45">
  <defs>
    <style>
      .cls-1 {
        fill: #fff;
      }

      .cls-2 {
        fill: #b3b4b4;
      }
    </style>
  </defs>
  <g id="Background">
    <path class="cls-2" d="m22.5,0C10.07,0,0,10.07,0,22.5s10.07,22.5,22.5,22.5,22.5-10.07,22.5-22.5S34.93,0,22.5,0Z"/>
  </g>
  <g id="Dedupe">
    <path class="cls-1" d="m16.89,19.05h-1.61v-3.44c0-1.14-.93-2.07-2.07-2.07h-6.13c-1.14,0-2.07.93-2.07,2.07v8.27c0,1.14.93,2.07,2.07,2.07h1.61v3.44c0,1.14.93,2.07,2.07,2.07h6.13c1.14,0,2.07-.93,2.07-2.07v-8.27c0-1.14-.93-2.07-2.07-2.07Zm-8.21,2.07v3.44h-1.61c-.38,0-.69-.31-.69-.69v-8.27c0-.38.31-.69.69-.69h6.13c.38,0,.69.31.69.69v3.44h-3.14c-1.14,0-2.07.93-2.07,2.07Zm8.9,8.27c0,.38-.31.69-.69.69h-6.13c-.38,0-.69-.31-.69-.69v-8.27c0-.38.31-.69.69-.69h6.13c.38,0,.69.31.69.69v8.27Z"/>
    <path class="cls-1" d="m37.93,16.17h-7.5c-1.14,0-2.07.93-2.07,2.07v9.97c0,1.14.93,2.07,2.07,2.07h7.5c1.14,0,2.07-.93,2.07-2.07v-9.97c0-1.14-.93-2.07-2.07-2.07Zm.69,12.04c0,.38-.31.69-.69.69h-7.5c-.38,0-.69-.31-.69-.69v-9.97c0-.38.31-.69.69-.69h7.5c.38,0,.69.31.69.69v9.97Z"/>
    <polygon class="cls-1" points="23.61 22.5 20.59 22.5 20.59 23.95 23.61 23.95 23.61 26.34 26.72 23.23 23.61 20.11 23.61 22.5"/>
  </g>
</svg>