<svg width="16" height="16" viewBox="0 0 16 16" fill="none" xmlns="http://www.w3.org/2000/svg">
<path fill-rule="evenodd" clip-rule="evenodd" d="M9.3531 1.76872C9.3531 1.35451 9.01732 1.01872 8.60311 1.01872C8.18889 1.01872 7.85311 1.35451 7.85311 1.76872L7.85311 8.8633L6.26115 7.1489C5.9793 6.84537 5.50475 6.82779 5.20122 7.10964C4.89769 7.3915 4.88011 7.86604 5.16197 8.16958L7.86082 11.076C8.01291 11.2398 8.22111 11.3203 8.42827 11.3155C8.64907 11.3503 8.88307 11.2865 9.05876 11.1218L12.088 8.28134C12.3901 7.99801 12.4054 7.52339 12.1221 7.22123C11.8387 6.91907 11.3641 6.90381 11.062 7.18714L9.35311 8.78951L9.3531 1.76872ZM2.51754 8.89975C2.51754 8.45595 2.15777 8.09618 1.71397 8.09618C1.27017 8.09618 0.9104 8.45595 0.9104 8.89975V12.7533C0.9104 13.6902 1.66992 14.4498 2.60683 14.4498H14.214C15.1509 14.4498 15.9104 13.6902 15.9104 12.7533V8.89975C15.9104 8.45595 15.5506 8.09618 15.1068 8.09618C14.663 8.09618 14.3033 8.45595 14.3033 8.89975V12.7533C14.3033 12.8026 14.2633 12.8426 14.214 12.8426H2.60683C2.55752 12.8426 2.51754 12.8026 2.51754 12.7533V8.89975Z" fill="#677479"/>
</svg>
