<?xml version="1.0" encoding="UTF-8"?>
<svg id="Layer_2" data-name="Layer 2" xmlns="http://www.w3.org/2000/svg" viewBox="0 0 25.74 14.32">
  <defs>
    <style>
      .cls-1 {
        fill: #b3b3b3;
      }
    </style>
  </defs>
  <g id="Main_Design" data-name="Main Design">
    <g>
      <path class="cls-1" d="M.34,1.9l8.08,7.65c.4,.38,1.03,.37,1.42-.02l4.47-4.48,6.66,6.51,1.76-1.72L15.05,2.37c-.39-.38-1.02-.38-1.41,0l-4.6,4.51L1.9,.3C1.45-.12,.74-.1,.31,.35h0C-.12,.78-.1,1.48,.34,1.9Z"/>
      <path class="cls-1" d="M24.39,8.12l-5.2,5.06c-.18,.18-.07,.48,.18,.5l6.03,.63c.2,.02,.36-.14,.33-.34l-.83-5.69c-.04-.24-.34-.34-.51-.17Z"/>
    </g>
  </g>
</svg>