<?xml version="1.0" encoding="UTF-8"?><svg id="Layer_2" xmlns="http://www.w3.org/2000/svg" viewBox="0 0 25 25"><defs><style>.cls-1{fill:gray;}</style></defs><g id="hover"><g><path class="cls-1" d="M20,12h-2.29c-.24-2.49-2.21-4.47-4.71-4.71v-2.29h-1v2.29c-2.49,.24-4.47,2.21-4.71,4.71h-2.29v1h2.29c.24,2.49,2.21,4.47,4.71,4.71v2.29h1v-2.29c2.49-.24,4.47-2.21,4.71-4.71h2.29v-1Zm-3.29,0h-2.11c-.19-.79-.8-1.4-1.59-1.59v-2.11c1.94,.23,3.47,1.76,3.71,3.71Zm-4.71-3.71v2.11c-.79,.19-1.4,.8-1.59,1.59h-2.11c.23-1.94,1.76-3.47,3.71-3.71Zm-3.71,4.71h2.11c.19,.79,.8,1.4,1.59,1.59v2.11c-1.94-.23-3.47-1.76-3.71-3.71Zm4.71,3.71v-2.11c.79-.19,1.4-.8,1.59-1.59h2.11c-.23,1.94-1.76,3.47-3.71,3.71Z"/><path class="cls-1" d="M23,1c.55,0,1,.45,1,1V23c0,.55-.45,1-1,1H2c-.55,0-1-.45-1-1V2c0-.55,.45-1,1-1H23m0-1H2C.9,0,0,.9,0,2V23c0,1.1,.9,2,2,2H23c1.1,0,2-.9,2-2V2c0-1.1-.9-2-2-2h0Z"/></g></g></svg>