<?xml version="1.0" encoding="UTF-8"?>
<svg id="Layer_1" data-name="Layer 1" xmlns="http://www.w3.org/2000/svg" viewBox="0 0 45 45">
  <defs>
    <style>
      .cls-1 {
        fill: #fff;
      }

      .cls-2 {
        fill: #b3b4b4;
      }
    </style>
  </defs>
  <g id="Background">
    <path class="cls-2" d="m24.31.06C10.51-.95-.95,10.51.06,24.31c.87,10.89,9.72,19.74,20.62,20.61,13.79,1.16,25.27-10.31,24.25-24.24C43.92,9.79,35.21.93,24.31.06Z"/>
  </g>
  <path id="Enrich" class="cls-1" d="m34.06,12.26c-1.8,0-3.26,1.47-3.26,3.26,0,.59.17,1.13.44,1.61l-2.63,2.59c-1.58-1.1-3.47-1.77-5.51-1.85v-5.4c1.52-.29,2.66-1.61,2.66-3.2,0-1.8-1.47-3.26-3.26-3.26s-3.26,1.47-3.26,3.26c0,1.58,1.13,2.9,2.61,3.2v5.43c-2.03.14-3.9.86-5.45,1.99l-2.84-2.4c.4-.55.65-1.21.65-1.93,0-1.8-1.47-3.26-3.26-3.26s-3.26,1.47-3.26,3.26,1.47,3.26,3.26,3.26c.62,0,1.19-.19,1.69-.49l2.79,2.37c-2.08,1.93-3.39,4.68-3.39,7.74,0,5.84,4.73,10.57,10.57,10.57s10.57-4.73,10.57-10.57c0-3.15-1.38-5.98-3.57-7.9l2.45-2.41c.56.44,1.24.71,2,.71,1.8,0,3.26-1.47,3.26-3.26s-1.47-3.26-3.26-3.26v-.04Zm-23.12,5.29c-1.11,0-2.02-.91-2.02-2.02s.91-2.02,2.02-2.02,2.02.91,2.02,2.02-.91,2.02-2.02,2.02Zm9.53-8.29c0-1.11.91-2.02,2.02-2.02s2.02.91,2.02,2.02c0,.98-.71,1.8-1.64,1.98h-.76c-.93-.17-1.64-1-1.64-1.98h.01Zm.35,11.69s2.14-1.27,4.02.4h0c.91.75.7,2.74.7,2.74-.02-.11-.12-.16-.12-.16-.09.02-.11.34-.11.34-.8-.34-1.03-1.1-1.07-1.24-.05.04-1.58,1.39-4.53,1.12,0,0-.44-2.18,1.13-3.19h-.01Zm8.25,13.89s0,.2-.4.44c0,0-2.69,1.13-6.37,1.05,0,0-3.6-.19-5.89-1.21,0,0-.32-.07-.34-.83,0,0,.11-3.29,1.11-4.77,0,0,.29-.39.96-.65,0,0,.62-.19,1.24-.46.8-1.77.36-3.98.36-3.98.14.63.32.87.32.87.14,1.15,1.07,2.09,1.07,2.09.02.39-.05.7-.16.95.58.95,1.75,2.17,3.2-.16-.07-.22-.11-.49-.1-.8,0,0,.93-.95,1.07-2.09,0,0,.19-.24.32-.87,0,0-.44,2.23.37,3.98.52.17,2.02.75,2.31,1.39,0,0,1.17,2.65.9,5.02v.04Zm4.98-17.29c-1.11,0-2.02-.91-2.02-2.02s.91-2.02,2.02-2.02,2.02.91,2.02,2.02-.91,2.02-2.02,2.02Z"/>
</svg>