<svg width="75" height="75" viewBox="0 0 75 75" fill="none" xmlns="http://www.w3.org/2000/svg">
<path d="M71.873 17.7681L49.3521 23.7952C50.2631 27.9605 50.7445 32.3725 50.7445 37.0003C50.7445 41.6298 50.2631 46.0418 49.3521 50.2054L71.873 56.2325C73.3121 50.2175 74.0678 43.6313 74.0678 36.9986C74.0678 30.3693 73.3121 23.7796 71.873 17.7681Z" fill="#00D7B8"/>
<path d="M14.8443 11.5371L0 37.0018L23.4993 19.6313C21.2407 16.2994 18.3074 13.5576 14.8443 11.5371Z" fill="#5842CF"/>
<path d="M14.8443 62.4627L0 36.998L23.4993 54.3685C21.2407 57.7021 18.3074 60.4422 14.8443 62.4627Z" fill="#5842CF"/>
<path d="M41.9309 6L0 37.0017L49.3505 23.7966C47.908 17.1828 45.3767 11.2006 41.9309 6Z" fill="#0280FF"/>
<path d="M41.9309 67.9997L0 37.0015L49.3505 50.2066C47.908 56.8169 45.3767 62.7991 41.9309 67.9997Z" fill="#0280FF"/>
<path d="M50.7447 37.0015C50.7447 32.372 50.2633 27.96 49.3522 23.7964L0 37.0015L49.3505 50.2066C50.265 46.0361 50.7447 41.6361 50.7447 37.0015Z" fill="white"/>
</svg>
