<?xml version="1.0" encoding="UTF-8"?>
<svg id="Layer_2" data-name="Layer 2" xmlns="http://www.w3.org/2000/svg" viewBox="0 0 45 45">
  <g id="Layer_1-2" data-name="Layer 1-2">
    <g>
      <circle cx="22.5" cy="22.5" r="22.5" style="fill: #b0b1b1; stroke-width: 0px;"/>
      <g>
        <circle cx="22.8" cy="22.85" r="6.52" style="fill: none; stroke: #fff; stroke-miterlimit: 10; stroke-width: 1.5px;"/>
        <line x1="34.45" y1="33.8" x2="28.1" y2="27.46" style="fill: none; stroke: #fff; stroke-linecap: round; stroke-miterlimit: 10; stroke-width: 1.5px;"/>
        <line x1="22.8" y1="15.66" x2="22.8" y2="13.64" style="fill: none; stroke: #fff; stroke-linecap: round; stroke-miterlimit: 10;"/>
        <circle cx="22.8" cy="11.9" r="1.56" style="fill: none; stroke: #fff; stroke-linecap: round; stroke-miterlimit: 10;"/>
        <line x1="28.07" y1="17.86" x2="30.49" y2="15.44" style="fill: none; stroke: #fff; stroke-linecap: round; stroke-miterlimit: 10;"/>
        <circle cx="33.13" cy="12.8" r="3.31" style="fill: none; stroke: #fff; stroke-linecap: round; stroke-miterlimit: 10;"/>
        <line x1="17.55" y1="18.14" x2="15.13" y2="15.72" style="fill: none; stroke: #fff; stroke-linecap: round; stroke-miterlimit: 10;"/>
        <circle cx="12.49" cy="13.08" r="3.31" style="fill: none; stroke: #fff; stroke-linecap: round; stroke-miterlimit: 10;"/>
        <line x1="18.11" y1="28.1" x2="15.68" y2="30.53" style="fill: none; stroke: #fff; stroke-linecap: round; stroke-miterlimit: 10;"/>
        <circle cx="13.05" cy="33.17" r="3.31" style="fill: none; stroke: #fff; stroke-linecap: round; stroke-miterlimit: 10;"/>
        <line x1="29.7" y1="23.26" x2="31.72" y2="23.26" style="fill: none; stroke: #fff; stroke-linecap: round; stroke-miterlimit: 10;"/>
        <circle cx="33.46" cy="23.26" r="1.56" style="fill: none; stroke: #fff; stroke-linecap: round; stroke-miterlimit: 10;"/>
        <line x1="24.83" y1="29.22" x2="24.83" y2="31.23" style="fill: none; stroke: #fff; stroke-linecap: round; stroke-miterlimit: 10;"/>
        <circle cx="24.83" cy="32.97" r="1.56" style="fill: none; stroke: #fff; stroke-linecap: round; stroke-miterlimit: 10;"/>
        <line x1="15.94" y1="23.26" x2="13.92" y2="23.26" style="fill: none; stroke: #fff; stroke-linecap: round; stroke-miterlimit: 10;"/>
        <circle cx="12.18" cy="23.26" r="1.56" style="fill: none; stroke: #fff; stroke-linecap: round; stroke-miterlimit: 10;"/>
        <g>
          <path d="M31.82,14.12c-.02-.35.04-.7.18-1.01.06-.12.35-.25.45-.29l.04-.02c.23-.08.23-.16.23-.16.45.88.8,0,.8,0,.02.12.49.27.49.27.08.02.14.06.21.12.21.31.23.96.23.96,0,.14-.06.16-.06.16-.39.14-.78.23-1.19.25-.33,0-.66-.04-.99-.1-.1-.02-.21-.06-.31-.1-.08-.04-.08-.08-.08-.08Z" style="fill: #fff; stroke-width: 0px;"/>
          <path d="M33.65,12.21c-.04.29-.29.6-.51.6-.27,0-.51-.31-.53-.6-.02-.02-.04-.06-.04-.08,0,0-.06-.21.02-.18-.08-.16-.06-.37.04-.55.06-.08.16-.14.27-.16l.08-.02s.55-.12.72.31c.02.14.02.29-.02.43.08-.04.02.16.02.16,0,.06-.02.08-.04.1h-.01Z" style="fill: #fff; stroke-width: 0px;"/>
        </g>
        <g>
          <path d="M11.18,14.4c-.02-.35.04-.7.18-1.01.06-.12.35-.25.45-.29l.04-.02c.23-.08.23-.16.23-.16.45.88.8,0,.8,0,.02.12.49.27.49.27.08.02.14.06.21.12.21.31.23.96.23.96,0,.14-.06.16-.06.16-.39.14-.78.23-1.19.25-.33,0-.66-.04-.99-.1-.1-.02-.21-.06-.31-.1-.08-.04-.08-.08-.08-.08Z" style="fill: #fff; stroke-width: 0px;"/>
          <path d="M13,12.49c-.04.29-.29.6-.51.6-.27,0-.51-.31-.53-.6-.02-.02-.04-.06-.04-.08,0,0-.06-.21.02-.18-.08-.16-.06-.37.04-.55.06-.08.16-.14.27-.16l.08-.02s.55-.12.72.31c.02.14.02.29-.02.43.08-.04.02.16.02.16,0,.06-.02.08-.04.1h-.01Z" style="fill: #fff; stroke-width: 0px;"/>
        </g>
        <path d="M13.38,31.9c.04.12.12.22.22.26,0,0,0-.06.02-.08.02,0,.02.02.02.04,0,0,.04-.42-.16-.58h0c-.24-.2-.58-.24-.85-.08-.34.22-.24.68-.24.68.36.04.71-.04.99-.24Z" style="fill: #fff; stroke-width: 0px;"/>
        <path d="M14.22,33.35c-.06-.14-.38-.26-.5-.3-.1-.28-.14-.56-.08-.85-.02.06-.04.14-.08.18-.04.16-.12.32-.22.44,0,.06,0,.12.02.18-.3.5-.56.24-.68.04.02-.06.04-.14.04-.2-.12-.12-.2-.28-.22-.44-.04-.06-.06-.12-.08-.18.06.28.02.58-.08.85-.08.04-.18.08-.26.1-.08,0-.2.14-.2.14-.22.32-.24,1.01-.24,1.01,0,.16.08.18.08.18.4.14.83.24,1.25.26.46.02.93-.06,1.37-.22.08-.06.08-.1.08-.1,0-.38-.06-.75-.22-1.09h.02Z" style="fill: #fff; stroke-width: 0px;"/>
        <path d="M23.41,20.58c.07.22.22.4.4.47,0,0,0-.11.04-.14.04,0,.04.04.04.07,0,0,.07-.75-.29-1.04h0c-.43-.36-1.04-.43-1.54-.14-.61.4-.43,1.22-.43,1.22.65.07,1.29-.07,1.8-.43h-.02Z" style="fill: #fff; stroke-width: 0px;"/>
        <path d="M24.92,23.2c-.11-.25-.68-.47-.9-.54-.18-.5-.25-1.01-.14-1.54-.04.11-.07.25-.14.32-.07.29-.22.57-.4.79,0,.11,0,.22.04.32-.54.9-1.01.43-1.22.07.04-.11.07-.25.07-.36-.22-.22-.36-.5-.4-.79-.07-.11-.11-.22-.14-.32.11.5.04,1.04-.14,1.54-.14.07-.32.14-.47.18-.14,0-.36.25-.36.25-.4.57-.43,1.83-.43,1.83,0,.29.14.32.14.32.72.25,1.51.43,2.26.47.83.04,1.69-.11,2.48-.4.14-.11.14-.18.14-.18,0-.68-.11-1.36-.4-1.98v.02Z" style="fill: #fff; stroke-width: 0px;"/>
      </g>
    </g>
  </g>
</svg>