<svg width="21" height="21" viewBox="0 0 21 21" fill="none" xmlns="http://www.w3.org/2000/svg">
<g clip-path="url(#clip0_2725_1428)">
<path d="M18.7731 8.88995C18.0431 8.88995 17.4431 9.38995 17.2731 10.07H14.2931C14.2831 9.92995 14.2731 9.77995 14.2531 9.63995C14.1231 8.98995 13.8231 8.39995 13.4131 7.89995L15.5131 5.79995C16.1131 6.15995 16.8931 6.07995 17.4031 5.56995C18.0131 4.96995 18.0131 3.97995 17.4031 3.37995C16.8031 2.76995 15.8131 2.76995 15.2131 3.37995C14.7031 3.88995 14.6231 4.67995 14.9831 5.26995L12.8831 7.36995C12.3831 6.95995 11.8031 6.65995 11.1431 6.52995C11.0031 6.49995 10.8531 6.49995 10.7131 6.48995V3.49995C11.3831 3.32995 11.8931 2.72995 11.8931 1.99995C11.8931 1.13995 11.2031 0.449951 10.3431 0.449951C9.48314 0.449951 8.79314 1.13995 8.79314 1.99995C8.79314 2.72995 9.29314 3.32995 9.96314 3.49995V6.48995C9.14314 6.56995 8.40314 6.88995 7.80314 7.38995L5.69314 5.27995C6.05314 4.67995 5.98314 3.89995 5.46314 3.38995C4.85314 2.77995 3.87314 2.77995 3.27314 3.38995C2.66314 3.98995 2.66314 4.97995 3.27314 5.57995C3.78314 6.08995 4.56314 6.16995 5.16314 5.80995L7.27314 7.91995C6.77314 8.51995 6.46314 9.25995 6.38314 10.08H3.39314C3.22314 9.40995 2.62314 8.89995 1.89314 8.89995C1.03314 8.89995 0.34314 9.58995 0.34314 10.45C0.34314 11.31 1.03314 12 1.89314 12C2.62314 12 3.22314 11.5 3.39314 10.83H6.38314C6.46314 11.65 6.78314 12.39 7.27314 12.99L5.16314 15.1C4.56314 14.74 3.78314 14.81 3.27314 15.33C2.66314 15.93 2.66314 16.92 3.27314 17.52C3.87314 18.13 4.86314 18.13 5.46314 17.52C5.97314 17.01 6.05314 16.23 5.69314 15.63L7.80314 13.52C8.40314 14.02 9.14314 14.34 9.96314 14.41V17.4C9.29314 17.57 8.78314 18.17 8.78314 18.9C8.78314 19.76 9.47314 20.45 10.3331 20.45C11.1931 20.45 11.8831 19.76 11.8831 18.9C11.8831 18.17 11.3831 17.57 10.7131 17.4V14.41C10.8631 14.4 11.0031 14.39 11.1431 14.37C11.6631 14.26 12.1531 14.06 12.5731 13.77C12.6831 13.7 12.7831 13.62 12.8831 13.53L14.9831 15.63C14.6231 16.23 14.7031 17.01 15.2131 17.52C15.8231 18.13 16.8031 18.13 17.4031 17.52C18.0131 16.92 18.0131 15.93 17.4031 15.33C16.8931 14.82 16.1031 14.74 15.5131 15.1L13.4131 13C13.9131 12.4 14.2331 11.65 14.3131 10.83H17.2831C17.4531 11.5 18.0531 12 18.7831 12C19.6431 12 20.3331 11.31 20.3331 10.45C20.3331 9.58995 19.6431 8.89995 18.7831 8.89995L18.7731 8.88995ZM12.0031 12.93C11.6831 13.15 11.3231 13.3 10.9331 13.38C10.7331 13.42 10.5331 13.44 10.3331 13.44C8.67314 13.44 7.33314 12.1 7.33314 10.44C7.33314 8.77995 8.67314 7.43995 10.3331 7.43995C10.5431 7.43995 10.7431 7.45995 10.9331 7.49995C12.1031 7.73995 13.0231 8.65995 13.2631 9.83995C13.3031 10.04 13.3231 10.24 13.3231 10.44C13.3231 11.48 12.7931 12.39 12.0031 12.93Z" fill="#90C0E7"/>
</g>
<defs>
<clipPath id="clip0_2725_1428">
<rect width="20" height="20" fill="white" transform="translate(0.34314 0.449951)"/>
</clipPath>
</defs>
</svg>
