<svg width="21" height="21" viewBox="0 0 21 21" fill="none" xmlns="http://www.w3.org/2000/svg">
<g clip-path="url(#clip0_4546_1200)">
<path d="M18.7932 8.64996C18.0632 8.64996 17.4632 9.14996 17.2932 9.82996H14.3132C14.3032 9.68996 14.2932 9.53996 14.2732 9.39996C14.1432 8.74996 13.8432 8.15996 13.4332 7.65996L15.5332 5.55996C16.1332 5.91996 16.9132 5.83996 17.4232 5.32996C18.0332 4.72996 18.0332 3.73996 17.4232 3.13996C16.8232 2.52996 15.8332 2.52996 15.2332 3.13996C14.7232 3.64996 14.6432 4.43996 15.0032 5.02996L12.9032 7.12996C12.4032 6.71996 11.8232 6.41996 11.1632 6.28996C11.0232 6.25996 10.8732 6.25996 10.7332 6.24996V3.25996C11.4032 3.08996 11.9132 2.48996 11.9132 1.75996C11.9132 0.899961 11.2232 0.209961 10.3632 0.209961C9.50316 0.209961 8.81316 0.899961 8.81316 1.75996C8.81316 2.48996 9.31316 3.08996 9.98316 3.25996V6.24996C9.16316 6.32996 8.42316 6.64996 7.82316 7.14996L5.71316 5.03996C6.07316 4.43996 6.00316 3.65996 5.48316 3.14996C4.87316 2.53996 3.89316 2.53996 3.29316 3.14996C2.68316 3.74996 2.68316 4.73996 3.29316 5.33996C3.80316 5.84996 4.58316 5.92996 5.18316 5.56996L7.29316 7.67996C6.79316 8.27996 6.48316 9.01996 6.40316 9.83996H3.41316C3.24316 9.16996 2.64316 8.65996 1.91316 8.65996C1.05316 8.65996 0.363159 9.34996 0.363159 10.21C0.363159 11.07 1.05316 11.76 1.91316 11.76C2.64316 11.76 3.24316 11.26 3.41316 10.59H6.40316C6.48316 11.41 6.80316 12.15 7.29316 12.75L5.18316 14.86C4.58316 14.5 3.80316 14.57 3.29316 15.09C2.68316 15.69 2.68316 16.68 3.29316 17.28C3.89316 17.89 4.88316 17.89 5.48316 17.28C5.99316 16.77 6.07316 15.99 5.71316 15.39L7.82316 13.28C8.42316 13.78 9.16316 14.1 9.98316 14.17V17.16C9.31316 17.33 8.80316 17.93 8.80316 18.66C8.80316 19.52 9.49316 20.21 10.3532 20.21C11.2132 20.21 11.9032 19.52 11.9032 18.66C11.9032 17.93 11.4032 17.33 10.7332 17.16V14.17C10.8832 14.16 11.0232 14.15 11.1632 14.13C11.6832 14.02 12.1732 13.82 12.5932 13.53C12.7032 13.46 12.8032 13.38 12.9032 13.29L15.0032 15.39C14.6432 15.99 14.7232 16.77 15.2332 17.28C15.8432 17.89 16.8232 17.89 17.4232 17.28C18.0332 16.68 18.0332 15.69 17.4232 15.09C16.9132 14.58 16.1232 14.5 15.5332 14.86L13.4332 12.76C13.9332 12.16 14.2532 11.41 14.3332 10.59H17.3032C17.4732 11.26 18.0732 11.76 18.8032 11.76C19.6632 11.76 20.3532 11.07 20.3532 10.21C20.3532 9.34996 19.6632 8.65996 18.8032 8.65996L18.7932 8.64996ZM12.0232 12.69C11.7032 12.91 11.3432 13.06 10.9532 13.14C10.7532 13.18 10.5532 13.2 10.3532 13.2C8.69316 13.2 7.35316 11.86 7.35316 10.2C7.35316 8.53996 8.69316 7.19996 10.3532 7.19996C10.5632 7.19996 10.7632 7.21996 10.9532 7.25996C12.1232 7.49996 13.0432 8.41996 13.2832 9.59996C13.3232 9.79996 13.3432 9.99996 13.3432 10.2C13.3432 11.24 12.8132 12.15 12.0232 12.69Z" fill="#88949A"/>
</g>
<defs>
<clipPath id="clip0_4546_1200">
<rect width="20" height="20" fill="white" transform="translate(0.34314 0.199951)"/>
</clipPath>
</defs>
</svg>
