<?xml version="1.0" encoding="UTF-8"?>
<svg id="Layer_1" data-name="Layer 1" xmlns="http://www.w3.org/2000/svg" viewBox="0 0 45 45">
  <defs>
    <style>
      .cls-1 {
        fill: #fff;
      }

      .cls-2 {
        fill: #b3b4b4;
      }
    </style>
  </defs>
  <circle id="Background" class="cls-2" cx="22.5" cy="22.5" r="22.5"/>
  <g id="Funnel">
    <path class="cls-1" d="m34.93,14.44H10.79c-.97-.08-1.61.64-1.53,1.45,0,.4.16.72.4,1.05l9.82,11.67c.24.32.4.64.4,1.05v6.92c0,.64.4,1.21.97,1.45l3.54,1.29c.48.16,1.05-.16,1.21-.64,0-.08.08-.24.08-.32v-8.61c0-.4.16-.72.4-1.05l9.82-11.67c.24-.32.4-.64.4-1.05,0-.8-.56-1.45-1.37-1.53Zm-19.72,4.99c-1.05,0-1.93-.89-1.93-1.93s.89-1.93,1.93-1.93,1.93.8,1.93,1.93c0,1.05-.89,1.93-1.93,1.93Zm3.86,5.15c-1.05,0-1.93-.89-1.93-1.93s.89-1.93,1.93-1.93,1.93.8,1.93,1.93c0,1.05-.89,1.93-1.93,1.93Zm3.62-5.15c-1.05,0-1.93-.89-1.93-1.93s.89-1.93,1.93-1.93,1.93.8,1.93,1.93c0,1.05-.89,1.93-1.93,1.93Zm3.62,5.15c-1.05,0-1.93-.89-1.93-1.93s.89-1.93,1.93-1.93,1.93.89,1.93,1.93-.89,1.93-1.93,1.93Zm3.86-5.15c-1.05,0-1.93-.89-1.93-1.93s.89-1.93,1.93-1.93,1.93.8,1.93,1.93c0,1.05-.89,1.93-1.93,1.93Z"/>
    <path id="Icon_awesome-circle-3" data-name="Icon awesome-circle-3" class="cls-1" d="m19.08,7.35c-1.05,0-1.93.89-1.93,1.93s.89,1.93,1.93,1.93,1.93-.89,1.93-1.93h0c0-1.13-.89-1.93-1.93-1.93Z"/>
    <path id="Icon_awesome-circle-3-2" data-name="Icon awesome-circle-3" class="cls-1" d="m25.52,8.76c-1.05,0-1.93.89-1.93,1.93s.89,1.93,1.93,1.93,1.93-.89,1.93-1.93h0c0-1.13-.89-1.93-1.93-1.93Z"/>
  </g>
</svg>