<svg width="21" height="21" viewBox="0 0 21 21" fill="none" xmlns="http://www.w3.org/2000/svg">
<g clip-path="url(#clip0_2725_1429)">
<path d="M18.7932 8.89996C18.0632 8.89996 17.4632 9.39996 17.2932 10.08H14.3132C14.3032 9.93996 14.2932 9.78996 14.2732 9.64996C14.1432 8.99996 13.8432 8.40996 13.4332 7.90996L15.5332 5.80996C16.1332 6.16996 16.9132 6.08996 17.4232 5.57996C18.0332 4.97996 18.0332 3.98996 17.4232 3.38996C16.8232 2.77996 15.8332 2.77996 15.2332 3.38996C14.7232 3.89996 14.6432 4.68996 15.0032 5.27996L12.9032 7.37996C12.4032 6.96996 11.8232 6.66996 11.1632 6.53996C11.0232 6.50996 10.8732 6.50996 10.7332 6.49996V3.50996C11.4032 3.33996 11.9132 2.73996 11.9132 2.00996C11.9132 1.14996 11.2232 0.459961 10.3632 0.459961C9.50316 0.459961 8.81316 1.14996 8.81316 2.00996C8.81316 2.73996 9.31316 3.33996 9.98316 3.50996V6.49996C9.16316 6.57996 8.42316 6.89996 7.82316 7.39996L5.71316 5.28996C6.07316 4.68996 6.00316 3.90996 5.48316 3.39996C4.87316 2.78996 3.89316 2.78996 3.29316 3.39996C2.68316 3.99996 2.68316 4.98996 3.29316 5.58996C3.80316 6.09996 4.58316 6.17996 5.18316 5.81996L7.29316 7.92996C6.79316 8.52996 6.48316 9.26996 6.40316 10.09H3.41316C3.24316 9.41996 2.64316 8.90996 1.91316 8.90996C1.05316 8.90996 0.363159 9.59996 0.363159 10.46C0.363159 11.32 1.05316 12.01 1.91316 12.01C2.64316 12.01 3.24316 11.51 3.41316 10.84H6.40316C6.48316 11.66 6.80316 12.4 7.29316 13L5.18316 15.11C4.58316 14.75 3.80316 14.82 3.29316 15.34C2.68316 15.94 2.68316 16.93 3.29316 17.53C3.89316 18.14 4.88316 18.14 5.48316 17.53C5.99316 17.02 6.07316 16.24 5.71316 15.64L7.82316 13.53C8.42316 14.03 9.16316 14.35 9.98316 14.42V17.41C9.31316 17.58 8.80316 18.18 8.80316 18.91C8.80316 19.77 9.49316 20.46 10.3532 20.46C11.2132 20.46 11.9032 19.77 11.9032 18.91C11.9032 18.18 11.4032 17.58 10.7332 17.41V14.42C10.8832 14.41 11.0232 14.4 11.1632 14.38C11.6832 14.27 12.1732 14.07 12.5932 13.78C12.7032 13.71 12.8032 13.63 12.9032 13.54L15.0032 15.64C14.6432 16.24 14.7232 17.02 15.2332 17.53C15.8432 18.14 16.8232 18.14 17.4232 17.53C18.0332 16.93 18.0332 15.94 17.4232 15.34C16.9132 14.83 16.1232 14.75 15.5332 15.11L13.4332 13.01C13.9332 12.41 14.2532 11.66 14.3332 10.84H17.3032C17.4732 11.51 18.0732 12.01 18.8032 12.01C19.6632 12.01 20.3532 11.32 20.3532 10.46C20.3532 9.59996 19.6632 8.90996 18.8032 8.90996L18.7932 8.89996ZM12.0232 12.94C11.7032 13.16 11.3432 13.31 10.9532 13.39C10.7532 13.43 10.5532 13.45 10.3532 13.45C8.69316 13.45 7.35316 12.11 7.35316 10.45C7.35316 8.78996 8.69316 7.44996 10.3532 7.44996C10.5632 7.44996 10.7632 7.46996 10.9532 7.50996C12.1232 7.74996 13.0432 8.66996 13.2832 9.84996C13.3232 10.05 13.3432 10.25 13.3432 10.45C13.3432 11.49 12.8132 12.4 12.0232 12.94Z" fill="#E6E9EA"/>
</g>
<defs>
<clipPath id="clip0_2725_1429">
<rect width="20" height="20" fill="white" transform="translate(0.34314 0.449951)"/>
</clipPath>
</defs>
</svg>
