<?xml version="1.0" encoding="UTF-8"?><svg id="Layer_2" xmlns="http://www.w3.org/2000/svg" viewBox="0 0 35 35"><defs><style>.a{fill:#fff;}.b{fill:#6ac6f4;}.c{fill:#555;}</style></defs><g id="Layer_2-2"><g id="Layer_1-2"><circle class="a" cx="17.5" cy="17.5" r="17.5"/></g><g><path class="c" d="M16.37,22.32c.98-.6,1.72-1.41,2.23-2.47l8.28,9.07c-.17,.02-.26,.04-.36,.04-1.28,0-2.55,0-3.83,0-.17,0-.39-.08-.51-.2-1.92-2.09-3.83-4.19-5.74-6.29-.02-.02-.03-.05-.07-.14Z"/><path class="c" d="M18.61,15.52c-.55-1.06-1.28-1.86-2.27-2.48,.12-.14,.22-.27,.33-.38,1.83-1.87,3.65-3.74,5.49-5.6,.11-.11,.31-.2,.47-.2,1.44-.02,2.89,0,4.5,0l-8.51,8.67Z"/><path class="c" d="M8.92,20.07c.67,1.16,1.5,1.99,2.65,2.48,.2,.08,.39,.2,.59,.22,.51,.06,.63,.31,.62,.81-.04,1.59-.01,3.19-.01,4.78,0,.18,0,.36,0,.56h-3.85v-8.86Z"/><path class="c" d="M12.78,6.87c0,1.35,0,2.65,0,3.95,0,.42-.01,.85,0,1.27,.01,.24-.07,.36-.3,.41-1.51,.37-2.64,1.24-3.42,2.58-.02,.04-.05,.07-.13,.21V6.87h3.85Z"/><path class="b" d="M28.3,16.8h-11.53c-.46-1.17-1.59-2.01-2.92-2.01s-2.47,.83-2.92,2.01H6.8v2.31h4.13c.47,1.15,1.59,1.97,2.91,1.97s2.45-.81,2.91-1.97h11.54v-2.31Z"/></g></g></svg>