<?xml version="1.0" encoding="UTF-8"?>
<svg id="Layer_2" data-name="Layer 2" xmlns="http://www.w3.org/2000/svg" viewBox="0 0 7.88 10">
  <defs>
    <style>
      .cls-1 {
        fill: #b3b3b3;
      }
    </style>
  </defs>
  <g id="main_design" data-name="main design">
    <path id="Icon_awesome-lock" data-name="Icon awesome-lock" class="cls-1" d="M7.03,4.36h-.42v-1.41C6.6,1.3,5.39-.02,3.91,0,2.46,.02,1.28,1.33,1.27,2.95v1.41h-.42c-.47,0-.84,.42-.84,.94v3.76c0,.52,.38,.94,.84,.94H7.03c.47,0,.84-.42,.84-.94v-3.76c0-.52-.38-.94-.84-.94Zm-1.83-.29H2.67v-1.28c0-.71,.58-1.27,1.28-1.26,.69,0,1.24,.57,1.25,1.26v1.28Z"/>
  </g>
</svg>