<svg width="23" height="23" viewBox="0 0 23 23" fill="none" xmlns="http://www.w3.org/2000/svg">
<path d="M21.7804 10.4H20.7804C20.3804 5.89995 16.7804 2.39995 12.3804 1.99995V0.999952C12.3804 0.599952 11.9804 0.199951 11.5804 0.199951C11.1804 0.199951 10.7804 0.599952 10.7804 0.999952V1.99995C6.28044 2.39995 2.78045 5.99995 2.38045 10.4H1.38045C0.980447 10.4 0.580444 10.8 0.580444 11.2C0.580444 11.6 0.980447 12 1.38045 12H2.38045C2.78045 16.5 6.38044 20 10.7804 20.4V21.4C10.7804 21.8 11.1804 22.2 11.5804 22.2C11.9804 22.2 12.3804 21.8 12.3804 21.4V20.4C16.8804 20 20.3804 16.4 20.7804 12H21.7804C22.1804 12 22.5804 11.6 22.5804 11.2C22.5804 10.8 22.2804 10.4 21.7804 10.4ZM19.2804 12C18.8804 15.6 15.9804 18.5 12.3804 18.9V17.1H10.7804V18.9C7.18044 18.5 4.28045 15.6 3.88045 12H5.68045V10.4H3.88045C4.28045 6.79995 7.18044 3.89995 10.7804 3.49995V5.29995H12.3804V3.49995C15.9804 3.89995 18.8804 6.79995 19.2804 10.4H17.4805V12H19.2804Z" fill="#88949A"/>
<path d="M11.5805 6.69995C9.08046 6.69995 6.98047 8.79995 6.98047 11.3C6.98047 13.8 9.08046 15.9 11.5805 15.9C14.0805 15.9 16.1805 13.8 16.1805 11.3C16.1805 8.69995 14.0805 6.69995 11.5805 6.69995ZM10.8805 13.3L9.28046 11.7L9.78046 11.2L10.8805 12.2L13.5805 9.29995L14.1805 9.79995L10.8805 13.3Z" fill="#88949A"/>
</svg>
