<svg width="23" height="23" viewBox="0 0 23 23" fill="none" xmlns="http://www.w3.org/2000/svg">
<path d="M21.7804 10.65H20.7804C20.3804 6.14995 16.7804 2.64995 12.3804 2.24995V1.24995C12.3804 0.849952 11.9804 0.449951 11.5804 0.449951C11.1804 0.449951 10.7804 0.849952 10.7804 1.24995V2.24995C6.28044 2.64995 2.78045 6.24995 2.38045 10.65H1.38045C0.980447 10.65 0.580444 11.05 0.580444 11.45C0.580444 11.85 0.980447 12.25 1.38045 12.25H2.38045C2.78045 16.75 6.38044 20.25 10.7804 20.65V21.65C10.7804 22.05 11.1804 22.45 11.5804 22.45C11.9804 22.45 12.3804 22.05 12.3804 21.65V20.65C16.8804 20.25 20.3804 16.65 20.7804 12.25H21.7804C22.1804 12.25 22.5804 11.85 22.5804 11.45C22.5804 11.05 22.2804 10.65 21.7804 10.65ZM19.2804 12.25C18.8804 15.85 15.9804 18.75 12.3804 19.15V17.35H10.7804V19.15C7.18044 18.75 4.28045 15.85 3.88045 12.25H5.68045V10.65H3.88045C4.28045 7.04995 7.18044 4.14995 10.7804 3.74995V5.54995H12.3804V3.74995C15.9804 4.14995 18.8804 7.04995 19.2804 10.65H17.4805V12.25H19.2804Z" fill="#90C0E7"/>
<path d="M11.5805 6.94995C9.08046 6.94995 6.98047 9.04995 6.98047 11.55C6.98047 14.05 9.08046 16.15 11.5805 16.15C14.0805 16.15 16.1805 14.05 16.1805 11.55C16.1805 8.94995 14.0805 6.94995 11.5805 6.94995ZM10.8805 13.55L9.28046 11.95L9.78046 11.45L10.8805 12.45L13.5805 9.54995L14.1805 10.05L10.8805 13.55Z" fill="#90C0E7"/>
</svg>
