<?xml version="1.0" encoding="UTF-8"?>
<svg id="Layer_1" data-name="Layer 1" xmlns="http://www.w3.org/2000/svg" viewBox="0 0 45 45">
  <defs>
    <style>
      .cls-1 {
        fill: #fff;
      }

      .cls-2 {
        fill: #b3b4b4;
      }
    </style>
  </defs>
  <path id="Background" class="cls-2" d="m45,22.5c0,12.47-10.13,22.5-22.5,22.5S0,34.88,0,22.5,10.13,0,22.5,0s22.5,10.03,22.5,22.5Z"/>
  <path id="Bell" class="cls-1" d="m22.36,37.5c2.11,0,3.76-1.65,3.76-3.76h-7.52c.09,2.02,1.74,3.76,3.76,3.76h0Zm12.66-8.81c-1.1-1.19-3.21-3.03-3.21-9.08,0-4.4-3.12-8.26-7.52-9.08v-1.19c0-1.01-.83-1.83-1.83-1.83s-1.83.83-1.83,1.83v1.19c-4.31.83-7.52,4.68-7.52,9.08,0,5.96-2.11,7.8-3.21,9.08-.37.37-.55.83-.55,1.28,0,1.01.83,1.83,1.93,1.83h22.48c1.01,0,1.83-.83,1.93-1.83-.09-.46-.28-.92-.64-1.28Z"/>
</svg>