<?xml version="1.0" encoding="UTF-8"?><svg id="Layer_2" xmlns="http://www.w3.org/2000/svg" viewBox="0 0 95.42 47.7"><g id="Layer_1-2"><path d="m6.5,46.95c-3.17,0-5.75-2.58-5.75-5.75V6.5C.75,3.33,3.33.75,6.5.75h82.42c3.17,0,5.75,2.58,5.75,5.75v34.7c0,3.17-2.58,5.75-5.75,5.75H6.5ZM72.04,9.69c-7.81,0-14.16,6.35-14.16,14.16s6.35,14.16,14.16,14.16,14.16-6.35,14.16-14.16-6.35-14.16-14.16-14.16Z" style="fill:#fff; stroke-width:0px;"/><path d="m88.92,1.5c2.76,0,5,2.24,5,5v34.7c0,2.76-2.24,5-5,5H6.5c-2.76,0-5-2.24-5-5V6.5C1.5,3.74,3.74,1.5,6.5,1.5h82.42m-16.89,37.26c8.23,0,14.91-6.67,14.91-14.91s-6.67-14.91-14.91-14.91-14.91,6.67-14.91,14.91,6.67,14.91,14.91,14.91M88.92,0H6.5C2.92,0,0,2.92,0,6.5v34.7c0,3.58,2.92,6.5,6.5,6.5h82.42c3.58,0,6.5-2.92,6.5-6.5V6.5c0-3.58-2.92-6.5-6.5-6.5h0Zm-16.89,37.26c-7.39,0-13.41-6.01-13.41-13.41s6.01-13.41,13.41-13.41,13.41,6.01,13.41,13.41-6.01,13.41-13.41,13.41h0Z" style="fill:#fff; stroke-width:0px;"/><path d="m89.63,1.5H5.79C3.42,1.5,1.5,3.42,1.5,5.79v6.33c0,.72.59,1.31,1.31,1.31h58.05c.34,0,.66-.14.9-.37,2.67-2.55,6.29-4.11,10.28-4.11s7.6,1.57,10.28,4.11c.24.23.56.37.9.37h9.4c.72,0,1.31-.59,1.31-1.31v-6.33c0-2.37-1.92-4.29-4.29-4.29Z" style="fill:#d5f0e2; stroke-width:0px;"/><path d="m9.27,9h-.45l-1.86-2.86h-.02c.02.34.04.64.04.92v1.94h-.37v-3.41h.45l1.86,2.85h.02s0-.18-.02-.4-.01-.39-.01-.49v-1.95h.37v3.41Z" style="fill:#4d4d4d; stroke-width:0px;"/><path d="m12.36,7.72c0,.42-.1.74-.31.97-.21.23-.5.35-.87.35-.23,0-.43-.05-.61-.16s-.31-.26-.41-.46c-.1-.2-.14-.43-.14-.7,0-.42.1-.74.31-.97.21-.23.5-.35.87-.35s.64.12.85.36c.21.24.32.56.32.96Zm-1.94,0c0,.33.06.57.2.75.13.17.32.26.58.26s.45-.08.58-.25c.13-.17.2-.42.2-.75s-.07-.57-.2-.74c-.13-.17-.32-.25-.58-.25s-.44.08-.57.25c-.13.17-.19.41-.19.74Z" style="fill:#4d4d4d; stroke-width:0px;"/><path d="m13.86,8.73c.07,0,.13,0,.2-.02.06,0,.11-.02.15-.03v.3s-.1.04-.19.05c-.08.01-.15.02-.22.02-.49,0-.74-.26-.74-.78v-1.52h-.37v-.19l.37-.16.16-.54h.22v.59h.74v.3h-.74v1.5c0,.15.04.27.11.35.07.08.17.12.3.12Z" style="fill:#4d4d4d; stroke-width:0px;"/><path d="m14.68,5.75c0-.09.02-.15.07-.2.04-.04.1-.06.16-.06s.12.02.16.06c.04.04.07.11.07.19s-.02.15-.07.19c-.04.04-.1.06-.16.06s-.12-.02-.16-.06c-.04-.04-.07-.11-.07-.19Zm.42,3.24h-.39v-2.55h.39v2.55Z" style="fill:#4d4d4d; stroke-width:0px;"/><path d="m17.07,6.75h-.65v2.25h-.39v-2.25h-.46v-.17l.46-.14v-.14c0-.63.27-.94.82-.94.13,0,.29.03.47.08l-.1.31c-.15-.05-.28-.07-.38-.07-.15,0-.25.05-.32.15-.07.1-.1.25-.1.47v.17h.65v.3Z" style="fill:#4d4d4d; stroke-width:0px;"/><path d="m17.14,6.45h.41l.56,1.46c.12.33.2.57.23.72h.02c.02-.08.06-.21.13-.41.06-.19.27-.78.63-1.77h.42l-1.1,2.91c-.11.29-.24.49-.38.61-.14.12-.32.18-.53.18-.12,0-.23-.01-.35-.04v-.31c.09.02.18.03.29.03.26,0,.45-.15.57-.45l.14-.36-1.03-2.57Z" style="fill:#4d4d4d; stroke-width:0px;"/><path d="m22.16,6.58c0,.34-.12.61-.35.8s-.57.28-1.01.28h-.4v1.34h-.4v-3.41h.88c.85,0,1.28.33,1.28.99Zm-1.76.73h.36c.35,0,.6-.06.76-.17.16-.11.24-.29.24-.54,0-.22-.07-.39-.22-.5s-.38-.17-.69-.17h-.44v1.38Z" style="fill:#4d4d4d; stroke-width:0px;"/><path d="m23.2,9h-.39v-3.62h.39v3.62Z" style="fill:#4d4d4d; stroke-width:0px;"/><path d="m24.39,6.45v1.66c0,.21.05.36.14.47s.24.15.45.15c.27,0,.46-.07.59-.22.12-.15.18-.38.18-.71v-1.34h.39v2.55h-.32l-.06-.34h-.02c-.08.13-.19.22-.33.29s-.3.1-.48.1c-.31,0-.54-.07-.7-.22-.15-.15-.23-.38-.23-.71v-1.67h.39Z" style="fill:#4d4d4d; stroke-width:0px;"/><path d="m28.6,8.3c0,.24-.09.42-.27.55s-.43.19-.75.19c-.34,0-.6-.05-.79-.16v-.36c.12.06.25.11.39.15.14.04.28.05.41.05.2,0,.36-.03.47-.1.11-.06.16-.16.16-.29,0-.1-.04-.18-.13-.25s-.25-.15-.5-.25c-.24-.09-.41-.17-.51-.23-.1-.07-.17-.14-.22-.22s-.07-.18-.07-.3c0-.21.08-.37.25-.49.17-.12.4-.18.7-.18.27,0,.54.06.81.17l-.14.31c-.26-.11-.49-.16-.7-.16-.18,0-.32.03-.41.09-.09.06-.14.14-.14.24,0,.07.02.13.05.17.04.05.09.09.17.14.08.04.23.11.45.19.3.11.51.22.61.33.11.11.16.25.16.42Z" style="fill:#4d4d4d; stroke-width:0px;"/><path d="m31.62,6.75h-.65v2.25h-.39v-2.25h-.46v-.17l.46-.14v-.14c0-.63.27-.94.82-.94.13,0,.29.03.47.08l-.1.31c-.15-.05-.28-.07-.38-.07-.15,0-.25.05-.32.15-.07.1-.1.25-.1.47v.17h.65v.3Z" style="fill:#4d4d4d; stroke-width:0px;"/><path d="m34.29,7.72c0,.42-.1.74-.31.97-.21.23-.5.35-.87.35-.23,0-.43-.05-.61-.16s-.31-.26-.41-.46c-.1-.2-.14-.43-.14-.7,0-.42.1-.74.31-.97.21-.23.5-.35.87-.35s.64.12.85.36c.21.24.32.56.32.96Zm-1.94,0c0,.33.06.57.2.75.13.17.32.26.58.26s.45-.08.58-.25c.13-.17.2-.42.2-.75s-.07-.57-.2-.74c-.13-.17-.32-.25-.58-.25s-.44.08-.57.25c-.13.17-.19.41-.19.74Z" style="fill:#4d4d4d; stroke-width:0px;"/><path d="m36.13,6.4c.11,0,.22,0,.31.03l-.05.36c-.11-.02-.2-.04-.28-.04-.21,0-.38.08-.53.25s-.22.38-.22.63v1.37h-.39v-2.55h.32l.04.47h.02c.09-.17.21-.29.34-.38.13-.09.28-.14.44-.14Z" style="fill:#4d4d4d; stroke-width:0px;"/><path d="m40.13,8.09c0,.3-.11.53-.33.7-.22.17-.51.25-.88.25-.4,0-.71-.05-.93-.16v-.38c.14.06.29.11.46.14.17.03.33.05.49.05.26,0,.46-.05.6-.15.13-.1.2-.24.2-.42,0-.12-.02-.21-.07-.29-.05-.08-.13-.14-.24-.21s-.28-.14-.51-.22c-.32-.11-.54-.25-.68-.4s-.2-.36-.2-.61c0-.26.1-.47.3-.63s.46-.23.78-.23.65.06.93.19l-.12.34c-.28-.12-.55-.18-.82-.18-.21,0-.37.05-.49.14-.12.09-.18.21-.18.38,0,.12.02.21.07.29.04.08.12.14.22.21.1.06.26.13.47.21.36.13.6.26.74.41.13.15.2.34.2.57Z" style="fill:#4d4d4d; stroke-width:0px;"/><path d="m41.15,9h-.39v-3.62h.39v3.62Z" style="fill:#4d4d4d; stroke-width:0px;"/><path d="m43.54,9l-.08-.36h-.02c-.13.16-.25.27-.38.33-.13.06-.29.08-.47.08-.25,0-.45-.07-.59-.2-.14-.13-.22-.32-.22-.56,0-.52.41-.79,1.24-.81h.43v-.17c0-.2-.04-.35-.13-.44-.09-.09-.22-.14-.41-.14-.21,0-.45.07-.72.2l-.12-.3c.12-.07.26-.12.41-.16.15-.04.3-.06.45-.06.3,0,.53.07.68.2.15.14.22.35.22.65v1.74h-.29Zm-.87-.27c.24,0,.43-.07.57-.2.14-.13.21-.32.21-.55v-.23l-.39.02c-.31.01-.53.06-.67.14-.14.08-.2.22-.2.39,0,.14.04.25.13.32.08.07.2.11.36.11Z" style="fill:#4d4d4d; stroke-width:0px;"/><path d="m45.65,9.04c-.37,0-.66-.11-.86-.34-.2-.23-.3-.55-.3-.96s.1-.76.31-.99c.21-.23.5-.35.88-.35.12,0,.25.01.37.04.12.03.22.06.29.09l-.12.33c-.09-.03-.18-.06-.28-.08-.1-.02-.19-.03-.27-.03-.52,0-.78.33-.78.99,0,.31.06.55.19.72.13.17.31.25.56.25.21,0,.43-.05.65-.14v.34c-.17.09-.39.13-.65.13Z" style="fill:#4d4d4d; stroke-width:0px;"/><path d="m47.28,7.69c.07-.09.17-.22.3-.37l.83-.87h.46l-1.03,1.09,1.11,1.46h-.47l-.9-1.21-.29.25v.96h-.38v-3.62h.38v1.92c0,.09,0,.22-.02.4h.02Z" style="fill:#4d4d4d; stroke-width:0px;"/><path d="m16.61,24.11c0,.4-.15.72-.44.94-.29.23-.69.34-1.19.34-.54,0-.96-.07-1.25-.21v-.51c.19.08.39.14.61.19.22.05.44.07.66.07.36,0,.62-.07.8-.2s.27-.32.27-.56c0-.16-.03-.29-.1-.39-.06-.1-.17-.19-.32-.28-.15-.09-.38-.18-.68-.29-.43-.15-.73-.33-.92-.54-.18-.21-.27-.48-.27-.82,0-.35.13-.63.4-.84s.62-.31,1.05-.31.88.08,1.26.25l-.17.46c-.38-.16-.75-.24-1.1-.24-.28,0-.5.06-.66.18-.16.12-.24.29-.24.51,0,.16.03.29.09.39s.16.19.3.28c.14.08.35.18.64.28.48.17.81.36.99.55s.27.45.27.77Z" style="fill:#4d4d4d; stroke-width:0px;"/><path d="m18.92,25.4c-.51,0-.91-.15-1.2-.46s-.44-.74-.44-1.29.14-1,.41-1.32c.27-.33.64-.49,1.1-.49.43,0,.77.14,1.02.42s.38.66.38,1.12v.33h-2.37c.01.4.11.71.31.92.19.21.47.31.82.31.37,0,.74-.08,1.1-.23v.46c-.18.08-.36.14-.52.17-.16.04-.36.05-.59.05Zm-.14-3.13c-.28,0-.5.09-.66.27-.16.18-.26.43-.29.75h1.8c0-.33-.07-.58-.22-.75-.15-.17-.36-.26-.63-.26Z" style="fill:#4d4d4d; stroke-width:0px;"/><path d="m23.43,25.33v-2.22c0-.28-.06-.49-.19-.63-.13-.14-.33-.21-.6-.21-.36,0-.62.1-.79.29-.17.19-.25.52-.25.96v1.8h-.52v-3.44h.42l.08.47h.03c.11-.17.26-.3.45-.39.19-.09.41-.14.64-.14.41,0,.73.1.94.3.21.2.31.52.31.96v2.24h-.52Z" style="fill:#4d4d4d; stroke-width:0px;"/><path d="m27.36,24.87h-.03c-.24.35-.6.52-1.08.52-.45,0-.8-.15-1.05-.46s-.38-.75-.38-1.31.12-1.01.38-1.32c.25-.31.6-.47,1.05-.47s.83.17,1.07.51h.04l-.02-.25v-.24s-.01-1.4-.01-1.4h.52v4.88h-.42l-.07-.46Zm-1.04.09c.36,0,.61-.1.77-.29.16-.19.24-.51.24-.94v-.11c0-.49-.08-.84-.24-1.04s-.42-.31-.78-.31c-.31,0-.54.12-.7.36s-.24.57-.24,1.01.08.77.24,1,.4.34.71.34Z" style="fill:#4d4d4d; stroke-width:0px;"/><path d="m33.59,25.33l-.57-1.46h-1.84l-.56,1.46h-.54l1.81-4.61h.45l1.8,4.61h-.55Zm-.74-1.94l-.53-1.42c-.07-.18-.14-.4-.21-.66-.05.2-.11.42-.2.66l-.54,1.42h1.48Z" style="fill:#4d4d4d; stroke-width:0px;"/><path d="m36.07,25.4c-.5,0-.88-.15-1.16-.46-.27-.31-.41-.74-.41-1.3s.14-1.02.42-1.33c.28-.31.67-.47,1.18-.47.17,0,.33.02.5.05.17.04.29.08.39.13l-.16.44c-.12-.05-.24-.08-.38-.11s-.26-.05-.36-.05c-.7,0-1.05.45-1.05,1.34,0,.42.09.75.26.97.17.23.42.34.76.34.29,0,.58-.06.88-.18v.46c-.23.12-.52.18-.87.18Z" style="fill:#4d4d4d; stroke-width:0px;"/><path d="m38.87,24.97c.09,0,.18,0,.27-.02s.15-.03.2-.04v.4c-.06.03-.14.05-.25.07-.11.02-.21.03-.3.03-.67,0-1-.35-1-1.05v-2.05h-.49v-.25l.49-.22.22-.73h.3v.8h1v.41h-1v2.02c0,.21.05.37.15.48.1.11.23.17.4.17Z" style="fill:#4d4d4d; stroke-width:0px;"/><path d="m39.98,20.96c0-.12.03-.21.09-.26.06-.05.13-.08.22-.08.08,0,.16.03.22.08s.09.14.09.26-.03.2-.09.26-.13.09-.22.09c-.09,0-.16-.03-.22-.09s-.09-.14-.09-.26Zm.56,4.37h-.52v-3.44h.52v3.44Z" style="fill:#4d4d4d; stroke-width:0px;"/><path d="m44.62,23.61c0,.56-.14,1-.42,1.31-.28.31-.67.47-1.17.47-.31,0-.58-.07-.82-.22-.24-.14-.42-.35-.55-.62-.13-.27-.19-.59-.19-.95,0-.56.14-1,.42-1.31s.67-.47,1.17-.47.86.16,1.15.48c.28.32.43.75.43,1.3Zm-2.62,0c0,.44.09.77.26,1s.43.35.78.35.6-.12.78-.34c.18-.23.27-.56.27-1.01s-.09-.77-.27-1c-.18-.23-.44-.34-.78-.34s-.6.11-.77.34c-.17.22-.26.56-.26,1Z" style="fill:#4d4d4d; stroke-width:0px;"/><path d="m47.89,25.33v-2.22c0-.28-.06-.49-.19-.63-.13-.14-.33-.21-.6-.21-.36,0-.62.1-.79.29-.17.19-.25.52-.25.96v1.8h-.52v-3.44h.42l.08.47h.03c.11-.17.26-.3.45-.39.19-.09.41-.14.64-.14.41,0,.73.1.94.3.21.2.31.52.31.96v2.24h-.52Z" style="fill:#4d4d4d; stroke-width:0px;"/><path d="m17.98,33.05h-.61l-2.51-3.85h-.03c.03.45.05.87.05,1.24v2.61h-.49v-4.59h.6l2.5,3.83h.03c0-.06-.01-.24-.03-.54s-.02-.53-.02-.66v-2.63h.5v4.59Z" style="fill:#4d4d4d; stroke-width:0px;"/><path d="m22.14,31.32c0,.56-.14,1-.42,1.31-.28.31-.67.47-1.17.47-.31,0-.58-.07-.82-.22-.24-.14-.42-.35-.55-.62-.13-.27-.19-.59-.19-.95,0-.56.14-1,.42-1.31s.67-.47,1.17-.47.86.16,1.15.48c.28.32.43.75.43,1.3Zm-2.62,0c0,.44.09.77.26,1s.43.35.78.35.6-.12.78-.34c.18-.23.27-.56.27-1.01s-.09-.77-.27-1c-.18-.23-.44-.34-.78-.34s-.6.11-.77.34c-.17.22-.26.56-.26,1Z" style="fill:#4d4d4d; stroke-width:0px;"/><path d="m24.16,32.68c.09,0,.18,0,.27-.02s.15-.03.2-.04v.4c-.06.03-.14.05-.25.07-.11.02-.21.03-.3.03-.67,0-1-.35-1-1.05v-2.05h-.49v-.25l.49-.22.22-.73h.3v.8h1v.41h-1v2.02c0,.21.05.37.15.48.1.11.23.17.4.17Z" style="fill:#4d4d4d; stroke-width:0px;"/><path d="m25.27,28.68c0-.12.03-.21.09-.26.06-.05.13-.08.22-.08.08,0,.16.03.22.08s.09.14.09.26-.03.2-.09.26-.13.09-.22.09c-.09,0-.16-.03-.22-.09s-.09-.14-.09-.26Zm.56,4.37h-.52v-3.44h.52v3.44Z" style="fill:#4d4d4d; stroke-width:0px;"/><path d="m28.49,30.01h-.88v3.03h-.52v-3.03h-.62v-.24l.62-.19v-.19c0-.85.37-1.27,1.11-1.27.18,0,.4.04.64.11l-.13.42c-.2-.06-.37-.1-.51-.1-.2,0-.34.07-.44.2-.09.13-.14.34-.14.63v.22h.88v.41Zm.58-1.34c0-.12.03-.21.09-.26.06-.05.13-.08.22-.08.08,0,.16.03.22.08.06.06.09.14.09.26s-.03.2-.09.26c-.06.06-.13.09-.22.09-.09,0-.16-.03-.22-.09s-.09-.14-.09-.26Zm.56,4.37h-.52v-3.44h.52v3.44Z" style="fill:#4d4d4d; stroke-width:0px;"/><path d="m32.12,33.11c-.5,0-.88-.15-1.16-.46-.27-.31-.41-.74-.41-1.3s.14-1.02.42-1.33c.28-.31.67-.47,1.18-.47.17,0,.33.02.5.05.17.04.29.08.39.13l-.16.44c-.12-.05-.24-.08-.38-.11s-.26-.05-.36-.05c-.7,0-1.05.45-1.05,1.34,0,.42.09.75.26.97.17.23.42.34.76.34.29,0,.58-.06.88-.18v.46c-.23.12-.52.18-.87.18Z" style="fill:#4d4d4d; stroke-width:0px;"/><path d="m35.92,33.05l-.1-.49h-.02c-.17.21-.34.36-.51.44-.17.08-.38.11-.64.11-.34,0-.61-.09-.8-.26s-.29-.43-.29-.75c0-.69.56-1.06,1.67-1.09l.58-.02v-.21c0-.27-.06-.47-.17-.6s-.3-.19-.56-.19c-.29,0-.61.09-.97.26l-.16-.4c.17-.09.36-.16.56-.22.2-.05.4-.08.61-.08.41,0,.71.09.91.27.2.18.3.47.3.88v2.35h-.39Zm-1.18-.37c.32,0,.58-.09.76-.27s.28-.43.28-.75v-.31l-.52.02c-.41.01-.71.08-.9.19-.18.11-.27.29-.27.53,0,.19.06.33.17.43.11.1.27.15.48.15Z" style="fill:#4d4d4d; stroke-width:0px;"/><path d="m38.49,32.68c.09,0,.18,0,.27-.02s.15-.03.2-.04v.4c-.06.03-.14.05-.25.07-.11.02-.21.03-.3.03-.67,0-1-.35-1-1.05v-2.05h-.49v-.25l.49-.22.22-.73h.3v.8h1v.41h-1v2.02c0,.21.05.37.15.48.1.11.23.17.4.17Z" style="fill:#4d4d4d; stroke-width:0px;"/><path d="m39.6,28.68c0-.12.03-.21.09-.26.06-.05.13-.08.22-.08.08,0,.16.03.22.08s.09.14.09.26-.03.2-.09.26-.13.09-.22.09c-.09,0-.16-.03-.22-.09s-.09-.14-.09-.26Zm.56,4.37h-.52v-3.44h.52v3.44Z" style="fill:#4d4d4d; stroke-width:0px;"/><path d="m44.24,31.32c0,.56-.14,1-.42,1.31-.28.31-.67.47-1.17.47-.31,0-.58-.07-.82-.22-.24-.14-.42-.35-.55-.62-.13-.27-.19-.59-.19-.95,0-.56.14-1,.42-1.31s.67-.47,1.17-.47.86.16,1.15.48c.28.32.43.75.43,1.3Zm-2.62,0c0,.44.09.77.26,1s.43.35.78.35.6-.12.78-.34c.18-.23.27-.56.27-1.01s-.09-.77-.27-1c-.18-.23-.44-.34-.78-.34s-.6.11-.77.34c-.17.22-.26.56-.26,1Z" style="fill:#4d4d4d; stroke-width:0px;"/><path d="m47.51,33.05v-2.22c0-.28-.06-.49-.19-.63-.13-.14-.33-.21-.6-.21-.36,0-.62.1-.79.29-.17.19-.25.52-.25.96v1.8h-.52v-3.44h.42l.08.47h.03c.11-.17.26-.3.45-.39.19-.09.41-.14.64-.14.41,0,.73.1.94.3.21.2.31.52.31.96v2.24h-.52Z" style="fill:#4d4d4d; stroke-width:0px;"/><circle cx="72.04" cy="23.85" r="14.91" style="fill:#fff; stroke-width:0px;"/><path d="m5.3,42.04c0,.35-.28.63-.63.63s-.63-.28-.63-.63.28-.63.63-.63h.63v.63Z" style="fill:#d31a69; stroke-width:0px;"/><path d="m5.61,42.04c0-.35.28-.63.63-.63s.63.28.63.63v1.57c0,.35-.28.63-.63.63s-.63-.28-.63-.63v-1.57Z" style="fill:#d31a69; stroke-width:0px;"/><path d="m6.24,39.53c-.35,0-.63-.28-.63-.63s.28-.63.63-.63.63.28.63.63v.63h-.63Z" style="fill:#3fb3e1; stroke-width:0px;"/><path d="m6.24,39.85c.35,0,.63.28.63.63,0,.35-.28.63-.63.63h-1.57c-.35,0-.63-.28-.63-.63s.28-.63.63-.63h1.57Z" style="fill:#3fb3e1; stroke-width:0px;"/><path d="m8.75,40.47c0-.35.28-.63.63-.63s.63.28.63.63-.28.63-.63.63h-.63v-.63Z" style="fill:#02ae72; stroke-width:0px;"/><path d="m8.44,40.47c0,.35-.28.63-.63.63s-.63-.28-.63-.63v-1.57c0-.35.28-.63.63-.63s.63.28.63.63v1.57Z" style="fill:#02ae72; stroke-width:0px;"/><path d="m7.81,42.98c.35,0,.63.28.63.63s-.28.63-.63.63-.63-.28-.63-.63v-.63h.63Z" style="fill:#f1af21; stroke-width:0px;"/><path d="m7.98,42.67c-.32,0-.58-.29-.58-.65,0-.36.26-.65.58-.65h1.45c.32,0,.58.29.58.65s-.26.65-.58.65h-1.45Z" style="fill:#f1af21; stroke-width:0px;"/><circle cx="72.27" cy="22.51" r="2.04" style="fill:#1b527f; stroke-width:0px;"/><path d="m72.25,19.36c.28,0,.51-.23.51-.51v-3.23c0-.28-.23-.51-.51-.51s-.51.23-.51.51v3.23c0,.28.23.51.51.51Z" style="fill:#1b527f; stroke-width:0px;"/><path d="m72.25,25.79c-.28,0-.51.23-.51.51v3.23c0,.28.23.51.51.51s.51-.23.51-.51v-3.23c0-.28-.23-.51-.51-.51Z" style="fill:#1b527f; stroke-width:0px;"/><path d="m68.96,24.66l-.85.85c-.15.15-.24.35-.24.57s.08.42.24.57h0c.16.16.36.24.57.24s.41-.08.57-.24l.85-.85c.15-.15.24-.35.24-.57s-.08-.42-.24-.57c-.31-.31-.82-.31-1.14,0Z" style="fill:#d31a69; stroke-width:0px;"/><path d="m68.88,20.41c.16.16.36.24.57.24s.41-.08.57-.24c.15-.15.24-.35.24-.57s-.08-.42-.24-.57l-.85-.85c-.31-.31-.82-.31-1.14,0-.15.15-.24.35-.24.57,0,.21.08.42.24.57l.85.85Z" style="fill:#3fb3e1; stroke-width:0px;"/><path d="m74.86,20.6c.21,0,.41-.08.57-.24l.85-.85c.15-.15.24-.35.24-.57,0-.21-.08-.42-.23-.57s-.35-.24-.57-.24h0c-.21,0-.42.08-.57.24l-.85.85c-.31.31-.31.82,0,1.14.16.16.36.24.57.24Z" style="fill:#02ae72; stroke-width:0px;"/><path d="m75.48,24.63c-.31-.31-.82-.31-1.14,0-.15.15-.24.35-.24.57s.08.42.24.57l.85.85c.16.16.36.24.57.24s.41-.08.57-.24h0c.31-.31.31-.82,0-1.14l-.85-.85Z" style="fill:#f1af21; stroke-width:0px;"/><path d="m69.04,22.57c0-.28-.23-.51-.51-.51h-3.23c-.28,0-.51.23-.51.51s.23.51.51.51h3.23c.28,0,.51-.23.51-.51Z" style="fill:#1b527f; stroke-width:0px;"/><path d="m79.2,22.07h-3.23c-.28,0-.51.23-.51.51s.23.51.51.51h3.23c.28,0,.51-.23.51-.51s-.23-.51-.51-.51Z" style="fill:#1b527f; stroke-width:0px;"/></g></svg>