<?xml version="1.0" encoding="UTF-8"?><svg id="Layer_2" xmlns="http://www.w3.org/2000/svg" viewBox="0 0 35 35"><g id="Layer_1-2"><g id="Layer_2-2"><g id="layer"><g id="Slack-Icon"><circle cx="17.5" cy="17.5" r="17.5" style="fill:#fff; stroke-width:0px;"/></g></g></g><circle cx="17.51" cy="17.46" r="3.42" style="fill:#1b527f; stroke-width:0px;"/><path d="m17.51,12.11c.47,0,.85-.38.85-.85v-5.42c0-.47-.38-.85-.85-.85s-.85.38-.85.85v5.42c0,.47.38.85.85.85Z" style="fill:#1b527f; stroke-width:0px;"/><path d="m17.51,22.89c-.47,0-.85.38-.85.85v5.42c0,.47.38.85.85.85s.85-.38.85-.85v-5.42c0-.47-.38-.85-.85-.85Z" style="fill:#1b527f; stroke-width:0px;"/><path d="m11.98,21l-1.43,1.43c-.25.25-.4.59-.4.95s.14.7.4.95h0c.26.26.61.39.95.39s.69-.13.95-.39l1.43-1.43c.25-.25.39-.59.39-.95s-.14-.7-.4-.95c-.53-.52-1.38-.52-1.91,0Z" style="fill:#d31a69; stroke-width:0px;"/><path d="m11.85,13.88c.26.26.61.39.95.39s.69-.13.95-.39c.25-.25.4-.59.4-.95s-.14-.7-.39-.95l-1.43-1.43c-.53-.53-1.38-.53-1.91,0-.25.25-.4.59-.4.95,0,.36.14.7.4.95l1.43,1.43Z" style="fill:#3fb3e1; stroke-width:0px;"/><path d="m21.87,14.18c.35,0,.69-.13.95-.39l1.43-1.43c.25-.25.39-.59.39-.95,0-.36-.14-.7-.39-.95s-.59-.39-.95-.4h0c-.36,0-.7.14-.95.4l-1.43,1.43c-.53.53-.53,1.38,0,1.91.26.26.61.39.95.39Z" style="fill:#02ae72; stroke-width:0px;"/><path d="m22.92,20.95c-.53-.53-1.38-.53-1.91,0-.25.25-.4.59-.4.95s.14.7.39.95l1.43,1.43c.26.26.61.39.95.39s.69-.13.95-.39h0c.52-.53.52-1.38,0-1.91l-1.43-1.43Z" style="fill:#f1af21; stroke-width:0px;"/><path d="m12.11,17.46c0-.47-.38-.85-.85-.85h-5.42c-.47,0-.85.38-.85.85s.38.85.85.85h5.42c.47,0,.85-.38.85-.85Z" style="fill:#1b527f; stroke-width:0px;"/><path d="m29.15,16.61h-5.42c-.47,0-.85.38-.85.85s.38.85.85.85h5.42c.47,0,.85-.38.85-.85s-.38-.85-.85-.85Z" style="fill:#1b527f; stroke-width:0px;"/></g></svg>