<svg width="22" height="23" viewBox="0 0 22 23" fill="none" xmlns="http://www.w3.org/2000/svg">
<path d="M11.2505 9.29995C12.6865 9.29995 13.8505 8.04635 13.8505 6.49995C13.8505 4.95355 12.6865 3.69995 11.2505 3.69995C9.81458 3.69995 8.65051 4.95355 8.65051 6.49995C8.65051 8.04635 9.81458 9.29995 11.2505 9.29995Z" fill="#90C0E7"/>
<path d="M15.1505 15.3999V12.2C15.1505 11.1 14.3505 10.2 13.2505 10.2H9.25055C8.25055 10.2 7.35052 11.1 7.35052 12.2V15.3999H8.45053V16L7.55054 22.7H15.0505L14.1505 16V15.3999H15.1505Z" fill="#90C0E7"/>
<path d="M16.8794 5.59985C18.1496 5.59985 19.1794 4.48057 19.1794 3.09985C19.1794 1.71914 18.1496 0.599854 16.8794 0.599854C15.6091 0.599854 14.5794 1.71914 14.5794 3.09985C14.5794 4.48057 15.6091 5.59985 16.8794 5.59985Z" fill="#90C0E7"/>
<path d="M21.8794 9.3998C21.8794 7.8998 19.9794 6.5998 18.1794 6.3998C17.9794 6.3998 17.8794 6.2998 17.6794 6.2998H17.4794H16.0794H15.2794C14.9794 6.2998 14.7794 6.2998 14.4794 6.3998C14.4794 6.4998 14.4794 6.5998 14.4794 6.5998C14.4794 7.3998 14.1794 8.1998 13.5794 8.7998C13.4794 8.8998 13.6794 8.89981 13.5794 8.99981C15.2794 9.19981 16.1794 10.8998 16.1794 12.7998L16.0794 15.1998L15.2794 16.4998V18.5998H20.3794V14.8998H21.7794V9.3998H21.8794Z" fill="#90C0E7"/>
<path d="M5.55054 5.59985C6.82079 5.59985 7.85052 4.48057 7.85052 3.09985C7.85052 1.71914 6.82079 0.599854 5.55054 0.599854C4.28028 0.599854 3.25055 1.71914 3.25055 3.09985C3.25055 4.48057 4.28028 5.59985 5.55054 5.59985Z" fill="#90C0E7"/>
<path d="M0.550537 9.3998C0.550537 7.8998 2.45055 6.5998 4.25055 6.3998C4.45055 6.3998 4.55055 6.2998 4.75055 6.2998H4.95053H6.35052H7.15054C7.45054 6.2998 7.65053 6.2998 7.95053 6.3998C7.95053 6.4998 7.95053 6.5998 7.95053 6.5998C7.95053 7.3998 8.25052 8.1998 8.85052 8.7998C8.95053 8.8998 8.75052 8.89981 8.85052 8.99981C7.15053 9.19981 6.25055 10.8998 6.25055 12.7998L6.35052 15.1998L7.15054 16.4998V18.5998H2.05054V14.8998H0.650543V9.3998H0.550537Z" fill="#90C0E7"/>
</svg>
