<svg width="23" height="23" viewBox="0 0 23 23" fill="none" xmlns="http://www.w3.org/2000/svg">
<path d="M11.3217 9.1C12.7576 9.1 13.9217 7.8464 13.9217 6.3C13.9217 4.7536 12.7576 3.5 11.3217 3.5C9.88575 3.5 8.72168 4.7536 8.72168 6.3C8.72168 7.8464 9.88575 9.1 11.3217 9.1Z" fill="#E6E9EA"/>
<path d="M15.2217 15.2V12C15.2217 10.9 14.4217 10 13.3217 10H9.32172C8.32172 10 7.42169 10.9 7.42169 12V15.2H8.5217V15.8L7.6217 22.5H15.1217L14.2217 15.8V15.2H15.2217Z" fill="#E6E9EA"/>
<path d="M16.9506 5.3999C18.2208 5.3999 19.2506 4.28061 19.2506 2.8999C19.2506 1.51919 18.2208 0.399902 16.9506 0.399902C15.6803 0.399902 14.6506 1.51919 14.6506 2.8999C14.6506 4.28061 15.6803 5.3999 16.9506 5.3999Z" fill="#E6E9EA"/>
<path d="M21.9506 9.19985C21.9506 7.69985 20.0506 6.39985 18.2506 6.19985C18.0506 6.19985 17.9506 6.09985 17.7506 6.09985H17.5506H16.1506H15.3506C15.0506 6.09985 14.8506 6.09985 14.5506 6.19985C14.5506 6.29985 14.5506 6.39985 14.5506 6.39985C14.5506 7.19985 14.2506 7.99985 13.6506 8.59985C13.5506 8.69985 13.7506 8.69985 13.6506 8.79985C15.3506 8.99985 16.2506 10.6999 16.2506 12.5999L16.1506 14.9999L15.3506 16.2999V18.3999H20.4506V14.6999H21.8506V9.19985H21.9506Z" fill="#E6E9EA"/>
<path d="M5.6217 5.3999C6.89196 5.3999 7.92169 4.28061 7.92169 2.8999C7.92169 1.51919 6.89196 0.399902 5.6217 0.399902C4.35145 0.399902 3.32172 1.51919 3.32172 2.8999C3.32172 4.28061 4.35145 5.3999 5.6217 5.3999Z" fill="#E6E9EA"/>
<path d="M0.621704 9.19985C0.621704 7.69985 2.52172 6.39985 4.32172 6.19985C4.52172 6.19985 4.62172 6.09985 4.82172 6.09985H5.0217H6.42169H7.22171C7.52171 6.09985 7.7217 6.09985 8.0217 6.19985C8.0217 6.29985 8.0217 6.39985 8.0217 6.39985C8.0217 7.19985 8.32169 7.99985 8.92169 8.59985C9.02169 8.69985 8.82169 8.69985 8.92169 8.79985C7.22169 8.99985 6.32172 10.6999 6.32172 12.5999L6.42169 14.9999L7.22171 16.2999V18.3999H2.1217V14.6999H0.72171V9.19985H0.621704Z" fill="#E6E9EA"/>
</svg>
