<?xml version="1.0" encoding="UTF-8"?>
<svg id="Layer_2" data-name="Layer 2" xmlns="http://www.w3.org/2000/svg" viewBox="0 0 48.54 50.67">
  <defs>
    <style>
      .cls-1 {
        fill: #b3b3b3;
      }

      .cls-2 {
        fill: #666;
      }
    </style>
  </defs>
  <g id="Design">
    <g>
      <g>
        <path class="cls-1" d="M26.38,14.94c-.5,4.13-4.05,8.4-7.27,8.4-3.7,0-7.22-4.49-7.77-8.4-.21-.15-.55-.51-.67-1.33,0,0-.79-2.83,.25-2.52-.36-1.09-1.58-5.34,.78-7.98,0,0,1.09-1.5,3.76-2.3,.09-.08,1.16-.35,1.25-.43,.49-.36,8.04-1.74,10.17,4.53,0,0,.66,1.58-.21,6.23,1.24-.59,.39,2.46,.39,2.46-.13,.82-.47,1.18-.68,1.33Z"/>
        <path class="cls-1" d="M.12,42.5c-.79-6.85,2.6-14.57,2.6-14.57,.83-1.83,5.05-3.45,6.62-4.01,.38-.14,.61-.21,.61-.21,3.31-1.17,3.34-2.33,3.34-2.33,6.51,12.84,11.46,.03,11.46,.03,.45,1.73,7.15,3.77,7.15,3.77,1.96,.75,2.78,1.88,2.78,1.88,2.9,4.29,3.23,13.85,3.23,13.85-.03,2.17-.97,2.41-.97,2.41-6.66,2.97-17.11,3.5-17.11,3.5-5.78,.12-10.71-.78-14.03-1.63-2.83-.73-4.5-1.42-4.5-1.42-1.13-.71-1.17-1.28-1.17-1.28Z"/>
      </g>
      <g id="Icon_ionic-ios-link" data-name="Icon ionic-ios-link">
        <g id="Path_103" data-name="Path 103">
          <path class="cls-2" d="M37.88,35.26v-.1c.04-.3,.18-.58,.4-.8l5.61-5.4c2.43-2.42,2.37-6.27-.14-8.61-2.45-2.29-6.35-2.29-8.8,0l-5.95,5.74c-.3,.29-.57,.61-.81,.95-.27,.39-.48,.8-.65,1.24-.15,.41-.26,.83-.32,1.25-.04,.28-.06,.57-.06,.85,0,.12,0,.23,.02,.38,.09,1.48,.74,2.87,1.82,3.91,.67,.64,1.48,1.13,2.37,1.43,.69,.22,1.08,.93,.88,1.61,0,0,0,.02,0,.03s0,.02,0,.02c-.21,.68-.95,1.07-1.66,.88-1.36-.37-2.58-1.08-3.56-2.06-1.35-1.31-2.24-2.99-2.54-4.82-.03-.16-.05-.32-.07-.48-.03-.31-.05-.62-.05-.93,0-.22,0-.43,.03-.64,.03-.46,.11-.91,.22-1.36,.02-.09,.04-.18,.07-.27,.15-.56,.37-1.11,.63-1.63,.44-.86,1.02-1.64,1.73-2.32l5.95-5.74c1.72-1.64,4.04-2.56,6.46-2.55,5.04,0,9.12,3.95,9.11,8.81,0,2.32-.96,4.55-2.66,6.2l-5.67,5.46c-.54,.51-1.41,.51-1.94,0-.29-.28-.43-.66-.39-1.05Z"/>
        </g>
        <g id="Path_104" data-name="Path 104">
          <path class="cls-2" d="M15.11,48.08c-3.55-3.44-3.55-9,0-12.44l5.53-5.33c.54-.53,1.43-.53,1.97,0,.23,.23,.38,.53,.4,.85,.03,.39-.11,.78-.4,1.06l-5.52,5.34c-2.44,2.41-2.38,6.27,.12,8.61,2.45,2.3,6.36,2.3,8.82,0l5.95-5.74c.3-.29,.57-.61,.81-.95,.26-.39,.48-.8,.65-1.24,.15-.41,.26-.83,.32-1.25,.04-.28,.06-.57,.06-.85,0-.12,0-.24-.02-.38-.14-2.38-1.72-4.45-4.04-5.29-.67-.24-1.04-.93-.85-1.6,.2-.72,.96-1.15,1.71-.96,.02,0,.04,.01,.06,.02,1.24,.39,2.36,1.07,3.25,1.98h0l.02,.02c1.47,1.43,2.39,3.29,2.61,5.29,.03,.31,.05,.62,.05,.93,0,.22,0,.43-.03,.65-.04,.54-.14,1.08-.28,1.61-.15,.56-.37,1.11-.63,1.63-.44,.86-1.02,1.64-1.73,2.32l-5.95,5.74c-3.57,3.43-9.35,3.42-12.91-.02h0Z"/>
        </g>
      </g>
    </g>
  </g>
</svg>