<svg width="16" height="16" viewBox="0 0 16 16" fill="none" xmlns="http://www.w3.org/2000/svg">
<path d="M5.82153 2.68173C5.82153 1.71024 6.60893 0.922699 7.58023 0.922699H13.5097C14.481 0.922699 15.2684 1.71025 15.2684 2.68173V8.61232C15.2684 9.58381 14.481 10.3714 13.5097 10.3714H7.58023C6.60893 10.3714 5.82153 9.5838 5.82153 8.61232V2.68173Z" fill="#677479"/>
<path fill-rule="evenodd" clip-rule="evenodd" d="M13.2038 12.4501C13.525 12.4501 13.7853 12.1896 13.7852 11.8684L13.785 11.3468C13.7849 11.1259 13.9639 10.9467 14.1848 10.9466C14.4057 10.9465 14.5849 11.1255 14.585 11.3465L14.5852 11.868C14.5855 12.6313 13.967 13.2503 13.2038 13.2503H12.157L12.3175 13.3829C12.4879 13.5236 12.5119 13.7758 12.3712 13.9462C12.2305 14.1165 11.9784 14.1406 11.8081 13.9998L10.7915 13.16C10.6808 13.0686 10.6319 12.93 10.6498 12.7975C10.6548 12.679 10.7122 12.5638 10.8159 12.4892L11.8562 11.741C12.0355 11.612 12.2855 11.6528 12.4145 11.8322C12.5434 12.0116 12.5026 12.2616 12.3233 12.3906L12.2405 12.4501H13.2038Z" fill="#677479"/>
<path d="M0.268433 7.64674C0.268433 6.67525 1.05583 5.8877 2.02714 5.8877H7.95663C8.92794 5.8877 9.71534 6.67525 9.71534 7.64674V13.5773C9.71534 14.5488 8.92794 15.3364 7.95663 15.3364H1.90632C0.935012 15.3364 0.268433 14.5488 0.268433 13.5773V7.64674Z" fill="#677479"/>
<path fill-rule="evenodd" clip-rule="evenodd" d="M2.61338 5.30136C1.31925 5.30136 0.269971 6.34988 0.268434 7.64389C0.26997 6.67371 1.05678 5.8877 2.02714 5.8877H7.95663C8.92794 5.8877 9.71534 6.67525 9.71534 7.64674V13.5773C9.71534 14.5488 8.92794 15.3364 7.95663 15.3364H1.90632C0.935012 15.3364 0.268433 14.5488 0.268433 13.5773C0.268433 14.8726 1.3183 15.3364 2.61338 15.3364H7.95663C9.25171 15.3364 10.3016 14.8726 10.3016 13.5773V7.64674C10.3016 6.35142 9.25171 5.30136 7.95663 5.30136H2.61338Z" fill="white"/>
<path fill-rule="evenodd" clip-rule="evenodd" d="M2.56575 3.39254C2.2446 3.39255 1.9843 3.65302 1.98445 3.97424L1.98468 4.49584C1.98478 4.71679 1.80577 4.89599 1.58486 4.89609C1.36395 4.89619 1.18478 4.71715 1.18468 4.4962L1.18445 3.97459C1.18411 3.21134 1.80263 2.59241 2.56574 2.59239H3.61253L3.45195 2.45973C3.28162 2.31902 3.25759 2.06686 3.39828 1.8965C3.53896 1.72614 3.79108 1.7021 3.96141 1.84281L4.97803 2.68266C5.08873 2.77411 5.13763 2.91265 5.11968 3.0452C5.11469 3.16371 5.0573 3.27882 4.95355 3.35344L3.91332 4.1017C3.73397 4.2307 3.48402 4.18987 3.35503 4.01049C3.22605 3.8311 3.26688 3.5811 3.44623 3.4521L3.52903 3.39254H2.56575Z" fill="#677479"/>
<path fill-rule="evenodd" clip-rule="evenodd" d="M1.68241 8.50442C1.68241 8.31013 1.83989 8.15262 2.03415 8.15262H7.94962C8.14388 8.15262 8.30136 8.31013 8.30136 8.50442C8.30136 8.69872 8.14388 8.85623 7.94962 8.85623H2.03415C1.83989 8.85623 1.68241 8.69872 1.68241 8.50442Z" fill="white"/>
<path fill-rule="evenodd" clip-rule="evenodd" d="M1.68241 10.646C1.68241 10.4517 1.83989 10.2942 2.03415 10.2942H6.5168C6.71106 10.2942 6.86854 10.4517 6.86854 10.646C6.86854 10.8403 6.71106 10.9978 6.5168 10.9978H2.03415C1.83989 10.9978 1.68241 10.8403 1.68241 10.646Z" fill="white"/>
<path fill-rule="evenodd" clip-rule="evenodd" d="M1.68241 12.7196C1.68241 12.5253 1.83989 12.3678 2.03415 12.3678H6.5168C6.71106 12.3678 6.86854 12.5253 6.86854 12.7196C6.86854 12.9139 6.71106 13.0714 6.5168 13.0714H2.03415C1.83989 13.0714 1.68241 12.9139 1.68241 12.7196Z" fill="white"/>
</svg>
