<?xml version="1.0" encoding="UTF-8"?>
<svg id="Layer_2" data-name="Layer 2" xmlns="http://www.w3.org/2000/svg" viewBox="0 0 12.08 6.59">
  <defs>
    <style>
      .cls-1 {
        fill: #b3b3b3;
      }
    </style>
  </defs>
  <g id="Main_Design" data-name="Main Design">
    <path class="cls-1" d="M8.56,.05c-.27,.12-.39,.45-.27,.71,.03,.07,.37,.42,.98,1.03,.51,.51,.93,.93,.93,.94,0,.01-2.21,.02-4.9,.02H.39l-.11,.06C.1,2.9,.01,3.05,0,3.26c-.01,.21,.05,.36,.21,.48l.1,.08H5.25c2.72,.01,4.94,.02,4.94,.03s-.42,.44-.94,.96c-1.01,1.01-1.04,1.04-1.01,1.27,.02,.15,.13,.33,.26,.42,.14,.1,.38,.11,.53,.04,.13-.07,2.95-2.89,3.01-3.02,.06-.13,.06-.35-.01-.48-.08-.15-2.9-2.96-3.02-3.01-.13-.05-.32-.05-.45,.01Z"/>
  </g>
</svg>