<svg width="23" height="23" viewBox="0 0 23 23" fill="none" xmlns="http://www.w3.org/2000/svg">
<path d="M19.1609 9.69985L15.5609 6.59985V7.09985V8.79985H9.26086V10.4999H15.5609V12.7999L19.1609 9.69985Z" fill="#88949A"/>
<path d="M7.36086 10.2L3.76086 13.4L7.36086 16.4V15.9V14.2H13.6609V12.5H7.36086V10.2Z" fill="#88949A"/>
<path d="M22.2609 11.2C22.2609 17.3 17.3609 22.2 11.2609 22.2C5.16086 22.2 0.260864 17.3 0.260864 11.2C0.260864 5.09995 5.16086 0.199951 11.2609 0.199951C17.3609 0.199951 22.2609 5.19995 22.2609 11.2ZM11.2609 1.89995C6.16086 1.89995 1.96086 6.09995 1.96086 11.2C1.96086 16.3 6.16086 20.5 11.2609 20.5C16.3609 20.5 20.5609 16.3 20.5609 11.2C20.5609 6.09995 16.3609 1.89995 11.2609 1.89995Z" fill="#88949A"/>
</svg>
