<svg width="23" height="23" viewBox="0 0 23 23" fill="none" xmlns="http://www.w3.org/2000/svg">
<path d="M19.1609 9.94985L15.5609 6.84985V7.34985V9.04985H9.26086V10.7499H15.5609V13.0499L19.1609 9.94985Z" fill="#E6E9EA"/>
<path d="M7.36086 10.45L3.76086 13.65L7.36086 16.65V16.15V14.45H13.6609V12.75H7.36086V10.45Z" fill="#E6E9EA"/>
<path d="M22.2609 11.45C22.2609 17.55 17.3609 22.45 11.2609 22.45C5.16086 22.45 0.260864 17.55 0.260864 11.45C0.260864 5.34995 5.16086 0.449951 11.2609 0.449951C17.3609 0.449951 22.2609 5.44995 22.2609 11.45ZM11.2609 2.14995C6.16086 2.14995 1.96086 6.34995 1.96086 11.45C1.96086 16.55 6.16086 20.75 11.2609 20.75C16.3609 20.75 20.5609 16.55 20.5609 11.45C20.5609 6.34995 16.3609 2.14995 11.2609 2.14995Z" fill="#E6E9EA"/>
</svg>
