<?xml version="1.0" encoding="UTF-8"?>
<svg id="Layer_1" data-name="Layer 1" xmlns="http://www.w3.org/2000/svg" viewBox="0 0 45 45">
  <defs>
    <style>
      .cls-1 {
        fill: #fff;
      }

      .cls-2 {
        fill: #b3b4b4;
      }
    </style>
  </defs>
  <path id="Background" class="cls-2" d="m45,22.5c0,12.47-10.13,22.5-22.5,22.5S0,34.88,0,22.5,10.13,0,22.5,0s22.5,10.03,22.5,22.5Z"/>
  <path id="Handshake" class="cls-1" d="m28.63,13.46h-4.27c-.42,0-.75.17-1.09.42l-4.94,4.27h0c-.75.67-.84,1.76-.17,2.51l.08.08c.75.75,1.93.75,2.76.17h0l4.02-3.43c.34-.25.84-.25,1.09.08.25.25.25.75,0,1.01h-.08l-1.34,1.09,7.29,5.61c.17.08.25.25.42.34v-9.13l-2.76-2.6c-.17-.25-.59-.42-1.01-.42Zm5.53,3.02v10.55c0,.84.75,1.51,1.59,1.51h3.18v-12.06h-4.77Zm2.35,10.55c-.42,0-.75-.42-.67-.84,0-.42.42-.75.84-.67.42,0,.75.34.75.75-.08.42-.5.75-.92.75h0Zm-29.57,1.51h3.18c.84,0,1.59-.67,1.59-1.51h0v-10.55h-4.77v12.06Zm2.43-3.02c.42,0,.75.34.75.75s-.34.75-.75.75h-.08c-.42,0-.75-.34-.75-.75,0-.34.34-.75.84-.75-.08,0,0,0,0,0Zm21.78.92l-7.46-5.7-1.51,1.26c-1.51,1.26-3.69,1.17-5.11-.25-1.26-1.26-1.26-3.35,0-4.61l.17-.17,4.1-3.52h-4.19c-.42,0-.84.17-1.09.42l-2.76,2.6v10.55h.92l4.52,3.85c1.34,1.09,3.35.84,4.52-.42h0l.92.75c.84.59,1.93.5,2.6-.25l1.59-1.84.25.25c.67.5,1.68.42,2.26-.25l.5-.59c.5-.59.5-1.51-.17-2.09h-.08Z"/>
</svg>