<?xml version="1.0" encoding="UTF-8"?><svg id="Layer_2" xmlns="http://www.w3.org/2000/svg" viewBox="0 0 35 35"><defs><style>.a{fill:#f6871f;}.b{fill:#fff;}</style></defs><g id="Layer_2-2"><g><circle class="b" cx="17.5" cy="17.5" r="17.5"/><g id="Specs"><path class="a" d="M27.87,11.69l-4.94-4.56-.48,2.44-6.61-.03c-3.22,0-6.65,1.95-6.66,5.61,0,3.1,2.57,4.48,4.45,5.49,1.05,.56,1.96,1.04,1.95,1.59,0,1.27-1.76,1.28-1.83,1.27l-5.71-.02-.91,4.37,6.52,.03c3.72,0,6.65-2.46,6.66-5.63,0-3.13-2.56-4.47-4.45-5.44-1.08-.56-2-1.04-2-1.63,0-.95,1.27-1.25,1.88-1.25l5.84,.02-.46,2.37,6.75-4.61h0Z"/></g></g></g></svg>