<?xml version="1.0" encoding="UTF-8"?><svg id="Layer_2" xmlns="http://www.w3.org/2000/svg" viewBox="0 0 95.42 47.7"><g id="Layer_1-2"><path d="m6.5,46.95c-3.17,0-5.75-2.58-5.75-5.75V6.5C.75,3.33,3.33.75,6.5.75h82.42c3.17,0,5.75,2.58,5.75,5.75v34.7c0,3.17-2.58,5.75-5.75,5.75H6.5ZM72.04,9.69c-7.81,0-14.16,6.35-14.16,14.16s6.35,14.16,14.16,14.16,14.16-6.35,14.16-14.16-6.35-14.16-14.16-14.16Z" style="fill:#fff; stroke-width:0px;"/><path d="m88.92,1.5c2.76,0,5,2.24,5,5v34.7c0,2.76-2.24,5-5,5H6.5c-2.76,0-5-2.24-5-5V6.5C1.5,3.74,3.74,1.5,6.5,1.5h82.42m-16.89,37.26c8.23,0,14.91-6.67,14.91-14.91s-6.67-14.91-14.91-14.91-14.91,6.67-14.91,14.91,6.67,14.91,14.91,14.91M88.92,0H6.5C2.92,0,0,2.92,0,6.5v34.7c0,3.58,2.92,6.5,6.5,6.5h82.42c3.58,0,6.5-2.92,6.5-6.5V6.5c0-3.58-2.92-6.5-6.5-6.5h0Zm-16.89,37.26c-7.39,0-13.41-6.01-13.41-13.41s6.01-13.41,13.41-13.41,13.41,6.01,13.41,13.41-6.01,13.41-13.41,13.41h0Z" style="fill:#fff; stroke-width:0px;"/><path d="m89.6,1.5H5.82C3.43,1.5,1.5,3.43,1.5,5.82v6.27c0,.74.6,1.34,1.34,1.34h58.01c.34,0,.67-.14.92-.38,2.67-2.54,6.29-4.11,10.27-4.11s7.6,1.56,10.27,4.11c.25.24.58.38.92.38h9.36c.74,0,1.34-.6,1.34-1.34v-6.27c0-2.39-1.93-4.32-4.32-4.32Z" style="fill:#d5f0e2; stroke-width:0px;"/><path d="m8.54,8.09c0,.3-.11.53-.33.7-.22.17-.51.25-.88.25-.4,0-.71-.05-.93-.16v-.38c.14.06.29.11.46.14.17.03.33.05.49.05.26,0,.46-.05.6-.15s.2-.24.2-.42c0-.12-.02-.21-.07-.29-.05-.08-.13-.15-.24-.21-.11-.06-.28-.14-.51-.22-.32-.11-.54-.25-.68-.4s-.2-.36-.2-.61c0-.26.1-.47.3-.63s.46-.23.78-.23.65.06.93.19l-.12.34c-.28-.12-.55-.18-.82-.18-.21,0-.37.04-.49.13-.12.09-.18.22-.18.38,0,.12.02.21.07.29.04.08.12.14.22.21.1.06.26.13.47.21.36.13.6.26.74.41.13.15.2.34.2.57Z" style="fill:#4d4d4d; stroke-width:0px;"/><path d="m9.56,9h-.39v-3.62h.39v3.62Z" style="fill:#4d4d4d; stroke-width:0px;"/><path d="m11.95,9l-.08-.36h-.02c-.13.16-.25.27-.38.32-.13.06-.29.08-.47.08-.25,0-.45-.06-.59-.2s-.22-.32-.22-.56c0-.52.41-.79,1.24-.81h.43v-.17c0-.2-.04-.35-.13-.44-.09-.1-.22-.14-.41-.14-.21,0-.45.07-.72.2l-.12-.3c.12-.07.26-.12.41-.16.15-.04.3-.06.45-.06.3,0,.53.07.68.2.15.14.22.35.22.65v1.74h-.29Zm-.87-.27c.24,0,.43-.07.57-.2.14-.13.21-.32.21-.55v-.23l-.39.02c-.31.01-.53.06-.67.14-.14.08-.2.22-.2.39,0,.14.04.25.13.32.08.07.2.11.36.11Z" style="fill:#4d4d4d; stroke-width:0px;"/><path d="m14.05,9.04c-.37,0-.66-.11-.86-.34-.2-.23-.3-.55-.3-.97s.1-.76.31-.99c.21-.23.5-.35.88-.35.12,0,.25.01.37.04.12.03.22.06.29.09l-.12.33c-.09-.03-.18-.06-.28-.08-.1-.02-.19-.03-.27-.03-.52,0-.78.33-.78.99,0,.31.06.55.19.72.13.17.31.25.56.25.21,0,.43-.05.65-.14v.34c-.17.09-.39.13-.65.13Z" style="fill:#4d4d4d; stroke-width:0px;"/><path d="m15.69,7.69c.07-.09.17-.22.3-.37l.83-.87h.46l-1.03,1.09,1.11,1.47h-.47l-.9-1.21-.29.25v.96h-.38v-3.62h.38v1.92c0,.09,0,.22-.02.4h.02Z" style="fill:#4d4d4d; stroke-width:0px;"/><path d="m26.87,24.11c0,.4-.15.72-.44.94-.29.23-.69.34-1.19.34-.54,0-.96-.07-1.25-.21v-.51c.19.08.39.14.61.19.22.05.44.07.66.07.36,0,.62-.07.8-.2.18-.13.27-.32.27-.56,0-.16-.03-.29-.1-.39-.06-.1-.17-.2-.32-.28-.15-.09-.38-.18-.68-.29-.43-.15-.73-.33-.92-.54-.18-.21-.27-.48-.27-.82,0-.35.13-.63.4-.84.27-.21.62-.31,1.05-.31s.88.08,1.26.25l-.17.46c-.38-.16-.75-.24-1.1-.24-.28,0-.5.06-.66.18-.16.12-.24.29-.24.51,0,.16.03.29.09.39.06.1.16.19.3.28.14.08.35.18.64.28.48.17.81.36.99.55.18.2.27.45.27.77Z" style="fill:#4d4d4d; stroke-width:0px;"/><path d="m29.18,25.4c-.51,0-.91-.15-1.2-.46-.29-.31-.44-.74-.44-1.29s.14-1,.41-1.32c.27-.33.64-.49,1.1-.49.43,0,.77.14,1.02.43.25.28.38.66.38,1.12v.33h-2.37c.01.4.11.71.31.92.19.21.47.31.82.31.37,0,.74-.08,1.1-.23v.46c-.18.08-.36.14-.52.17-.16.03-.36.05-.59.05Zm-.14-3.13c-.28,0-.5.09-.66.27-.16.18-.26.43-.29.75h1.8c0-.33-.07-.58-.22-.75-.15-.17-.36-.26-.63-.26Z" style="fill:#4d4d4d; stroke-width:0px;"/><path d="m33.69,25.33v-2.23c0-.28-.06-.49-.19-.63-.13-.14-.33-.21-.6-.21-.36,0-.62.1-.79.29-.17.19-.25.52-.25.96v1.8h-.52v-3.44h.42l.08.47h.03c.11-.17.26-.3.45-.39.19-.09.41-.14.64-.14.41,0,.73.1.94.3s.31.52.31.96v2.24h-.52Z" style="fill:#4d4d4d; stroke-width:0px;"/><path d="m37.62,24.87h-.03c-.24.35-.6.52-1.08.52-.45,0-.8-.15-1.05-.46s-.38-.75-.38-1.31.12-1.01.38-1.32c.25-.31.6-.47,1.05-.47s.83.17,1.07.51h.04l-.02-.25v-.24s-.01-1.4-.01-1.4h.52v4.88h-.42l-.07-.46Zm-1.04.09c.36,0,.61-.1.77-.29.16-.19.24-.51.24-.94v-.11c0-.49-.08-.83-.24-1.04-.16-.21-.42-.31-.78-.31-.31,0-.54.12-.7.36-.16.24-.24.57-.24,1.01s.08.77.24.99c.16.22.4.34.71.34Z" style="fill:#4d4d4d; stroke-width:0px;"/><path d="m17.98,33.05h-.61l-2.51-3.85h-.03c.03.45.05.87.05,1.24v2.61h-.49v-4.59h.6l2.5,3.83h.03c0-.06-.01-.24-.03-.54-.01-.31-.02-.53-.02-.66v-2.63h.5v4.59Z" style="fill:#4d4d4d; stroke-width:0px;"/><path d="m22.14,31.32c0,.56-.14,1-.42,1.31s-.67.47-1.17.47c-.31,0-.58-.07-.82-.22-.24-.14-.42-.35-.55-.62-.13-.27-.19-.59-.19-.95,0-.56.14-1,.42-1.31.28-.31.67-.47,1.17-.47s.86.16,1.15.48c.28.32.43.75.43,1.3Zm-2.62,0c0,.44.09.77.26,1,.18.23.43.35.78.35s.6-.11.78-.34c.18-.23.27-.56.27-1.01s-.09-.77-.27-1-.44-.34-.78-.34-.6.11-.77.34c-.17.22-.26.56-.26,1Z" style="fill:#4d4d4d; stroke-width:0px;"/><path d="m24.16,32.68c.09,0,.18,0,.27-.02s.15-.03.2-.04v.4c-.06.03-.14.05-.25.07-.11.02-.21.03-.3.03-.67,0-1-.35-1-1.05v-2.05h-.49v-.25l.49-.22.22-.73h.3v.8h1v.4h-1v2.02c0,.21.05.37.15.48.1.11.23.17.4.17Z" style="fill:#4d4d4d; stroke-width:0px;"/><path d="m25.27,28.67c0-.12.03-.21.09-.26.06-.06.13-.08.22-.08.08,0,.16.03.22.08.06.06.09.14.09.26s-.03.2-.09.26-.13.09-.22.09c-.09,0-.16-.03-.22-.09s-.09-.15-.09-.26Zm.56,4.37h-.52v-3.44h.52v3.44Z" style="fill:#4d4d4d; stroke-width:0px;"/><path d="m28.49,30.01h-.88v3.03h-.52v-3.03h-.62v-.24l.62-.19v-.19c0-.85.37-1.27,1.11-1.27.18,0,.4.04.64.11l-.13.42c-.2-.06-.37-.1-.51-.1-.2,0-.34.07-.44.2s-.14.34-.14.63v.22h.88v.4Zm.58-1.34c0-.12.03-.21.09-.26.06-.06.13-.08.22-.08.08,0,.16.03.22.08.06.06.09.14.09.26s-.03.2-.09.26c-.06.06-.13.09-.22.09-.09,0-.16-.03-.22-.09s-.09-.15-.09-.26Zm.56,4.37h-.52v-3.44h.52v3.44Z" style="fill:#4d4d4d; stroke-width:0px;"/><path d="m32.12,33.11c-.5,0-.88-.15-1.16-.46-.27-.31-.41-.74-.41-1.3s.14-1.02.42-1.33c.28-.31.67-.47,1.18-.47.17,0,.33.02.5.05s.29.08.39.13l-.16.44c-.12-.05-.24-.08-.38-.11-.14-.03-.26-.05-.36-.05-.7,0-1.05.45-1.05,1.34,0,.42.09.75.26.97.17.23.42.34.76.34.29,0,.58-.06.88-.19v.46c-.23.12-.52.18-.87.18Z" style="fill:#4d4d4d; stroke-width:0px;"/><path d="m35.92,33.05l-.1-.49h-.02c-.17.22-.34.36-.51.44-.17.08-.38.11-.64.11-.34,0-.61-.09-.8-.26s-.29-.43-.29-.75c0-.69.56-1.06,1.67-1.09l.58-.02v-.21c0-.27-.06-.47-.17-.6-.12-.13-.3-.19-.56-.19-.29,0-.61.09-.97.26l-.16-.4c.17-.09.36-.16.56-.22.2-.05.4-.08.61-.08.41,0,.71.09.91.27.2.18.3.47.3.88v2.35h-.39Zm-1.18-.37c.32,0,.58-.09.76-.27s.28-.43.28-.75v-.31l-.52.02c-.41.01-.71.08-.9.19-.18.11-.27.29-.27.53,0,.19.06.33.17.43.11.1.27.15.48.15Z" style="fill:#4d4d4d; stroke-width:0px;"/><path d="m38.49,32.68c.09,0,.18,0,.27-.02s.15-.03.2-.04v.4c-.06.03-.14.05-.25.07-.11.02-.21.03-.3.03-.67,0-1-.35-1-1.05v-2.05h-.49v-.25l.49-.22.22-.73h.3v.8h1v.4h-1v2.02c0,.21.05.37.15.48.1.11.23.17.4.17Z" style="fill:#4d4d4d; stroke-width:0px;"/><path d="m39.6,28.67c0-.12.03-.21.09-.26.06-.06.13-.08.22-.08.08,0,.16.03.22.08.06.06.09.14.09.26s-.03.2-.09.26-.13.09-.22.09c-.09,0-.16-.03-.22-.09s-.09-.15-.09-.26Zm.56,4.37h-.52v-3.44h.52v3.44Z" style="fill:#4d4d4d; stroke-width:0px;"/><path d="m44.24,31.32c0,.56-.14,1-.42,1.31s-.67.47-1.17.47c-.31,0-.58-.07-.82-.22-.24-.14-.42-.35-.55-.62-.13-.27-.19-.59-.19-.95,0-.56.14-1,.42-1.31.28-.31.67-.47,1.17-.47s.86.16,1.15.48c.28.32.43.75.43,1.3Zm-2.62,0c0,.44.09.77.26,1,.18.23.43.35.78.35s.6-.11.78-.34c.18-.23.27-.56.27-1.01s-.09-.77-.27-1-.44-.34-.78-.34-.6.11-.77.34c-.17.22-.26.56-.26,1Z" style="fill:#4d4d4d; stroke-width:0px;"/><path d="m47.51,33.05v-2.23c0-.28-.06-.49-.19-.63-.13-.14-.33-.21-.6-.21-.36,0-.62.1-.79.29-.17.19-.25.52-.25.96v1.8h-.52v-3.44h.42l.08.47h.03c.11-.17.26-.3.45-.39.19-.09.41-.14.64-.14.41,0,.73.1.94.3s.31.52.31.96v2.24h-.52Z" style="fill:#4d4d4d; stroke-width:0px;"/><circle cx="72.04" cy="23.85" r="14.91" style="fill:#fff; stroke-width:0px;"/><path d="m67.98,24.22c0,.84-.68,1.53-1.53,1.53s-1.53-.68-1.53-1.53.68-1.53,1.53-1.53h1.53v1.53Z" style="fill:#d31a69; stroke-width:0px;"/><path d="m68.75,24.22c0-.84.68-1.53,1.53-1.53s1.53.68,1.53,1.53v3.82c0,.84-.68,1.53-1.53,1.53s-1.53-.68-1.53-1.53v-3.82Z" style="fill:#d31a69; stroke-width:0px;"/><path d="m70.27,18.11c-.84,0-1.53-.68-1.53-1.53s.68-1.53,1.53-1.53,1.53.68,1.53,1.53v1.53h-1.53Z" style="fill:#3fb3e1; stroke-width:0px;"/><path d="m70.27,18.87c.84,0,1.53.68,1.53,1.53,0,.84-.68,1.53-1.53,1.53h-3.82c-.84,0-1.53-.68-1.53-1.53s.68-1.53,1.53-1.53h3.82Z" style="fill:#3fb3e1; stroke-width:0px;"/><path d="m76.38,20.4c0-.84.68-1.53,1.53-1.53s1.53.68,1.53,1.53-.68,1.53-1.53,1.53h-1.53v-1.53Z" style="fill:#02ae72; stroke-width:0px;"/><path d="m75.62,20.4c0,.84-.68,1.53-1.53,1.53s-1.53-.68-1.53-1.53v-3.82c0-.84.68-1.53,1.53-1.53s1.53.68,1.53,1.53v3.82Z" style="fill:#02ae72; stroke-width:0px;"/><path d="m74.09,26.51c.84,0,1.53.68,1.53,1.53s-.68,1.53-1.53,1.53-1.53-.68-1.53-1.53v-1.53h1.53Z" style="fill:#f1af21; stroke-width:0px;"/><path d="m74.51,25.74c-.78,0-1.41-.71-1.41-1.59s.63-1.59,1.41-1.59h3.52c.78,0,1.41.71,1.41,1.59s-.63,1.59-1.41,1.59h-3.52Z" style="fill:#f1af21; stroke-width:0px;"/></g></svg>