<?xml version="1.0" encoding="UTF-8"?><svg id="Layer_2" xmlns="http://www.w3.org/2000/svg" viewBox="0 0 220 35"><defs><style>.cls-1{font-family:sans-serif;font-size:13px;}.cls-1,.cls-2{fill:#fff;}.cls-3{fill:#1b527f;}.cls-3,.cls-2{stroke-width:0px;}</style></defs><g id="Installed"><rect class="cls-3" width="220" height="35" rx="3" ry="3"/><text class="cls-1" transform="translate(38.94 21.6)"><tspan x="0" y="0">Salesforce Token Authorized</tspan></text><g id="vXPXzp.tif"><path class="cls-2" d="m20,5.27h.65c2.76,2,6.02,2.97,9.66,3.13,1.02.04,1.17.16,1.28.97.32,2.35.33,4.71-.16,7.05-1.14,5.38-4.34,9.65-9.95,12.65-.83.44-1.49.43-2.31,0-8.9-4.68-11.21-12.66-10.07-19.96.07-.44.36-.69.92-.69.33,0,.65,0,.98-.03,3.39-.28,6.43-1.22,9.01-3.1Z"/></g><circle class="cls-3" cx="20.33" cy="17.33" r="6.16"/><polygon class="cls-2" points="19.26 20.82 16.74 18 17.57 17.27 19.1 18.99 22.34 13.84 23.27 14.43 19.26 20.82"/></g></svg>