<?xml version="1.0" encoding="UTF-8"?>
<svg id="Layer_2" data-name="Layer 2" xmlns="http://www.w3.org/2000/svg" viewBox="0 0 25.74 14.65">
  <defs>
    <style>
      .cls-1 {
        fill: #2db670;
      }
    </style>
  </defs>
  <g id="Main_Design" data-name="Main Design">
    <g>
      <path class="cls-1" d="M.34,12.71L8.42,4.88c.4-.39,1.03-.38,1.42,.02l4.47,4.58,6.66-6.66,1.76,1.76-7.69,7.65c-.39,.39-1.02,.39-1.41,0l-4.6-4.62L1.9,14.34c-.45,.43-1.17,.41-1.6-.05h0c-.43-.45-.41-1.16,.03-1.59Z"/>
      <path class="cls-1" d="M24.39,6.34L19.19,1.16c-.18-.18-.07-.49,.18-.52L25.41,0c.2-.02,.36,.15,.33,.34l-.83,5.82c-.04,.25-.34,.35-.51,.17Z"/>
    </g>
  </g>
</svg>