<?xml version="1.0" encoding="UTF-8"?>
<svg id="Layer_1" data-name="Layer 1" xmlns="http://www.w3.org/2000/svg" viewBox="0 0 45 45">
  <defs>
    <style>
      .cls-1 {
        fill: #fff;
      }

      .cls-2 {
        fill: #b3b4b4;
      }
    </style>
  </defs>
  <g id="Background">
    <path class="cls-2" d="m24.31.06C10.51-.95-.95,10.51.06,24.31c.87,10.89,9.72,19.74,20.62,20.61,13.79,1.16,25.27-10.31,24.25-24.24C43.92,9.79,35.21.93,24.31.06Z"/>
  </g>
  <g id="Laptop">
    <path class="cls-1" d="m37.82,32.03H7.18c-.38,0-.68.3-.68.68s.3.68.68.68h30.64c.38,0,.68-.3.68-.68s-.3-.68-.68-.68Z"/>
    <path class="cls-1" d="m9.9,30.67h25.19c1.5,0,2.72-1.22,2.72-2.72v-13.62c0-1.5-1.22-2.72-2.72-2.72H9.9c-1.5,0-2.72,1.22-2.72,2.72v13.62c0,1.5,1.22,2.72,2.72,2.72Zm-1.36-16.34c0-.75.61-1.36,1.36-1.36h25.19c.75,0,1.36.61,1.36,1.36v13.62c0,.75-.61,1.36-1.36,1.36h-5.43c-.11-2.21-1.02-4.28-1.02-4.28-.32-.71-1.97-1.33-2.54-1.53-.89-1.94-.41-4.39-.41-4.39-.16.7-.36.96-.36.96-.16,1.26-1.18,2.3-1.18,2.3-.02.34.02.63.1.87-1.59,2.56-2.89,1.22-3.53.18.12-.28.2-.62.17-1.05,0,0-1.03-1.04-1.18-2.3,0,0-.2-.27-.36-.96,0,0,.48,2.44-.4,4.38-.68.29-1.37.5-1.37.5-.74.29-1.06.71-1.06.71-.81,1.2-1.09,3.5-1.19,4.61h-5.45c-.75,0-1.36-.61-1.36-1.36v-13.62Z"/>
    <path class="cls-1" d="m24.29,17.52c.04.16.31,1,1.18,1.37,0,0,.03-.34.13-.37,0,0,.11.05.14.18,0,0,.23-2.19-.77-3.01h0c-2.08-1.85-4.44-.45-4.44-.45-1.73,1.11-1.24,3.51-1.24,3.51,3.25.31,4.94-1.19,4.99-1.23Z"/>
  </g>
</svg>