<svg width="23" height="21" viewBox="0 0 23 21" fill="none" xmlns="http://www.w3.org/2000/svg">
<path d="M19.302 7.6499H4.10205V10.9499H19.302V7.6499Z" fill="#90C0E7"/>
<path d="M8.40204 11.8499H4.10205V12.4499H8.40204V11.8499Z" fill="#90C0E7"/>
<path d="M8.40204 13.3499H4.10205V13.9499H8.40204V13.3499Z" fill="#90C0E7"/>
<path d="M8.40204 14.8499H4.10205V15.4499H8.40204V14.8499Z" fill="#90C0E7"/>
<path d="M8.40204 16.3499H4.10205V16.9499H8.40204V16.3499Z" fill="#90C0E7"/>
<path d="M13.802 11.8499H9.50201V12.4499H13.802V11.8499Z" fill="#90C0E7"/>
<path d="M13.802 13.3499H9.50201V13.9499H13.802V13.3499Z" fill="#90C0E7"/>
<path d="M13.802 14.8499H9.50201V15.4499H13.802V14.8499Z" fill="#90C0E7"/>
<path d="M13.802 16.3499H9.50201V16.9499H13.802V16.3499Z" fill="#90C0E7"/>
<path d="M19.302 11.8499H15.002V12.4499H19.302V11.8499Z" fill="#90C0E7"/>
<path d="M19.302 12.2498H15.002V16.3498H19.302V12.2498Z" fill="#90C0E7"/>
<path d="M19.302 16.3499H15.002V16.9499H19.302V16.3499Z" fill="#90C0E7"/>
<path d="M22.002 0.649902H1.40202C1.00202 0.649902 0.702026 0.949901 0.702026 1.3499V19.5499C0.702026 19.9499 1.00202 20.2499 1.40202 20.2499H22.002C22.402 20.2499 22.702 19.9499 22.702 19.5499V1.3499C22.702 0.949901 22.402 0.649902 22.002 0.649902ZM8.50203 2.1499C9.00203 2.1499 9.40202 2.5499 9.40202 3.0499C9.40202 3.5499 9.00203 3.9499 8.50203 3.9499C8.00203 3.9499 7.60204 3.5499 7.60204 3.0499C7.50204 2.5499 8.00203 2.1499 8.50203 2.1499ZM5.70203 2.1499C6.20203 2.1499 6.60204 2.5499 6.60204 3.0499C6.60204 3.5499 6.20203 3.9499 5.70203 3.9499C5.20203 3.9499 4.80203 3.5499 4.80203 3.0499C4.80203 2.5499 5.20203 2.1499 5.70203 2.1499ZM3.00203 2.1499C3.50203 2.1499 3.90202 2.5499 3.90202 3.0499C3.90202 3.5499 3.50203 3.9499 3.00203 3.9499C2.50203 3.9499 2.10204 3.5499 2.10204 3.0499C2.10204 2.5499 2.50203 2.1499 3.00203 2.1499ZM21.302 18.7499H2.10204V5.5499H21.302V18.7499Z" fill="#90C0E7"/>
</svg>
