<svg width="23" height="20" viewBox="0 0 23 20" fill="none" xmlns="http://www.w3.org/2000/svg">
<path d="M19.302 7.3999H4.10205V10.6999H19.302V7.3999Z" fill="#88949A"/>
<path d="M8.40204 11.5999H4.10205V12.1999H8.40204V11.5999Z" fill="#88949A"/>
<path d="M8.40204 13.0999H4.10205V13.6999H8.40204V13.0999Z" fill="#88949A"/>
<path d="M8.40204 14.5999H4.10205V15.1999H8.40204V14.5999Z" fill="#88949A"/>
<path d="M8.40204 16.0999H4.10205V16.6999H8.40204V16.0999Z" fill="#88949A"/>
<path d="M13.802 11.5999H9.50201V12.1999H13.802V11.5999Z" fill="#88949A"/>
<path d="M13.802 13.0999H9.50201V13.6999H13.802V13.0999Z" fill="#88949A"/>
<path d="M13.802 14.5999H9.50201V15.1999H13.802V14.5999Z" fill="#88949A"/>
<path d="M13.802 16.0999H9.50201V16.6999H13.802V16.0999Z" fill="#88949A"/>
<path d="M19.302 11.5999H15.002V12.1999H19.302V11.5999Z" fill="#88949A"/>
<path d="M19.302 11.9998H15.002V16.0998H19.302V11.9998Z" fill="#88949A"/>
<path d="M19.302 16.0999H15.002V16.6999H19.302V16.0999Z" fill="#88949A"/>
<path d="M22.002 0.399902H1.40202C1.00202 0.399902 0.702026 0.699901 0.702026 1.0999V19.2999C0.702026 19.6999 1.00202 19.9999 1.40202 19.9999H22.002C22.402 19.9999 22.702 19.6999 22.702 19.2999V1.0999C22.702 0.699901 22.402 0.399902 22.002 0.399902ZM8.50203 1.8999C9.00203 1.8999 9.40202 2.2999 9.40202 2.7999C9.40202 3.2999 9.00203 3.6999 8.50203 3.6999C8.00203 3.6999 7.60204 3.2999 7.60204 2.7999C7.50204 2.2999 8.00203 1.8999 8.50203 1.8999ZM5.70203 1.8999C6.20203 1.8999 6.60204 2.2999 6.60204 2.7999C6.60204 3.2999 6.20203 3.6999 5.70203 3.6999C5.20203 3.6999 4.80203 3.2999 4.80203 2.7999C4.80203 2.2999 5.20203 1.8999 5.70203 1.8999ZM3.00203 1.8999C3.50203 1.8999 3.90202 2.2999 3.90202 2.7999C3.90202 3.2999 3.50203 3.6999 3.00203 3.6999C2.50203 3.6999 2.10204 3.2999 2.10204 2.7999C2.10204 2.2999 2.50203 1.8999 3.00203 1.8999ZM21.302 18.4999H2.10204V5.2999H21.302V18.4999Z" fill="#88949A"/>
</svg>
