<?xml version="1.0" encoding="UTF-8"?><svg id="Art" xmlns="http://www.w3.org/2000/svg" xmlns:xlink="http://www.w3.org/1999/xlink" viewBox="0 0 28 27.99997"><defs><style>.cls-1{fill:none;}.cls-2{fill:#fff;}.cls-3{fill:#0b5cff;}.cls-4{fill:url(#radial-gradient-2);}.cls-5{fill:url(#radial-gradient);}</style><radialGradient id="radial-gradient" cx="14" cy="12.37272" fx="14" fy="12.37272" r="18.87568" gradientTransform="translate(0 2.0319) scale(1 .83578)" gradientUnits="userSpaceOnUse"><stop offset=".82" stop-color="#0b5cff" stop-opacity="0"/><stop offset=".98" stop-color="#003cb3"/></radialGradient><radialGradient id="radial-gradient-2" cx="14.00004" cy="15.62077" fx="14.00004" fy="15.62077" r="18.86891" gradientTransform="translate(0 2.5653) scale(1 .83578)" gradientUnits="userSpaceOnUse"><stop offset=".8" stop-color="#0b5cff" stop-opacity="0"/><stop offset="1" stop-color="#71a5f1"/></radialGradient></defs><g id="icon-lockup_1line"><g id="icon_container_squircle-bloom"><g id="container"><path id="container-base" class="cls-3" d="m27.99999,14c0,1.49712-.12035,2.96512-.35025,4.3965-.76109,4.73863-4.51466,8.49218-9.25329,9.25324-1.43143.2299-2.89944.35025-4.39646.35025s-2.96503-.12035-4.39646-.35025c-4.73863-.76107-8.4922-4.51462-9.25329-9.25324-.2299-1.43139-.35025-2.89939-.35025-4.3965s.12035-2.96512.35025-4.3965C1.11134,4.86487,4.86491,1.11132,9.60354.35025c1.43143-.2299,2.89944-.35025,4.39646-.35025s2.96503.12035,4.39646.35025c4.73863.76107,8.4922,4.51462,9.25329,9.25324.2299,1.43139.35025,2.89939.35025,4.3965Z"/><path id="container-shadow" class="cls-5" d="m27.99999,14c0,1.49712-.12035,2.96512-.35025,4.3965-.76109,4.73863-4.51466,8.49218-9.25329,9.25324-1.43143.2299-2.89944.35025-4.39646.35025s-2.96503-.12035-4.39646-.35025c-4.73863-.76107-8.4922-4.51462-9.25329-9.25324-.2299-1.43139-.35025-2.89939-.35025-4.3965s.12035-2.96512.35025-4.3965C1.11134,4.86487,4.86491,1.11132,9.60354.35025c1.43143-.2299,2.89944-.35025,4.39646-.35025s2.96503.12035,4.39646.35025c4.73863.76107,8.4922,4.51462,9.25329,9.25324.2299,1.43139.35025,2.89939.35025,4.3965Z"/><path id="container-highlight" class="cls-4" d="m28.00004,14.00003c0,1.49707-.12036,2.96509-.35028,4.39648-.76111,4.73865-4.51465,8.49219-9.25329,9.25323-1.4314.22992-2.89941.35028-4.39642.35028s-2.96503-.12036-4.39648-.35028c-4.73865-.76105-8.49219-4.51459-9.25329-9.25323C.12035,16.96512.00005,15.4971.00005,14.00003s.1203-2.96515.35022-4.39655C1.11137,4.8649,4.86491,1.1113,9.60356.35025,11.03502.12033,12.50297.00003,14.00004.00003s2.96503.1203,4.39642.35022c4.73865.76105,8.49219,4.51465,9.25329,9.25323.22992,1.4314.35028,2.89941.35028,4.39655Z"/></g><g id="icon_meetings"><path id="_18x18-bounds" class="cls-1" d="m23,22.99998H5V4.99998h18v18Z"/><path id="icon_meetings_fill" class="cls-2" d="m17,17.49998c0,.82837-.67157,1.5-1.5,1.5h-6.5c-1.65686,0-3-1.34314-3-3v-5.5c0-.82837.67157-1.5,1.5-1.5h6.5c1.65686,0,3,1.34314,3,3v5.5Zm3.8-7.60009l-2.20001,1.65c-.37772.28329-.60001.72788-.6,1.20003l.00005,2.5c0,.47212.2223.91669.59999,1.19997l2.19997,1.65c.49443.37082,1.2.01804,1.2-.6v-6.99999c0-.61803-.70557-.97082-1.2-.6Z"/></g></g></g></svg>