<svg role="img" viewBox="0 0 24 24" xmlns="http://www.w3.org/2000/svg">
    <title>Bookit Handoff LWC Icon</title>
    <g id="add">
      <g transform="scale(0.5, 0.5)">
        <circle style="fill: #f26b19;opacity: .5;" cx="10" cy="10" r="10"/>
        <text style="fill: #fff;font-family: OpenSans, 'Open Sans';font-size: 18px;" transform="translate(4.85 16.27)"><tspan x="0" y="0">+</tspan></text>
      </g>
    </g>
    <g id="add-disabled">
      <g transform="scale(0.5, 0.5)">
        <circle style="fill: #b3b3b3;opacity: .5;" cx="10" cy="10" r="10"/>
        <text style="fill: #fff;font-family: OpenSans, 'Open Sans';font-size: 18px;" transform="translate(4.85 16.27)"><tspan x="0" y="0">+</tspan></text>
      </g>
    </g>

    <g id="lock_1">
      <path style="fill: #b3b3b3;" d="M7.03,4.36h-.42v-1.41C6.6,1.3,5.39-.02,3.91,0,2.46,.02,1.28,1.33,1.27,2.95v1.41h-.42c-.47,0-.84,.42-.84,.94v3.76c0,.52,.38,.94,.84,.94H7.03c.47,0,.84-.42,.84-.94v-3.76c0-.52-.38-.94-.84-.94Zm-1.83-.29H2.67v-1.28c0-.71,.58-1.27,1.28-1.26,.69,0,1.24,.57,1.25,1.26v1.28Z"/>
    </g>
    <g id="lock_2">
      <path style="fill: #b3b3b3;" d="M5.63,3.49h-.34v-1.13C5.28,1.04,4.31-.01,3.13,0,1.97,.01,1.02,1.06,1.01,2.36v1.13h-.34c-.37,0-.68,.34-.68,.75v3.01c0,.42,.3,.75,.68,.75H5.63c.37,0,.68-.34,.68-.75v-3.01c0-.42-.3-.75-.68-.75Zm-1.46-.23H2.14v-1.02c0-.57,.47-1.02,1.03-1.01,.55,0,.99,.46,1,1.01v1.02Z"/>
    </g>
    <g id="lock">
      <path style="fill: #b3b3b3;" d="M6.25,3.49h-.37v-1.13C5.86,1.04,4.79-.01,3.48,0,2.18,.01,1.14,1.06,1.13,2.36v1.13h-.38c-.41,0-.75,.34-.75,.75v3.01c0,.42,.34,.75,.75,.75H6.25c.41,0,.75-.34,.75-.75v-3.01c0-.42-.34-.75-.75-.75Zm-1.62-.23H2.38v-1.02c0-.57,.52-1.02,1.14-1.01,.61,0,1.1,.46,1.11,1.01v1.02Z"/>
    </g>
    <g id="host">
      <path style="fill: #ee6b19;" d="M7.69,6.62l-6.06,.04c-.13,0-.23-.03-.23,.1v.47c0,.13,.1,.23,.23,.23H7.69c.13,0,.23-.1,.23-.23v-.47c0-.13-.1-.14-.23-.14Zm.93-4.75c-.39,0-.7,.31-.7,.7,0,.1,.02,.2,.06,.29l-1.05,.63c-.22,.13-.51,.06-.64-.16,0,0,0,0,0,0l-1.19-2.08c.3-.24,.34-.68,.1-.98-.24-.3-.68-.34-.98-.1s-.34,.68-.1,.98c.03,.04,.06,.07,.1,.1l-1.19,2.08c-.13,.22-.41,.3-.64,.17,0,0,0,0,0,0l-1.05-.63c.16-.35,0-.77-.35-.93-.35-.16-.77,0-.93,.35-.16,.35,0,.77,.35,.93,.09,.04,.19,.06,.29,.06,.04,0,.08,0,.11-.01l1.05,2.55,5.59-.04,1.05-2.51s.07,.01,.11,.01c.39,0,.7-.31,.7-.7s-.31-.7-.7-.7Z"/>
    </g>
    <g id="host-disabled">
      <path style="fill: none;opacity: .3;stroke: #b3b3b3;stroke-miterlimit: 10;stroke-width: .5px;" d="M7.94,6.78H1.88c-.13,0-.23,.1-.23,.23v.47c0,.13,.1,.23,.23,.23H7.94c.13,0,.23-.1,.23-.23v-.47c0-.13-.1-.23-.23-.23Zm.93-4.66c-.39,0-.7,.31-.7,.7,0,.1,.02,.2,.06,.29l-1.05,.63c-.22,.13-.51,.06-.64-.16,0,0,0,0,0,0l-1.19-2.08c.3-.24,.34-.68,.1-.98-.24-.3-.68-.34-.98-.1s-.34,.68-.1,.98c.03,.04,.06,.07,.1,.1l-1.19,2.08c-.13,.22-.41,.3-.64,.17,0,0,0,0,0,0l-1.05-.63c.16-.35,0-.77-.35-.93-.35-.16-.77,0-.93,.35-.16,.35,0,.77,.35,.93,.09,.04,.19,.06,.29,.06,.04,0,.08,0,.11-.01l1.05,2.55,5.59-.04,1.05-2.51s.07,.01,.11,.01c.39,0,.7-.31,.7-.7s-.31-.7-.7-.7Z"/>
    </g>
    <g id="make-host">
      <path style="fill: none;stroke: #b3b2b3;stroke-miterlimit: 10;stroke-width: .5px;" d="M7.94,6.78H1.88c-.13,0-.23,.1-.23,.23v.47c0,.13,.1,.23,.23,.23H7.94c.13,0,.23-.1,.23-.23v-.47c0-.13-.1-.23-.23-.23Zm.93-4.66c-.39,0-.7,.31-.7,.7,0,.1,.02,.2,.06,.29l-1.05,.63c-.22,.13-.51,.06-.64-.16,0,0,0,0,0,0l-1.19-2.08c.3-.24,.34-.68,.1-.98-.24-.3-.68-.34-.98-.1s-.34,.68-.1,.98c.03,.04,.06,.07,.1,.1l-1.19,2.08c-.13,.22-.41,.3-.64,.17,0,0,0,0,0,0l-1.05-.63c.16-.35,0-.77-.35-.93-.35-.16-.77,0-.93,.35-.16,.35,0,.77,.35,.93,.09,.04,.19,.06,.29,.06,.04,0,.08,0,.11-.01l1.05,2.55,5.59-.04,1.05-2.51s.07,.01,.11,.01c.39,0,.7-.31,.7-.7s-.31-.7-.7-.7Z"/>
    </g>
    <g id="remove">
      <g style="clip-path: url(#clippath);">
        <g style="clip-path: url(#clippath-1);">
          <path style="fill: #b3b3b3;" d="M.63,8c-.16,0-.32-.06-.45-.19-.25-.25-.25-.65,0-.9L6.92,.19c.25-.25,.65-.25,.9,0,.25,.25,.25,.65,0,.9L1.08,7.81c-.12,.12-.29,.19-.45,.19"/>
          <path style="fill: #b3b3b3;" d="M7.37,8c-.16,0-.32-.06-.45-.19L.19,1.08C-.06,.84-.06,.43,.19,.19,.43-.06,.84-.06,1.08,.19L7.81,6.92c.25,.25,.25,.65,0,.9-.12,.12-.29,.19-.45,.19"/>
        </g>
      </g>
    </g>
    <g id="required">
      <path style="fill: #b3b3b3;" d="M4,4c1.1,0,2-.9,2-2S5.1,0,4,0,2,.9,2,2s.9,2,2,2Zm0,1c-1.34,0-4,.67-4,2v1H8v-1c0-1.33-2.67-2-4-2Z"/>
    </g>
    <g id="optional">
      <path style="fill: #b3b3b3;" d="M4.5,5.82c1.67,0,3.73,.9,3.73,1.2v.93H.81v-.93c0-.31,2.02-1.2,3.69-1.2m0-.56c-1.5,0-4.5,.64-4.5,1.91v1.43H9v-1.43c0-1.27-3-1.91-4.5-1.91Z"/>
      <circle style="fill: none;stroke: #b3b3b3;stroke-miterlimit: 10;stroke-width: .75px;" cx="4.5" cy="2.28" r="1.9"/>
    </g>
</svg>
