<svg width="1364" height="346" viewBox="0 0 1364 346" xmlns="http://www.w3.org/2000/svg"><title>bombora_logo-orange</title><path d="M233.375 190c0 42.75-33.5 77.5-75 77.5-17.5 0-33.5-7-46.5-17.5v15h-33.5V77.5h35V129c12.75-10 28-16.5 45-16.5 41.5 0 75 34.75 75 77.5zm-77.5-43.5c-23.5 0-42.5 19.5-42.5 43.5s19 43.5 42.5 43.5 42.5-19.5 42.5-43.5-19-43.5-42.5-43.5zm172.5-34c42.75 0 77.5 34.75 77.5 77.5s-34.75 77.5-77.5 77.5-77.5-34.75-77.5-77.5 34.75-77.5 77.5-77.5zm0 34c-23.5 0-42.5 19.5-42.5 43.5s19 43.5 42.5 43.5 42.5-19.5 42.5-43.5-19-43.5-42.5-43.5zm226 118.5v-91.75c0-14.75 12-26.75 27-26.75 14.75 0 26.75 12 26.75 26.75V265h35v-91.75c0-33.5-27.5-60.75-59.25-60.75-19.25 0-36.25 8.25-48.25 20-12.25-11.75-29.25-20-48-20-31.5 0-59.25 27.25-59.25 60.75V265h35v-91.75c0-14.75 12-26.75 26.75-26.75s26.75 12 26.75 26.75V265h37.5zm273.75-75c0 42.75-33.5 77.5-75 77.5-17.5 0-33.5-7-46.5-17.5v15h-33.5V77.5h35V129c12.75-10 28-16.5 45-16.5 41.5 0 75 34.75 75 77.5zm-77.5-43.5c-23.5 0-42.5 19.5-42.5 43.5s19 43.5 42.5 43.5 42.5-19.5 42.5-43.5-19-43.5-42.5-43.5zm172.5-34c42.75 0 77.5 34.75 77.5 77.5s-34.75 77.5-77.5 77.5-77.5-34.75-77.5-77.5 34.75-77.5 77.5-77.5zm0 34c-23.5 0-42.5 19.5-42.5 43.5s19 43.5 42.5 43.5 42.5-19.5 42.5-43.5-19-43.5-42.5-43.5zm137.5 118.5v-72.5c0-23 15-46 36.75-46 6.25 0 11.5.75 16 2.5l16-31c-8.75-3.5-19-5.5-29.5-5.5-14.25 0-33.25 9-40.25 20.5v-18h-34v150h35zm191-150h34v150h-33.5v-15c-13 10.5-29 17.5-46.5 17.5-41.5 0-75-34.75-75-77.5s33.5-77.5 75-77.5c17.25 0 33 7 46 17.25V115zm-43.5 31.5c-23.5 0-42.5 19.5-42.5 43.5s19 43.5 42.5 43.5 42.5-19.5 42.5-43.5-19-43.5-42.5-43.5z" fill="#EC7E1E" fill-rule="evenodd"/></svg>