<svg id="logo" xmlns="http://www.w3.org/2000/svg" viewBox="0 0 48 48">
	<path fill="#77922E" d="M22.95,3.76c-10.61,0-19.14,7.94-19.14,17.82c0,3.16,0.88,6.08,2.39,8.75c0.16,0.32,0.24,0.73,0.16,1.05
		l-1.75,5.59c-0.32,1.05,0.64,1.94,1.67,1.62l5.58-1.94c0.4-0.16,0.8-0.08,1.12,0.16c2.95,1.7,6.38,2.67,10.05,2.67
		c10.61,0,19.14-7.94,19.14-17.82C41.93,11.7,33.39,3.76,22.95,3.76z"/>
	<path fill="#ffffff" d="M25.2,12.88c0.94-1.49,2.45-2.43,4.27-2.49c2.92,0,5.26,2.8,5.26,6.22c0,0.87-0.16,1.74-0.42,2.49
	c1.35,0.93,2.24,2.68,2.24,4.67c0,2.99-2.03,5.41-4.53,5.41c-0.31,0-0.63-0.06-0.94-0.12c-0.68,2.24-2.5,3.8-4.58,3.8
	c-2.03,0-3.75-1.43-4.48-3.49c-0.57,0.31-1.2,0.5-1.88,0.5c-1.61,0-3.02-1.06-3.75-2.61c-0.36,0.06-0.73,0.12-1.15,0.12
	c-3.23,0-5.83-3.11-5.83-6.97s2.6-6.97,5.83-6.97c0.83,0,1.61,0.25,2.34,0.62c0.83-1.74,2.4-2.93,4.17-2.93
	C23.12,11.14,24.32,11.82,25.2,12.88"/>
</svg>