<?xml version="1.0" encoding="UTF-8" standalone="no" ?>
<svg width="120px" height="120px" viewBox="0 0 120 120" version="1.1" xmlns="http://www.w3.org/2000/svg" xmlns:xlink="http://www.w3.org/1999/xlink">
	<g stroke="none" stroke-width="1" fill="none" fill-rule="evenodd">
		<rect width="120" height="120" fill="white"/>
  		<path fill-rule="evenodd" clip-rule="evenodd" d="M100 32.8C100 25.7308 94.2692 20 87.2 20H32.8C25.7308 20 20 25.7308 20 32.8V87.2C20 94.2692 25.7308 100 32.8 100H87.2C94.2692 100 100 94.2692 100 87.2V32.8ZM51.0086 84.117C54.6784 86.1662 59.0957 87.1908 64.2606 87.1908C66.6618 87.1908 69.0856 86.8721 71.5321 86.2345C73.9786 85.597 76.04 84.709 77.7164 83.5705C78.7131 82.933 79.3927 82.1588 79.7551 81.2481C80.1176 80.3373 80.2082 79.4265 80.0269 78.5158C79.891 77.605 79.5059 76.8308 78.8716 76.1933C78.2827 75.5102 77.5125 75.1004 76.5611 74.9638C75.6549 74.7816 74.6129 74.9865 73.435 75.5785C72.0305 76.3527 70.558 76.9219 69.0177 77.2862C67.5226 77.6505 66.0501 77.8327 64.6003 77.8327C61.5649 77.8327 59.0051 77.2407 56.921 76.0567C54.8823 74.8272 53.3419 73.0512 52.2998 70.7287C51.2578 68.4062 50.7368 65.6056 50.7368 62.3269C50.7368 59.0026 51.2578 56.2019 52.2998 53.925C53.3419 51.6481 54.8823 49.9176 56.921 48.7336C59.0051 47.5041 61.5649 46.8893 64.6003 46.8893C66.1407 46.8893 67.6585 47.0715 69.1536 47.4358C70.6487 47.8001 72.0758 48.3921 73.435 49.2118C74.0418 49.529 74.6623 49.6828 75.2222 49.7572C76.062 49.8688 76.9248 49.7782 77.7165 49.4767C78.2995 49.2548 78.8548 48.9487 79.1985 48.5501C79.8328 47.867 80.3678 46.9823 80.5258 46.1486C80.5489 46.0266 80.5748 45.8966 80.6018 45.7611C80.6499 45.5193 80.7016 45.2596 80.7475 44.9956C80.9824 43.6467 80.7985 42.2065 80.1252 41.0143C79.9264 40.6623 79.6896 40.2785 79.4237 39.8474C79.3876 39.7888 79.3509 39.7293 79.3136 39.6689C79.0187 39.1901 78.6557 38.7562 78.2352 38.3828V38.3828C76.9432 37.2358 75.6513 36.0889 73.435 34.9419C70.4382 33.6078 66.8656 32.8073 64.6003 32.8073C60.7494 32.8073 56.6341 33.8746 53.714 35.4756C50.7939 36.8097 48.145 39.1599 46.0156 41.3457C44.1573 43.7472 42.1044 46.8331 40.9718 49.8842C39.8844 52.8897 39.1135 57.8449 39.1135 61.6246C39.1135 66.6793 40.5657 71.7761 42.5138 75.5102C44.5073 79.1988 47.3389 82.0678 51.0086 84.117Z" fill="#3E50B8"/>
	</g>
</svg>