<?xml version="1.0" encoding="utf-8"?>
<!-- Generator: Adobe Illustrator 25.3.1, SVG Export Plug-In . SVG Version: 6.00 Build 0)  -->
<svg version="1.1" id="layer1" xmlns="http://www.w3.org/2000/svg" xmlns:xlink="http://www.w3.org/1999/xlink" x="0px" y="0px"
	 viewBox="0 0 300 300" enable-background="new 0 0 300 300" xml:space="preserve">
<g>
	<path fill="#FE5000" d="M0,64.94v170.13C0,270.93,29.07,300,64.94,300h170.13c35.86,0,64.94-29.07,64.94-64.94V64.94
		C300,29.07,270.93,0,235.06,0H64.94C29.07,0,0,29.07,0,64.94z"/>
	<g>
		<path fill="#FFFFFF" d="M69.66,106.38c6.79-6.78,20.71-20.68,21.03-20.96c10.99-9.64,27.8-9.31,38.06,0.87
			c13.54,13.44,27.02,26.95,40.48,40.47c8.19,8.23,10.45,21.08,5.23,31.46c-1.74,3.46-4.44,6.45-6.77,9.61
			c-4,5.43-3.48,13.16,1.28,18.05c4.69,4.82,12.65,5.64,17.98,1.53c2.38-1.84,4.51-4.13,6.37-6.52
			c17.51-22.45,15.48-54.16-4.69-74.34c-6.49-6.49-12.98-12.98-19.47-19.47c-6.65-6.65-13.14-13.46-20-19.88
			c-3.66-3.43-7.67-6.68-12-9.17c-22.9-13.16-50.45-8.49-67.54,8.68L49.81,86.52l0,0l-4.51,4.51l-1.47,1.47l0,0L30,106.32
			c5.72,6.04,32.12,32.14,38.03,38.01c0.94,0.94,1.96,1.82,3.04,2.59c6.41,4.58,15.8,2.57,19.75-4.21c3.39-5.8,2.53-12.6-2.29-17.44
			C85.54,122.26,77.65,114.37,69.66,106.38z"/>
		<path fill="#FFFFFF" d="M265.88,183.7L265.88,183.7c-5.48-5.48-14.37-5.49-19.85-0.01c-12.02,12-30.69,30.66-30.99,30.92
			c-11.17,9.72-27.86,9.24-38.3-1.16c-13.44-13.39-26.85-26.8-40.24-40.24c-8.12-8.16-10.42-21.05-5.26-31.32
			c1.76-3.51,4.49-6.55,6.85-9.75c3.98-5.41,3.43-13.2-1.33-18.05c-4.68-4.77-12.69-5.72-17.82-1.54c-3.18,2.59-6.06,5.76-8.39,9.14
			c-15.62,22.72-12.71,52.46,6.85,72.02c6.41,6.41,12.82,12.82,19.23,19.23c6.69,6.69,13.23,13.53,20.12,20
			c3.58,3.36,7.51,6.51,11.75,8.96c22.91,13.25,50.56,8.58,67.68-8.64l29.71-29.71C271.37,198.07,271.37,189.18,265.88,183.7z"/>
	</g>
</g>
</svg>
