<svg width="93" height="15" viewBox="0 0 93 15" fill="none" xmlns="http://www.w3.org/2000/svg">
<path d="M8.48139 12.1234L12.5203 14.1429L11.7498 9.86414C11.6605 9.37254 11.8328 8.87031 12.2076 8.52134L15.4761 5.4898L10.9602 4.8662C10.4386 4.79488 9.9904 4.48384 9.7591 4.03624L7.73805 0.142883L5.717 4.03624C5.48411 4.48384 5.03587 4.79488 4.51586 4.8662L0 5.4898L3.26845 8.52134C3.64331 8.8688 3.81559 9.37254 3.72626 9.86414L2.9558 14.1429L6.99471 12.1234C7.4605 11.8897 8.01561 11.8897 8.48139 12.1234Z" fill="#812AC1"/>
<mask id="mask0" mask-type="alpha" maskUnits="userSpaceOnUse" x="0" y="0" width="16" height="15">
<path d="M8.48139 12.1234L12.5203 14.1429L11.7498 9.86414C11.6605 9.37254 11.8328 8.87031 12.2076 8.52134L15.4761 5.4898L10.9602 4.8662C10.4386 4.79488 9.9904 4.48384 9.7591 4.03624L7.73805 0.142883L5.717 4.03624C5.48411 4.48384 5.03587 4.79488 4.51586 4.8662L0 5.4898L3.26845 8.52134C3.64331 8.8688 3.81559 9.37254 3.72626 9.86414L2.9558 14.1429L6.99471 12.1234C7.4605 11.8897 8.01561 11.8897 8.48139 12.1234Z" fill="white"/>
</mask>
<g mask="url(#mask0)">
<rect width="15.4761" height="14" transform="translate(0 0.142883)" fill="#F7CD05"/>
<rect y="0.142883" width="15.4761" height="14" fill="#F7CD05"/>
</g>
<path d="M47.1206 12.1234L51.1595 14.1429L50.389 9.86414C50.2997 9.37254 50.472 8.87031 50.8468 8.52134L54.1153 5.4898L49.5994 4.8662C49.0778 4.79488 48.6296 4.48384 48.3983 4.03624L46.3772 0.142883L44.3562 4.03624C44.1233 4.48384 43.6751 4.79488 43.155 4.8662L38.6392 5.4898L41.9076 8.52134C42.2825 8.8688 42.4548 9.37254 42.3654 9.86414L41.595 14.1429L45.6339 12.1234C46.0997 11.8897 46.6548 11.8897 47.1206 12.1234Z" fill="#812AC1"/>
<mask id="mask1" mask-type="alpha" maskUnits="userSpaceOnUse" x="38" y="0" width="17" height="15">
<path d="M47.1206 12.1234L51.1595 14.1429L50.389 9.86414C50.2997 9.37254 50.472 8.87031 50.8468 8.52134L54.1153 5.4898L49.5994 4.8662C49.0778 4.79488 48.6296 4.48384 48.3983 4.03624L46.3772 0.142883L44.3562 4.03624C44.1233 4.48384 43.6751 4.79488 43.155 4.8662L38.6392 5.4898L41.9076 8.52134C42.2825 8.8688 42.4548 9.37254 42.3654 9.86414L41.595 14.1429L45.6339 12.1234C46.0997 11.8897 46.6548 11.8897 47.1206 12.1234Z" fill="white"/>
</mask>
<g mask="url(#mask1)">
<rect width="15.4761" height="14" transform="translate(38.6392 0.142883)" fill="#F7CD05"/>
<rect x="38.6392" y="0.142883" width="15.4761" height="14" fill="#F7CD05"/>
</g>
<path d="M27.801 12.1234L31.8399 14.1429L31.0694 9.86414C30.9801 9.37254 31.1524 8.87031 31.5272 8.52134L34.7957 5.4898L30.2798 4.8662C29.7582 4.79488 29.31 4.48384 29.0787 4.03624L27.0576 0.142883L25.0366 4.03624C24.8037 4.48384 24.3555 4.79488 23.8354 4.8662L19.3196 5.4898L22.588 8.52134C22.9629 8.8688 23.1352 9.37254 23.0459 9.86414L22.2754 14.1429L26.3143 12.1234C26.7801 11.8897 27.3352 11.8897 27.801 12.1234Z" fill="#812AC1"/>
<mask id="mask2" mask-type="alpha" maskUnits="userSpaceOnUse" x="19" y="0" width="16" height="15">
<path d="M27.801 12.1234L31.8399 14.1429L31.0694 9.86414C30.9801 9.37254 31.1524 8.87031 31.5272 8.52134L34.7957 5.4898L30.2798 4.8662C29.7582 4.79488 29.31 4.48384 29.0787 4.03624L27.0576 0.142883L25.0366 4.03624C24.8037 4.48384 24.3555 4.79488 23.8354 4.8662L19.3196 5.4898L22.588 8.52134C22.9629 8.8688 23.1352 9.37254 23.0459 9.86414L22.2754 14.1429L26.3143 12.1234C26.7801 11.8897 27.3352 11.8897 27.801 12.1234Z" fill="white"/>
</mask>
<g mask="url(#mask2)">
<rect width="15.4761" height="14" transform="translate(19.3196 0.142883)" fill="#F7CD05"/>
<rect x="19.3196" y="0.142883" width="15.4761" height="14" fill="#F7CD05"/>
</g>
</svg>
