<svg width="191" height="14" viewBox="0 0 191 14" fill="none" xmlns="http://www.w3.org/2000/svg">
<path d="M8.48139 11.9805L12.5203 14L11.7498 9.72126C11.6605 9.22966 11.8328 8.72743 12.2076 8.37846L15.4761 5.34692L10.9602 4.72332C10.4386 4.652 9.9904 4.34096 9.7591 3.89336L7.73805 0L5.717 3.89336C5.48411 4.34096 5.03587 4.652 4.51586 4.72332L0 5.34692L3.26845 8.37846C3.64331 8.72592 3.81559 9.22966 3.72626 9.72126L2.9558 14L6.99471 11.9805C7.4605 11.7468 8.01561 11.7468 8.48139 11.9805Z" fill="#E2E3E7"/>
<path d="M27.9575 11.9805L31.9964 14L31.2259 9.72126C31.1366 9.22966 31.3089 8.72743 31.6837 8.37846L34.9522 5.34692L30.4363 4.72332C29.9147 4.652 29.4665 4.34096 29.2352 3.89336L27.2141 0L25.1931 3.89336C24.9602 4.34096 24.5119 4.652 23.9919 4.72332L19.4761 5.34692L22.7445 8.37846C23.1194 8.72592 23.2917 9.22966 23.2023 9.72126L22.4319 14L26.4708 11.9805C26.9366 11.7468 27.4917 11.7468 27.9575 11.9805Z" fill="#E2E3E7"/>
<path d="M47.4336 11.9805L51.4725 14L50.702 9.72126C50.6127 9.22966 50.785 8.72743 51.1598 8.37846L54.4283 5.34692L49.9124 4.72332C49.3908 4.652 48.9426 4.34096 48.7113 3.89336L46.6903 0L44.6692 3.89336C44.4363 4.34096 43.9881 4.652 43.4681 4.72332L38.9522 5.34692L42.2207 8.37846C42.5955 8.72592 42.7678 9.22966 42.6785 9.72126L41.908 14L45.9469 11.9805C46.4127 11.7468 46.9678 11.7468 47.4336 11.9805Z" fill="#E2E3E7"/>
<path d="M66.9097 11.9805L70.9486 14L70.1781 9.72126C70.0888 9.22966 70.2611 8.72743 70.6359 8.37846L73.9044 5.34692L69.3885 4.72332C68.8669 4.652 68.4187 4.34096 68.1874 3.89336L66.1663 0L64.1453 3.89336C63.9124 4.34096 63.4642 4.652 62.9441 4.72332L58.4283 5.34692L61.6967 8.37846C62.0716 8.72592 62.2439 9.22966 62.1545 9.72126L61.3841 14L65.423 11.9805C65.8888 11.7468 66.4439 11.7468 66.9097 11.9805Z" fill="#E2E3E7"/>
<path d="M86.3858 11.9805L90.4247 14L89.6542 9.72126C89.5649 9.22966 89.7372 8.72743 90.112 8.37846L93.3805 5.34692L88.8646 4.72332C88.343 4.652 87.8948 4.34096 87.6635 3.89336L85.6425 0L83.6214 3.89336C83.3885 4.34096 82.9403 4.652 82.4203 4.72332L77.9044 5.34692L81.1729 8.37846C81.5477 8.72592 81.72 9.22966 81.6307 9.72126L80.8602 14L84.8991 11.9805C85.3649 11.7468 85.92 11.7468 86.3858 11.9805Z" fill="#E2E3E7"/>
<path d="M105.862 11.9805L109.901 14L109.13 9.72126C109.041 9.22966 109.213 8.72743 109.588 8.37846L112.857 5.34692L108.341 4.72332C107.819 4.652 107.371 4.34096 107.14 3.89336L105.119 0L103.097 3.89336C102.865 4.34096 102.416 4.652 101.896 4.72332L97.3805 5.34692L100.649 8.37846C101.024 8.72592 101.196 9.22966 101.107 9.72126L100.336 14L104.375 11.9805C104.841 11.7468 105.396 11.7468 105.862 11.9805Z" fill="#E2E3E7"/>
<path d="M125.338 11.9805L129.377 14L128.606 9.72126C128.517 9.22966 128.689 8.72743 129.064 8.37846L132.333 5.34692L127.817 4.72332C127.295 4.652 126.847 4.34096 126.616 3.89336L124.595 0L122.574 3.89336C122.341 4.34096 121.892 4.652 121.372 4.72332L116.857 5.34692L120.125 8.37846C120.5 8.72592 120.672 9.22966 120.583 9.72126L119.812 14L123.851 11.9805C124.317 11.7468 124.872 11.7468 125.338 11.9805Z" fill="#E2E3E7"/>
<path d="M144.814 11.9805L148.853 14L148.083 9.72126C147.993 9.22966 148.166 8.72743 148.54 8.37846L151.809 5.34692L147.293 4.72332C146.771 4.652 146.323 4.34096 146.092 3.89336L144.071 0L142.05 3.89336C141.817 4.34096 141.369 4.652 140.849 4.72332L136.333 5.34692L139.601 8.37846C139.976 8.72592 140.148 9.22966 140.059 9.72126L139.289 14L143.327 11.9805C143.793 11.7468 144.348 11.7468 144.814 11.9805Z" fill="#E2E3E7"/>
<path d="M164.29 11.9805L168.329 14L167.559 9.72126C167.469 9.22966 167.642 8.72743 168.016 8.37846L171.285 5.34692L166.769 4.72332C166.247 4.652 165.799 4.34096 165.568 3.89336L163.547 0L161.526 3.89336C161.293 4.34096 160.845 4.652 160.325 4.72332L155.809 5.34692L159.077 8.37846C159.452 8.72592 159.624 9.22966 159.535 9.72126L158.765 14L162.804 11.9805C163.269 11.7468 163.824 11.7468 164.29 11.9805Z" fill="#E2E3E7"/>
<path d="M183.766 11.9805L187.805 14L187.035 9.72126C186.945 9.22966 187.118 8.72743 187.493 8.37846L190.761 5.34692L186.245 4.72332C185.724 4.652 185.275 4.34096 185.044 3.89336L183.023 0L181.002 3.89336C180.769 4.34096 180.321 4.652 179.801 4.72332L175.285 5.34692L178.553 8.37846C178.928 8.72592 179.101 9.22966 179.011 9.72126L178.241 14L182.28 11.9805C182.745 11.7468 183.301 11.7468 183.766 11.9805Z" fill="#E2E3E7"/>
</svg>
