<svg width="134" height="14" viewBox="0 0 134 14" fill="none" xmlns="http://www.w3.org/2000/svg">
<path d="M9.33613 11.9806L13.375 14.0001L12.6045 9.72129C12.5152 9.22969 12.6875 8.72746 13.0623 8.37849L16.3308 5.34695L11.8149 4.72335C11.2933 4.65203 10.8451 4.34099 10.6138 3.89339L8.59279 3.43323e-05L6.57174 3.89339C6.33885 4.34099 5.89061 4.65203 5.3706 4.72335L0.854736 5.34695L4.12319 8.37849C4.49805 8.72595 4.67033 9.22969 4.581 9.72129L3.81054 14.0001L7.84945 11.9806C8.31524 11.7469 8.87035 11.7469 9.33613 11.9806Z" fill="#F7CD05"/>
<path d="M28.8122 11.9806L32.8511 14.0001L32.0806 9.72129C31.9913 9.22969 32.1636 8.72746 32.5384 8.37849L35.8069 5.34695L31.291 4.72335C30.7694 4.65203 30.3212 4.34099 30.0899 3.89339L28.0689 3.43323e-05L26.0478 3.89339C25.8149 4.34099 25.3667 4.65203 24.8467 4.72335L20.3308 5.34695L23.5993 8.37849C23.9741 8.72595 24.1464 9.22969 24.0571 9.72129L23.2866 14.0001L27.3255 11.9806C27.7913 11.7469 28.3464 11.7469 28.8122 11.9806Z" fill="#F7CD05"/>
<path d="M48.2883 11.9806L52.3272 14.0001L51.5567 9.72129C51.4674 9.22969 51.6397 8.72746 52.0145 8.37849L55.283 5.34695L50.7671 4.72335C50.2455 4.65203 49.7973 4.34099 49.566 3.89339L47.545 3.43323e-05L45.5239 3.89339C45.291 4.34099 44.8428 4.65203 44.3228 4.72335L39.8069 5.34695L43.0754 8.37849C43.4502 8.72595 43.6225 9.22969 43.5332 9.72129L42.7627 14.0001L46.8016 11.9806C47.2674 11.7469 47.8225 11.7469 48.2883 11.9806Z" fill="#E2E3E7"/>
<path d="M67.7644 11.9806L71.8033 14.0001L71.0328 9.72129C70.9435 9.22969 71.1158 8.72746 71.4906 8.37849L74.7591 5.34695L70.2432 4.72335C69.7216 4.65203 69.2734 4.34099 69.0421 3.89339L67.0211 3.43323e-05L65 3.89339C64.7671 4.34099 64.3189 4.65203 63.7989 4.72335L59.283 5.34695L62.5515 8.37849C62.9263 8.72595 63.0986 9.22969 63.0093 9.72129L62.2388 14.0001L66.2777 11.9806C66.7435 11.7469 67.2986 11.7469 67.7644 11.9806Z" fill="#E2E3E7"/>
<path d="M87.2405 11.9806L91.2794 14.0001L90.5089 9.72129C90.4196 9.22969 90.5919 8.72746 90.9667 8.37849L94.2352 5.34695L89.7193 4.72335C89.1977 4.65203 88.7495 4.34099 88.5182 3.89339L86.4972 3.43323e-05L84.4761 3.89339C84.2433 4.34099 83.795 4.65203 83.275 4.72335L78.7591 5.34695L82.0276 8.37849C82.4025 8.72595 82.5747 9.22969 82.4854 9.72129L81.7149 14.0001L85.7538 11.9806C86.2196 11.7469 86.7748 11.7469 87.2405 11.9806Z" fill="#E2E3E7"/>
<path d="M106.717 11.9806L110.756 14.0001L109.985 9.72129C109.896 9.22969 110.068 8.72746 110.443 8.37849L113.711 5.34695L109.195 4.72335C108.674 4.65203 108.226 4.34099 107.994 3.89339L105.973 3.43323e-05L103.952 3.89339C103.719 4.34099 103.271 4.65203 102.751 4.72335L98.2352 5.34695L101.504 8.37849C101.879 8.72595 102.051 9.22969 101.961 9.72129L101.191 14.0001L105.23 11.9806C105.696 11.7469 106.251 11.7469 106.717 11.9806Z" fill="#E2E3E7"/>
<path d="M126.193 11.9806L130.232 14.0001L129.461 9.72129C129.372 9.22969 129.544 8.72746 129.919 8.37849L133.187 5.34695L128.672 4.72335C128.15 4.65203 127.702 4.34099 127.47 3.89339L125.449 3.43323e-05L123.428 3.89339C123.195 4.34099 122.747 4.65203 122.227 4.72335L117.711 5.34695L120.98 8.37849C121.355 8.72595 121.527 9.22969 121.438 9.72129L120.667 14.0001L124.706 11.9806C125.172 11.7469 125.727 11.7469 126.193 11.9806Z" fill="#E2E3E7"/>
</svg>
