<svg width="75" height="14" viewBox="0 0 75 14" fill="none" xmlns="http://www.w3.org/2000/svg">
<path d="M8.90595 11.9805L12.9449 14L12.1744 9.72126C12.0851 9.22966 12.2574 8.72743 12.6322 8.37846L15.9007 5.34692L11.3848 4.72332C10.8632 4.652 10.415 4.34096 10.1837 3.89336L8.16261 0L6.14156 3.89336C5.90867 4.34096 5.46043 4.652 4.94042 4.72332L0.424561 5.34692L3.69301 8.37846C4.06787 8.72592 4.24015 9.22966 4.15082 9.72126L3.38036 14L7.41927 11.9805C7.88506 11.7468 8.44017 11.7468 8.90595 11.9805Z" fill="#E2E3E7"/>
<path d="M28.3821 11.9805L32.421 14L31.6505 9.72126C31.5612 9.22966 31.7335 8.72743 32.1083 8.37846L35.3768 5.34692L30.8609 4.72332C30.3393 4.652 29.8911 4.34096 29.6598 3.89336L27.6387 0L25.6177 3.89336C25.3848 4.34096 24.9365 4.652 24.4165 4.72332L19.9007 5.34692L23.1691 8.37846C23.544 8.72592 23.7163 9.22966 23.6269 9.72126L22.8565 14L26.8954 11.9805C27.3612 11.7468 27.9163 11.7468 28.3821 11.9805Z" fill="#E2E3E7"/>
<path d="M47.8582 11.9805L51.8971 14L51.1266 9.72126C51.0373 9.22966 51.2096 8.72743 51.5844 8.37846L54.8529 5.34692L50.337 4.72332C49.8154 4.652 49.3672 4.34096 49.1359 3.89336L47.1148 0L45.0938 3.89336C44.8609 4.34096 44.4126 4.652 43.8926 4.72332L39.3768 5.34692L42.6452 8.37846C43.0201 8.72592 43.1924 9.22966 43.103 9.72126L42.3326 14L46.3715 11.9805C46.8373 11.7468 47.3924 11.7468 47.8582 11.9805Z" fill="#E2E3E7"/>
<path d="M67.3343 11.9805L71.3732 14L70.6027 9.72126C70.5134 9.22966 70.6857 8.72743 71.0605 8.37846L74.329 5.34692L69.8131 4.72332C69.2915 4.652 68.8433 4.34096 68.612 3.89336L66.5909 0L64.5699 3.89336C64.337 4.34096 63.8887 4.652 63.3687 4.72332L58.8529 5.34692L62.1213 8.37846C62.4962 8.72592 62.6685 9.22966 62.5791 9.72126L61.8087 14L65.8476 11.9805C66.3134 11.7468 66.8685 11.7468 67.3343 11.9805Z" fill="#E2E3E7"/>
</svg>
