<svg width="173" height="14" viewBox="0 0 173 14" fill="none" xmlns="http://www.w3.org/2000/svg">
<path d="M9.24238 11.9806L13.2813 14.0001L12.5108 9.72129C12.4215 9.22969 12.5938 8.72746 12.9686 8.37849L16.2371 5.34695L11.7212 4.72335C11.1996 4.65203 10.7514 4.34099 10.5201 3.89339L8.49904 3.43323e-05L6.47799 3.89339C6.2451 4.34099 5.79686 4.65203 5.27685 4.72335L0.760986 5.34695L4.02944 8.37849C4.4043 8.72595 4.57658 9.22969 4.48725 9.72129L3.71679 14.0001L7.7557 11.9806C8.22149 11.7469 8.7766 11.7469 9.24238 11.9806Z" fill="#F7CD05"/>
<path d="M28.7185 11.9806L32.7574 14.0001L31.9869 9.72129C31.8976 9.22969 32.0699 8.72746 32.4447 8.37849L35.7132 5.34695L31.1973 4.72335C30.6757 4.65203 30.2275 4.34099 29.9962 3.89339L27.9751 3.43323e-05L25.9541 3.89339C25.7212 4.34099 25.273 4.65203 24.753 4.72335L20.2371 5.34695L23.5055 8.37849C23.8804 8.72595 24.0527 9.22969 23.9634 9.72129L23.1929 14.0001L27.2318 11.9806C27.6976 11.7469 28.2527 11.7469 28.7185 11.9806Z" fill="#F7CD05"/>
<path d="M48.1946 11.9806L52.2335 14.0001L51.463 9.72129C51.3737 9.22969 51.546 8.72746 51.9208 8.37849L55.1893 5.34695L50.6734 4.72335C50.1518 4.65203 49.7036 4.34099 49.4723 3.89339L47.4512 3.43323e-05L45.4302 3.89339C45.1973 4.34099 44.7491 4.65203 44.2291 4.72335L39.7132 5.34695L42.9816 8.37849C43.3565 8.72595 43.5288 9.22969 43.4395 9.72129L42.669 14.0001L46.7079 11.9806C47.1737 11.7469 47.7288 11.7469 48.1946 11.9806Z" fill="#E2E3E7"/>
<path d="M67.6707 11.9806L71.7096 14.0001L70.9391 9.72129C70.8498 9.22969 71.0221 8.72746 71.3969 8.37849L74.6654 5.34695L70.1495 4.72335C69.6279 4.65203 69.1797 4.34099 68.9484 3.89339L66.9274 3.43323e-05L64.9063 3.89339C64.6734 4.34099 64.2252 4.65203 63.7052 4.72335L59.1893 5.34695L62.4578 8.37849C62.8326 8.72595 63.0049 9.22969 62.9156 9.72129L62.1451 14.0001L66.184 11.9806C66.6498 11.7469 67.2049 11.7469 67.6707 11.9806Z" fill="#E2E3E7"/>
<path d="M87.1468 11.9806L91.1857 14.0001L90.4152 9.72129C90.3259 9.22969 90.4982 8.72746 90.873 8.37849L94.1415 5.34695L89.6256 4.72335C89.104 4.65203 88.6558 4.34099 88.4245 3.89339L86.4035 3.43323e-05L84.3824 3.89339C84.1495 4.34099 83.7013 4.65203 83.1813 4.72335L78.6654 5.34695L81.9339 8.37849C82.3087 8.72595 82.481 9.22969 82.3917 9.72129L81.6212 14.0001L85.6601 11.9806C86.1259 11.7469 86.681 11.7469 87.1468 11.9806Z" fill="#E2E3E7"/>
<path d="M106.623 11.9806L110.662 14.0001L109.891 9.72129C109.802 9.22969 109.974 8.72746 110.349 8.37849L113.618 5.34695L109.102 4.72335C108.58 4.65203 108.132 4.34099 107.901 3.89339L105.88 3.43323e-05L103.858 3.89339C103.626 4.34099 103.177 4.65203 102.657 4.72335L98.1415 5.34695L101.41 8.37849C101.785 8.72595 101.957 9.22969 101.868 9.72129L101.097 14.0001L105.136 11.9806C105.602 11.7469 106.157 11.7469 106.623 11.9806Z" fill="#E2E3E7"/>
<path d="M126.099 11.9806L130.138 14.0001L129.367 9.72129C129.278 9.22969 129.45 8.72746 129.825 8.37849L133.094 5.34695L128.578 4.72335C128.056 4.65203 127.608 4.34099 127.377 3.89339L125.356 3.43323e-05L123.335 3.89339C123.102 4.34099 122.653 4.65203 122.133 4.72335L117.618 5.34695L120.886 8.37849C121.261 8.72595 121.433 9.22969 121.344 9.72129L120.573 14.0001L124.612 11.9806C125.078 11.7469 125.633 11.7469 126.099 11.9806Z" fill="#E2E3E7"/>
<path d="M145.575 11.9806L149.614 14.0001L148.843 9.72129C148.754 9.22969 148.926 8.72746 149.301 8.37849L152.57 5.34695L148.054 4.72335C147.532 4.65203 147.084 4.34099 146.853 3.89339L144.832 3.43323e-05L142.811 3.89339C142.578 4.34099 142.13 4.65203 141.61 4.72335L137.094 5.34695L140.362 8.37849C140.737 8.72595 140.909 9.22969 140.82 9.72129L140.049 14.0001L144.088 11.9806C144.554 11.7469 145.109 11.7469 145.575 11.9806Z" fill="#E2E3E7"/>
<path d="M165.051 11.9806L169.09 14.0001L168.32 9.72129C168.23 9.22969 168.403 8.72746 168.777 8.37849L172.046 5.34695L167.53 4.72335C167.008 4.65203 166.56 4.34099 166.329 3.89339L164.308 3.43323e-05L162.287 3.89339C162.054 4.34099 161.606 4.65203 161.086 4.72335L156.57 5.34695L159.838 8.37849C160.213 8.72595 160.385 9.22969 160.296 9.72129L159.526 14.0001L163.565 11.9806C164.03 11.7469 164.585 11.7469 165.051 11.9806Z" fill="#E2E3E7"/>
</svg>
