<svg width="191" height="14" viewBox="0 0 191 14" fill="none" xmlns="http://www.w3.org/2000/svg">
<path d="M8.48139 11.9805L12.5203 14L11.7498 9.72127C11.6605 9.22967 11.8328 8.72744 12.2076 8.37847L15.4761 5.34693L10.9602 4.72333C10.4386 4.65201 9.9904 4.34097 9.7591 3.89337L7.73805 1.52588e-05L5.717 3.89337C5.48411 4.34097 5.03587 4.65201 4.51586 4.72333L0 5.34693L3.26845 8.37847C3.64331 8.72593 3.81559 9.22967 3.72626 9.72127L2.9558 14L6.99471 11.9805C7.4605 11.7468 8.01561 11.7468 8.48139 11.9805Z" fill="#F7CD05"/>
<path d="M27.9575 11.9805L31.9964 14L31.2259 9.72127C31.1366 9.22967 31.3089 8.72744 31.6837 8.37847L34.9522 5.34693L30.4363 4.72333C29.9147 4.65201 29.4665 4.34097 29.2352 3.89337L27.2141 1.52588e-05L25.1931 3.89337C24.9602 4.34097 24.5119 4.65201 23.9919 4.72333L19.4761 5.34693L22.7445 8.37847C23.1194 8.72593 23.2917 9.22967 23.2023 9.72127L22.4319 14L26.4708 11.9805C26.9366 11.7468 27.4917 11.7468 27.9575 11.9805Z" fill="#E2E3E7"/>
<path d="M47.4336 11.9805L51.4725 14L50.702 9.72127C50.6127 9.22967 50.785 8.72744 51.1598 8.37847L54.4283 5.34693L49.9124 4.72333C49.3908 4.65201 48.9426 4.34097 48.7113 3.89337L46.6903 1.52588e-05L44.6692 3.89337C44.4363 4.34097 43.9881 4.65201 43.4681 4.72333L38.9522 5.34693L42.2207 8.37847C42.5955 8.72593 42.7678 9.22967 42.6785 9.72127L41.908 14L45.9469 11.9805C46.4127 11.7468 46.9678 11.7468 47.4336 11.9805Z" fill="#E2E3E7"/>
<path d="M66.9097 11.9805L70.9486 14L70.1781 9.72127C70.0888 9.22967 70.2611 8.72744 70.6359 8.37847L73.9044 5.34693L69.3885 4.72333C68.8669 4.65201 68.4187 4.34097 68.1874 3.89337L66.1663 1.52588e-05L64.1453 3.89337C63.9124 4.34097 63.4642 4.65201 62.9441 4.72333L58.4283 5.34693L61.6967 8.37847C62.0716 8.72593 62.2439 9.22967 62.1545 9.72127L61.3841 14L65.423 11.9805C65.8888 11.7468 66.4439 11.7468 66.9097 11.9805Z" fill="#E2E3E7"/>
<path d="M86.3858 11.9805L90.4247 14L89.6542 9.72127C89.5649 9.22967 89.7372 8.72744 90.112 8.37847L93.3805 5.34693L88.8646 4.72333C88.343 4.65201 87.8948 4.34097 87.6635 3.89337L85.6425 1.52588e-05L83.6214 3.89337C83.3885 4.34097 82.9403 4.65201 82.4203 4.72333L77.9044 5.34693L81.1729 8.37847C81.5477 8.72593 81.72 9.22967 81.6307 9.72127L80.8602 14L84.8991 11.9805C85.3649 11.7468 85.92 11.7468 86.3858 11.9805Z" fill="#E2E3E7"/>
<path d="M105.862 11.9805L109.901 14L109.13 9.72127C109.041 9.22967 109.213 8.72744 109.588 8.37847L112.857 5.34693L108.341 4.72333C107.819 4.65201 107.371 4.34097 107.14 3.89337L105.119 1.52588e-05L103.097 3.89337C102.865 4.34097 102.416 4.65201 101.896 4.72333L97.3805 5.34693L100.649 8.37847C101.024 8.72593 101.196 9.22967 101.107 9.72127L100.336 14L104.375 11.9805C104.841 11.7468 105.396 11.7468 105.862 11.9805Z" fill="#E2E3E7"/>
<path d="M125.338 11.9805L129.377 14L128.606 9.72127C128.517 9.22967 128.689 8.72744 129.064 8.37847L132.333 5.34693L127.817 4.72333C127.295 4.65201 126.847 4.34097 126.616 3.89337L124.595 1.52588e-05L122.574 3.89337C122.341 4.34097 121.892 4.65201 121.372 4.72333L116.857 5.34693L120.125 8.37847C120.5 8.72593 120.672 9.22967 120.583 9.72127L119.812 14L123.851 11.9805C124.317 11.7468 124.872 11.7468 125.338 11.9805Z" fill="#E2E3E7"/>
<path d="M144.814 11.9805L148.853 14L148.083 9.72127C147.993 9.22967 148.166 8.72744 148.54 8.37847L151.809 5.34693L147.293 4.72333C146.771 4.65201 146.323 4.34097 146.092 3.89337L144.071 1.52588e-05L142.05 3.89337C141.817 4.34097 141.369 4.65201 140.849 4.72333L136.333 5.34693L139.601 8.37847C139.976 8.72593 140.148 9.22967 140.059 9.72127L139.289 14L143.327 11.9805C143.793 11.7468 144.348 11.7468 144.814 11.9805Z" fill="#E2E3E7"/>
<path d="M164.29 11.9805L168.329 14L167.559 9.72127C167.469 9.22967 167.642 8.72744 168.016 8.37847L171.285 5.34693L166.769 4.72333C166.247 4.65201 165.799 4.34097 165.568 3.89337L163.547 1.52588e-05L161.526 3.89337C161.293 4.34097 160.845 4.65201 160.325 4.72333L155.809 5.34693L159.077 8.37847C159.452 8.72593 159.624 9.22967 159.535 9.72127L158.765 14L162.804 11.9805C163.269 11.7468 163.824 11.7468 164.29 11.9805Z" fill="#E2E3E7"/>
<path d="M183.766 11.9805L187.805 14L187.035 9.72127C186.945 9.22967 187.118 8.72744 187.493 8.37847L190.761 5.34693L186.245 4.72333C185.724 4.65201 185.275 4.34097 185.044 3.89337L183.023 1.52588e-05L181.002 3.89337C180.769 4.34097 180.321 4.65201 179.801 4.72333L175.285 5.34693L178.553 8.37847C178.928 8.72593 179.101 9.22967 179.011 9.72127L178.241 14L182.28 11.9805C182.745 11.7468 183.301 11.7468 183.766 11.9805Z" fill="#E2E3E7"/>
</svg>
