<svg width="152" height="14" viewBox="0 0 152 14" fill="none" xmlns="http://www.w3.org/2000/svg">
<path d="M8.52729 11.9805L12.5662 14L11.7957 9.72127C11.7064 9.22967 11.8787 8.72744 12.2535 8.37847L15.522 5.34693L11.0061 4.72333C10.4845 4.65201 10.0363 4.34097 9.805 3.89337L7.78395 1.52588e-05L5.7629 3.89337C5.53001 4.34097 5.08177 4.65201 4.56176 4.72333L0.0458984 5.34693L3.31435 8.37847C3.68921 8.72593 3.86149 9.22967 3.77216 9.72127L3.0017 14L7.04061 11.9805C7.5064 11.7468 8.06151 11.7468 8.52729 11.9805Z" fill="#F7CD05"/>
<path d="M28.0034 11.9805L32.0423 14L31.2718 9.72127C31.1825 9.22967 31.3548 8.72744 31.7296 8.37847L34.9981 5.34693L30.4822 4.72333C29.9606 4.65201 29.5124 4.34097 29.2811 3.89337L27.2601 1.52588e-05L25.239 3.89337C25.0061 4.34097 24.5579 4.65201 24.0379 4.72333L19.522 5.34693L22.7905 8.37847C23.1653 8.72593 23.3376 9.22967 23.2483 9.72127L22.4778 14L26.5167 11.9805C26.9825 11.7468 27.5376 11.7468 28.0034 11.9805Z" fill="#E2E3E7"/>
<path d="M47.4795 11.9805L51.5184 14L50.7479 9.72127C50.6586 9.22967 50.8309 8.72744 51.2057 8.37847L54.4742 5.34693L49.9583 4.72333C49.4367 4.65201 48.9885 4.34097 48.7572 3.89337L46.7362 1.52588e-05L44.7151 3.89337C44.4822 4.34097 44.034 4.65201 43.514 4.72333L38.9981 5.34693L42.2666 8.37847C42.6414 8.72593 42.8137 9.22967 42.7244 9.72127L41.9539 14L45.9928 11.9805C46.4586 11.7468 47.0137 11.7468 47.4795 11.9805Z" fill="#E2E3E7"/>
<path d="M66.9556 11.9805L70.9945 14L70.224 9.72127C70.1347 9.22967 70.307 8.72744 70.6818 8.37847L73.9503 5.34693L69.4344 4.72333C68.9128 4.65201 68.4646 4.34097 68.2333 3.89337L66.2122 1.52588e-05L64.1912 3.89337C63.9583 4.34097 63.5101 4.65201 62.9901 4.72333L58.4742 5.34693L61.7426 8.37847C62.1175 8.72593 62.2898 9.22967 62.2005 9.72127L61.43 14L65.4689 11.9805C65.9347 11.7468 66.4898 11.7468 66.9556 11.9805Z" fill="#E2E3E7"/>
<path d="M86.4317 11.9805L90.4706 14L89.7001 9.72127C89.6108 9.22967 89.7831 8.72744 90.1579 8.37847L93.4264 5.34693L88.9105 4.72333C88.3889 4.65201 87.9407 4.34097 87.7094 3.89337L85.6884 1.52588e-05L83.6673 3.89337C83.4344 4.34097 82.9862 4.65201 82.4662 4.72333L77.9503 5.34693L81.2188 8.37847C81.5936 8.72593 81.7659 9.22967 81.6766 9.72127L80.9061 14L84.945 11.9805C85.4108 11.7468 85.9659 11.7468 86.4317 11.9805Z" fill="#E2E3E7"/>
<path d="M105.908 11.9805L109.947 14L109.176 9.72127C109.087 9.22967 109.259 8.72744 109.634 8.37847L112.902 5.34693L108.387 4.72333C107.865 4.65201 107.417 4.34097 107.185 3.89337L105.164 1.52588e-05L103.143 3.89337C102.911 4.34097 102.462 4.65201 101.942 4.72333L97.4264 5.34693L100.695 8.37847C101.07 8.72593 101.242 9.22967 101.153 9.72127L100.382 14L104.421 11.9805C104.887 11.7468 105.442 11.7468 105.908 11.9805Z" fill="#E2E3E7"/>
<path d="M125.384 11.9805L129.423 14L128.652 9.72127C128.563 9.22967 128.735 8.72744 129.11 8.37847L132.379 5.34693L127.863 4.72333C127.341 4.65201 126.893 4.34097 126.662 3.89337L124.641 1.52588e-05L122.619 3.89337C122.387 4.34097 121.938 4.65201 121.418 4.72333L116.902 5.34693L120.171 8.37847C120.546 8.72593 120.718 9.22967 120.629 9.72127L119.858 14L123.897 11.9805C124.363 11.7468 124.918 11.7468 125.384 11.9805Z" fill="#E2E3E7"/>
<path d="M144.86 11.9805L148.899 14L148.128 9.72127C148.039 9.22967 148.211 8.72744 148.586 8.37847L151.855 5.34693L147.339 4.72333C146.817 4.65201 146.369 4.34097 146.138 3.89337L144.117 1.52588e-05L142.096 3.89337C141.863 4.34097 141.414 4.65201 140.894 4.72333L136.379 5.34693L139.647 8.37847C140.022 8.72593 140.194 9.22967 140.105 9.72127L139.334 14L143.373 11.9805C143.839 11.7468 144.394 11.7468 144.86 11.9805Z" fill="#E2E3E7"/>
</svg>
