<svg width="114" height="14" viewBox="0 0 114 14" fill="none" xmlns="http://www.w3.org/2000/svg">
<path d="M8.66883 11.9805L12.7077 14L11.9372 9.72127C11.8479 9.22967 12.0202 8.72744 12.395 8.37847L15.6635 5.34693L11.1476 4.72333C10.626 4.65201 10.1778 4.34097 9.94654 3.89337L7.92549 1.52588e-05L5.90444 3.89337C5.67155 4.34097 5.22331 4.65201 4.7033 4.72333L0.187439 5.34693L3.45589 8.37847C3.83075 8.72593 4.00303 9.22967 3.9137 9.72127L3.14324 14L7.18215 11.9805C7.64794 11.7468 8.20305 11.7468 8.66883 11.9805Z" fill="#F7CD05"/>
<path d="M28.1449 11.9805L32.1838 14L31.4133 9.72127C31.324 9.22967 31.4963 8.72744 31.8711 8.37847L35.1396 5.34693L30.6237 4.72333C30.1021 4.65201 29.6539 4.34097 29.4226 3.89337L27.4016 1.52588e-05L25.3805 3.89337C25.1477 4.34097 24.6994 4.65201 24.1794 4.72333L19.6635 5.34693L22.932 8.37847C23.3069 8.72593 23.4791 9.22967 23.3898 9.72127L22.6193 14L26.6583 11.9805C27.124 11.7468 27.6792 11.7468 28.1449 11.9805Z" fill="#E2E3E7"/>
<path d="M47.621 11.9805L51.6599 14L50.8894 9.72127C50.8001 9.22967 50.9724 8.72744 51.3472 8.37847L54.6157 5.34693L50.0998 4.72333C49.5782 4.65201 49.13 4.34097 48.8987 3.89337L46.8777 1.52588e-05L44.8566 3.89337C44.6238 4.34097 44.1755 4.65201 43.6555 4.72333L39.1396 5.34693L42.4081 8.37847C42.783 8.72593 42.9552 9.22967 42.8659 9.72127L42.0954 14L46.1344 11.9805C46.6001 11.7468 47.1553 11.7468 47.621 11.9805Z" fill="#E2E3E7"/>
<path d="M67.0971 11.9805L71.136 14L70.3655 9.72127C70.2762 9.22967 70.4485 8.72744 70.8233 8.37847L74.0918 5.34693L69.5759 4.72333C69.0543 4.65201 68.6061 4.34097 68.3748 3.89337L66.3538 1.52588e-05L64.3327 3.89337C64.0998 4.34097 63.6516 4.65201 63.1316 4.72333L58.6157 5.34693L61.8842 8.37847C62.259 8.72593 62.4313 9.22967 62.342 9.72127L61.5715 14L65.6104 11.9805C66.0762 11.7468 66.6313 11.7468 67.0971 11.9805Z" fill="#E2E3E7"/>
<path d="M86.5732 11.9805L90.6121 14L89.8416 9.72127C89.7523 9.22967 89.9246 8.72744 90.2994 8.37847L93.5679 5.34693L89.052 4.72333C88.5304 4.65201 88.0822 4.34097 87.8509 3.89337L85.8299 1.52588e-05L83.8088 3.89337C83.576 4.34097 83.1277 4.65201 82.6077 4.72333L78.0918 5.34693L81.3603 8.37847C81.7352 8.72593 81.9074 9.22967 81.8181 9.72127L81.0476 14L85.0866 11.9805C85.5523 11.7468 86.1075 11.7468 86.5732 11.9805Z" fill="#E2E3E7"/>
<path d="M106.049 11.9805L110.088 14L109.318 9.72127C109.228 9.22967 109.401 8.72744 109.776 8.37847L113.044 5.34693L108.528 4.72333C108.007 4.65201 107.558 4.34097 107.327 3.89337L105.306 1.52588e-05L103.285 3.89337C103.052 4.34097 102.604 4.65201 102.084 4.72333L97.5679 5.34693L100.836 8.37847C101.211 8.72593 101.384 9.22967 101.294 9.72127L100.524 14L104.563 11.9805C105.028 11.7468 105.584 11.7468 106.049 11.9805Z" fill="#E2E3E7"/>
</svg>
