<svg width="75" height="14" viewBox="0 0 75 14" fill="none" xmlns="http://www.w3.org/2000/svg">
<path d="M8.90595 11.9806L12.9449 14.0001L12.1744 9.72129C12.0851 9.22969 12.2574 8.72746 12.6322 8.37849L15.9007 5.34695L11.3848 4.72335C10.8632 4.65203 10.415 4.34099 10.1837 3.89339L8.16261 3.43323e-05L6.14156 3.89339C5.90867 4.34099 5.46043 4.65203 4.94042 4.72335L0.424561 5.34695L3.69301 8.37849C4.06787 8.72595 4.24015 9.22969 4.15082 9.72129L3.38036 14.0001L7.41927 11.9806C7.88506 11.7469 8.44017 11.7469 8.90595 11.9806Z" fill="#F7CD05"/>
<path d="M28.3821 11.9806L32.421 14.0001L31.6505 9.72129C31.5612 9.22969 31.7335 8.72746 32.1083 8.37849L35.3768 5.34695L30.8609 4.72335C30.3393 4.65203 29.8911 4.34099 29.6598 3.89339L27.6387 3.43323e-05L25.6177 3.89339C25.3848 4.34099 24.9365 4.65203 24.4165 4.72335L19.9007 5.34695L23.1691 8.37849C23.544 8.72595 23.7163 9.22969 23.6269 9.72129L22.8565 14.0001L26.8954 11.9806C27.3612 11.7469 27.9163 11.7469 28.3821 11.9806Z" fill="#F7CD05"/>
<path d="M47.8582 11.9806L51.8971 14.0001L51.1266 9.72129C51.0373 9.22969 51.2096 8.72746 51.5844 8.37849L54.8529 5.34695L50.337 4.72335C49.8154 4.65203 49.3672 4.34099 49.1359 3.89339L47.1148 3.43323e-05L45.0938 3.89339C44.8609 4.34099 44.4126 4.65203 43.8926 4.72335L39.3768 5.34695L42.6452 8.37849C43.0201 8.72595 43.1924 9.22969 43.103 9.72129L42.3326 14.0001L46.3715 11.9806C46.8373 11.7469 47.3924 11.7469 47.8582 11.9806Z" fill="#E2E3E7"/>
<path d="M67.3343 11.9806L71.3732 14.0001L70.6027 9.72129C70.5134 9.22969 70.6857 8.72746 71.0605 8.37849L74.329 5.34695L69.8131 4.72335C69.2915 4.65203 68.8433 4.34099 68.612 3.89339L66.5909 3.43323e-05L64.5699 3.89339C64.337 4.34099 63.8887 4.65203 63.3687 4.72335L58.8529 5.34695L62.1213 8.37849C62.4962 8.72595 62.6685 9.22969 62.5791 9.72129L61.8087 14.0001L65.8476 11.9806C66.3134 11.7469 66.8685 11.7469 67.3343 11.9806Z" fill="#E2E3E7"/>
</svg>
