<svg width="114" height="14" viewBox="0 0 114 14" fill="none" xmlns="http://www.w3.org/2000/svg">
<path d="M8.66883 11.9805L12.7077 14L11.9372 9.72126C11.8479 9.22966 12.0202 8.72743 12.395 8.37846L15.6635 5.34692L11.1476 4.72332C10.626 4.652 10.1778 4.34096 9.94654 3.89336L7.92549 0L5.90444 3.89336C5.67155 4.34096 5.22331 4.652 4.7033 4.72332L0.187439 5.34692L3.45589 8.37846C3.83075 8.72592 4.00303 9.22966 3.9137 9.72126L3.14324 14L7.18215 11.9805C7.64794 11.7468 8.20305 11.7468 8.66883 11.9805Z" fill="#E2E3E7"/>
<path d="M28.1449 11.9805L32.1838 14L31.4133 9.72126C31.324 9.22966 31.4963 8.72743 31.8711 8.37846L35.1396 5.34692L30.6237 4.72332C30.1021 4.652 29.6539 4.34096 29.4226 3.89336L27.4016 0L25.3805 3.89336C25.1477 4.34096 24.6994 4.652 24.1794 4.72332L19.6635 5.34692L22.932 8.37846C23.3069 8.72592 23.4791 9.22966 23.3898 9.72126L22.6193 14L26.6583 11.9805C27.124 11.7468 27.6792 11.7468 28.1449 11.9805Z" fill="#E2E3E7"/>
<path d="M47.621 11.9805L51.6599 14L50.8894 9.72126C50.8001 9.22966 50.9724 8.72743 51.3472 8.37846L54.6157 5.34692L50.0998 4.72332C49.5782 4.652 49.13 4.34096 48.8987 3.89336L46.8777 0L44.8566 3.89336C44.6238 4.34096 44.1755 4.652 43.6555 4.72332L39.1396 5.34692L42.4081 8.37846C42.783 8.72592 42.9552 9.22966 42.8659 9.72126L42.0954 14L46.1344 11.9805C46.6001 11.7468 47.1553 11.7468 47.621 11.9805Z" fill="#E2E3E7"/>
<path d="M67.0971 11.9805L71.136 14L70.3655 9.72126C70.2762 9.22966 70.4485 8.72743 70.8233 8.37846L74.0918 5.34692L69.5759 4.72332C69.0543 4.652 68.6061 4.34096 68.3748 3.89336L66.3538 0L64.3327 3.89336C64.0998 4.34096 63.6516 4.652 63.1316 4.72332L58.6157 5.34692L61.8842 8.37846C62.259 8.72592 62.4313 9.22966 62.342 9.72126L61.5715 14L65.6104 11.9805C66.0762 11.7468 66.6313 11.7468 67.0971 11.9805Z" fill="#E2E3E7"/>
<path d="M86.5732 11.9805L90.6121 14L89.8416 9.72126C89.7523 9.22966 89.9246 8.72743 90.2994 8.37846L93.5679 5.34692L89.052 4.72332C88.5304 4.652 88.0822 4.34096 87.8509 3.89336L85.8299 0L83.8088 3.89336C83.576 4.34096 83.1277 4.652 82.6077 4.72332L78.0918 5.34692L81.3603 8.37846C81.7352 8.72592 81.9074 9.22966 81.8181 9.72126L81.0476 14L85.0866 11.9805C85.5523 11.7468 86.1075 11.7468 86.5732 11.9805Z" fill="#E2E3E7"/>
<path d="M106.049 11.9805L110.088 14L109.318 9.72126C109.228 9.22966 109.401 8.72743 109.776 8.37846L113.044 5.34692L108.528 4.72332C108.007 4.652 107.558 4.34096 107.327 3.89336L105.306 0L103.285 3.89336C103.052 4.34096 102.604 4.652 102.084 4.72332L97.5679 5.34692L100.836 8.37846C101.211 8.72592 101.384 9.22966 101.294 9.72126L100.524 14L104.563 11.9805C105.028 11.7468 105.584 11.7468 106.049 11.9805Z" fill="#E2E3E7"/>
</svg>
