<svg width="152" height="14" viewBox="0 0 152 14" fill="none" xmlns="http://www.w3.org/2000/svg">
<path d="M8.52729 11.9807L12.5662 14.0002L11.7957 9.72139C11.7064 9.22979 11.8787 8.72756 12.2535 8.37859L15.522 5.34705L11.0061 4.72345C10.4845 4.65213 10.0363 4.34109 9.805 3.89349L7.78395 0.000137329L5.7629 3.89349C5.53001 4.34109 5.08177 4.65213 4.56176 4.72345L0.0458984 5.34705L3.31435 8.37859C3.68921 8.72605 3.86149 9.22979 3.77216 9.72139L3.0017 14.0002L7.04061 11.9807C7.5064 11.747 8.06151 11.747 8.52729 11.9807Z" fill="#F7CD05"/>
<path d="M28.0034 11.9807L32.0423 14.0002L31.2718 9.72139C31.1825 9.22979 31.3548 8.72756 31.7296 8.37859L34.9981 5.34705L30.4822 4.72345C29.9606 4.65213 29.5124 4.34109 29.2811 3.89349L27.2601 0.000137329L25.239 3.89349C25.0061 4.34109 24.5579 4.65213 24.0379 4.72345L19.522 5.34705L22.7905 8.37859C23.1653 8.72605 23.3376 9.22979 23.2483 9.72139L22.4778 14.0002L26.5167 11.9807C26.9825 11.747 27.5376 11.747 28.0034 11.9807Z" fill="#F7CD05"/>
<path d="M47.4795 11.9807L51.5184 14.0002L50.7479 9.72139C50.6586 9.22979 50.8309 8.72756 51.2057 8.37859L54.4742 5.34705L49.9583 4.72345C49.4367 4.65213 48.9885 4.34109 48.7572 3.89349L46.7362 0.000137329L44.7151 3.89349C44.4822 4.34109 44.034 4.65213 43.514 4.72345L38.9981 5.34705L42.2666 8.37859C42.6414 8.72605 42.8137 9.22979 42.7244 9.72139L41.9539 14.0002L45.9928 11.9807C46.4586 11.747 47.0137 11.747 47.4795 11.9807Z" fill="#F7CD05"/>
<path d="M66.9556 11.9807L70.9945 14.0002L70.224 9.72139C70.1347 9.22979 70.307 8.72756 70.6818 8.37859L73.9503 5.34705L69.4344 4.72345C68.9128 4.65213 68.4646 4.34109 68.2333 3.89349L66.2122 0.000137329L64.1912 3.89349C63.9583 4.34109 63.5101 4.65213 62.9901 4.72345L58.4742 5.34705L61.7426 8.37859C62.1175 8.72605 62.2898 9.22979 62.2005 9.72139L61.43 14.0002L65.4689 11.9807C65.9347 11.747 66.4898 11.747 66.9556 11.9807Z" fill="#F7CD05"/>
<path d="M86.4317 11.9807L90.4706 14.0002L89.7001 9.72139C89.6108 9.22979 89.7831 8.72756 90.1579 8.37859L93.4264 5.34705L88.9105 4.72345C88.3889 4.65213 87.9407 4.34109 87.7094 3.89349L85.6884 0.000137329L83.6673 3.89349C83.4344 4.34109 82.9862 4.65213 82.4662 4.72345L77.9503 5.34705L81.2188 8.37859C81.5936 8.72605 81.7659 9.22979 81.6766 9.72139L80.9061 14.0002L84.945 11.9807C85.4108 11.747 85.9659 11.747 86.4317 11.9807Z" fill="#F7CD05"/>
<path d="M105.908 11.9807L109.947 14.0002L109.176 9.72139C109.087 9.22979 109.259 8.72756 109.634 8.37859L112.902 5.34705L108.387 4.72345C107.865 4.65213 107.417 4.34109 107.185 3.89349L105.164 0.000137329L103.143 3.89349C102.911 4.34109 102.462 4.65213 101.942 4.72345L97.4264 5.34705L100.695 8.37859C101.07 8.72605 101.242 9.22979 101.153 9.72139L100.382 14.0002L104.421 11.9807C104.887 11.747 105.442 11.747 105.908 11.9807Z" fill="#F7CD05"/>
<path d="M125.384 11.9807L129.423 14.0002L128.652 9.72139C128.563 9.22979 128.735 8.72756 129.11 8.37859L132.379 5.34705L127.863 4.72345C127.341 4.65213 126.893 4.34109 126.662 3.89349L124.641 0.000137329L122.619 3.89349C122.387 4.34109 121.938 4.65213 121.418 4.72345L116.902 5.34705L120.171 8.37859C120.546 8.72605 120.718 9.22979 120.629 9.72139L119.858 14.0002L123.897 11.9807C124.363 11.747 124.918 11.747 125.384 11.9807Z" fill="#F7CD05"/>
<path d="M144.86 11.9807L148.899 14.0002L148.128 9.72139C148.039 9.22979 148.211 8.72756 148.586 8.37859L151.855 5.34705L147.339 4.72345C146.817 4.65213 146.369 4.34109 146.138 3.89349L144.117 0.000137329L142.096 3.89349C141.863 4.34109 141.414 4.65213 140.894 4.72345L136.379 5.34705L139.647 8.37859C140.022 8.72605 140.194 9.22979 140.105 9.72139L139.334 14.0002L143.373 11.9807C143.839 11.747 144.394 11.747 144.86 11.9807Z" fill="#F7CD05"/>
</svg>
