<svg width="152" height="14" viewBox="0 0 152 14" fill="none" xmlns="http://www.w3.org/2000/svg">
<path d="M8.52729 11.9806L12.5662 14.0001L11.7957 9.72129C11.7064 9.22969 11.8787 8.72746 12.2535 8.37849L15.522 5.34695L11.0061 4.72335C10.4845 4.65203 10.0363 4.34099 9.805 3.89339L7.78395 3.43323e-05L5.7629 3.89339C5.53001 4.34099 5.08177 4.65203 4.56176 4.72335L0.0458984 5.34695L3.31435 8.37849C3.68921 8.72595 3.86149 9.22969 3.77216 9.72129L3.0017 14.0001L7.04061 11.9806C7.5064 11.7469 8.06151 11.7469 8.52729 11.9806Z" fill="#F7CD05"/>
<path d="M28.0034 11.9806L32.0423 14.0001L31.2718 9.72129C31.1825 9.22969 31.3548 8.72746 31.7296 8.37849L34.9981 5.34695L30.4822 4.72335C29.9606 4.65203 29.5124 4.34099 29.2811 3.89339L27.2601 3.43323e-05L25.239 3.89339C25.0061 4.34099 24.5579 4.65203 24.0379 4.72335L19.522 5.34695L22.7905 8.37849C23.1653 8.72595 23.3376 9.22969 23.2483 9.72129L22.4778 14.0001L26.5167 11.9806C26.9825 11.7469 27.5376 11.7469 28.0034 11.9806Z" fill="#F7CD05"/>
<path d="M47.4795 11.9806L51.5184 14.0001L50.7479 9.72129C50.6586 9.22969 50.8309 8.72746 51.2057 8.37849L54.4742 5.34695L49.9583 4.72335C49.4367 4.65203 48.9885 4.34099 48.7572 3.89339L46.7362 3.43323e-05L44.7151 3.89339C44.4822 4.34099 44.034 4.65203 43.514 4.72335L38.9981 5.34695L42.2666 8.37849C42.6414 8.72595 42.8137 9.22969 42.7244 9.72129L41.9539 14.0001L45.9928 11.9806C46.4586 11.7469 47.0137 11.7469 47.4795 11.9806Z" fill="#E2E3E7"/>
<path d="M66.9556 11.9806L70.9945 14.0001L70.224 9.72129C70.1347 9.22969 70.307 8.72746 70.6818 8.37849L73.9503 5.34695L69.4344 4.72335C68.9128 4.65203 68.4646 4.34099 68.2333 3.89339L66.2122 3.43323e-05L64.1912 3.89339C63.9583 4.34099 63.5101 4.65203 62.9901 4.72335L58.4742 5.34695L61.7426 8.37849C62.1175 8.72595 62.2898 9.22969 62.2005 9.72129L61.43 14.0001L65.4689 11.9806C65.9347 11.7469 66.4898 11.7469 66.9556 11.9806Z" fill="#E2E3E7"/>
<path d="M86.4317 11.9806L90.4706 14.0001L89.7001 9.72129C89.6108 9.22969 89.7831 8.72746 90.1579 8.37849L93.4264 5.34695L88.9105 4.72335C88.3889 4.65203 87.9407 4.34099 87.7094 3.89339L85.6884 3.43323e-05L83.6673 3.89339C83.4344 4.34099 82.9862 4.65203 82.4662 4.72335L77.9503 5.34695L81.2188 8.37849C81.5936 8.72595 81.7659 9.22969 81.6766 9.72129L80.9061 14.0001L84.945 11.9806C85.4108 11.7469 85.9659 11.7469 86.4317 11.9806Z" fill="#E2E3E7"/>
<path d="M105.908 11.9806L109.947 14.0001L109.176 9.72129C109.087 9.22969 109.259 8.72746 109.634 8.37849L112.902 5.34695L108.387 4.72335C107.865 4.65203 107.417 4.34099 107.185 3.89339L105.164 3.43323e-05L103.143 3.89339C102.911 4.34099 102.462 4.65203 101.942 4.72335L97.4264 5.34695L100.695 8.37849C101.07 8.72595 101.242 9.22969 101.153 9.72129L100.382 14.0001L104.421 11.9806C104.887 11.7469 105.442 11.7469 105.908 11.9806Z" fill="#E2E3E7"/>
<path d="M125.384 11.9806L129.423 14.0001L128.652 9.72129C128.563 9.22969 128.735 8.72746 129.11 8.37849L132.379 5.34695L127.863 4.72335C127.341 4.65203 126.893 4.34099 126.662 3.89339L124.641 3.43323e-05L122.619 3.89339C122.387 4.34099 121.938 4.65203 121.418 4.72335L116.902 5.34695L120.171 8.37849C120.546 8.72595 120.718 9.22969 120.629 9.72129L119.858 14.0001L123.897 11.9806C124.363 11.7469 124.918 11.7469 125.384 11.9806Z" fill="#E2E3E7"/>
<path d="M144.86 11.9806L148.899 14.0001L148.128 9.72129C148.039 9.22969 148.211 8.72746 148.586 8.37849L151.855 5.34695L147.339 4.72335C146.817 4.65203 146.369 4.34099 146.138 3.89339L144.117 3.43323e-05L142.096 3.89339C141.863 4.34099 141.414 4.65203 140.894 4.72335L136.379 5.34695L139.647 8.37849C140.022 8.72595 140.194 9.22969 140.105 9.72129L139.334 14.0001L143.373 11.9806C143.839 11.7469 144.394 11.7469 144.86 11.9806Z" fill="#E2E3E7"/>
</svg>
