<svg width="173" height="14" viewBox="0 0 173 14" fill="none" xmlns="http://www.w3.org/2000/svg">
<path d="M9.24238 11.9805L13.2813 14L12.5108 9.72127C12.4215 9.22967 12.5938 8.72744 12.9686 8.37847L16.2371 5.34693L11.7212 4.72333C11.1996 4.65201 10.7514 4.34097 10.5201 3.89337L8.49904 1.52588e-05L6.47799 3.89337C6.2451 4.34097 5.79686 4.65201 5.27685 4.72333L0.760986 5.34693L4.02944 8.37847C4.4043 8.72593 4.57658 9.22967 4.48725 9.72127L3.71679 14L7.7557 11.9805C8.22149 11.7468 8.7766 11.7468 9.24238 11.9805Z" fill="#F7CD05"/>
<path d="M28.7185 11.9805L32.7574 14L31.9869 9.72127C31.8976 9.22967 32.0699 8.72744 32.4447 8.37847L35.7132 5.34693L31.1973 4.72333C30.6757 4.65201 30.2275 4.34097 29.9962 3.89337L27.9751 1.52588e-05L25.9541 3.89337C25.7212 4.34097 25.273 4.65201 24.753 4.72333L20.2371 5.34693L23.5055 8.37847C23.8804 8.72593 24.0527 9.22967 23.9634 9.72127L23.1929 14L27.2318 11.9805C27.6976 11.7468 28.2527 11.7468 28.7185 11.9805Z" fill="#E2E3E7"/>
<path d="M48.1946 11.9805L52.2335 14L51.463 9.72127C51.3737 9.22967 51.546 8.72744 51.9208 8.37847L55.1893 5.34693L50.6734 4.72333C50.1518 4.65201 49.7036 4.34097 49.4723 3.89337L47.4512 1.52588e-05L45.4302 3.89337C45.1973 4.34097 44.7491 4.65201 44.2291 4.72333L39.7132 5.34693L42.9816 8.37847C43.3565 8.72593 43.5288 9.22967 43.4395 9.72127L42.669 14L46.7079 11.9805C47.1737 11.7468 47.7288 11.7468 48.1946 11.9805Z" fill="#E2E3E7"/>
<path d="M67.6707 11.9805L71.7096 14L70.9391 9.72127C70.8498 9.22967 71.0221 8.72744 71.3969 8.37847L74.6654 5.34693L70.1495 4.72333C69.6279 4.65201 69.1797 4.34097 68.9484 3.89337L66.9274 1.52588e-05L64.9063 3.89337C64.6734 4.34097 64.2252 4.65201 63.7052 4.72333L59.1893 5.34693L62.4578 8.37847C62.8326 8.72593 63.0049 9.22967 62.9156 9.72127L62.1451 14L66.184 11.9805C66.6498 11.7468 67.2049 11.7468 67.6707 11.9805Z" fill="#E2E3E7"/>
<path d="M87.1468 11.9805L91.1857 14L90.4152 9.72127C90.3259 9.22967 90.4982 8.72744 90.873 8.37847L94.1415 5.34693L89.6256 4.72333C89.104 4.65201 88.6558 4.34097 88.4245 3.89337L86.4035 1.52588e-05L84.3824 3.89337C84.1495 4.34097 83.7013 4.65201 83.1813 4.72333L78.6654 5.34693L81.9339 8.37847C82.3087 8.72593 82.481 9.22967 82.3917 9.72127L81.6212 14L85.6601 11.9805C86.1259 11.7468 86.681 11.7468 87.1468 11.9805Z" fill="#E2E3E7"/>
<path d="M106.623 11.9805L110.662 14L109.891 9.72127C109.802 9.22967 109.974 8.72744 110.349 8.37847L113.618 5.34693L109.102 4.72333C108.58 4.65201 108.132 4.34097 107.901 3.89337L105.88 1.52588e-05L103.858 3.89337C103.626 4.34097 103.177 4.65201 102.657 4.72333L98.1415 5.34693L101.41 8.37847C101.785 8.72593 101.957 9.22967 101.868 9.72127L101.097 14L105.136 11.9805C105.602 11.7468 106.157 11.7468 106.623 11.9805Z" fill="#E2E3E7"/>
<path d="M126.099 11.9805L130.138 14L129.367 9.72127C129.278 9.22967 129.45 8.72744 129.825 8.37847L133.094 5.34693L128.578 4.72333C128.056 4.65201 127.608 4.34097 127.377 3.89337L125.356 1.52588e-05L123.335 3.89337C123.102 4.34097 122.653 4.65201 122.133 4.72333L117.618 5.34693L120.886 8.37847C121.261 8.72593 121.433 9.22967 121.344 9.72127L120.573 14L124.612 11.9805C125.078 11.7468 125.633 11.7468 126.099 11.9805Z" fill="#E2E3E7"/>
<path d="M145.575 11.9805L149.614 14L148.843 9.72127C148.754 9.22967 148.926 8.72744 149.301 8.37847L152.57 5.34693L148.054 4.72333C147.532 4.65201 147.084 4.34097 146.853 3.89337L144.832 1.52588e-05L142.811 3.89337C142.578 4.34097 142.13 4.65201 141.61 4.72333L137.094 5.34693L140.362 8.37847C140.737 8.72593 140.909 9.22967 140.82 9.72127L140.049 14L144.088 11.9805C144.554 11.7468 145.109 11.7468 145.575 11.9805Z" fill="#E2E3E7"/>
<path d="M165.051 11.9805L169.09 14L168.32 9.72127C168.23 9.22967 168.403 8.72744 168.777 8.37847L172.046 5.34693L167.53 4.72333C167.008 4.65201 166.56 4.34097 166.329 3.89337L164.308 1.52588e-05L162.287 3.89337C162.054 4.34097 161.606 4.65201 161.086 4.72333L156.57 5.34693L159.838 8.37847C160.213 8.72593 160.385 9.22967 160.296 9.72127L159.526 14L163.565 11.9805C164.03 11.7468 164.585 11.7468 165.051 11.9805Z" fill="#E2E3E7"/>
</svg>
