<svg width="152" height="14" viewBox="0 0 152 14" fill="none" xmlns="http://www.w3.org/2000/svg">
<path d="M8.52729 11.9806L12.5662 14.0001L11.7957 9.72134C11.7064 9.22974 11.8787 8.72751 12.2535 8.37854L15.522 5.347L11.0061 4.7234C10.4845 4.65208 10.0363 4.34104 9.805 3.89344L7.78395 8.39233e-05L5.7629 3.89344C5.53001 4.34104 5.08177 4.65208 4.56176 4.7234L0.0458984 5.347L3.31435 8.37854C3.68921 8.726 3.86149 9.22974 3.77216 9.72134L3.0017 14.0001L7.04061 11.9806C7.5064 11.7469 8.06151 11.7469 8.52729 11.9806Z" fill="#F7CD05"/>
<path d="M28.0034 11.9806L32.0423 14.0001L31.2718 9.72134C31.1825 9.22974 31.3548 8.72751 31.7296 8.37854L34.9981 5.347L30.4822 4.7234C29.9606 4.65208 29.5124 4.34104 29.2811 3.89344L27.2601 8.39233e-05L25.239 3.89344C25.0061 4.34104 24.5579 4.65208 24.0379 4.7234L19.522 5.347L22.7905 8.37854C23.1653 8.726 23.3376 9.22974 23.2483 9.72134L22.4778 14.0001L26.5167 11.9806C26.9825 11.7469 27.5376 11.7469 28.0034 11.9806Z" fill="#F7CD05"/>
<path d="M47.4795 11.9806L51.5184 14.0001L50.7479 9.72134C50.6586 9.22974 50.8309 8.72751 51.2057 8.37854L54.4742 5.347L49.9583 4.7234C49.4367 4.65208 48.9885 4.34104 48.7572 3.89344L46.7362 8.39233e-05L44.7151 3.89344C44.4822 4.34104 44.034 4.65208 43.514 4.7234L38.9981 5.347L42.2666 8.37854C42.6414 8.726 42.8137 9.22974 42.7244 9.72134L41.9539 14.0001L45.9928 11.9806C46.4586 11.7469 47.0137 11.7469 47.4795 11.9806Z" fill="#F7CD05"/>
<path d="M66.9556 11.9806L70.9945 14.0001L70.224 9.72134C70.1347 9.22974 70.307 8.72751 70.6818 8.37854L73.9503 5.347L69.4344 4.7234C68.9128 4.65208 68.4646 4.34104 68.2333 3.89344L66.2122 8.39233e-05L64.1912 3.89344C63.9583 4.34104 63.5101 4.65208 62.9901 4.7234L58.4742 5.347L61.7426 8.37854C62.1175 8.726 62.2898 9.22974 62.2005 9.72134L61.43 14.0001L65.4689 11.9806C65.9347 11.7469 66.4898 11.7469 66.9556 11.9806Z" fill="#F7CD05"/>
<path d="M86.4317 11.9806L90.4706 14.0001L89.7001 9.72134C89.6108 9.22974 89.7831 8.72751 90.1579 8.37854L93.4264 5.347L88.9105 4.7234C88.3889 4.65208 87.9407 4.34104 87.7094 3.89344L85.6884 8.39233e-05L83.6673 3.89344C83.4344 4.34104 82.9862 4.65208 82.4662 4.7234L77.9503 5.347L81.2188 8.37854C81.5936 8.726 81.7659 9.22974 81.6766 9.72134L80.9061 14.0001L84.945 11.9806C85.4108 11.7469 85.9659 11.7469 86.4317 11.9806Z" fill="#F7CD05"/>
<path d="M105.908 11.9806L109.947 14.0001L109.176 9.72134C109.087 9.22974 109.259 8.72751 109.634 8.37854L112.902 5.347L108.387 4.7234C107.865 4.65208 107.417 4.34104 107.185 3.89344L105.164 8.39233e-05L103.143 3.89344C102.911 4.34104 102.462 4.65208 101.942 4.7234L97.4264 5.347L100.695 8.37854C101.07 8.726 101.242 9.22974 101.153 9.72134L100.382 14.0001L104.421 11.9806C104.887 11.7469 105.442 11.7469 105.908 11.9806Z" fill="#E2E3E7"/>
<path d="M125.384 11.9806L129.423 14.0001L128.652 9.72134C128.563 9.22974 128.735 8.72751 129.11 8.37854L132.379 5.347L127.863 4.7234C127.341 4.65208 126.893 4.34104 126.662 3.89344L124.641 8.39233e-05L122.619 3.89344C122.387 4.34104 121.938 4.65208 121.418 4.7234L116.902 5.347L120.171 8.37854C120.546 8.726 120.718 9.22974 120.629 9.72134L119.858 14.0001L123.897 11.9806C124.363 11.7469 124.918 11.7469 125.384 11.9806Z" fill="#E2E3E7"/>
<path d="M144.86 11.9806L148.899 14.0001L148.128 9.72134C148.039 9.22974 148.211 8.72751 148.586 8.37854L151.855 5.347L147.339 4.7234C146.817 4.65208 146.369 4.34104 146.138 3.89344L144.117 8.39233e-05L142.096 3.89344C141.863 4.34104 141.414 4.65208 140.894 4.7234L136.379 5.347L139.647 8.37854C140.022 8.726 140.194 9.22974 140.105 9.72134L139.334 14.0001L143.373 11.9806C143.839 11.7469 144.394 11.7469 144.86 11.9806Z" fill="#E2E3E7"/>
</svg>
