<svg width="173" height="14" viewBox="0 0 173 14" fill="none" xmlns="http://www.w3.org/2000/svg">
<path d="M9.24238 11.9807L13.2813 14.0002L12.5108 9.72141C12.4215 9.22981 12.5938 8.72758 12.9686 8.37861L16.2371 5.34707L11.7212 4.72347C11.1996 4.65215 10.7514 4.34111 10.5201 3.89351L8.49904 0.000152588L6.47799 3.89351C6.2451 4.34111 5.79686 4.65215 5.27685 4.72347L0.760986 5.34707L4.02944 8.37861C4.4043 8.72607 4.57658 9.22981 4.48725 9.72141L3.71679 14.0002L7.7557 11.9807C8.22149 11.747 8.7766 11.747 9.24238 11.9807Z" fill="#F7CD05"/>
<path d="M28.7185 11.9807L32.7574 14.0002L31.9869 9.72141C31.8976 9.22981 32.0699 8.72758 32.4447 8.37861L35.7132 5.34707L31.1973 4.72347C30.6757 4.65215 30.2275 4.34111 29.9962 3.89351L27.9751 0.000152588L25.9541 3.89351C25.7212 4.34111 25.273 4.65215 24.753 4.72347L20.2371 5.34707L23.5055 8.37861C23.8804 8.72607 24.0527 9.22981 23.9634 9.72141L23.1929 14.0002L27.2318 11.9807C27.6976 11.747 28.2527 11.747 28.7185 11.9807Z" fill="#F7CD05"/>
<path d="M48.1946 11.9807L52.2335 14.0002L51.463 9.72141C51.3737 9.22981 51.546 8.72758 51.9208 8.37861L55.1893 5.34707L50.6734 4.72347C50.1518 4.65215 49.7036 4.34111 49.4723 3.89351L47.4512 0.000152588L45.4302 3.89351C45.1973 4.34111 44.7491 4.65215 44.2291 4.72347L39.7132 5.34707L42.9816 8.37861C43.3565 8.72607 43.5288 9.22981 43.4395 9.72141L42.669 14.0002L46.7079 11.9807C47.1737 11.747 47.7288 11.747 48.1946 11.9807Z" fill="#F7CD05"/>
<path d="M67.6707 11.9807L71.7096 14.0002L70.9391 9.72141C70.8498 9.22981 71.0221 8.72758 71.3969 8.37861L74.6654 5.34707L70.1495 4.72347C69.6279 4.65215 69.1797 4.34111 68.9484 3.89351L66.9274 0.000152588L64.9063 3.89351C64.6734 4.34111 64.2252 4.65215 63.7052 4.72347L59.1893 5.34707L62.4578 8.37861C62.8326 8.72607 63.0049 9.22981 62.9156 9.72141L62.1451 14.0002L66.184 11.9807C66.6498 11.747 67.2049 11.747 67.6707 11.9807Z" fill="#F7CD05"/>
<path d="M87.1468 11.9807L91.1857 14.0002L90.4152 9.72141C90.3259 9.22981 90.4982 8.72758 90.873 8.37861L94.1415 5.34707L89.6256 4.72347C89.104 4.65215 88.6558 4.34111 88.4245 3.89351L86.4035 0.000152588L84.3824 3.89351C84.1495 4.34111 83.7013 4.65215 83.1813 4.72347L78.6654 5.34707L81.9339 8.37861C82.3087 8.72607 82.481 9.22981 82.3917 9.72141L81.6212 14.0002L85.6601 11.9807C86.1259 11.747 86.681 11.747 87.1468 11.9807Z" fill="#F7CD05"/>
<path d="M106.623 11.9807L110.662 14.0002L109.891 9.72141C109.802 9.22981 109.974 8.72758 110.349 8.37861L113.618 5.34707L109.102 4.72347C108.58 4.65215 108.132 4.34111 107.901 3.89351L105.88 0.000152588L103.858 3.89351C103.626 4.34111 103.177 4.65215 102.657 4.72347L98.1415 5.34707L101.41 8.37861C101.785 8.72607 101.957 9.22981 101.868 9.72141L101.097 14.0002L105.136 11.9807C105.602 11.747 106.157 11.747 106.623 11.9807Z" fill="#F7CD05"/>
<path d="M126.099 11.9807L130.138 14.0002L129.367 9.72141C129.278 9.22981 129.45 8.72758 129.825 8.37861L133.094 5.34707L128.578 4.72347C128.056 4.65215 127.608 4.34111 127.377 3.89351L125.356 0.000152588L123.335 3.89351C123.102 4.34111 122.653 4.65215 122.133 4.72347L117.618 5.34707L120.886 8.37861C121.261 8.72607 121.433 9.22981 121.344 9.72141L120.573 14.0002L124.612 11.9807C125.078 11.747 125.633 11.747 126.099 11.9807Z" fill="#F7CD05"/>
<path d="M145.575 11.9807L149.614 14.0002L148.843 9.72141C148.754 9.22981 148.926 8.72758 149.301 8.37861L152.57 5.34707L148.054 4.72347C147.532 4.65215 147.084 4.34111 146.853 3.89351L144.832 0.000152588L142.811 3.89351C142.578 4.34111 142.13 4.65215 141.61 4.72347L137.094 5.34707L140.362 8.37861C140.737 8.72607 140.909 9.22981 140.82 9.72141L140.049 14.0002L144.088 11.9807C144.554 11.747 145.109 11.747 145.575 11.9807Z" fill="#F7CD05"/>
<path d="M165.051 11.9807L169.09 14.0002L168.32 9.72141C168.23 9.22981 168.403 8.72758 168.777 8.37861L172.046 5.34707L167.53 4.72347C167.008 4.65215 166.56 4.34111 166.329 3.89351L164.308 0.000152588L162.287 3.89351C162.054 4.34111 161.606 4.65215 161.086 4.72347L156.57 5.34707L159.838 8.37861C160.213 8.72607 160.385 9.22981 160.296 9.72141L159.526 14.0002L163.565 11.9807C164.03 11.747 164.585 11.747 165.051 11.9807Z" fill="#F7CD05"/>
</svg>
