<svg width="134" height="14" viewBox="0 0 134 14" fill="none" xmlns="http://www.w3.org/2000/svg">
<path d="M9.33613 11.9806L13.375 14.0001L12.6045 9.72136C12.5152 9.22976 12.6875 8.72753 13.0623 8.37856L16.3308 5.34702L11.8149 4.72342C11.2933 4.6521 10.8451 4.34106 10.6138 3.89346L8.59279 0.000106812L6.57174 3.89346C6.33885 4.34106 5.89061 4.6521 5.3706 4.72342L0.854736 5.34702L4.12319 8.37856C4.49805 8.72602 4.67033 9.22976 4.581 9.72136L3.81054 14.0001L7.84945 11.9806C8.31524 11.7469 8.87035 11.7469 9.33613 11.9806Z" fill="#F7CD05"/>
<path d="M28.8122 11.9806L32.8511 14.0001L32.0806 9.72136C31.9913 9.22976 32.1636 8.72753 32.5384 8.37856L35.8069 5.34702L31.291 4.72342C30.7694 4.6521 30.3212 4.34106 30.0899 3.89346L28.0689 0.000106812L26.0478 3.89346C25.8149 4.34106 25.3667 4.6521 24.8467 4.72342L20.3308 5.34702L23.5993 8.37856C23.9741 8.72602 24.1464 9.22976 24.0571 9.72136L23.2866 14.0001L27.3255 11.9806C27.7913 11.7469 28.3464 11.7469 28.8122 11.9806Z" fill="#F7CD05"/>
<path d="M48.2883 11.9806L52.3272 14.0001L51.5567 9.72136C51.4674 9.22976 51.6397 8.72753 52.0145 8.37856L55.283 5.34702L50.7671 4.72342C50.2455 4.6521 49.7973 4.34106 49.566 3.89346L47.545 0.000106812L45.5239 3.89346C45.291 4.34106 44.8428 4.6521 44.3228 4.72342L39.8069 5.34702L43.0754 8.37856C43.4502 8.72602 43.6225 9.22976 43.5332 9.72136L42.7627 14.0001L46.8016 11.9806C47.2674 11.7469 47.8225 11.7469 48.2883 11.9806Z" fill="#F7CD05"/>
<path d="M67.7644 11.9806L71.8033 14.0001L71.0328 9.72136C70.9435 9.22976 71.1158 8.72753 71.4906 8.37856L74.7591 5.34702L70.2432 4.72342C69.7216 4.6521 69.2734 4.34106 69.0421 3.89346L67.0211 0.000106812L65 3.89346C64.7671 4.34106 64.3189 4.6521 63.7989 4.72342L59.283 5.34702L62.5515 8.37856C62.9263 8.72602 63.0986 9.22976 63.0093 9.72136L62.2388 14.0001L66.2777 11.9806C66.7435 11.7469 67.2986 11.7469 67.7644 11.9806Z" fill="#F7CD05"/>
<path d="M87.2405 11.9806L91.2794 14.0001L90.5089 9.72136C90.4196 9.22976 90.5919 8.72753 90.9667 8.37856L94.2352 5.34702L89.7193 4.72342C89.1977 4.6521 88.7495 4.34106 88.5182 3.89346L86.4972 0.000106812L84.4761 3.89346C84.2433 4.34106 83.795 4.6521 83.275 4.72342L78.7591 5.34702L82.0276 8.37856C82.4025 8.72602 82.5747 9.22976 82.4854 9.72136L81.7149 14.0001L85.7538 11.9806C86.2196 11.7469 86.7748 11.7469 87.2405 11.9806Z" fill="#F7CD05"/>
<path d="M106.717 11.9806L110.756 14.0001L109.985 9.72136C109.896 9.22976 110.068 8.72753 110.443 8.37856L113.711 5.34702L109.195 4.72342C108.674 4.6521 108.226 4.34106 107.994 3.89346L105.973 0.000106812L103.952 3.89346C103.719 4.34106 103.271 4.6521 102.751 4.72342L98.2352 5.34702L101.504 8.37856C101.879 8.72602 102.051 9.22976 101.961 9.72136L101.191 14.0001L105.23 11.9806C105.696 11.7469 106.251 11.7469 106.717 11.9806Z" fill="#F7CD05"/>
<path d="M126.193 11.9806L130.232 14.0001L129.461 9.72136C129.372 9.22976 129.544 8.72753 129.919 8.37856L133.187 5.34702L128.672 4.72342C128.15 4.6521 127.702 4.34106 127.47 3.89346L125.449 0.000106812L123.428 3.89346C123.195 4.34106 122.747 4.6521 122.227 4.72342L117.711 5.34702L120.98 8.37856C121.355 8.72602 121.527 9.22976 121.438 9.72136L120.667 14.0001L124.706 11.9806C125.172 11.7469 125.727 11.7469 126.193 11.9806Z" fill="#E2E3E7"/>
</svg>
