<svg width="173" height="14" viewBox="0 0 173 14" fill="none" xmlns="http://www.w3.org/2000/svg">
<path d="M9.24238 11.9805L13.2813 14L12.5108 9.72126C12.4215 9.22966 12.5938 8.72743 12.9686 8.37846L16.2371 5.34692L11.7212 4.72332C11.1996 4.652 10.7514 4.34096 10.5201 3.89336L8.49904 0L6.47799 3.89336C6.2451 4.34096 5.79686 4.652 5.27685 4.72332L0.760986 5.34692L4.02944 8.37846C4.4043 8.72592 4.57658 9.22966 4.48725 9.72126L3.71679 14L7.7557 11.9805C8.22149 11.7468 8.7766 11.7468 9.24238 11.9805Z" fill="#E2E3E7"/>
<path d="M28.7185 11.9805L32.7574 14L31.9869 9.72126C31.8976 9.22966 32.0699 8.72743 32.4447 8.37846L35.7132 5.34692L31.1973 4.72332C30.6757 4.652 30.2275 4.34096 29.9962 3.89336L27.9751 0L25.9541 3.89336C25.7212 4.34096 25.273 4.652 24.753 4.72332L20.2371 5.34692L23.5055 8.37846C23.8804 8.72592 24.0527 9.22966 23.9634 9.72126L23.1929 14L27.2318 11.9805C27.6976 11.7468 28.2527 11.7468 28.7185 11.9805Z" fill="#E2E3E7"/>
<path d="M48.1946 11.9805L52.2335 14L51.463 9.72126C51.3737 9.22966 51.546 8.72743 51.9208 8.37846L55.1893 5.34692L50.6734 4.72332C50.1518 4.652 49.7036 4.34096 49.4723 3.89336L47.4512 0L45.4302 3.89336C45.1973 4.34096 44.7491 4.652 44.2291 4.72332L39.7132 5.34692L42.9816 8.37846C43.3565 8.72592 43.5288 9.22966 43.4395 9.72126L42.669 14L46.7079 11.9805C47.1737 11.7468 47.7288 11.7468 48.1946 11.9805Z" fill="#E2E3E7"/>
<path d="M67.6707 11.9805L71.7096 14L70.9391 9.72126C70.8498 9.22966 71.0221 8.72743 71.3969 8.37846L74.6654 5.34692L70.1495 4.72332C69.6279 4.652 69.1797 4.34096 68.9484 3.89336L66.9274 0L64.9063 3.89336C64.6734 4.34096 64.2252 4.652 63.7052 4.72332L59.1893 5.34692L62.4578 8.37846C62.8326 8.72592 63.0049 9.22966 62.9156 9.72126L62.1451 14L66.184 11.9805C66.6498 11.7468 67.2049 11.7468 67.6707 11.9805Z" fill="#E2E3E7"/>
<path d="M87.1468 11.9805L91.1857 14L90.4152 9.72126C90.3259 9.22966 90.4982 8.72743 90.873 8.37846L94.1415 5.34692L89.6256 4.72332C89.104 4.652 88.6558 4.34096 88.4245 3.89336L86.4035 0L84.3824 3.89336C84.1495 4.34096 83.7013 4.652 83.1813 4.72332L78.6654 5.34692L81.9339 8.37846C82.3087 8.72592 82.481 9.22966 82.3917 9.72126L81.6212 14L85.6601 11.9805C86.1259 11.7468 86.681 11.7468 87.1468 11.9805Z" fill="#E2E3E7"/>
<path d="M106.623 11.9805L110.662 14L109.891 9.72126C109.802 9.22966 109.974 8.72743 110.349 8.37846L113.618 5.34692L109.102 4.72332C108.58 4.652 108.132 4.34096 107.901 3.89336L105.88 0L103.858 3.89336C103.626 4.34096 103.177 4.652 102.657 4.72332L98.1415 5.34692L101.41 8.37846C101.785 8.72592 101.957 9.22966 101.868 9.72126L101.097 14L105.136 11.9805C105.602 11.7468 106.157 11.7468 106.623 11.9805Z" fill="#E2E3E7"/>
<path d="M126.099 11.9805L130.138 14L129.367 9.72126C129.278 9.22966 129.45 8.72743 129.825 8.37846L133.094 5.34692L128.578 4.72332C128.056 4.652 127.608 4.34096 127.377 3.89336L125.356 0L123.335 3.89336C123.102 4.34096 122.653 4.652 122.133 4.72332L117.618 5.34692L120.886 8.37846C121.261 8.72592 121.433 9.22966 121.344 9.72126L120.573 14L124.612 11.9805C125.078 11.7468 125.633 11.7468 126.099 11.9805Z" fill="#E2E3E7"/>
<path d="M145.575 11.9805L149.614 14L148.843 9.72126C148.754 9.22966 148.926 8.72743 149.301 8.37846L152.57 5.34692L148.054 4.72332C147.532 4.652 147.084 4.34096 146.853 3.89336L144.832 0L142.811 3.89336C142.578 4.34096 142.13 4.652 141.61 4.72332L137.094 5.34692L140.362 8.37846C140.737 8.72592 140.909 9.22966 140.82 9.72126L140.049 14L144.088 11.9805C144.554 11.7468 145.109 11.7468 145.575 11.9805Z" fill="#E2E3E7"/>
<path d="M165.051 11.9805L169.09 14L168.32 9.72126C168.23 9.22966 168.403 8.72743 168.777 8.37846L172.046 5.34692L167.53 4.72332C167.008 4.652 166.56 4.34096 166.329 3.89336L164.308 0L162.287 3.89336C162.054 4.34096 161.606 4.652 161.086 4.72332L156.57 5.34692L159.838 8.37846C160.213 8.72592 160.385 9.22966 160.296 9.72126L159.526 14L163.565 11.9805C164.03 11.7468 164.585 11.7468 165.051 11.9805Z" fill="#E2E3E7"/>
</svg>
