<svg width="94" height="14" viewBox="0 0 94 14" fill="none" xmlns="http://www.w3.org/2000/svg">
<path d="M8.52546 11.9805L12.5644 14L11.7939 9.72126C11.7046 9.22966 11.8769 8.72743 12.2517 8.37846L15.5202 5.34692L11.0043 4.72332C10.4827 4.652 10.0345 4.34096 9.80317 3.89336L7.78212 0L5.76107 3.89336C5.52818 4.34096 5.07994 4.652 4.55993 4.72332L0.0440674 5.34692L3.31252 8.37846C3.68738 8.72592 3.85966 9.22966 3.77033 9.72126L2.99987 14L7.03878 11.9805C7.50457 11.7468 8.05968 11.7468 8.52546 11.9805Z" fill="#E2E3E7"/>
<path d="M28.0016 11.9805L32.0405 14L31.27 9.72126C31.1807 9.22966 31.353 8.72743 31.7278 8.37846L34.9963 5.34692L30.4804 4.72332C29.9588 4.652 29.5106 4.34096 29.2793 3.89336L27.2582 0L25.2372 3.89336C25.0043 4.34096 24.556 4.652 24.036 4.72332L19.5202 5.34692L22.7886 8.37846C23.1635 8.72592 23.3358 9.22966 23.2464 9.72126L22.476 14L26.5149 11.9805C26.9807 11.7468 27.5358 11.7468 28.0016 11.9805Z" fill="#E2E3E7"/>
<path d="M47.4777 11.9805L51.5166 14L50.7461 9.72126C50.6568 9.22966 50.8291 8.72743 51.2039 8.37846L54.4724 5.34692L49.9565 4.72332C49.4349 4.652 48.9867 4.34096 48.7554 3.89336L46.7343 0L44.7133 3.89336C44.4804 4.34096 44.0321 4.652 43.5121 4.72332L38.9963 5.34692L42.2647 8.37846C42.6396 8.72592 42.8119 9.22966 42.7225 9.72126L41.9521 14L45.991 11.9805C46.4568 11.7468 47.0119 11.7468 47.4777 11.9805Z" fill="#E2E3E7"/>
<path d="M66.9538 11.9805L70.9927 14L70.2222 9.72126C70.1329 9.22966 70.3052 8.72743 70.68 8.37846L73.9485 5.34692L69.4326 4.72332C68.911 4.652 68.4628 4.34096 68.2315 3.89336L66.2104 0L64.1894 3.89336C63.9565 4.34096 63.5083 4.652 62.9882 4.72332L58.4724 5.34692L61.7408 8.37846C62.1157 8.72592 62.288 9.22966 62.1986 9.72126L61.4282 14L65.4671 11.9805C65.9329 11.7468 66.488 11.7468 66.9538 11.9805Z" fill="#E2E3E7"/>
<path d="M86.4299 11.9805L90.4688 14L89.6983 9.72126C89.609 9.22966 89.7813 8.72743 90.1561 8.37846L93.4246 5.34692L88.9087 4.72332C88.3871 4.652 87.9389 4.34096 87.7076 3.89336L85.6865 0L83.6655 3.89336C83.4326 4.34096 82.9844 4.652 82.4643 4.72332L77.9485 5.34692L81.2169 8.37846C81.5918 8.72592 81.7641 9.22966 81.6747 9.72126L80.9043 14L84.9432 11.9805C85.409 11.7468 85.9641 11.7468 86.4299 11.9805Z" fill="#E2E3E7"/>
</svg>
