<svg width="191" height="14" viewBox="0 0 191 14" fill="none" xmlns="http://www.w3.org/2000/svg">
<path d="M8.48139 11.9806L12.5203 14.0001L11.7498 9.72129C11.6605 9.22969 11.8328 8.72746 12.2076 8.37849L15.4761 5.34695L10.9602 4.72335C10.4386 4.65203 9.9904 4.34099 9.7591 3.89339L7.73805 3.43323e-05L5.717 3.89339C5.48411 4.34099 5.03587 4.65203 4.51586 4.72335L0 5.34695L3.26845 8.37849C3.64331 8.72595 3.81559 9.22969 3.72626 9.72129L2.9558 14.0001L6.99471 11.9806C7.4605 11.7469 8.01561 11.7469 8.48139 11.9806Z" fill="#F7CD05"/>
<path d="M27.9575 11.9806L31.9964 14.0001L31.2259 9.72129C31.1366 9.22969 31.3089 8.72746 31.6837 8.37849L34.9522 5.34695L30.4363 4.72335C29.9147 4.65203 29.4665 4.34099 29.2352 3.89339L27.2141 3.43323e-05L25.1931 3.89339C24.9602 4.34099 24.5119 4.65203 23.9919 4.72335L19.4761 5.34695L22.7445 8.37849C23.1194 8.72595 23.2917 9.22969 23.2023 9.72129L22.4319 14.0001L26.4708 11.9806C26.9366 11.7469 27.4917 11.7469 27.9575 11.9806Z" fill="#F7CD05"/>
<path d="M47.4336 11.9806L51.4725 14.0001L50.702 9.72129C50.6127 9.22969 50.785 8.72746 51.1598 8.37849L54.4283 5.34695L49.9124 4.72335C49.3908 4.65203 48.9426 4.34099 48.7113 3.89339L46.6903 3.43323e-05L44.6692 3.89339C44.4363 4.34099 43.9881 4.65203 43.4681 4.72335L38.9522 5.34695L42.2207 8.37849C42.5955 8.72595 42.7678 9.22969 42.6785 9.72129L41.908 14.0001L45.9469 11.9806C46.4127 11.7469 46.9678 11.7469 47.4336 11.9806Z" fill="#E2E3E7"/>
<path d="M66.9097 11.9806L70.9486 14.0001L70.1781 9.72129C70.0888 9.22969 70.2611 8.72746 70.6359 8.37849L73.9044 5.34695L69.3885 4.72335C68.8669 4.65203 68.4187 4.34099 68.1874 3.89339L66.1663 3.43323e-05L64.1453 3.89339C63.9124 4.34099 63.4642 4.65203 62.9441 4.72335L58.4283 5.34695L61.6967 8.37849C62.0716 8.72595 62.2439 9.22969 62.1545 9.72129L61.3841 14.0001L65.423 11.9806C65.8888 11.7469 66.4439 11.7469 66.9097 11.9806Z" fill="#E2E3E7"/>
<path d="M86.3858 11.9806L90.4247 14.0001L89.6542 9.72129C89.5649 9.22969 89.7372 8.72746 90.112 8.37849L93.3805 5.34695L88.8646 4.72335C88.343 4.65203 87.8948 4.34099 87.6635 3.89339L85.6425 3.43323e-05L83.6214 3.89339C83.3885 4.34099 82.9403 4.65203 82.4203 4.72335L77.9044 5.34695L81.1729 8.37849C81.5477 8.72595 81.72 9.22969 81.6307 9.72129L80.8602 14.0001L84.8991 11.9806C85.3649 11.7469 85.92 11.7469 86.3858 11.9806Z" fill="#E2E3E7"/>
<path d="M105.862 11.9806L109.901 14.0001L109.13 9.72129C109.041 9.22969 109.213 8.72746 109.588 8.37849L112.857 5.34695L108.341 4.72335C107.819 4.65203 107.371 4.34099 107.14 3.89339L105.119 3.43323e-05L103.097 3.89339C102.865 4.34099 102.416 4.65203 101.896 4.72335L97.3805 5.34695L100.649 8.37849C101.024 8.72595 101.196 9.22969 101.107 9.72129L100.336 14.0001L104.375 11.9806C104.841 11.7469 105.396 11.7469 105.862 11.9806Z" fill="#E2E3E7"/>
<path d="M125.338 11.9806L129.377 14.0001L128.606 9.72129C128.517 9.22969 128.689 8.72746 129.064 8.37849L132.333 5.34695L127.817 4.72335C127.295 4.65203 126.847 4.34099 126.616 3.89339L124.595 3.43323e-05L122.574 3.89339C122.341 4.34099 121.892 4.65203 121.372 4.72335L116.857 5.34695L120.125 8.37849C120.5 8.72595 120.672 9.22969 120.583 9.72129L119.812 14.0001L123.851 11.9806C124.317 11.7469 124.872 11.7469 125.338 11.9806Z" fill="#E2E3E7"/>
<path d="M144.814 11.9806L148.853 14.0001L148.083 9.72129C147.993 9.22969 148.166 8.72746 148.54 8.37849L151.809 5.34695L147.293 4.72335C146.771 4.65203 146.323 4.34099 146.092 3.89339L144.071 3.43323e-05L142.05 3.89339C141.817 4.34099 141.369 4.65203 140.849 4.72335L136.333 5.34695L139.601 8.37849C139.976 8.72595 140.148 9.22969 140.059 9.72129L139.289 14.0001L143.327 11.9806C143.793 11.7469 144.348 11.7469 144.814 11.9806Z" fill="#E2E3E7"/>
<path d="M164.29 11.9806L168.329 14.0001L167.559 9.72129C167.469 9.22969 167.642 8.72746 168.016 8.37849L171.285 5.34695L166.769 4.72335C166.247 4.65203 165.799 4.34099 165.568 3.89339L163.547 3.43323e-05L161.526 3.89339C161.293 4.34099 160.845 4.65203 160.325 4.72335L155.809 5.34695L159.077 8.37849C159.452 8.72595 159.624 9.22969 159.535 9.72129L158.765 14.0001L162.804 11.9806C163.269 11.7469 163.824 11.7469 164.29 11.9806Z" fill="#E2E3E7"/>
<path d="M183.766 11.9806L187.805 14.0001L187.035 9.72129C186.945 9.22969 187.118 8.72746 187.493 8.37849L190.761 5.34695L186.245 4.72335C185.724 4.65203 185.275 4.34099 185.044 3.89339L183.023 3.43323e-05L181.002 3.89339C180.769 4.34099 180.321 4.65203 179.801 4.72335L175.285 5.34695L178.553 8.37849C178.928 8.72595 179.101 9.22969 179.011 9.72129L178.241 14.0001L182.28 11.9806C182.745 11.7469 183.301 11.7469 183.766 11.9806Z" fill="#E2E3E7"/>
</svg>
