<svg width="75" height="14" viewBox="0 0 75 14" fill="none" xmlns="http://www.w3.org/2000/svg">
<path d="M8.90595 11.9806L12.9449 14.0001L12.1744 9.72132C12.0851 9.22972 12.2574 8.7275 12.6322 8.37853L15.9007 5.34699L11.3848 4.72339C10.8632 4.65207 10.415 4.34103 10.1837 3.89343L8.16261 6.86646e-05L6.14156 3.89343C5.90867 4.34103 5.46043 4.65207 4.94042 4.72339L0.424561 5.34699L3.69301 8.37853C4.06787 8.72599 4.24015 9.22972 4.15082 9.72132L3.38036 14.0001L7.41927 11.9806C7.88506 11.7469 8.44017 11.7469 8.90595 11.9806Z" fill="#F7CD05"/>
<path d="M28.3821 11.9806L32.421 14.0001L31.6505 9.72132C31.5612 9.22972 31.7335 8.7275 32.1083 8.37853L35.3768 5.34699L30.8609 4.72339C30.3393 4.65207 29.8911 4.34103 29.6598 3.89343L27.6387 6.86646e-05L25.6177 3.89343C25.3848 4.34103 24.9365 4.65207 24.4165 4.72339L19.9007 5.34699L23.1691 8.37853C23.544 8.72599 23.7163 9.22972 23.6269 9.72132L22.8565 14.0001L26.8954 11.9806C27.3612 11.7469 27.9163 11.7469 28.3821 11.9806Z" fill="#F7CD05"/>
<path d="M47.8582 11.9806L51.8971 14.0001L51.1266 9.72132C51.0373 9.22972 51.2096 8.7275 51.5844 8.37853L54.8529 5.34699L50.337 4.72339C49.8154 4.65207 49.3672 4.34103 49.1359 3.89343L47.1148 6.86646e-05L45.0938 3.89343C44.8609 4.34103 44.4126 4.65207 43.8926 4.72339L39.3768 5.34699L42.6452 8.37853C43.0201 8.72599 43.1924 9.22972 43.103 9.72132L42.3326 14.0001L46.3715 11.9806C46.8373 11.7469 47.3924 11.7469 47.8582 11.9806Z" fill="#F7CD05"/>
<path d="M67.3343 11.9806L71.3732 14.0001L70.6027 9.72132C70.5134 9.22972 70.6857 8.7275 71.0605 8.37853L74.329 5.34699L69.8131 4.72339C69.2915 4.65207 68.8433 4.34103 68.612 3.89343L66.5909 6.86646e-05L64.5699 3.89343C64.337 4.34103 63.8887 4.65207 63.3687 4.72339L58.8529 5.34699L62.1213 8.37853C62.4962 8.72599 62.6685 9.22972 62.5791 9.72132L61.8087 14.0001L65.8476 11.9806C66.3134 11.7469 66.8685 11.7469 67.3343 11.9806Z" fill="#F7CD05"/>
</svg>
