<svg width="173" height="14" viewBox="0 0 173 14" fill="none" xmlns="http://www.w3.org/2000/svg">
<path d="M9.24238 11.9806L13.2813 14.0001L12.5108 9.72132C12.4215 9.22972 12.5938 8.7275 12.9686 8.37853L16.2371 5.34699L11.7212 4.72339C11.1996 4.65207 10.7514 4.34103 10.5201 3.89343L8.49904 6.86646e-05L6.47799 3.89343C6.2451 4.34103 5.79686 4.65207 5.27685 4.72339L0.760986 5.34699L4.02944 8.37853C4.4043 8.72599 4.57658 9.22972 4.48725 9.72132L3.71679 14.0001L7.7557 11.9806C8.22149 11.7469 8.7766 11.7469 9.24238 11.9806Z" fill="#F7CD05"/>
<path d="M28.7185 11.9806L32.7574 14.0001L31.9869 9.72132C31.8976 9.22972 32.0699 8.7275 32.4447 8.37853L35.7132 5.34699L31.1973 4.72339C30.6757 4.65207 30.2275 4.34103 29.9962 3.89343L27.9751 6.86646e-05L25.9541 3.89343C25.7212 4.34103 25.273 4.65207 24.753 4.72339L20.2371 5.34699L23.5055 8.37853C23.8804 8.72599 24.0527 9.22972 23.9634 9.72132L23.1929 14.0001L27.2318 11.9806C27.6976 11.7469 28.2527 11.7469 28.7185 11.9806Z" fill="#F7CD05"/>
<path d="M48.1946 11.9806L52.2335 14.0001L51.463 9.72132C51.3737 9.22972 51.546 8.7275 51.9208 8.37853L55.1893 5.34699L50.6734 4.72339C50.1518 4.65207 49.7036 4.34103 49.4723 3.89343L47.4512 6.86646e-05L45.4302 3.89343C45.1973 4.34103 44.7491 4.65207 44.2291 4.72339L39.7132 5.34699L42.9816 8.37853C43.3565 8.72599 43.5288 9.22972 43.4395 9.72132L42.669 14.0001L46.7079 11.9806C47.1737 11.7469 47.7288 11.7469 48.1946 11.9806Z" fill="#F7CD05"/>
<path d="M67.6707 11.9806L71.7096 14.0001L70.9391 9.72132C70.8498 9.22972 71.0221 8.7275 71.3969 8.37853L74.6654 5.34699L70.1495 4.72339C69.6279 4.65207 69.1797 4.34103 68.9484 3.89343L66.9274 6.86646e-05L64.9063 3.89343C64.6734 4.34103 64.2252 4.65207 63.7052 4.72339L59.1893 5.34699L62.4578 8.37853C62.8326 8.72599 63.0049 9.22972 62.9156 9.72132L62.1451 14.0001L66.184 11.9806C66.6498 11.7469 67.2049 11.7469 67.6707 11.9806Z" fill="#F7CD05"/>
<path d="M87.1468 11.9806L91.1857 14.0001L90.4152 9.72132C90.3259 9.22972 90.4982 8.7275 90.873 8.37853L94.1415 5.34699L89.6256 4.72339C89.104 4.65207 88.6558 4.34103 88.4245 3.89343L86.4035 6.86646e-05L84.3824 3.89343C84.1495 4.34103 83.7013 4.65207 83.1813 4.72339L78.6654 5.34699L81.9339 8.37853C82.3087 8.72599 82.481 9.22972 82.3917 9.72132L81.6212 14.0001L85.6601 11.9806C86.1259 11.7469 86.681 11.7469 87.1468 11.9806Z" fill="#E2E3E7"/>
<path d="M106.623 11.9806L110.662 14.0001L109.891 9.72132C109.802 9.22972 109.974 8.7275 110.349 8.37853L113.618 5.34699L109.102 4.72339C108.58 4.65207 108.132 4.34103 107.901 3.89343L105.88 6.86646e-05L103.858 3.89343C103.626 4.34103 103.177 4.65207 102.657 4.72339L98.1415 5.34699L101.41 8.37853C101.785 8.72599 101.957 9.22972 101.868 9.72132L101.097 14.0001L105.136 11.9806C105.602 11.7469 106.157 11.7469 106.623 11.9806Z" fill="#E2E3E7"/>
<path d="M126.099 11.9806L130.138 14.0001L129.367 9.72132C129.278 9.22972 129.45 8.7275 129.825 8.37853L133.094 5.34699L128.578 4.72339C128.056 4.65207 127.608 4.34103 127.377 3.89343L125.356 6.86646e-05L123.335 3.89343C123.102 4.34103 122.653 4.65207 122.133 4.72339L117.618 5.34699L120.886 8.37853C121.261 8.72599 121.433 9.22972 121.344 9.72132L120.573 14.0001L124.612 11.9806C125.078 11.7469 125.633 11.7469 126.099 11.9806Z" fill="#E2E3E7"/>
<path d="M145.575 11.9806L149.614 14.0001L148.843 9.72132C148.754 9.22972 148.926 8.7275 149.301 8.37853L152.57 5.34699L148.054 4.72339C147.532 4.65207 147.084 4.34103 146.853 3.89343L144.832 6.86646e-05L142.811 3.89343C142.578 4.34103 142.13 4.65207 141.61 4.72339L137.094 5.34699L140.362 8.37853C140.737 8.72599 140.909 9.22972 140.82 9.72132L140.049 14.0001L144.088 11.9806C144.554 11.7469 145.109 11.7469 145.575 11.9806Z" fill="#E2E3E7"/>
<path d="M165.051 11.9806L169.09 14.0001L168.32 9.72132C168.23 9.22972 168.403 8.7275 168.777 8.37853L172.046 5.34699L167.53 4.72339C167.008 4.65207 166.56 4.34103 166.329 3.89343L164.308 6.86646e-05L162.287 3.89343C162.054 4.34103 161.606 4.65207 161.086 4.72339L156.57 5.34699L159.838 8.37853C160.213 8.72599 160.385 9.22972 160.296 9.72132L159.526 14.0001L163.565 11.9806C164.03 11.7469 164.585 11.7469 165.051 11.9806Z" fill="#E2E3E7"/>
</svg>
