<svg width="134" height="14" viewBox="0 0 134 14" fill="none" xmlns="http://www.w3.org/2000/svg">
<path d="M9.33613 11.9806L13.375 14.0001L12.6045 9.72131C12.5152 9.22971 12.6875 8.72748 13.0623 8.37851L16.3308 5.34697L11.8149 4.72337C11.2933 4.65205 10.8451 4.34101 10.6138 3.89341L8.59279 5.34058e-05L6.57174 3.89341C6.33885 4.34101 5.89061 4.65205 5.3706 4.72337L0.854736 5.34697L4.12319 8.37851C4.49805 8.72597 4.67033 9.22971 4.581 9.72131L3.81054 14.0001L7.84945 11.9806C8.31524 11.7469 8.87035 11.7469 9.33613 11.9806Z" fill="#F7CD05"/>
<path d="M28.8122 11.9806L32.8511 14.0001L32.0806 9.72131C31.9913 9.22971 32.1636 8.72748 32.5384 8.37851L35.8069 5.34697L31.291 4.72337C30.7694 4.65205 30.3212 4.34101 30.0899 3.89341L28.0689 5.34058e-05L26.0478 3.89341C25.8149 4.34101 25.3667 4.65205 24.8467 4.72337L20.3308 5.34697L23.5993 8.37851C23.9741 8.72597 24.1464 9.22971 24.0571 9.72131L23.2866 14.0001L27.3255 11.9806C27.7913 11.7469 28.3464 11.7469 28.8122 11.9806Z" fill="#F7CD05"/>
<path d="M48.2883 11.9806L52.3272 14.0001L51.5567 9.72131C51.4674 9.22971 51.6397 8.72748 52.0145 8.37851L55.283 5.34697L50.7671 4.72337C50.2455 4.65205 49.7973 4.34101 49.566 3.89341L47.545 5.34058e-05L45.5239 3.89341C45.291 4.34101 44.8428 4.65205 44.3228 4.72337L39.8069 5.34697L43.0754 8.37851C43.4502 8.72597 43.6225 9.22971 43.5332 9.72131L42.7627 14.0001L46.8016 11.9806C47.2674 11.7469 47.8225 11.7469 48.2883 11.9806Z" fill="#F7CD05"/>
<path d="M67.7644 11.9806L71.8033 14.0001L71.0328 9.72131C70.9435 9.22971 71.1158 8.72748 71.4906 8.37851L74.7591 5.34697L70.2432 4.72337C69.7216 4.65205 69.2734 4.34101 69.0421 3.89341L67.0211 5.34058e-05L65 3.89341C64.7671 4.34101 64.3189 4.65205 63.7989 4.72337L59.283 5.34697L62.5515 8.37851C62.9263 8.72597 63.0986 9.22971 63.0093 9.72131L62.2388 14.0001L66.2777 11.9806C66.7435 11.7469 67.2986 11.7469 67.7644 11.9806Z" fill="#E2E3E7"/>
<path d="M87.2405 11.9806L91.2794 14.0001L90.5089 9.72131C90.4196 9.22971 90.5919 8.72748 90.9667 8.37851L94.2352 5.34697L89.7193 4.72337C89.1977 4.65205 88.7495 4.34101 88.5182 3.89341L86.4972 5.34058e-05L84.4761 3.89341C84.2433 4.34101 83.795 4.65205 83.275 4.72337L78.7591 5.34697L82.0276 8.37851C82.4025 8.72597 82.5747 9.22971 82.4854 9.72131L81.7149 14.0001L85.7538 11.9806C86.2196 11.7469 86.7748 11.7469 87.2405 11.9806Z" fill="#E2E3E7"/>
<path d="M106.717 11.9806L110.756 14.0001L109.985 9.72131C109.896 9.22971 110.068 8.72748 110.443 8.37851L113.711 5.34697L109.195 4.72337C108.674 4.65205 108.226 4.34101 107.994 3.89341L105.973 5.34058e-05L103.952 3.89341C103.719 4.34101 103.271 4.65205 102.751 4.72337L98.2352 5.34697L101.504 8.37851C101.879 8.72597 102.051 9.22971 101.961 9.72131L101.191 14.0001L105.23 11.9806C105.696 11.7469 106.251 11.7469 106.717 11.9806Z" fill="#E2E3E7"/>
<path d="M126.193 11.9806L130.232 14.0001L129.461 9.72131C129.372 9.22971 129.544 8.72748 129.919 8.37851L133.187 5.34697L128.672 4.72337C128.15 4.65205 127.702 4.34101 127.47 3.89341L125.449 5.34058e-05L123.428 3.89341C123.195 4.34101 122.747 4.65205 122.227 4.72337L117.711 5.34697L120.98 8.37851C121.355 8.72597 121.527 9.22971 121.438 9.72131L120.667 14.0001L124.706 11.9806C125.172 11.7469 125.727 11.7469 126.193 11.9806Z" fill="#E2E3E7"/>
</svg>
