<svg width="173" height="14" viewBox="0 0 173 14" fill="none" xmlns="http://www.w3.org/2000/svg">
<path d="M9.24238 11.9806L13.2813 14.0001L12.5108 9.72138C12.4215 9.22978 12.5938 8.72755 12.9686 8.37858L16.2371 5.34704L11.7212 4.72344C11.1996 4.65212 10.7514 4.34108 10.5201 3.89348L8.49904 0.00012207L6.47799 3.89348C6.2451 4.34108 5.79686 4.65212 5.27685 4.72344L0.760986 5.34704L4.02944 8.37858C4.4043 8.72604 4.57658 9.22978 4.48725 9.72138L3.71679 14.0001L7.7557 11.9806C8.22149 11.7469 8.7766 11.7469 9.24238 11.9806Z" fill="#F7CD05"/>
<path d="M28.7185 11.9806L32.7574 14.0001L31.9869 9.72138C31.8976 9.22978 32.0699 8.72755 32.4447 8.37858L35.7132 5.34704L31.1973 4.72344C30.6757 4.65212 30.2275 4.34108 29.9962 3.89348L27.9751 0.00012207L25.9541 3.89348C25.7212 4.34108 25.273 4.65212 24.753 4.72344L20.2371 5.34704L23.5055 8.37858C23.8804 8.72604 24.0527 9.22978 23.9634 9.72138L23.1929 14.0001L27.2318 11.9806C27.6976 11.7469 28.2527 11.7469 28.7185 11.9806Z" fill="#F7CD05"/>
<path d="M48.1946 11.9806L52.2335 14.0001L51.463 9.72138C51.3737 9.22978 51.546 8.72755 51.9208 8.37858L55.1893 5.34704L50.6734 4.72344C50.1518 4.65212 49.7036 4.34108 49.4723 3.89348L47.4512 0.00012207L45.4302 3.89348C45.1973 4.34108 44.7491 4.65212 44.2291 4.72344L39.7132 5.34704L42.9816 8.37858C43.3565 8.72604 43.5288 9.22978 43.4395 9.72138L42.669 14.0001L46.7079 11.9806C47.1737 11.7469 47.7288 11.7469 48.1946 11.9806Z" fill="#F7CD05"/>
<path d="M67.6707 11.9806L71.7096 14.0001L70.9391 9.72138C70.8498 9.22978 71.0221 8.72755 71.3969 8.37858L74.6654 5.34704L70.1495 4.72344C69.6279 4.65212 69.1797 4.34108 68.9484 3.89348L66.9274 0.00012207L64.9063 3.89348C64.6734 4.34108 64.2252 4.65212 63.7052 4.72344L59.1893 5.34704L62.4578 8.37858C62.8326 8.72604 63.0049 9.22978 62.9156 9.72138L62.1451 14.0001L66.184 11.9806C66.6498 11.7469 67.2049 11.7469 67.6707 11.9806Z" fill="#F7CD05"/>
<path d="M87.1468 11.9806L91.1857 14.0001L90.4152 9.72138C90.3259 9.22978 90.4982 8.72755 90.873 8.37858L94.1415 5.34704L89.6256 4.72344C89.104 4.65212 88.6558 4.34108 88.4245 3.89348L86.4035 0.00012207L84.3824 3.89348C84.1495 4.34108 83.7013 4.65212 83.1813 4.72344L78.6654 5.34704L81.9339 8.37858C82.3087 8.72604 82.481 9.22978 82.3917 9.72138L81.6212 14.0001L85.6601 11.9806C86.1259 11.7469 86.681 11.7469 87.1468 11.9806Z" fill="#F7CD05"/>
<path d="M106.623 11.9806L110.662 14.0001L109.891 9.72138C109.802 9.22978 109.974 8.72755 110.349 8.37858L113.618 5.34704L109.102 4.72344C108.58 4.65212 108.132 4.34108 107.901 3.89348L105.88 0.00012207L103.858 3.89348C103.626 4.34108 103.177 4.65212 102.657 4.72344L98.1415 5.34704L101.41 8.37858C101.785 8.72604 101.957 9.22978 101.868 9.72138L101.097 14.0001L105.136 11.9806C105.602 11.7469 106.157 11.7469 106.623 11.9806Z" fill="#F7CD05"/>
<path d="M126.099 11.9806L130.138 14.0001L129.367 9.72138C129.278 9.22978 129.45 8.72755 129.825 8.37858L133.094 5.34704L128.578 4.72344C128.056 4.65212 127.608 4.34108 127.377 3.89348L125.356 0.00012207L123.335 3.89348C123.102 4.34108 122.653 4.65212 122.133 4.72344L117.618 5.34704L120.886 8.37858C121.261 8.72604 121.433 9.22978 121.344 9.72138L120.573 14.0001L124.612 11.9806C125.078 11.7469 125.633 11.7469 126.099 11.9806Z" fill="#F7CD05"/>
<path d="M145.575 11.9806L149.614 14.0001L148.843 9.72138C148.754 9.22978 148.926 8.72755 149.301 8.37858L152.57 5.34704L148.054 4.72344C147.532 4.65212 147.084 4.34108 146.853 3.89348L144.832 0.00012207L142.811 3.89348C142.578 4.34108 142.13 4.65212 141.61 4.72344L137.094 5.34704L140.362 8.37858C140.737 8.72604 140.909 9.22978 140.82 9.72138L140.049 14.0001L144.088 11.9806C144.554 11.7469 145.109 11.7469 145.575 11.9806Z" fill="#E2E3E7"/>
<path d="M165.051 11.9806L169.09 14.0001L168.32 9.72138C168.23 9.22978 168.403 8.72755 168.777 8.37858L172.046 5.34704L167.53 4.72344C167.008 4.65212 166.56 4.34108 166.329 3.89348L164.308 0.00012207L162.287 3.89348C162.054 4.34108 161.606 4.65212 161.086 4.72344L156.57 5.34704L159.838 8.37858C160.213 8.72604 160.385 9.22978 160.296 9.72138L159.526 14.0001L163.565 11.9806C164.03 11.7469 164.585 11.7469 165.051 11.9806Z" fill="#E2E3E7"/>
</svg>
