<svg width="173" height="14" viewBox="0 0 173 14" fill="none" xmlns="http://www.w3.org/2000/svg">
<path d="M9.24238 11.9806L13.2813 14.0001L12.5108 9.72136C12.4215 9.22976 12.5938 8.72753 12.9686 8.37856L16.2371 5.34702L11.7212 4.72342C11.1996 4.6521 10.7514 4.34106 10.5201 3.89346L8.49904 0.000106812L6.47799 3.89346C6.2451 4.34106 5.79686 4.6521 5.27685 4.72342L0.760986 5.34702L4.02944 8.37856C4.4043 8.72602 4.57658 9.22976 4.48725 9.72136L3.71679 14.0001L7.7557 11.9806C8.22149 11.7469 8.7766 11.7469 9.24238 11.9806Z" fill="#F7CD05"/>
<path d="M28.7185 11.9806L32.7574 14.0001L31.9869 9.72136C31.8976 9.22976 32.0699 8.72753 32.4447 8.37856L35.7132 5.34702L31.1973 4.72342C30.6757 4.6521 30.2275 4.34106 29.9962 3.89346L27.9751 0.000106812L25.9541 3.89346C25.7212 4.34106 25.273 4.6521 24.753 4.72342L20.2371 5.34702L23.5055 8.37856C23.8804 8.72602 24.0527 9.22976 23.9634 9.72136L23.1929 14.0001L27.2318 11.9806C27.6976 11.7469 28.2527 11.7469 28.7185 11.9806Z" fill="#F7CD05"/>
<path d="M48.1946 11.9806L52.2335 14.0001L51.463 9.72136C51.3737 9.22976 51.546 8.72753 51.9208 8.37856L55.1893 5.34702L50.6734 4.72342C50.1518 4.6521 49.7036 4.34106 49.4723 3.89346L47.4512 0.000106812L45.4302 3.89346C45.1973 4.34106 44.7491 4.6521 44.2291 4.72342L39.7132 5.34702L42.9816 8.37856C43.3565 8.72602 43.5288 9.22976 43.4395 9.72136L42.669 14.0001L46.7079 11.9806C47.1737 11.7469 47.7288 11.7469 48.1946 11.9806Z" fill="#F7CD05"/>
<path d="M67.6707 11.9806L71.7096 14.0001L70.9391 9.72136C70.8498 9.22976 71.0221 8.72753 71.3969 8.37856L74.6654 5.34702L70.1495 4.72342C69.6279 4.6521 69.1797 4.34106 68.9484 3.89346L66.9274 0.000106812L64.9063 3.89346C64.6734 4.34106 64.2252 4.6521 63.7052 4.72342L59.1893 5.34702L62.4578 8.37856C62.8326 8.72602 63.0049 9.22976 62.9156 9.72136L62.1451 14.0001L66.184 11.9806C66.6498 11.7469 67.2049 11.7469 67.6707 11.9806Z" fill="#F7CD05"/>
<path d="M87.1468 11.9806L91.1857 14.0001L90.4152 9.72136C90.3259 9.22976 90.4982 8.72753 90.873 8.37856L94.1415 5.34702L89.6256 4.72342C89.104 4.6521 88.6558 4.34106 88.4245 3.89346L86.4035 0.000106812L84.3824 3.89346C84.1495 4.34106 83.7013 4.6521 83.1813 4.72342L78.6654 5.34702L81.9339 8.37856C82.3087 8.72602 82.481 9.22976 82.3917 9.72136L81.6212 14.0001L85.6601 11.9806C86.1259 11.7469 86.681 11.7469 87.1468 11.9806Z" fill="#F7CD05"/>
<path d="M106.623 11.9806L110.662 14.0001L109.891 9.72136C109.802 9.22976 109.974 8.72753 110.349 8.37856L113.618 5.34702L109.102 4.72342C108.58 4.6521 108.132 4.34106 107.901 3.89346L105.88 0.000106812L103.858 3.89346C103.626 4.34106 103.177 4.6521 102.657 4.72342L98.1415 5.34702L101.41 8.37856C101.785 8.72602 101.957 9.22976 101.868 9.72136L101.097 14.0001L105.136 11.9806C105.602 11.7469 106.157 11.7469 106.623 11.9806Z" fill="#F7CD05"/>
<path d="M126.099 11.9806L130.138 14.0001L129.367 9.72136C129.278 9.22976 129.45 8.72753 129.825 8.37856L133.094 5.34702L128.578 4.72342C128.056 4.6521 127.608 4.34106 127.377 3.89346L125.356 0.000106812L123.335 3.89346C123.102 4.34106 122.653 4.6521 122.133 4.72342L117.618 5.34702L120.886 8.37856C121.261 8.72602 121.433 9.22976 121.344 9.72136L120.573 14.0001L124.612 11.9806C125.078 11.7469 125.633 11.7469 126.099 11.9806Z" fill="#E2E3E7"/>
<path d="M145.575 11.9806L149.614 14.0001L148.843 9.72136C148.754 9.22976 148.926 8.72753 149.301 8.37856L152.57 5.34702L148.054 4.72342C147.532 4.6521 147.084 4.34106 146.853 3.89346L144.832 0.000106812L142.811 3.89346C142.578 4.34106 142.13 4.6521 141.61 4.72342L137.094 5.34702L140.362 8.37856C140.737 8.72602 140.909 9.22976 140.82 9.72136L140.049 14.0001L144.088 11.9806C144.554 11.7469 145.109 11.7469 145.575 11.9806Z" fill="#E2E3E7"/>
<path d="M165.051 11.9806L169.09 14.0001L168.32 9.72136C168.23 9.22976 168.403 8.72753 168.777 8.37856L172.046 5.34702L167.53 4.72342C167.008 4.6521 166.56 4.34106 166.329 3.89346L164.308 0.000106812L162.287 3.89346C162.054 4.34106 161.606 4.6521 161.086 4.72342L156.57 5.34702L159.838 8.37856C160.213 8.72602 160.385 9.22976 160.296 9.72136L159.526 14.0001L163.565 11.9806C164.03 11.7469 164.585 11.7469 165.051 11.9806Z" fill="#E2E3E7"/>
</svg>
