<svg width="152" height="14" viewBox="0 0 152 14" fill="none" xmlns="http://www.w3.org/2000/svg">
<path d="M8.52729 11.9806L12.5662 14.0001L11.7957 9.72132C11.7064 9.22972 11.8787 8.7275 12.2535 8.37853L15.522 5.34699L11.0061 4.72339C10.4845 4.65207 10.0363 4.34103 9.805 3.89343L7.78395 6.86646e-05L5.7629 3.89343C5.53001 4.34103 5.08177 4.65207 4.56176 4.72339L0.0458984 5.34699L3.31435 8.37853C3.68921 8.72599 3.86149 9.22972 3.77216 9.72132L3.0017 14.0001L7.04061 11.9806C7.5064 11.7469 8.06151 11.7469 8.52729 11.9806Z" fill="#F7CD05"/>
<path d="M28.0034 11.9806L32.0423 14.0001L31.2718 9.72132C31.1825 9.22972 31.3548 8.7275 31.7296 8.37853L34.9981 5.34699L30.4822 4.72339C29.9606 4.65207 29.5124 4.34103 29.2811 3.89343L27.2601 6.86646e-05L25.239 3.89343C25.0061 4.34103 24.5579 4.65207 24.0379 4.72339L19.522 5.34699L22.7905 8.37853C23.1653 8.72599 23.3376 9.22972 23.2483 9.72132L22.4778 14.0001L26.5167 11.9806C26.9825 11.7469 27.5376 11.7469 28.0034 11.9806Z" fill="#F7CD05"/>
<path d="M47.4795 11.9806L51.5184 14.0001L50.7479 9.72132C50.6586 9.22972 50.8309 8.7275 51.2057 8.37853L54.4742 5.34699L49.9583 4.72339C49.4367 4.65207 48.9885 4.34103 48.7572 3.89343L46.7362 6.86646e-05L44.7151 3.89343C44.4822 4.34103 44.034 4.65207 43.514 4.72339L38.9981 5.34699L42.2666 8.37853C42.6414 8.72599 42.8137 9.22972 42.7244 9.72132L41.9539 14.0001L45.9928 11.9806C46.4586 11.7469 47.0137 11.7469 47.4795 11.9806Z" fill="#F7CD05"/>
<path d="M66.9556 11.9806L70.9945 14.0001L70.224 9.72132C70.1347 9.22972 70.307 8.7275 70.6818 8.37853L73.9503 5.34699L69.4344 4.72339C68.9128 4.65207 68.4646 4.34103 68.2333 3.89343L66.2122 6.86646e-05L64.1912 3.89343C63.9583 4.34103 63.5101 4.65207 62.9901 4.72339L58.4742 5.34699L61.7426 8.37853C62.1175 8.72599 62.2898 9.22972 62.2005 9.72132L61.43 14.0001L65.4689 11.9806C65.9347 11.7469 66.4898 11.7469 66.9556 11.9806Z" fill="#F7CD05"/>
<path d="M86.4317 11.9806L90.4706 14.0001L89.7001 9.72132C89.6108 9.22972 89.7831 8.7275 90.1579 8.37853L93.4264 5.34699L88.9105 4.72339C88.3889 4.65207 87.9407 4.34103 87.7094 3.89343L85.6884 6.86646e-05L83.6673 3.89343C83.4344 4.34103 82.9862 4.65207 82.4662 4.72339L77.9503 5.34699L81.2188 8.37853C81.5936 8.72599 81.7659 9.22972 81.6766 9.72132L80.9061 14.0001L84.945 11.9806C85.4108 11.7469 85.9659 11.7469 86.4317 11.9806Z" fill="#E2E3E7"/>
<path d="M105.908 11.9806L109.947 14.0001L109.176 9.72132C109.087 9.22972 109.259 8.7275 109.634 8.37853L112.902 5.34699L108.387 4.72339C107.865 4.65207 107.417 4.34103 107.185 3.89343L105.164 6.86646e-05L103.143 3.89343C102.911 4.34103 102.462 4.65207 101.942 4.72339L97.4264 5.34699L100.695 8.37853C101.07 8.72599 101.242 9.22972 101.153 9.72132L100.382 14.0001L104.421 11.9806C104.887 11.7469 105.442 11.7469 105.908 11.9806Z" fill="#E2E3E7"/>
<path d="M125.384 11.9806L129.423 14.0001L128.652 9.72132C128.563 9.22972 128.735 8.7275 129.11 8.37853L132.379 5.34699L127.863 4.72339C127.341 4.65207 126.893 4.34103 126.662 3.89343L124.641 6.86646e-05L122.619 3.89343C122.387 4.34103 121.938 4.65207 121.418 4.72339L116.902 5.34699L120.171 8.37853C120.546 8.72599 120.718 9.22972 120.629 9.72132L119.858 14.0001L123.897 11.9806C124.363 11.7469 124.918 11.7469 125.384 11.9806Z" fill="#E2E3E7"/>
<path d="M144.86 11.9806L148.899 14.0001L148.128 9.72132C148.039 9.22972 148.211 8.7275 148.586 8.37853L151.855 5.34699L147.339 4.72339C146.817 4.65207 146.369 4.34103 146.138 3.89343L144.117 6.86646e-05L142.096 3.89343C141.863 4.34103 141.414 4.65207 140.894 4.72339L136.379 5.34699L139.647 8.37853C140.022 8.72599 140.194 9.22972 140.105 9.72132L139.334 14.0001L143.373 11.9806C143.839 11.7469 144.394 11.7469 144.86 11.9806Z" fill="#E2E3E7"/>
</svg>
