<svg width="134" height="14" viewBox="0 0 134 14" fill="none" xmlns="http://www.w3.org/2000/svg">
<path d="M9.33613 11.9806L13.375 14.0001L12.6045 9.72132C12.5152 9.22972 12.6875 8.7275 13.0623 8.37853L16.3308 5.34699L11.8149 4.72339C11.2933 4.65207 10.8451 4.34103 10.6138 3.89343L8.59279 6.86646e-05L6.57174 3.89343C6.33885 4.34103 5.89061 4.65207 5.3706 4.72339L0.854736 5.34699L4.12319 8.37853C4.49805 8.72599 4.67033 9.22972 4.581 9.72132L3.81054 14.0001L7.84945 11.9806C8.31524 11.7469 8.87035 11.7469 9.33613 11.9806Z" fill="#F7CD05"/>
<path d="M28.8122 11.9806L32.8511 14.0001L32.0806 9.72132C31.9913 9.22972 32.1636 8.7275 32.5384 8.37853L35.8069 5.34699L31.291 4.72339C30.7694 4.65207 30.3212 4.34103 30.0899 3.89343L28.0689 6.86646e-05L26.0478 3.89343C25.8149 4.34103 25.3667 4.65207 24.8467 4.72339L20.3308 5.34699L23.5993 8.37853C23.9741 8.72599 24.1464 9.22972 24.0571 9.72132L23.2866 14.0001L27.3255 11.9806C27.7913 11.7469 28.3464 11.7469 28.8122 11.9806Z" fill="#F7CD05"/>
<path d="M48.2883 11.9806L52.3272 14.0001L51.5567 9.72132C51.4674 9.22972 51.6397 8.7275 52.0145 8.37853L55.283 5.34699L50.7671 4.72339C50.2455 4.65207 49.7973 4.34103 49.566 3.89343L47.545 6.86646e-05L45.5239 3.89343C45.291 4.34103 44.8428 4.65207 44.3228 4.72339L39.8069 5.34699L43.0754 8.37853C43.4502 8.72599 43.6225 9.22972 43.5332 9.72132L42.7627 14.0001L46.8016 11.9806C47.2674 11.7469 47.8225 11.7469 48.2883 11.9806Z" fill="#F7CD05"/>
<path d="M67.7644 11.9806L71.8033 14.0001L71.0328 9.72132C70.9435 9.22972 71.1158 8.7275 71.4906 8.37853L74.7591 5.34699L70.2432 4.72339C69.7216 4.65207 69.2734 4.34103 69.0421 3.89343L67.0211 6.86646e-05L65 3.89343C64.7671 4.34103 64.3189 4.65207 63.7989 4.72339L59.283 5.34699L62.5515 8.37853C62.9263 8.72599 63.0986 9.22972 63.0093 9.72132L62.2388 14.0001L66.2777 11.9806C66.7435 11.7469 67.2986 11.7469 67.7644 11.9806Z" fill="#F7CD05"/>
<path d="M87.2405 11.9806L91.2794 14.0001L90.5089 9.72132C90.4196 9.22972 90.5919 8.7275 90.9667 8.37853L94.2352 5.34699L89.7193 4.72339C89.1977 4.65207 88.7495 4.34103 88.5182 3.89343L86.4972 6.86646e-05L84.4761 3.89343C84.2433 4.34103 83.795 4.65207 83.275 4.72339L78.7591 5.34699L82.0276 8.37853C82.4025 8.72599 82.5747 9.22972 82.4854 9.72132L81.7149 14.0001L85.7538 11.9806C86.2196 11.7469 86.7748 11.7469 87.2405 11.9806Z" fill="#E2E3E7"/>
<path d="M106.717 11.9806L110.756 14.0001L109.985 9.72132C109.896 9.22972 110.068 8.7275 110.443 8.37853L113.711 5.34699L109.195 4.72339C108.674 4.65207 108.226 4.34103 107.994 3.89343L105.973 6.86646e-05L103.952 3.89343C103.719 4.34103 103.271 4.65207 102.751 4.72339L98.2352 5.34699L101.504 8.37853C101.879 8.72599 102.051 9.22972 101.961 9.72132L101.191 14.0001L105.23 11.9806C105.696 11.7469 106.251 11.7469 106.717 11.9806Z" fill="#E2E3E7"/>
<path d="M126.193 11.9806L130.232 14.0001L129.461 9.72132C129.372 9.22972 129.544 8.7275 129.919 8.37853L133.187 5.34699L128.672 4.72339C128.15 4.65207 127.702 4.34103 127.47 3.89343L125.449 6.86646e-05L123.428 3.89343C123.195 4.34103 122.747 4.65207 122.227 4.72339L117.711 5.34699L120.98 8.37853C121.355 8.72599 121.527 9.22972 121.438 9.72132L120.667 14.0001L124.706 11.9806C125.172 11.7469 125.727 11.7469 126.193 11.9806Z" fill="#E2E3E7"/>
</svg>
