<svg width="191" height="14" viewBox="0 0 191 14" fill="none" xmlns="http://www.w3.org/2000/svg">
<path d="M8.48139 11.9807L12.5203 14.0002L11.7498 9.72139C11.6605 9.22979 11.8328 8.72756 12.2076 8.37859L15.4761 5.34705L10.9602 4.72345C10.4386 4.65213 9.9904 4.34109 9.7591 3.89349L7.73805 0.000137329L5.717 3.89349C5.48411 4.34109 5.03587 4.65213 4.51586 4.72345L0 5.34705L3.26845 8.37859C3.64331 8.72605 3.81559 9.22979 3.72626 9.72139L2.9558 14.0002L6.99471 11.9807C7.4605 11.747 8.01561 11.747 8.48139 11.9807Z" fill="#F7CD05"/>
<path d="M27.9575 11.9807L31.9964 14.0002L31.2259 9.72139C31.1366 9.22979 31.3089 8.72756 31.6837 8.37859L34.9522 5.34705L30.4363 4.72345C29.9147 4.65213 29.4665 4.34109 29.2352 3.89349L27.2141 0.000137329L25.1931 3.89349C24.9602 4.34109 24.5119 4.65213 23.9919 4.72345L19.4761 5.34705L22.7445 8.37859C23.1194 8.72605 23.2917 9.22979 23.2023 9.72139L22.4319 14.0002L26.4708 11.9807C26.9366 11.747 27.4917 11.747 27.9575 11.9807Z" fill="#F7CD05"/>
<path d="M47.4336 11.9807L51.4725 14.0002L50.702 9.72139C50.6127 9.22979 50.785 8.72756 51.1598 8.37859L54.4283 5.34705L49.9124 4.72345C49.3908 4.65213 48.9426 4.34109 48.7113 3.89349L46.6903 0.000137329L44.6692 3.89349C44.4363 4.34109 43.9881 4.65213 43.4681 4.72345L38.9522 5.34705L42.2207 8.37859C42.5955 8.72605 42.7678 9.22979 42.6785 9.72139L41.908 14.0002L45.9469 11.9807C46.4127 11.747 46.9678 11.747 47.4336 11.9807Z" fill="#F7CD05"/>
<path d="M66.9097 11.9807L70.9486 14.0002L70.1781 9.72139C70.0888 9.22979 70.2611 8.72756 70.6359 8.37859L73.9044 5.34705L69.3885 4.72345C68.8669 4.65213 68.4187 4.34109 68.1874 3.89349L66.1663 0.000137329L64.1453 3.89349C63.9124 4.34109 63.4642 4.65213 62.9441 4.72345L58.4283 5.34705L61.6967 8.37859C62.0716 8.72605 62.2439 9.22979 62.1545 9.72139L61.3841 14.0002L65.423 11.9807C65.8888 11.747 66.4439 11.747 66.9097 11.9807Z" fill="#F7CD05"/>
<path d="M86.3858 11.9807L90.4247 14.0002L89.6542 9.72139C89.5649 9.22979 89.7372 8.72756 90.112 8.37859L93.3805 5.34705L88.8646 4.72345C88.343 4.65213 87.8948 4.34109 87.6635 3.89349L85.6425 0.000137329L83.6214 3.89349C83.3885 4.34109 82.9403 4.65213 82.4203 4.72345L77.9044 5.34705L81.1729 8.37859C81.5477 8.72605 81.72 9.22979 81.6307 9.72139L80.8602 14.0002L84.8991 11.9807C85.3649 11.747 85.92 11.747 86.3858 11.9807Z" fill="#F7CD05"/>
<path d="M105.862 11.9807L109.901 14.0002L109.13 9.72139C109.041 9.22979 109.213 8.72756 109.588 8.37859L112.857 5.34705L108.341 4.72345C107.819 4.65213 107.371 4.34109 107.14 3.89349L105.119 0.000137329L103.097 3.89349C102.865 4.34109 102.416 4.65213 101.896 4.72345L97.3805 5.34705L100.649 8.37859C101.024 8.72605 101.196 9.22979 101.107 9.72139L100.336 14.0002L104.375 11.9807C104.841 11.747 105.396 11.747 105.862 11.9807Z" fill="#F7CD05"/>
<path d="M125.338 11.9807L129.377 14.0002L128.606 9.72139C128.517 9.22979 128.689 8.72756 129.064 8.37859L132.333 5.34705L127.817 4.72345C127.295 4.65213 126.847 4.34109 126.616 3.89349L124.595 0.000137329L122.574 3.89349C122.341 4.34109 121.892 4.65213 121.372 4.72345L116.857 5.34705L120.125 8.37859C120.5 8.72605 120.672 9.22979 120.583 9.72139L119.812 14.0002L123.851 11.9807C124.317 11.747 124.872 11.747 125.338 11.9807Z" fill="#F7CD05"/>
<path d="M144.814 11.9807L148.853 14.0002L148.083 9.72139C147.993 9.22979 148.166 8.72756 148.54 8.37859L151.809 5.34705L147.293 4.72345C146.771 4.65213 146.323 4.34109 146.092 3.89349L144.071 0.000137329L142.05 3.89349C141.817 4.34109 141.369 4.65213 140.849 4.72345L136.333 5.34705L139.601 8.37859C139.976 8.72605 140.148 9.22979 140.059 9.72139L139.289 14.0002L143.327 11.9807C143.793 11.747 144.348 11.747 144.814 11.9807Z" fill="#F7CD05"/>
<path d="M164.29 11.9807L168.329 14.0002L167.559 9.72139C167.469 9.22979 167.642 8.72756 168.016 8.37859L171.285 5.34705L166.769 4.72345C166.247 4.65213 165.799 4.34109 165.568 3.89349L163.547 0.000137329L161.526 3.89349C161.293 4.34109 160.845 4.65213 160.325 4.72345L155.809 5.34705L159.077 8.37859C159.452 8.72605 159.624 9.22979 159.535 9.72139L158.765 14.0002L162.804 11.9807C163.269 11.747 163.824 11.747 164.29 11.9807Z" fill="#E2E3E7"/>
<path d="M183.766 11.9807L187.805 14.0002L187.035 9.72139C186.945 9.22979 187.118 8.72756 187.493 8.37859L190.761 5.34705L186.245 4.72345C185.724 4.65213 185.275 4.34109 185.044 3.89349L183.023 0.000137329L181.002 3.89349C180.769 4.34109 180.321 4.65213 179.801 4.72345L175.285 5.34705L178.553 8.37859C178.928 8.72605 179.101 9.22979 179.011 9.72139L178.241 14.0002L182.28 11.9807C182.745 11.747 183.301 11.747 183.766 11.9807Z" fill="#E2E3E7"/>
</svg>
