<svg width="36" height="14" viewBox="0 0 36 14" fill="none" xmlns="http://www.w3.org/2000/svg">
<path d="M9.23871 11.9805L13.2776 14L12.5071 9.72126C12.4178 9.22966 12.5901 8.72743 12.9649 8.37846L16.2334 5.34692L11.7175 4.72332C11.1959 4.652 10.7477 4.34096 10.5164 3.89336L8.49537 0L6.47432 3.89336C6.24143 4.34096 5.79319 4.652 5.27318 4.72332L0.757324 5.34692L4.02577 8.37846C4.40063 8.72592 4.57291 9.22966 4.48358 9.72126L3.71312 14L7.75203 11.9805C8.21782 11.7468 8.77293 11.7468 9.23871 11.9805Z" fill="#E2E3E7"/>
<path d="M28.7148 11.9805L32.7537 14L31.9832 9.72126C31.8939 9.22966 32.0662 8.72743 32.441 8.37846L35.7095 5.34692L31.1936 4.72332C30.672 4.652 30.2238 4.34096 29.9925 3.89336L27.9714 0L25.9504 3.89336C25.7175 4.34096 25.2693 4.652 24.7493 4.72332L20.2334 5.34692L23.5018 8.37846C23.8767 8.72592 24.049 9.22966 23.9597 9.72126L23.1892 14L27.2281 11.9805C27.6939 11.7468 28.249 11.7468 28.7148 11.9805Z" fill="#E2E3E7"/>
</svg>
