<svg width="36" height="14" viewBox="0 0 36 14" fill="none" xmlns="http://www.w3.org/2000/svg">
<path d="M9.23871 11.9805L13.2776 14L12.5071 9.72127C12.4178 9.22967 12.5901 8.72744 12.9649 8.37847L16.2334 5.34693L11.7175 4.72333C11.1959 4.65201 10.7477 4.34097 10.5164 3.89337L8.49537 1.52588e-05L6.47432 3.89337C6.24143 4.34097 5.79319 4.65201 5.27318 4.72333L0.757324 5.34693L4.02577 8.37847C4.40063 8.72593 4.57291 9.22967 4.48358 9.72127L3.71312 14L7.75203 11.9805C8.21782 11.7468 8.77293 11.7468 9.23871 11.9805Z" fill="#F7CD05"/>
<path d="M28.7148 11.9805L32.7537 14L31.9832 9.72127C31.8939 9.22967 32.0662 8.72744 32.441 8.37847L35.7095 5.34693L31.1936 4.72333C30.672 4.65201 30.2238 4.34097 29.9925 3.89337L27.9714 1.52588e-05L25.9504 3.89337C25.7175 4.34097 25.2693 4.65201 24.7493 4.72333L20.2334 5.34693L23.5018 8.37847C23.8767 8.72593 24.049 9.22967 23.9597 9.72127L23.1892 14L27.2281 11.9805C27.6939 11.7468 28.249 11.7468 28.7148 11.9805Z" fill="#E2E3E7"/>
</svg>
