<svg width="152" height="14" viewBox="0 0 152 14" fill="none" xmlns="http://www.w3.org/2000/svg">
<path d="M8.52729 11.9805L12.5662 14L11.7957 9.72126C11.7064 9.22966 11.8787 8.72743 12.2535 8.37846L15.522 5.34692L11.0061 4.72332C10.4845 4.652 10.0363 4.34096 9.805 3.89336L7.78395 0L5.7629 3.89336C5.53001 4.34096 5.08177 4.652 4.56176 4.72332L0.0458984 5.34692L3.31435 8.37846C3.68921 8.72592 3.86149 9.22966 3.77216 9.72126L3.0017 14L7.04061 11.9805C7.5064 11.7468 8.06151 11.7468 8.52729 11.9805Z" fill="#E2E3E7"/>
<path d="M28.0034 11.9805L32.0423 14L31.2718 9.72126C31.1825 9.22966 31.3548 8.72743 31.7296 8.37846L34.9981 5.34692L30.4822 4.72332C29.9606 4.652 29.5124 4.34096 29.2811 3.89336L27.2601 0L25.239 3.89336C25.0061 4.34096 24.5579 4.652 24.0379 4.72332L19.522 5.34692L22.7905 8.37846C23.1653 8.72592 23.3376 9.22966 23.2483 9.72126L22.4778 14L26.5167 11.9805C26.9825 11.7468 27.5376 11.7468 28.0034 11.9805Z" fill="#E2E3E7"/>
<path d="M47.4795 11.9805L51.5184 14L50.7479 9.72126C50.6586 9.22966 50.8309 8.72743 51.2057 8.37846L54.4742 5.34692L49.9583 4.72332C49.4367 4.652 48.9885 4.34096 48.7572 3.89336L46.7362 0L44.7151 3.89336C44.4822 4.34096 44.034 4.652 43.514 4.72332L38.9981 5.34692L42.2666 8.37846C42.6414 8.72592 42.8137 9.22966 42.7244 9.72126L41.9539 14L45.9928 11.9805C46.4586 11.7468 47.0137 11.7468 47.4795 11.9805Z" fill="#E2E3E7"/>
<path d="M66.9556 11.9805L70.9945 14L70.224 9.72126C70.1347 9.22966 70.307 8.72743 70.6818 8.37846L73.9503 5.34692L69.4344 4.72332C68.9128 4.652 68.4646 4.34096 68.2333 3.89336L66.2122 0L64.1912 3.89336C63.9583 4.34096 63.5101 4.652 62.9901 4.72332L58.4742 5.34692L61.7426 8.37846C62.1175 8.72592 62.2898 9.22966 62.2005 9.72126L61.43 14L65.4689 11.9805C65.9347 11.7468 66.4898 11.7468 66.9556 11.9805Z" fill="#E2E3E7"/>
<path d="M86.4317 11.9805L90.4706 14L89.7001 9.72126C89.6108 9.22966 89.7831 8.72743 90.1579 8.37846L93.4264 5.34692L88.9105 4.72332C88.3889 4.652 87.9407 4.34096 87.7094 3.89336L85.6884 0L83.6673 3.89336C83.4344 4.34096 82.9862 4.652 82.4662 4.72332L77.9503 5.34692L81.2188 8.37846C81.5936 8.72592 81.7659 9.22966 81.6766 9.72126L80.9061 14L84.945 11.9805C85.4108 11.7468 85.9659 11.7468 86.4317 11.9805Z" fill="#E2E3E7"/>
<path d="M105.908 11.9805L109.947 14L109.176 9.72126C109.087 9.22966 109.259 8.72743 109.634 8.37846L112.902 5.34692L108.387 4.72332C107.865 4.652 107.417 4.34096 107.185 3.89336L105.164 0L103.143 3.89336C102.911 4.34096 102.462 4.652 101.942 4.72332L97.4264 5.34692L100.695 8.37846C101.07 8.72592 101.242 9.22966 101.153 9.72126L100.382 14L104.421 11.9805C104.887 11.7468 105.442 11.7468 105.908 11.9805Z" fill="#E2E3E7"/>
<path d="M125.384 11.9805L129.423 14L128.652 9.72126C128.563 9.22966 128.735 8.72743 129.11 8.37846L132.379 5.34692L127.863 4.72332C127.341 4.652 126.893 4.34096 126.662 3.89336L124.641 0L122.619 3.89336C122.387 4.34096 121.938 4.652 121.418 4.72332L116.902 5.34692L120.171 8.37846C120.546 8.72592 120.718 9.22966 120.629 9.72126L119.858 14L123.897 11.9805C124.363 11.7468 124.918 11.7468 125.384 11.9805Z" fill="#E2E3E7"/>
<path d="M144.86 11.9805L148.899 14L148.128 9.72126C148.039 9.22966 148.211 8.72743 148.586 8.37846L151.855 5.34692L147.339 4.72332C146.817 4.652 146.369 4.34096 146.138 3.89336L144.117 0L142.096 3.89336C141.863 4.34096 141.414 4.652 140.894 4.72332L136.379 5.34692L139.647 8.37846C140.022 8.72592 140.194 9.22966 140.105 9.72126L139.334 14L143.373 11.9805C143.839 11.7468 144.394 11.7468 144.86 11.9805Z" fill="#E2E3E7"/>
</svg>
