<svg width="36" height="14" viewBox="0 0 36 14" fill="none" xmlns="http://www.w3.org/2000/svg">
<path d="M9.23871 11.9806L13.2776 14.0001L12.5071 9.72129C12.4178 9.22969 12.5901 8.72746 12.9649 8.37849L16.2334 5.34695L11.7175 4.72335C11.1959 4.65203 10.7477 4.34099 10.5164 3.89339L8.49537 3.43323e-05L6.47432 3.89339C6.24143 4.34099 5.79319 4.65203 5.27318 4.72335L0.757324 5.34695L4.02577 8.37849C4.40063 8.72595 4.57291 9.22969 4.48358 9.72129L3.71312 14.0001L7.75203 11.9806C8.21782 11.7469 8.77293 11.7469 9.23871 11.9806Z" fill="#F7CD05"/>
<path d="M28.7148 11.9806L32.7537 14.0001L31.9832 9.72129C31.8939 9.22969 32.0662 8.72746 32.441 8.37849L35.7095 5.34695L31.1936 4.72335C30.672 4.65203 30.2238 4.34099 29.9925 3.89339L27.9714 3.43323e-05L25.9504 3.89339C25.7175 4.34099 25.2693 4.65203 24.7493 4.72335L20.2334 5.34695L23.5018 8.37849C23.8767 8.72595 24.049 9.22969 23.9597 9.72129L23.1892 14.0001L27.2281 11.9806C27.6939 11.7469 28.249 11.7469 28.7148 11.9806Z" fill="#F7CD05"/>
</svg>
