<svg width="173" height="14" viewBox="0 0 173 14" fill="none" xmlns="http://www.w3.org/2000/svg">
<path d="M9.24238 11.9806L13.2813 14.0001L12.5108 9.72134C12.4215 9.22974 12.5938 8.72751 12.9686 8.37854L16.2371 5.347L11.7212 4.7234C11.1996 4.65208 10.7514 4.34104 10.5201 3.89344L8.49904 8.39233e-05L6.47799 3.89344C6.2451 4.34104 5.79686 4.65208 5.27685 4.7234L0.760986 5.347L4.02944 8.37854C4.4043 8.726 4.57658 9.22974 4.48725 9.72134L3.71679 14.0001L7.7557 11.9806C8.22149 11.7469 8.7766 11.7469 9.24238 11.9806Z" fill="#F7CD05"/>
<path d="M28.7185 11.9806L32.7574 14.0001L31.9869 9.72134C31.8976 9.22974 32.0699 8.72751 32.4447 8.37854L35.7132 5.347L31.1973 4.7234C30.6757 4.65208 30.2275 4.34104 29.9962 3.89344L27.9751 8.39233e-05L25.9541 3.89344C25.7212 4.34104 25.273 4.65208 24.753 4.7234L20.2371 5.347L23.5055 8.37854C23.8804 8.726 24.0527 9.22974 23.9634 9.72134L23.1929 14.0001L27.2318 11.9806C27.6976 11.7469 28.2527 11.7469 28.7185 11.9806Z" fill="#F7CD05"/>
<path d="M48.1946 11.9806L52.2335 14.0001L51.463 9.72134C51.3737 9.22974 51.546 8.72751 51.9208 8.37854L55.1893 5.347L50.6734 4.7234C50.1518 4.65208 49.7036 4.34104 49.4723 3.89344L47.4512 8.39233e-05L45.4302 3.89344C45.1973 4.34104 44.7491 4.65208 44.2291 4.7234L39.7132 5.347L42.9816 8.37854C43.3565 8.726 43.5288 9.22974 43.4395 9.72134L42.669 14.0001L46.7079 11.9806C47.1737 11.7469 47.7288 11.7469 48.1946 11.9806Z" fill="#F7CD05"/>
<path d="M67.6707 11.9806L71.7096 14.0001L70.9391 9.72134C70.8498 9.22974 71.0221 8.72751 71.3969 8.37854L74.6654 5.347L70.1495 4.7234C69.6279 4.65208 69.1797 4.34104 68.9484 3.89344L66.9274 8.39233e-05L64.9063 3.89344C64.6734 4.34104 64.2252 4.65208 63.7052 4.7234L59.1893 5.347L62.4578 8.37854C62.8326 8.726 63.0049 9.22974 62.9156 9.72134L62.1451 14.0001L66.184 11.9806C66.6498 11.7469 67.2049 11.7469 67.6707 11.9806Z" fill="#F7CD05"/>
<path d="M87.1468 11.9806L91.1857 14.0001L90.4152 9.72134C90.3259 9.22974 90.4982 8.72751 90.873 8.37854L94.1415 5.347L89.6256 4.7234C89.104 4.65208 88.6558 4.34104 88.4245 3.89344L86.4035 8.39233e-05L84.3824 3.89344C84.1495 4.34104 83.7013 4.65208 83.1813 4.7234L78.6654 5.347L81.9339 8.37854C82.3087 8.726 82.481 9.22974 82.3917 9.72134L81.6212 14.0001L85.6601 11.9806C86.1259 11.7469 86.681 11.7469 87.1468 11.9806Z" fill="#F7CD05"/>
<path d="M106.623 11.9806L110.662 14.0001L109.891 9.72134C109.802 9.22974 109.974 8.72751 110.349 8.37854L113.618 5.347L109.102 4.7234C108.58 4.65208 108.132 4.34104 107.901 3.89344L105.88 8.39233e-05L103.858 3.89344C103.626 4.34104 103.177 4.65208 102.657 4.7234L98.1415 5.347L101.41 8.37854C101.785 8.726 101.957 9.22974 101.868 9.72134L101.097 14.0001L105.136 11.9806C105.602 11.7469 106.157 11.7469 106.623 11.9806Z" fill="#E2E3E7"/>
<path d="M126.099 11.9806L130.138 14.0001L129.367 9.72134C129.278 9.22974 129.45 8.72751 129.825 8.37854L133.094 5.347L128.578 4.7234C128.056 4.65208 127.608 4.34104 127.377 3.89344L125.356 8.39233e-05L123.335 3.89344C123.102 4.34104 122.653 4.65208 122.133 4.7234L117.618 5.347L120.886 8.37854C121.261 8.726 121.433 9.22974 121.344 9.72134L120.573 14.0001L124.612 11.9806C125.078 11.7469 125.633 11.7469 126.099 11.9806Z" fill="#E2E3E7"/>
<path d="M145.575 11.9806L149.614 14.0001L148.843 9.72134C148.754 9.22974 148.926 8.72751 149.301 8.37854L152.57 5.347L148.054 4.7234C147.532 4.65208 147.084 4.34104 146.853 3.89344L144.832 8.39233e-05L142.811 3.89344C142.578 4.34104 142.13 4.65208 141.61 4.7234L137.094 5.347L140.362 8.37854C140.737 8.726 140.909 9.22974 140.82 9.72134L140.049 14.0001L144.088 11.9806C144.554 11.7469 145.109 11.7469 145.575 11.9806Z" fill="#E2E3E7"/>
<path d="M165.051 11.9806L169.09 14.0001L168.32 9.72134C168.23 9.22974 168.403 8.72751 168.777 8.37854L172.046 5.347L167.53 4.7234C167.008 4.65208 166.56 4.34104 166.329 3.89344L164.308 8.39233e-05L162.287 3.89344C162.054 4.34104 161.606 4.65208 161.086 4.7234L156.57 5.347L159.838 8.37854C160.213 8.726 160.385 9.22974 160.296 9.72134L159.526 14.0001L163.565 11.9806C164.03 11.7469 164.585 11.7469 165.051 11.9806Z" fill="#E2E3E7"/>
</svg>
