<svg width="114" height="14" viewBox="0 0 114 14" fill="none" xmlns="http://www.w3.org/2000/svg">
<path d="M8.66883 11.9806L12.7077 14.0001L11.9372 9.72132C11.8479 9.22972 12.0202 8.7275 12.395 8.37853L15.6635 5.34699L11.1476 4.72339C10.626 4.65207 10.1778 4.34103 9.94654 3.89343L7.92549 6.86646e-05L5.90444 3.89343C5.67155 4.34103 5.22331 4.65207 4.7033 4.72339L0.187439 5.34699L3.45589 8.37853C3.83075 8.72599 4.00303 9.22972 3.9137 9.72132L3.14324 14.0001L7.18215 11.9806C7.64794 11.7469 8.20305 11.7469 8.66883 11.9806Z" fill="#F7CD05"/>
<path d="M28.1449 11.9806L32.1838 14.0001L31.4133 9.72132C31.324 9.22972 31.4963 8.7275 31.8711 8.37853L35.1396 5.34699L30.6237 4.72339C30.1021 4.65207 29.6539 4.34103 29.4226 3.89343L27.4016 6.86646e-05L25.3805 3.89343C25.1477 4.34103 24.6994 4.65207 24.1794 4.72339L19.6635 5.34699L22.932 8.37853C23.3069 8.72599 23.4791 9.22972 23.3898 9.72132L22.6193 14.0001L26.6583 11.9806C27.124 11.7469 27.6792 11.7469 28.1449 11.9806Z" fill="#F7CD05"/>
<path d="M47.621 11.9806L51.6599 14.0001L50.8894 9.72132C50.8001 9.22972 50.9724 8.7275 51.3472 8.37853L54.6157 5.34699L50.0998 4.72339C49.5782 4.65207 49.13 4.34103 48.8987 3.89343L46.8777 6.86646e-05L44.8566 3.89343C44.6238 4.34103 44.1755 4.65207 43.6555 4.72339L39.1396 5.34699L42.4081 8.37853C42.783 8.72599 42.9552 9.22972 42.8659 9.72132L42.0954 14.0001L46.1344 11.9806C46.6001 11.7469 47.1553 11.7469 47.621 11.9806Z" fill="#F7CD05"/>
<path d="M67.0971 11.9806L71.136 14.0001L70.3655 9.72132C70.2762 9.22972 70.4485 8.7275 70.8233 8.37853L74.0918 5.34699L69.5759 4.72339C69.0543 4.65207 68.6061 4.34103 68.3748 3.89343L66.3538 6.86646e-05L64.3327 3.89343C64.0998 4.34103 63.6516 4.65207 63.1316 4.72339L58.6157 5.34699L61.8842 8.37853C62.259 8.72599 62.4313 9.22972 62.342 9.72132L61.5715 14.0001L65.6104 11.9806C66.0762 11.7469 66.6313 11.7469 67.0971 11.9806Z" fill="#F7CD05"/>
<path d="M86.5732 11.9806L90.6121 14.0001L89.8416 9.72132C89.7523 9.22972 89.9246 8.7275 90.2994 8.37853L93.5679 5.34699L89.052 4.72339C88.5304 4.65207 88.0822 4.34103 87.8509 3.89343L85.8299 6.86646e-05L83.8088 3.89343C83.576 4.34103 83.1277 4.65207 82.6077 4.72339L78.0918 5.34699L81.3603 8.37853C81.7352 8.72599 81.9074 9.22972 81.8181 9.72132L81.0476 14.0001L85.0866 11.9806C85.5523 11.7469 86.1075 11.7469 86.5732 11.9806Z" fill="#E2E3E7"/>
<path d="M106.049 11.9806L110.088 14.0001L109.318 9.72132C109.228 9.22972 109.401 8.7275 109.776 8.37853L113.044 5.34699L108.528 4.72339C108.007 4.65207 107.558 4.34103 107.327 3.89343L105.306 6.86646e-05L103.285 3.89343C103.052 4.34103 102.604 4.65207 102.084 4.72339L97.5679 5.34699L100.836 8.37853C101.211 8.72599 101.384 9.22972 101.294 9.72132L100.524 14.0001L104.563 11.9806C105.028 11.7469 105.584 11.7469 106.049 11.9806Z" fill="#E2E3E7"/>
</svg>
