<svg width="114" height="14" viewBox="0 0 114 14" fill="none" xmlns="http://www.w3.org/2000/svg">
<path d="M8.66883 11.9806L12.7077 14.0001L11.9372 9.72136C11.8479 9.22976 12.0202 8.72753 12.395 8.37856L15.6635 5.34702L11.1476 4.72342C10.626 4.6521 10.1778 4.34106 9.94654 3.89346L7.92549 0.000106812L5.90444 3.89346C5.67155 4.34106 5.22331 4.6521 4.7033 4.72342L0.187439 5.34702L3.45589 8.37856C3.83075 8.72602 4.00303 9.22976 3.9137 9.72136L3.14324 14.0001L7.18215 11.9806C7.64794 11.7469 8.20305 11.7469 8.66883 11.9806Z" fill="#F7CD05"/>
<path d="M28.1449 11.9806L32.1838 14.0001L31.4133 9.72136C31.324 9.22976 31.4963 8.72753 31.8711 8.37856L35.1396 5.34702L30.6237 4.72342C30.1021 4.6521 29.6539 4.34106 29.4226 3.89346L27.4016 0.000106812L25.3805 3.89346C25.1477 4.34106 24.6994 4.6521 24.1794 4.72342L19.6635 5.34702L22.932 8.37856C23.3069 8.72602 23.4791 9.22976 23.3898 9.72136L22.6193 14.0001L26.6583 11.9806C27.124 11.7469 27.6792 11.7469 28.1449 11.9806Z" fill="#F7CD05"/>
<path d="M47.621 11.9806L51.6599 14.0001L50.8894 9.72136C50.8001 9.22976 50.9724 8.72753 51.3472 8.37856L54.6157 5.34702L50.0998 4.72342C49.5782 4.6521 49.13 4.34106 48.8987 3.89346L46.8777 0.000106812L44.8566 3.89346C44.6238 4.34106 44.1755 4.6521 43.6555 4.72342L39.1396 5.34702L42.4081 8.37856C42.783 8.72602 42.9552 9.22976 42.8659 9.72136L42.0954 14.0001L46.1344 11.9806C46.6001 11.7469 47.1553 11.7469 47.621 11.9806Z" fill="#F7CD05"/>
<path d="M67.0971 11.9806L71.136 14.0001L70.3655 9.72136C70.2762 9.22976 70.4485 8.72753 70.8233 8.37856L74.0918 5.34702L69.5759 4.72342C69.0543 4.6521 68.6061 4.34106 68.3748 3.89346L66.3538 0.000106812L64.3327 3.89346C64.0998 4.34106 63.6516 4.6521 63.1316 4.72342L58.6157 5.34702L61.8842 8.37856C62.259 8.72602 62.4313 9.22976 62.342 9.72136L61.5715 14.0001L65.6104 11.9806C66.0762 11.7469 66.6313 11.7469 67.0971 11.9806Z" fill="#F7CD05"/>
<path d="M86.5732 11.9806L90.6121 14.0001L89.8416 9.72136C89.7523 9.22976 89.9246 8.72753 90.2994 8.37856L93.5679 5.34702L89.052 4.72342C88.5304 4.6521 88.0822 4.34106 87.8509 3.89346L85.8299 0.000106812L83.8088 3.89346C83.576 4.34106 83.1277 4.6521 82.6077 4.72342L78.0918 5.34702L81.3603 8.37856C81.7352 8.72602 81.9074 9.22976 81.8181 9.72136L81.0476 14.0001L85.0866 11.9806C85.5523 11.7469 86.1075 11.7469 86.5732 11.9806Z" fill="#F7CD05"/>
<path d="M106.049 11.9806L110.088 14.0001L109.318 9.72136C109.228 9.22976 109.401 8.72753 109.776 8.37856L113.044 5.34702L108.528 4.72342C108.007 4.6521 107.558 4.34106 107.327 3.89346L105.306 0.000106812L103.285 3.89346C103.052 4.34106 102.604 4.6521 102.084 4.72342L97.5679 5.34702L100.836 8.37856C101.211 8.72602 101.384 9.22976 101.294 9.72136L100.524 14.0001L104.563 11.9806C105.028 11.7469 105.584 11.7469 106.049 11.9806Z" fill="#F7CD05"/>
</svg>
