<svg width="152" height="14" viewBox="0 0 152 14" fill="none" xmlns="http://www.w3.org/2000/svg">
<path d="M8.52729 11.9806L12.5662 14.0001L11.7957 9.72136C11.7064 9.22976 11.8787 8.72753 12.2535 8.37856L15.522 5.34702L11.0061 4.72342C10.4845 4.6521 10.0363 4.34106 9.805 3.89346L7.78395 0.000106812L5.7629 3.89346C5.53001 4.34106 5.08177 4.6521 4.56176 4.72342L0.0458984 5.34702L3.31435 8.37856C3.68921 8.72602 3.86149 9.22976 3.77216 9.72136L3.0017 14.0001L7.04061 11.9806C7.5064 11.7469 8.06151 11.7469 8.52729 11.9806Z" fill="#F7CD05"/>
<path d="M28.0034 11.9806L32.0423 14.0001L31.2718 9.72136C31.1825 9.22976 31.3548 8.72753 31.7296 8.37856L34.9981 5.34702L30.4822 4.72342C29.9606 4.6521 29.5124 4.34106 29.2811 3.89346L27.2601 0.000106812L25.239 3.89346C25.0061 4.34106 24.5579 4.6521 24.0379 4.72342L19.522 5.34702L22.7905 8.37856C23.1653 8.72602 23.3376 9.22976 23.2483 9.72136L22.4778 14.0001L26.5167 11.9806C26.9825 11.7469 27.5376 11.7469 28.0034 11.9806Z" fill="#F7CD05"/>
<path d="M47.4795 11.9806L51.5184 14.0001L50.7479 9.72136C50.6586 9.22976 50.8309 8.72753 51.2057 8.37856L54.4742 5.34702L49.9583 4.72342C49.4367 4.6521 48.9885 4.34106 48.7572 3.89346L46.7362 0.000106812L44.7151 3.89346C44.4822 4.34106 44.034 4.6521 43.514 4.72342L38.9981 5.34702L42.2666 8.37856C42.6414 8.72602 42.8137 9.22976 42.7244 9.72136L41.9539 14.0001L45.9928 11.9806C46.4586 11.7469 47.0137 11.7469 47.4795 11.9806Z" fill="#F7CD05"/>
<path d="M66.9556 11.9806L70.9945 14.0001L70.224 9.72136C70.1347 9.22976 70.307 8.72753 70.6818 8.37856L73.9503 5.34702L69.4344 4.72342C68.9128 4.6521 68.4646 4.34106 68.2333 3.89346L66.2122 0.000106812L64.1912 3.89346C63.9583 4.34106 63.5101 4.6521 62.9901 4.72342L58.4742 5.34702L61.7426 8.37856C62.1175 8.72602 62.2898 9.22976 62.2005 9.72136L61.43 14.0001L65.4689 11.9806C65.9347 11.7469 66.4898 11.7469 66.9556 11.9806Z" fill="#F7CD05"/>
<path d="M86.4317 11.9806L90.4706 14.0001L89.7001 9.72136C89.6108 9.22976 89.7831 8.72753 90.1579 8.37856L93.4264 5.34702L88.9105 4.72342C88.3889 4.6521 87.9407 4.34106 87.7094 3.89346L85.6884 0.000106812L83.6673 3.89346C83.4344 4.34106 82.9862 4.6521 82.4662 4.72342L77.9503 5.34702L81.2188 8.37856C81.5936 8.72602 81.7659 9.22976 81.6766 9.72136L80.9061 14.0001L84.945 11.9806C85.4108 11.7469 85.9659 11.7469 86.4317 11.9806Z" fill="#F7CD05"/>
<path d="M105.908 11.9806L109.947 14.0001L109.176 9.72136C109.087 9.22976 109.259 8.72753 109.634 8.37856L112.902 5.34702L108.387 4.72342C107.865 4.6521 107.417 4.34106 107.185 3.89346L105.164 0.000106812L103.143 3.89346C102.911 4.34106 102.462 4.6521 101.942 4.72342L97.4264 5.34702L100.695 8.37856C101.07 8.72602 101.242 9.22976 101.153 9.72136L100.382 14.0001L104.421 11.9806C104.887 11.7469 105.442 11.7469 105.908 11.9806Z" fill="#F7CD05"/>
<path d="M125.384 11.9806L129.423 14.0001L128.652 9.72136C128.563 9.22976 128.735 8.72753 129.11 8.37856L132.379 5.34702L127.863 4.72342C127.341 4.6521 126.893 4.34106 126.662 3.89346L124.641 0.000106812L122.619 3.89346C122.387 4.34106 121.938 4.6521 121.418 4.72342L116.902 5.34702L120.171 8.37856C120.546 8.72602 120.718 9.22976 120.629 9.72136L119.858 14.0001L123.897 11.9806C124.363 11.7469 124.918 11.7469 125.384 11.9806Z" fill="#E2E3E7"/>
<path d="M144.86 11.9806L148.899 14.0001L148.128 9.72136C148.039 9.22976 148.211 8.72753 148.586 8.37856L151.855 5.34702L147.339 4.72342C146.817 4.6521 146.369 4.34106 146.138 3.89346L144.117 0.000106812L142.096 3.89346C141.863 4.34106 141.414 4.6521 140.894 4.72342L136.379 5.34702L139.647 8.37856C140.022 8.72602 140.194 9.22976 140.105 9.72136L139.334 14.0001L143.373 11.9806C143.839 11.7469 144.394 11.7469 144.86 11.9806Z" fill="#E2E3E7"/>
</svg>
