<svg width="55" height="14" viewBox="0 0 55 14" fill="none" xmlns="http://www.w3.org/2000/svg">
<path d="M8.81037 11.9805L12.8493 14L12.0788 9.72126C11.9895 9.22966 12.1618 8.72743 12.5366 8.37846L15.8051 5.34692L11.2892 4.72332C10.7676 4.652 10.3194 4.34096 10.0881 3.89336L8.06703 0L6.04598 3.89336C5.81309 4.34096 5.36485 4.652 4.84484 4.72332L0.328979 5.34692L3.59743 8.37846C3.97229 8.72592 4.14457 9.22966 4.05524 9.72126L3.28478 14L7.32369 11.9805C7.78948 11.7468 8.34459 11.7468 8.81037 11.9805Z" fill="#E2E3E7"/>
<path d="M28.2865 11.9805L32.3254 14L31.5549 9.72126C31.4656 9.22966 31.6379 8.72743 32.0127 8.37846L35.2812 5.34692L30.7653 4.72332C30.2437 4.652 29.7955 4.34096 29.5642 3.89336L27.5431 0L25.5221 3.89336C25.2892 4.34096 24.841 4.652 24.3209 4.72332L19.8051 5.34692L23.0735 8.37846C23.4484 8.72592 23.6207 9.22966 23.5313 9.72126L22.7609 14L26.7998 11.9805C27.2656 11.7468 27.8207 11.7468 28.2865 11.9805Z" fill="#E2E3E7"/>
<path d="M47.7626 11.9805L51.8015 14L51.031 9.72126C50.9417 9.22966 51.114 8.72743 51.4888 8.37846L54.7573 5.34692L50.2414 4.72332C49.7198 4.652 49.2716 4.34096 49.0403 3.89336L47.0192 0L44.9982 3.89336C44.7653 4.34096 44.3171 4.652 43.797 4.72332L39.2812 5.34692L42.5496 8.37846C42.9245 8.72592 43.0968 9.22966 43.0074 9.72126L42.237 14L46.2759 11.9805C46.7417 11.7468 47.2968 11.7468 47.7626 11.9805Z" fill="#E2E3E7"/>
</svg>
