<svg width="134" height="14" viewBox="0 0 134 14" fill="none" xmlns="http://www.w3.org/2000/svg">
<path d="M9.33613 11.9805L13.375 14L12.6045 9.72127C12.5152 9.22967 12.6875 8.72744 13.0623 8.37847L16.3308 5.34693L11.8149 4.72333C11.2933 4.65201 10.8451 4.34097 10.6138 3.89337L8.59279 1.52588e-05L6.57174 3.89337C6.33885 4.34097 5.89061 4.65201 5.3706 4.72333L0.854736 5.34693L4.12319 8.37847C4.49805 8.72593 4.67033 9.22967 4.581 9.72127L3.81054 14L7.84945 11.9805C8.31524 11.7468 8.87035 11.7468 9.33613 11.9805Z" fill="#F7CD05"/>
<path d="M28.8122 11.9805L32.8511 14L32.0806 9.72127C31.9913 9.22967 32.1636 8.72744 32.5384 8.37847L35.8069 5.34693L31.291 4.72333C30.7694 4.65201 30.3212 4.34097 30.0899 3.89337L28.0689 1.52588e-05L26.0478 3.89337C25.8149 4.34097 25.3667 4.65201 24.8467 4.72333L20.3308 5.34693L23.5993 8.37847C23.9741 8.72593 24.1464 9.22967 24.0571 9.72127L23.2866 14L27.3255 11.9805C27.7913 11.7468 28.3464 11.7468 28.8122 11.9805Z" fill="#E2E3E7"/>
<path d="M48.2883 11.9805L52.3272 14L51.5567 9.72127C51.4674 9.22967 51.6397 8.72744 52.0145 8.37847L55.283 5.34693L50.7671 4.72333C50.2455 4.65201 49.7973 4.34097 49.566 3.89337L47.545 1.52588e-05L45.5239 3.89337C45.291 4.34097 44.8428 4.65201 44.3228 4.72333L39.8069 5.34693L43.0754 8.37847C43.4502 8.72593 43.6225 9.22967 43.5332 9.72127L42.7627 14L46.8016 11.9805C47.2674 11.7468 47.8225 11.7468 48.2883 11.9805Z" fill="#E2E3E7"/>
<path d="M67.7644 11.9805L71.8033 14L71.0328 9.72127C70.9435 9.22967 71.1158 8.72744 71.4906 8.37847L74.7591 5.34693L70.2432 4.72333C69.7216 4.65201 69.2734 4.34097 69.0421 3.89337L67.0211 1.52588e-05L65 3.89337C64.7671 4.34097 64.3189 4.65201 63.7989 4.72333L59.283 5.34693L62.5515 8.37847C62.9263 8.72593 63.0986 9.22967 63.0093 9.72127L62.2388 14L66.2777 11.9805C66.7435 11.7468 67.2986 11.7468 67.7644 11.9805Z" fill="#E2E3E7"/>
<path d="M87.2405 11.9805L91.2794 14L90.5089 9.72127C90.4196 9.22967 90.5919 8.72744 90.9667 8.37847L94.2352 5.34693L89.7193 4.72333C89.1977 4.65201 88.7495 4.34097 88.5182 3.89337L86.4972 1.52588e-05L84.4761 3.89337C84.2433 4.34097 83.795 4.65201 83.275 4.72333L78.7591 5.34693L82.0276 8.37847C82.4025 8.72593 82.5747 9.22967 82.4854 9.72127L81.7149 14L85.7538 11.9805C86.2196 11.7468 86.7748 11.7468 87.2405 11.9805Z" fill="#E2E3E7"/>
<path d="M106.717 11.9805L110.756 14L109.985 9.72127C109.896 9.22967 110.068 8.72744 110.443 8.37847L113.711 5.34693L109.195 4.72333C108.674 4.65201 108.226 4.34097 107.994 3.89337L105.973 1.52588e-05L103.952 3.89337C103.719 4.34097 103.271 4.65201 102.751 4.72333L98.2352 5.34693L101.504 8.37847C101.879 8.72593 102.051 9.22967 101.961 9.72127L101.191 14L105.23 11.9805C105.696 11.7468 106.251 11.7468 106.717 11.9805Z" fill="#E2E3E7"/>
<path d="M126.193 11.9805L130.232 14L129.461 9.72127C129.372 9.22967 129.544 8.72744 129.919 8.37847L133.187 5.34693L128.672 4.72333C128.15 4.65201 127.702 4.34097 127.47 3.89337L125.449 1.52588e-05L123.428 3.89337C123.195 4.34097 122.747 4.65201 122.227 4.72333L117.711 5.34693L120.98 8.37847C121.355 8.72593 121.527 9.22967 121.438 9.72127L120.667 14L124.706 11.9805C125.172 11.7468 125.727 11.7468 126.193 11.9805Z" fill="#E2E3E7"/>
</svg>
