<svg width="173" height="14" viewBox="0 0 173 14" fill="none" xmlns="http://www.w3.org/2000/svg">
<path d="M9.24238 11.9807L13.2813 14.0002L12.5108 9.72139C12.4215 9.22979 12.5938 8.72756 12.9686 8.37859L16.2371 5.34705L11.7212 4.72345C11.1996 4.65213 10.7514 4.34109 10.5201 3.89349L8.49904 0.000137329L6.47799 3.89349C6.2451 4.34109 5.79686 4.65213 5.27685 4.72345L0.760986 5.34705L4.02944 8.37859C4.4043 8.72605 4.57658 9.22979 4.48725 9.72139L3.71679 14.0002L7.7557 11.9807C8.22149 11.747 8.7766 11.747 9.24238 11.9807Z" fill="#F7CD05"/>
<path d="M28.7185 11.9807L32.7574 14.0002L31.9869 9.72139C31.8976 9.22979 32.0699 8.72756 32.4447 8.37859L35.7132 5.34705L31.1973 4.72345C30.6757 4.65213 30.2275 4.34109 29.9962 3.89349L27.9751 0.000137329L25.9541 3.89349C25.7212 4.34109 25.273 4.65213 24.753 4.72345L20.2371 5.34705L23.5055 8.37859C23.8804 8.72605 24.0527 9.22979 23.9634 9.72139L23.1929 14.0002L27.2318 11.9807C27.6976 11.747 28.2527 11.747 28.7185 11.9807Z" fill="#F7CD05"/>
<path d="M48.1946 11.9807L52.2335 14.0002L51.463 9.72139C51.3737 9.22979 51.546 8.72756 51.9208 8.37859L55.1893 5.34705L50.6734 4.72345C50.1518 4.65213 49.7036 4.34109 49.4723 3.89349L47.4512 0.000137329L45.4302 3.89349C45.1973 4.34109 44.7491 4.65213 44.2291 4.72345L39.7132 5.34705L42.9816 8.37859C43.3565 8.72605 43.5288 9.22979 43.4395 9.72139L42.669 14.0002L46.7079 11.9807C47.1737 11.747 47.7288 11.747 48.1946 11.9807Z" fill="#F7CD05"/>
<path d="M67.6707 11.9807L71.7096 14.0002L70.9391 9.72139C70.8498 9.22979 71.0221 8.72756 71.3969 8.37859L74.6654 5.34705L70.1495 4.72345C69.6279 4.65213 69.1797 4.34109 68.9484 3.89349L66.9274 0.000137329L64.9063 3.89349C64.6734 4.34109 64.2252 4.65213 63.7052 4.72345L59.1893 5.34705L62.4578 8.37859C62.8326 8.72605 63.0049 9.22979 62.9156 9.72139L62.1451 14.0002L66.184 11.9807C66.6498 11.747 67.2049 11.747 67.6707 11.9807Z" fill="#F7CD05"/>
<path d="M87.1468 11.9807L91.1857 14.0002L90.4152 9.72139C90.3259 9.22979 90.4982 8.72756 90.873 8.37859L94.1415 5.34705L89.6256 4.72345C89.104 4.65213 88.6558 4.34109 88.4245 3.89349L86.4035 0.000137329L84.3824 3.89349C84.1495 4.34109 83.7013 4.65213 83.1813 4.72345L78.6654 5.34705L81.9339 8.37859C82.3087 8.72605 82.481 9.22979 82.3917 9.72139L81.6212 14.0002L85.6601 11.9807C86.1259 11.747 86.681 11.747 87.1468 11.9807Z" fill="#F7CD05"/>
<path d="M106.623 11.9807L110.662 14.0002L109.891 9.72139C109.802 9.22979 109.974 8.72756 110.349 8.37859L113.618 5.34705L109.102 4.72345C108.58 4.65213 108.132 4.34109 107.901 3.89349L105.88 0.000137329L103.858 3.89349C103.626 4.34109 103.177 4.65213 102.657 4.72345L98.1415 5.34705L101.41 8.37859C101.785 8.72605 101.957 9.22979 101.868 9.72139L101.097 14.0002L105.136 11.9807C105.602 11.747 106.157 11.747 106.623 11.9807Z" fill="#F7CD05"/>
<path d="M126.099 11.9807L130.138 14.0002L129.367 9.72139C129.278 9.22979 129.45 8.72756 129.825 8.37859L133.094 5.34705L128.578 4.72345C128.056 4.65213 127.608 4.34109 127.377 3.89349L125.356 0.000137329L123.335 3.89349C123.102 4.34109 122.653 4.65213 122.133 4.72345L117.618 5.34705L120.886 8.37859C121.261 8.72605 121.433 9.22979 121.344 9.72139L120.573 14.0002L124.612 11.9807C125.078 11.747 125.633 11.747 126.099 11.9807Z" fill="#F7CD05"/>
<path d="M145.575 11.9807L149.614 14.0002L148.843 9.72139C148.754 9.22979 148.926 8.72756 149.301 8.37859L152.57 5.34705L148.054 4.72345C147.532 4.65213 147.084 4.34109 146.853 3.89349L144.832 0.000137329L142.811 3.89349C142.578 4.34109 142.13 4.65213 141.61 4.72345L137.094 5.34705L140.362 8.37859C140.737 8.72605 140.909 9.22979 140.82 9.72139L140.049 14.0002L144.088 11.9807C144.554 11.747 145.109 11.747 145.575 11.9807Z" fill="#F7CD05"/>
<path d="M165.051 11.9807L169.09 14.0002L168.32 9.72139C168.23 9.22979 168.403 8.72756 168.777 8.37859L172.046 5.34705L167.53 4.72345C167.008 4.65213 166.56 4.34109 166.329 3.89349L164.308 0.000137329L162.287 3.89349C162.054 4.34109 161.606 4.65213 161.086 4.72345L156.57 5.34705L159.838 8.37859C160.213 8.72605 160.385 9.22979 160.296 9.72139L159.526 14.0002L163.565 11.9807C164.03 11.747 164.585 11.747 165.051 11.9807Z" fill="#E2E3E7"/>
</svg>
