<?xml version="1.0" encoding="utf-8"?>
<!-- Generator: Adobe Illustrator 24.0.2, SVG Export Plug-In . SVG Version: 6.00 Build 0)  -->
<svg version="1.1" id="Layer_1" xmlns="http://www.w3.org/2000/svg" xmlns:xlink="http://www.w3.org/1999/xlink" x="0px" y="0px"
	 viewBox="0 0 61.62 34" style="enable-background:new 0 0 61.62 34;" xml:space="preserve">
<style type="text/css">
	.st0{fill:#0A66C2;}
</style>
<g>
	<polygon class="st0" points="6.15,8 6.15,16.53 11.48,16.53 11.48,14.81 8.02,14.81 8.02,8 	"/>
	<path class="st0" d="M12.3,10.75h1.8v5.78h-1.8V10.75z M13.2,7.88c0.57,0,1.04,0.47,1.04,1.04c0,0.58-0.47,1.04-1.04,1.04
		c-0.57,0-1.04-0.47-1.04-1.04C12.16,8.34,12.63,7.88,13.2,7.88"/>
	<polygon class="st0" points="21.61,8 23.4,8 23.4,13.1 25.44,10.75 27.64,10.75 25.28,13.43 27.59,16.53 25.33,16.53 23.43,13.68 
		23.4,13.68 23.4,16.53 21.61,16.53 	"/>
	<path class="st0" d="M15.09,10.75h1.72v0.79h0.02c0.24-0.46,0.83-0.93,1.7-0.93c1.82,0,2.16,1.2,2.16,2.75v3.17h-1.8v-2.81
		c0-0.67-0.01-1.53-0.93-1.53c-0.93,0-1.08,0.73-1.08,1.48v2.86h-1.8V10.75z"/>
	<path class="st0" d="M31.42,12.97c0.01-0.6-0.46-1.1-1.1-1.1c-0.79,0-1.22,0.54-1.27,1.1H31.42z M32.94,15.53
		c-0.57,0.73-1.52,1.15-2.45,1.15c-1.8,0-3.23-1.2-3.23-3.05c0-1.86,1.44-3.05,3.23-3.05c1.68,0,2.73,1.2,2.73,3.05v0.56h-4.17
		c0.14,0.68,0.66,1.13,1.35,1.13c0.59,0,0.98-0.3,1.28-0.71L32.94,15.53z"/>
	<path class="st0" d="M36.95,12.15c-0.9,0-1.44,0.6-1.44,1.47c0,0.87,0.54,1.47,1.44,1.47c0.9,0,1.44-0.6,1.44-1.47
		C38.39,12.75,37.85,12.15,36.95,12.15 M40.04,16.53h-1.65v-0.77h-0.02c-0.28,0.42-0.97,0.91-1.78,0.91c-1.72,0-2.86-1.24-2.86-3
		c0-1.62,1.01-3.1,2.66-3.1c0.74,0,1.44,0.2,1.84,0.77h0.02V8h1.8V16.53z"/>
	<path class="st0" d="M53.05,6.21H42.73c-0.49,0-0.89,0.39-0.89,0.87v10.37c0,0.48,0.4,0.87,0.89,0.87h10.32
		c0.49,0,0.9-0.39,0.9-0.87V7.09C53.95,6.6,53.55,6.21,53.05,6.21 M45.43,16.53h-1.8v-5.78h1.8V16.53z M44.53,9.96
		c-0.58,0-1.04-0.47-1.04-1.04c0-0.57,0.47-1.04,1.04-1.04c0.57,0,1.04,0.47,1.04,1.04C45.57,9.5,45.11,9.96,44.53,9.96
		 M52.16,16.53h-1.8v-2.81c0-0.67-0.01-1.53-0.93-1.53c-0.94,0-1.08,0.73-1.08,1.48v2.86h-1.8v-5.78h1.72v0.79h0.02
		c0.24-0.45,0.83-0.93,1.7-0.93c1.82,0,2.16,1.2,2.16,2.75V16.53z"/>
	<path class="st0" d="M9.25,22.97C8.97,22.7,8.48,22.48,8,22.48c-0.62,0-1.12,0.36-1.12,0.93c0,0.42,0.22,0.71,0.85,1.04l0.54,0.3
		c0.91,0.48,1.35,0.87,1.35,1.6c0,0.74-0.6,1.5-1.75,1.5c-0.78,0-1.35-0.29-1.72-0.65l0.29-0.38c0.4,0.39,0.9,0.59,1.44,0.59
		c0.76,0,1.23-0.5,1.23-1.03c0-0.59-0.38-0.84-1.15-1.25l-0.46-0.25c-0.73-0.38-1.13-0.81-1.13-1.43c0-0.88,0.75-1.4,1.61-1.4
		c0.64,0,1.17,0.24,1.54,0.54L9.25,22.97z"/>
	<path class="st0" d="M10.64,25.99c0,0.81,0.54,1.44,1.33,1.44c0.79,0,1.33-0.63,1.33-1.44c0-0.8-0.54-1.43-1.33-1.43
		C11.19,24.56,10.64,25.19,10.64,25.99 M13.28,27.07c-0.22,0.46-0.74,0.79-1.35,0.79c-1,0-1.77-0.78-1.77-1.86
		c0-1.07,0.77-1.85,1.76-1.85c0.62,0,1.15,0.34,1.37,0.79v-0.7h0.47v3.52h-0.48V27.07z"/>
	<polygon class="st0" points="14.76,22.55 14.2,22.55 14.2,22.15 15.23,22.15 15.23,27.76 14.76,27.76 	"/>
	<path class="st0" d="M16.41,25.77h2.56c-0.06-0.68-0.56-1.21-1.27-1.21C16.99,24.56,16.49,25.08,16.41,25.77 M19.35,26.93
		c-0.38,0.66-0.99,0.92-1.65,0.92c-1.04,0-1.79-0.78-1.79-1.85c0-1.07,0.79-1.86,1.79-1.86c0.94,0,1.77,0.66,1.77,1.98v0.02H16.4
		c0.06,0.73,0.57,1.28,1.31,1.28c0.5,0,0.93-0.18,1.24-0.7L19.35,26.93z"/>
	<path class="st0" d="M21.89,26.86c0-0.32-0.21-0.47-0.66-0.64l-0.43-0.16c-0.58-0.22-0.82-0.49-0.82-0.93
		c0-0.56,0.48-0.99,1.2-0.99c0.42,0,0.84,0.14,1.13,0.4l-0.24,0.34c-0.24-0.21-0.56-0.35-0.9-0.35c-0.43,0-0.73,0.22-0.73,0.54
		c0,0.22,0.1,0.4,0.5,0.56l0.5,0.18c0.65,0.26,0.93,0.52,0.93,1.03c0,0.51-0.45,1.01-1.3,1.01c-0.47,0-0.95-0.16-1.26-0.43
		l0.26-0.36c0.26,0.25,0.65,0.39,0.99,0.39C21.58,27.45,21.89,27.19,21.89,26.86"/>
	<polygon class="st0" points="25.28,27.76 24.8,27.76 24.8,22.15 25.52,22.15 28.18,27.11 28.18,22.15 28.66,22.15 28.66,27.76 
		27.99,27.76 25.28,22.7 	"/>
	<path class="st0" d="M29.94,25.99c0,0.81,0.54,1.44,1.33,1.44c0.78,0,1.33-0.63,1.33-1.44c0-0.8-0.54-1.43-1.33-1.43
		C30.48,24.56,29.94,25.19,29.94,25.99 M32.58,27.07c-0.22,0.46-0.74,0.79-1.35,0.79c-1,0-1.77-0.78-1.77-1.86
		c0-1.07,0.77-1.85,1.76-1.85c0.62,0,1.15,0.34,1.37,0.79v-0.7h0.47v3.52h-0.48V27.07z"/>
	<polygon class="st0" points="35.24,27.35 36.37,24.24 36.88,24.24 35.57,27.76 34.91,27.76 33.61,24.24 34.14,24.24 	"/>
	<path class="st0" d="M37.46,22.97c0-0.23,0.18-0.42,0.42-0.42c0.22,0,0.42,0.18,0.42,0.42c0,0.22-0.19,0.41-0.42,0.41
		C37.65,23.38,37.46,23.2,37.46,22.97 M37.67,24.64h-0.55v-0.4h1.03v3.52h-0.48V24.64z"/>
	<path class="st0" d="M39.38,25.99c0,0.81,0.55,1.44,1.33,1.44c0.79,0,1.33-0.63,1.33-1.44c0-0.81-0.54-1.43-1.33-1.43
		C39.94,24.56,39.38,25.18,39.38,25.99 M42.51,24.24v3.44c0,1.09-0.87,1.55-1.81,1.55c-0.5,0-0.99-0.1-1.4-0.32l0.02-0.48
		c0.37,0.22,0.86,0.38,1.36,0.38c0.74,0,1.35-0.34,1.35-1.22v-0.52c-0.22,0.46-0.75,0.79-1.35,0.79c-1,0-1.77-0.77-1.77-1.85
		c0-1.07,0.77-1.85,1.76-1.85c0.62,0,1.15,0.34,1.36,0.79v-0.7H42.51z"/>
	<path class="st0" d="M43.67,25.99c0,0.81,0.54,1.44,1.33,1.44c0.79,0,1.33-0.63,1.33-1.44c0-0.8-0.54-1.43-1.33-1.43
		C44.21,24.56,43.67,25.19,43.67,25.99 M46.31,27.07c-0.22,0.46-0.74,0.79-1.35,0.79c-1,0-1.77-0.78-1.77-1.86
		c0-1.07,0.77-1.85,1.76-1.85c0.62,0,1.15,0.34,1.37,0.79v-0.7h0.47v3.52h-0.48V27.07z"/>
	<path class="st0" d="M48.44,22.76v1.47h0.87v0.4h-0.87v2.38c0,0.28,0.14,0.38,0.4,0.38c0.15,0,0.35-0.04,0.46-0.08v0.41
		c-0.13,0.03-0.37,0.08-0.55,0.08c-0.5,0-0.79-0.24-0.79-0.72v-2.45h-0.59v-0.4h0.59v-1.47H48.44z"/>
	<path class="st0" d="M51.42,24.56c-0.79,0-1.33,0.63-1.33,1.43c0,0.81,0.54,1.44,1.33,1.44c0.79,0,1.32-0.63,1.32-1.44
		C52.74,25.19,52.2,24.56,51.42,24.56 M51.42,24.14c1,0,1.81,0.79,1.81,1.85c0,1.08-0.81,1.86-1.81,1.86
		c-1.01,0-1.81-0.78-1.81-1.86C49.61,24.93,50.41,24.14,51.42,24.14"/>
	<path class="st0" d="M55.52,24.65c-0.06-0.01-0.12-0.02-0.24-0.02c-0.46,0-0.95,0.32-0.95,1.2v1.91h-0.47v-3.52h0.45v0.67
		c0.14-0.37,0.45-0.71,0.95-0.71c0.12,0,0.19,0.01,0.26,0.02V24.65z"/>
</g>
</svg>
