<svg xmlns="http://www.w3.org/2000/svg" viewBox="0 0 21 21"><defs><style>.cls-1{opacity:0.2;}.cls-2{fill:#4387fd;fill-opacity:0;}</style></defs><title>anyone-with-link</title><g id="Layer_2" data-name="Layer 2"><g id="Layer_1-2" data-name="Layer 1"><g class="cls-1"><path d="M16,11.17c0-1.84-3.67-2.57-5.5-2.57S5,9.33,5,11.17V13H16ZM10.5,7A2.5,2.5,0,1,0,8,4.5,2.49,2.49,0,0,0,10.5,7ZM7,16.5a.5.5,0,0,0,.5.5h6a.51.51,0,0,0,.5-.5.5.5,0,0,0-.5-.5h-6A.5.5,0,0,0,7,16.5Zm1.21,1.7H6.5a1.7,1.7,0,0,1,0-3.4H8.21a.89.89,0,0,1,.79.45h1A2,2,0,0,0,8.21,14H6.5a2.5,2.5,0,0,0,0,5H8.21A2,2,0,0,0,10,17.75H9A.89.89,0,0,1,8.21,18.2ZM14.5,14H12.78A2,2,0,0,0,11,15.25h1a.89.89,0,0,1,.78-.45H14.5a1.7,1.7,0,0,1,0,3.4H12.79a.89.89,0,0,1-.79-.45H11A2,2,0,0,0,12.79,19H14.5a2.5,2.5,0,0,0,0-5Z"/><rect class="cls-2" width="21" height="21"/></g></g></g></svg>