<svg xmlns="http://www.w3.org/2000/svg" viewBox="0 0 21 21"><defs><style>.cls-1{opacity:0.2;}.cls-2{fill:#4387fd;fill-opacity:0;}</style></defs><title>anyone-at-company</title><g id="Layer_2" data-name="Layer 2"><g id="Layer_1-2" data-name="Layer 1"><g class="cls-1"><path d="M8.21,18.2H6.5a1.7,1.7,0,0,1,0-3.4H8.21a.89.89,0,0,1,.79.45h1A2,2,0,0,0,8.21,14H6.5a2.5,2.5,0,0,0,0,5H8.21A2,2,0,0,0,10,17.75H9A.89.89,0,0,1,8.21,18.2ZM7,16.5a.5.5,0,0,0,.5.5h6a.51.51,0,0,0,.5-.5.5.5,0,0,0-.5-.5h-6A.5.5,0,0,0,7,16.5ZM14.5,14H12.78A2,2,0,0,0,11,15.25h1a.89.89,0,0,1,.78-.45H14.5a1.7,1.7,0,0,1,0,3.4H12.79a.89.89,0,0,1-.79-.45H11A2,2,0,0,0,12.79,19H14.5a2.5,2.5,0,0,0,0-5ZM11,6V2H4V13H17V6ZM7,11H6V10H7ZM7,9H6V8H7ZM7,7H6V6H7ZM7,5H6V4H7Zm2,6H8V10H9ZM9,9H8V8H9ZM9,7H8V6H9ZM9,5H8V4H9Zm4,6H12V10h1Zm0-2H12V8h1Zm2,2H14V10h1Zm0-2H14V8h1Z"/><rect class="cls-2" width="21" height="21"/></g></g></g></svg>