<svg width="48" height="48" viewBox="0 0 48 48" fill="none" xmlns="http://www.w3.org/2000/svg">
<path fill-rule="evenodd" clip-rule="evenodd" d="M44.1644 28.5231C44.0721 28.1538 44.0721 27.7846 44.2567 27.4154C45.4567 25.2923 46.1952 22.8923 46.1952 20.3077C46.1952 12.1846 39.1798 5.53845 30.5029 5.53845C26.4413 5.53845 22.749 7.01538 19.9798 9.41537C29.4875 10.5231 36.9644 18.2769 36.9644 27.6923C36.9644 30 36.5029 32.2154 35.6721 34.2461C36.6875 33.8769 37.7029 33.4154 38.626 32.9538C38.9952 32.7692 39.3644 32.6769 39.7337 32.8615L45.3644 35.0769C45.9183 35.2615 46.3798 34.8 46.1952 34.2461L44.1644 28.5231ZM17.5798 12.9231C8.90288 12.9231 1.8875 19.5692 1.8875 27.6923C1.8875 30.2769 2.62596 32.6769 3.82596 34.8C4.01057 35.1692 4.10288 35.5385 3.91827 35.9077L1.8875 41.5385C1.70288 42.0923 2.16442 42.5538 2.71827 42.3692L8.34904 40.1538C8.71827 40.0615 9.0875 40.0615 9.45673 40.2461C11.8567 41.6308 14.626 42.3692 17.5798 42.3692C26.2567 42.3692 33.2721 35.7231 33.2721 27.6C33.2721 19.5692 26.2567 12.9231 17.5798 12.9231Z" fill="#01C3B3"/>
</svg>
