<svg width="48" height="48" viewBox="0 0 48 48" fill="none" xmlns="http://www.w3.org/2000/svg">
<path fill-rule="evenodd" clip-rule="evenodd" d="M24.315 17.5384C20.715 17.5384 17.8535 20.4 17.8535 24C17.8535 27.6 20.715 30.4615 24.315 30.4615C27.915 30.4615 30.7766 27.6 30.7766 24C30.7766 20.4 27.915 17.5384 24.315 17.5384ZM43.6997 29.8154L40.2843 26.9538C40.4689 25.9384 40.5612 24.8307 40.5612 23.8154C40.5612 22.8 40.4689 21.6923 40.2843 20.6769L43.6997 17.8154C44.8074 16.8923 45.1766 15.2307 44.4381 13.9384L42.9612 11.3538C42.4073 10.4307 41.392 9.8769 40.2843 9.8769C39.915 9.8769 39.5458 9.96921 39.2689 10.0615L35.0227 11.6307C33.3612 10.1538 31.515 9.13844 29.5766 8.49228L28.8381 4.15382C28.5612 2.6769 27.2689 1.84613 25.792 1.84613H22.8381C21.3612 1.84613 20.0689 2.6769 19.792 4.15382L19.0535 8.39998C17.0227 9.04613 15.1766 10.1538 13.515 11.5384L9.26889 9.96921C8.89966 9.8769 8.62273 9.78459 8.2535 9.78459C7.14581 9.78459 6.13043 10.3384 5.57658 11.2615L4.09966 13.8461C3.36119 15.1384 3.63812 16.8 4.83812 17.7231L8.2535 20.5846C8.06889 21.6 7.97658 22.7077 7.97658 23.7231C7.97658 24.8307 8.06889 25.8461 8.2535 26.8615L4.83812 29.7231C3.73043 30.6461 3.36119 32.3077 4.09966 33.6L5.57658 36.1846C6.13043 37.1077 7.14581 37.6615 8.2535 37.6615C8.62273 37.6615 8.99196 37.5692 9.26889 37.4769L13.515 35.9077C15.1766 37.3846 17.0227 38.4 18.9612 39.0461L19.6997 43.4769C19.9766 44.9538 21.1766 45.9692 22.7458 45.9692H25.6997C27.1766 45.9692 28.4689 44.8615 28.7458 43.3846L29.4843 38.9538C31.6074 38.2154 33.5458 37.1077 35.2074 35.5384L39.1766 37.1077C39.5458 37.2 39.915 37.2923 40.2843 37.2923C41.392 37.2923 42.4073 36.7384 42.9612 35.8154L44.3458 33.4154C45.1766 32.4 44.8074 30.7384 43.6997 29.8154ZM24.315 34.1538C18.6843 34.1538 14.1612 29.6307 14.1612 24C14.1612 18.3692 18.6843 13.8461 24.315 13.8461C29.9458 13.8461 34.4689 18.3692 34.4689 24C34.4689 29.6307 29.9458 34.1538 24.315 34.1538Z" fill="#FF5D2D"/>
</svg>
