<svg width="48" height="48" viewBox="0 0 48 48" fill="none" xmlns="http://www.w3.org/2000/svg">
<path fill-rule="evenodd" clip-rule="evenodd" d="M40.6154 1.84613H16.6154C14.5846 1.84613 12.9231 3.50767 12.9231 5.53844V7.38459H35.0769C37.1077 7.38459 38.7692 9.04613 38.7692 11.0769V36.9231H40.6154C42.6462 36.9231 44.3077 35.2615 44.3077 33.2307V5.53844C44.3077 3.50767 42.6462 1.84613 40.6154 1.84613ZM35.0769 14.7692C35.0769 12.7384 33.4154 11.0769 31.3846 11.0769H7.38463C5.35386 11.0769 3.69232 12.7384 3.69232 14.7692V42.4615C3.69232 44.4923 5.35386 46.1538 7.38463 46.1538H31.3846C33.4154 46.1538 35.0769 44.4923 35.0769 42.4615V14.7692ZM18.4616 21.2307C18.4616 21.7846 18.0923 22.1538 17.5385 22.1538H10.1539C9.60001 22.1538 9.23078 21.7846 9.23078 21.2307V19.3846C9.23078 18.8307 9.60001 18.4615 10.1539 18.4615H17.5385C18.0923 18.4615 18.4616 18.8307 18.4616 19.3846V21.2307ZM25.8462 36C25.8462 36.5538 25.4769 36.9231 24.9231 36.9231H10.1539C9.60001 36.9231 9.23078 36.5538 9.23078 36V34.1538C9.23078 33.6 9.60001 33.2307 10.1539 33.2307H24.9231C25.4769 33.2307 25.8462 33.6 25.8462 34.1538V36ZM29.5385 28.6154C29.5385 29.1692 29.1692 29.5384 28.6154 29.5384H10.1539C9.60001 29.5384 9.23078 29.1692 9.23078 28.6154V26.7692C9.23078 26.2154 9.60001 25.8461 10.1539 25.8461H28.6154C29.1692 25.8461 29.5385 26.2154 29.5385 26.7692V28.6154Z" fill="#AD7BEE"/>
</svg>
