<svg width="48" height="48" viewBox="0 0 48 48" fill="none" xmlns="http://www.w3.org/2000/svg">
<path fill-rule="evenodd" clip-rule="evenodd" d="M46.1539 5.53844C46.1539 3.50767 44.4923 1.84613 42.4615 1.84613H5.53847C3.5077 1.84613 1.84616 3.50767 1.84616 5.53844V29.5384C1.84616 31.5692 3.5077 33.2307 5.53847 33.2307H42.4615C44.4923 33.2307 46.1539 31.5692 46.1539 29.5384V5.53844ZM40.6154 26.3077C40.6154 27.0461 39.9692 27.6923 39.2308 27.6923H8.76924C8.03078 27.6923 7.38462 27.0461 7.38462 26.3077V8.76921C7.38462 8.03075 8.03078 7.38459 8.76924 7.38459H39.2308C39.9692 7.38459 40.6154 8.03075 40.6154 8.76921V26.3077ZM30.4615 40.6154H27.6923C27.1385 40.6154 26.7692 40.2461 26.7692 39.6923V37.8461C26.7692 37.2923 26.4 36.9231 25.8462 36.9231H22.1539C21.6 36.9231 21.2308 37.2923 21.2308 37.8461V39.6923C21.2308 40.2461 20.8615 40.6154 20.3077 40.6154H17.5385C15.5077 40.6154 13.8462 42.2769 13.8462 44.3077V44.7692C13.8462 45.5077 14.4923 46.1538 15.2308 46.1538H32.7692C33.5077 46.1538 34.1539 45.5077 34.1539 44.7692V44.3077C34.1539 42.2769 32.4923 40.6154 30.4615 40.6154Z" fill="#FCC003"/>
</svg>
