<svg width="24" height="24" viewBox="0 0 24 24" fill="none" xmlns="http://www.w3.org/2000/svg">
<path fill-rule="evenodd" clip-rule="evenodd" d="M4.35144 15.4152L8.45913 19.5229C8.64374 19.7075 8.92067 19.7075 9.10528 19.5229L19.3514 9.23054C19.5361 9.04593 19.5361 8.76901 19.3514 8.58439L15.2899 4.52285C15.1053 4.33824 14.8284 4.33824 14.6437 4.52285L4.35144 14.8152C4.16682 14.9998 4.16682 15.2767 4.35144 15.4152ZM16.6284 2.63054C16.4437 2.81516 16.4437 3.09208 16.6284 3.2767L20.6899 7.33824C20.8745 7.52285 21.1514 7.52285 21.3361 7.33824L22.4899 6.18439C23.2284 5.49208 23.2284 4.38439 22.4899 3.64593L20.3207 1.4767C19.5822 0.738236 18.4284 0.738236 17.6899 1.4767L16.6284 2.63054ZM0.936053 22.2459C0.843746 22.7075 1.25913 23.1229 1.72067 23.0305L6.75144 21.8305C6.93605 21.7844 7.07451 21.6921 7.16682 21.5998L7.25913 21.5075C7.35144 21.4152 7.39759 21.0921 7.21298 20.9075L3.05913 16.7536C2.87451 16.569 2.55144 16.6152 2.45913 16.7075L2.36682 16.7998C2.22836 16.9382 2.18221 17.0767 2.13605 17.2152L0.936053 22.2459Z" fill="#706E6B"/>
</svg>
