<svg width="48" height="48" viewBox="0 0 48 48" fill="none" xmlns="http://www.w3.org/2000/svg">
<path fill-rule="evenodd" clip-rule="evenodd" d="M40.634 30.2939C37.1666 23.2853 29.9366 18.4161 21.6 18.4161C13.2634 18.4161 6.03342 23.2853 2.56599 30.2939C2.34466 30.7366 2.34466 31.253 2.56599 31.6219C6.03342 38.6305 13.2634 43.4997 21.6 43.4997C29.9366 43.4997 37.1666 38.6305 40.634 31.6219C40.8553 31.1792 40.8553 30.7366 40.634 30.2939ZM21.6 39.0732C17.0997 39.0732 13.4847 35.4582 13.4847 30.9579C13.4847 26.4576 17.0997 22.8426 21.6 22.8426C26.1003 22.8426 29.7153 26.4576 29.7153 30.9579C29.7153 35.4582 26.1003 39.0732 21.6 39.0732ZM21.6 25.7937C18.7228 25.7937 16.4357 28.0807 16.4357 30.9579C16.4357 33.8352 18.7228 36.1222 21.6 36.1222C24.4772 36.1222 26.7643 33.8352 26.7643 30.9579C26.7643 28.0807 24.4772 25.7937 21.6 25.7937Z" fill="#45C65A"/>
<path fill-rule="evenodd" clip-rule="evenodd" d="M44.4642 2.40002H33.5317C32.8218 2.40002 32.6089 3.18091 33.1768 3.74883L36.6553 7.29832L30.2662 13.7584C29.9113 14.1133 29.9113 14.7522 30.2662 15.1072L32.8928 17.7338C33.2478 18.0888 33.8157 18.0888 34.2416 17.7338L40.7017 11.2737L44.3222 14.7522C44.8191 15.3912 45.6 15.1782 45.6 14.4683V3.60685C45.6 3.10992 44.9611 2.40002 44.4642 2.40002Z" fill="#45C65A"/>
</svg>
