<svg width="48" height="48" viewBox="0 0 48 48" fill="none" xmlns="http://www.w3.org/2000/svg">
<path fill-rule="evenodd" clip-rule="evenodd" d="M40.634 30.2939C37.1666 23.2853 29.9366 18.4161 21.6 18.4161C13.2634 18.4161 6.03343 23.2853 2.566 30.2939C2.34467 30.7366 2.34467 31.253 2.566 31.6219C6.03343 38.6305 13.2634 43.4997 21.6 43.4997C29.9366 43.4997 37.1666 38.6305 40.634 31.6219C40.8553 31.1792 40.8553 30.7366 40.634 30.2939ZM21.6 39.0732C17.0997 39.0732 13.4847 35.4582 13.4847 30.9579C13.4847 26.4576 17.0997 22.8426 21.6 22.8426C26.1003 22.8426 29.7153 26.4576 29.7153 30.9579C29.7153 35.4582 26.1003 39.0732 21.6 39.0732ZM21.6 25.7937C18.7228 25.7937 16.4357 28.0807 16.4357 30.9579C16.4357 33.8352 18.7228 36.1222 21.6 36.1222C24.4772 36.1222 26.7643 33.8352 26.7643 30.9579C26.7643 28.0807 24.4772 25.7937 21.6 25.7937Z" fill="#45C65A"/>
<path fill-rule="evenodd" clip-rule="evenodd" d="M31.1358 18H42.0683C42.7782 18 42.9911 17.2191 42.4232 16.6512L38.9447 13.1017L45.3338 6.64166C45.6887 6.28671 45.6887 5.64781 45.3338 5.29286L42.7072 2.66624C42.3522 2.31129 41.7843 2.31129 41.3584 2.66624L34.8983 9.1263L31.2778 5.64781C30.7809 5.0089 30 5.22187 30 5.93177V16.7932C30 17.2901 30.6389 18 31.1358 18Z" fill="#45C65A"/>
</svg>
