<svg width="48" height="48" viewBox="0 0 48 48" fill="none" xmlns="http://www.w3.org/2000/svg">
<path fill-rule="evenodd" clip-rule="evenodd" d="M31.1358 18H42.0683C42.7782 18 42.9911 17.2191 42.4232 16.6512L38.9447 13.1017L45.3338 6.64166C45.6887 6.28671 45.6887 5.64781 45.3338 5.29286L42.7072 2.66624C42.3522 2.31129 41.7843 2.31129 41.3584 2.66624L34.8983 9.1263L31.2778 5.64781C30.7809 5.0089 30 5.22187 30 5.93177V16.7932C30 17.2901 30.6389 18 31.1358 18Z" fill="#1B96FF"/>
<path fill-rule="evenodd" clip-rule="evenodd" d="M2.4 30C2.4 21.42 9.42 14.4 18 14.4C26.58 14.4 33.6 21.42 33.6 30C33.6 38.58 26.58 45.6 18 45.6C9.42 45.6 2.4 38.58 2.4 30ZM24.4999 32.6C25.2799 32.6 25.9299 32.08 25.9299 31.3V28.7C25.9299 27.92 25.2799 27.4 24.4999 27.4H20.7299V23.5C20.7299 22.72 20.0799 22.2 19.2999 22.2H16.6999C15.9199 22.2 15.5299 22.72 15.5299 23.5V27.4H11.4999C10.7199 27.4 10.3299 27.92 10.3299 28.7V31.3C10.3299 32.08 10.7199 32.6 11.4999 32.6H15.5299V36.5C15.5299 37.28 15.9199 37.8 16.6999 37.8H19.2999C20.0799 37.8 20.7299 37.28 20.7299 36.5V32.6H24.4999Z" fill="#1B96FF"/>
</svg>
