<svg width="24" height="24" viewBox="0 0 24 24" fill="none" xmlns="http://www.w3.org/2000/svg">
<path fill-rule="evenodd" clip-rule="evenodd" d="M12 0.923096C5.86156 0.923096 0.923096 5.86156 0.923096 12C0.923096 18.1385 5.86156 23.0769 12 23.0769C18.1385 23.0769 23.0769 18.1385 23.0769 12C23.0769 5.86156 18.1385 0.923096 12 0.923096ZM12 20.3077C7.38463 20.3077 3.69233 16.6154 3.69233 12C3.69233 7.38463 7.38463 3.69233 12 3.69233C16.6154 3.69233 20.3077 7.38463 20.3077 12C20.3077 16.6154 16.6154 20.3077 12 20.3077ZM12 6.50771C12.7846 6.50771 13.3846 7.10771 13.3846 7.89233C13.3846 8.67694 12.7846 9.27694 12 9.27694C11.2154 9.27694 10.6154 8.67694 10.6154 7.89233C10.6154 7.10771 11.2154 6.50771 12 6.50771ZM14.3077 16.2C14.3077 16.4308 14.1231 16.6154 13.8462 16.6154H10.1539C9.9231 16.6154 9.69233 16.4769 9.69233 16.2V15.2769C9.69233 15.0462 9.87694 14.7693 10.1539 14.7693C10.3846 14.7693 10.6154 14.6308 10.6154 14.3539V12.5077C10.6154 12.2769 10.4308 12 10.1539 12C9.9231 12 9.69233 11.8616 9.69233 11.5846V10.6616C9.69233 10.4308 9.87694 10.1539 10.1539 10.1539H12.9231C13.1539 10.1539 13.3846 10.3846 13.3846 10.6616V14.3539C13.3846 14.5846 13.5693 14.7693 13.8462 14.7693C14.0769 14.7693 14.3077 15 14.3077 15.2769V16.2Z" fill="#706E6B"/>
</svg>
