<svg width="48" height="48" viewBox="0 0 48 48" fill="none" xmlns="http://www.w3.org/2000/svg">
<path fill-rule="evenodd" clip-rule="evenodd" d="M44.4642 2.40002H33.5317C32.8218 2.40002 32.6089 3.18091 33.1768 3.74883L36.6553 7.29832L30.2662 13.7584C29.9113 14.1133 29.9113 14.7522 30.2662 15.1072L32.8928 17.7338C33.2478 18.0888 33.8157 18.0888 34.2416 17.7338L40.7017 11.2737L44.3222 14.7522C44.8191 15.3912 45.6 15.1782 45.6 14.4683V3.60685C45.6 3.10992 44.9611 2.40002 44.4642 2.40002Z" fill="#1B96FF"/>
<path fill-rule="evenodd" clip-rule="evenodd" d="M2.39999 30C2.39999 21.42 9.41999 14.4 18 14.4C26.58 14.4 33.6 21.42 33.6 30C33.6 38.58 26.58 45.6 18 45.6C9.41999 45.6 2.39999 38.58 2.39999 30ZM24.4999 32.6C25.2799 32.6 25.9299 32.08 25.9299 31.3V28.7C25.9299 27.92 25.2799 27.4 24.4999 27.4H20.7299V23.5C20.7299 22.72 20.0799 22.2 19.2999 22.2H16.6999C15.9199 22.2 15.5299 22.72 15.5299 23.5V27.4H11.4999C10.7199 27.4 10.3299 27.92 10.3299 28.7V31.3C10.3299 32.08 10.7199 32.6 11.4999 32.6H15.5299V36.5C15.5299 37.28 15.9199 37.8 16.6999 37.8H19.2999C20.0799 37.8 20.7299 37.28 20.7299 36.5V32.6H24.4999Z" fill="#1B96FF"/>
</svg>
