<svg width="14" height="14" viewBox="0 0 14 14" fill="none" xmlns="http://www.w3.org/2000/svg">
<path fill-rule="evenodd" clip-rule="evenodd" d="M8.23071 7.92326H13.3076C13.5538 7.92326 13.7692 7.70788 13.7692 7.46173V6.53865C13.7692 6.2925 13.5538 6.07711 13.3076 6.07711H8.23071C8.0461 6.07711 7.92302 5.95403 7.92302 5.76942V0.692496C7.92302 0.446342 7.70764 0.230957 7.46148 0.230957H6.53841C6.29225 0.230957 6.07687 0.446342 6.07687 0.692496V5.76942C6.07687 5.95403 5.95379 6.07711 5.76917 6.07711H0.692251C0.446098 6.07711 0.230713 6.2925 0.230713 6.53865V7.46173C0.230713 7.70788 0.446098 7.92326 0.692251 7.92326H5.76917C5.95379 7.92326 6.07687 8.04634 6.07687 8.23096V13.3079C6.07687 13.554 6.29225 13.7694 6.53841 13.7694H7.46148C7.70764 13.7694 7.92302 13.554 7.92302 13.3079V8.23096C7.92302 8.04634 8.0461 7.92326 8.23071 7.92326Z" fill="#0070D2"/>
</svg>
