<svg width="21" height="24" viewBox="0 0 21 24" fill="none" xmlns="http://www.w3.org/2000/svg">
<path fill-rule="evenodd" clip-rule="evenodd" d="M19.4616 4.61516H13.6924V2.76901C13.6924 1.75362 12.8616 0.922852 11.8462 0.922852H9.07698C8.0616 0.922852 7.23083 1.75362 7.23083 2.76901V4.61516H1.46159C1.09236 4.61516 0.769287 4.93824 0.769287 5.30747V6.69208C0.769287 7.06131 1.09236 7.38439 1.46159 7.38439H19.4616C19.8308 7.38439 20.1539 7.06131 20.1539 6.69208V5.30747C20.1539 4.93824 19.8308 4.61516 19.4616 4.61516ZM9.07698 3.23054C9.07698 2.95362 9.26159 2.76901 9.53852 2.76901H11.3847C11.6616 2.76901 11.8462 2.95362 11.8462 3.23054V4.61516H9.07698V3.23054ZM17.6154 9.23054H3.30775C2.93852 9.23054 2.61544 9.55362 2.61544 9.92285V20.769C2.61544 22.0613 3.63083 23.0767 4.92313 23.0767H16.0001C17.2924 23.0767 18.3077 22.0613 18.3077 20.769V9.92285C18.3077 9.55362 17.9847 9.23054 17.6154 9.23054ZM9.07698 19.3844C9.07698 19.6613 8.89236 19.8459 8.61544 19.8459H7.69236C7.41544 19.8459 7.23083 19.6613 7.23083 19.3844V12.9229C7.23083 12.6459 7.41544 12.4613 7.69236 12.4613H8.61544C8.89236 12.4613 9.07698 12.6459 9.07698 12.9229V19.3844ZM13.6924 19.3844C13.6924 19.6613 13.5077 19.8459 13.2308 19.8459H12.3077C12.0308 19.8459 11.8462 19.6613 11.8462 19.3844V12.9229C11.8462 12.6459 12.0308 12.4613 12.3077 12.4613H13.2308C13.5077 12.4613 13.6924 12.6459 13.6924 12.9229V19.3844Z" fill="#C23934"/>
</svg>
